G75*
%MOIN*%
%OFA0B0*%
%FSLAX25Y25*%
%IPPOS*%
%LPD*%
%AMOC8*
5,1,8,0,0,1.08239X$1,22.5*
%
%ADD10C,0.10400*%
%ADD11C,0.08274*%
%ADD12R,0.08000X0.03000*%
%ADD13R,0.03000X0.08000*%
%ADD14C,0.00975*%
%ADD15R,0.02900X0.05400*%
%ADD16C,0.02267*%
%ADD17C,0.02169*%
%ADD18R,0.05400X0.05400*%
%ADD19C,0.06900*%
%ADD20C,0.01450*%
%ADD21R,0.12400X0.10400*%
%ADD22R,0.12900X0.10400*%
%ADD23R,0.04337X0.03550*%
%ADD24C,0.00850*%
%ADD25R,0.01600X0.04300*%
%ADD26R,0.18510X0.04337*%
%ADD27R,0.13786X0.06699*%
%ADD28R,0.02565X0.05124*%
%ADD29C,0.08400*%
%ADD30R,0.41384X0.42920*%
%ADD31R,0.08900X0.04600*%
%ADD32R,0.08900X0.11199*%
%ADD33R,0.05124X0.03550*%
%ADD34R,0.06900X0.12400*%
%ADD35R,0.05400X0.02600*%
%ADD36R,0.02600X0.05400*%
%ADD37R,0.07093X0.03156*%
%ADD38C,0.07800*%
%ADD39R,0.06900X0.06900*%
D10*
X0037667Y0013800D03*
D11*
X0014667Y0022300D03*
X0014667Y0161300D03*
X0268667Y0161300D03*
X0268667Y0022300D03*
D12*
X0168911Y0029804D03*
X0168911Y0033741D03*
X0168911Y0037678D03*
X0168911Y0041615D03*
X0168911Y0045552D03*
X0168911Y0049489D03*
X0168911Y0053426D03*
X0168911Y0057363D03*
X0168911Y0061300D03*
X0168911Y0065237D03*
X0168911Y0069174D03*
X0168911Y0073111D03*
X0168911Y0077048D03*
X0168911Y0080985D03*
X0168911Y0084922D03*
X0168911Y0088859D03*
X0168911Y0092796D03*
X0074423Y0092796D03*
X0074423Y0088859D03*
X0074423Y0084922D03*
X0074423Y0080985D03*
X0074423Y0077048D03*
X0074423Y0073111D03*
X0074423Y0069174D03*
X0074423Y0065237D03*
X0074423Y0061300D03*
X0074423Y0057363D03*
X0074423Y0053426D03*
X0074423Y0049489D03*
X0074423Y0045552D03*
X0074423Y0041615D03*
X0074423Y0037678D03*
X0074423Y0033741D03*
X0074423Y0029804D03*
D13*
X0090171Y0014056D03*
X0094108Y0014056D03*
X0098045Y0014056D03*
X0101982Y0014056D03*
X0105919Y0014056D03*
X0109856Y0014056D03*
X0113793Y0014056D03*
X0117730Y0014056D03*
X0121667Y0014056D03*
X0125604Y0014056D03*
X0129541Y0014056D03*
X0133478Y0014056D03*
X0137415Y0014056D03*
X0141352Y0014056D03*
X0145289Y0014056D03*
X0149226Y0014056D03*
X0153163Y0014056D03*
X0153163Y0108544D03*
X0149226Y0108544D03*
X0145289Y0108544D03*
X0141352Y0108544D03*
X0137415Y0108544D03*
X0133478Y0108544D03*
X0129541Y0108544D03*
X0125604Y0108544D03*
X0121667Y0108544D03*
X0117730Y0108544D03*
X0113793Y0108544D03*
X0109856Y0108544D03*
X0105919Y0108544D03*
X0101982Y0108544D03*
X0098045Y0108544D03*
X0094108Y0108544D03*
X0090171Y0108544D03*
D14*
X0051031Y0109763D02*
X0048105Y0109763D01*
X0051031Y0109763D02*
X0051031Y0106837D01*
X0048105Y0106837D01*
X0048105Y0109763D01*
X0048105Y0107811D02*
X0051031Y0107811D01*
X0051031Y0108785D02*
X0048105Y0108785D01*
X0048105Y0109759D02*
X0051031Y0109759D01*
X0045031Y0109763D02*
X0042105Y0109763D01*
X0045031Y0109763D02*
X0045031Y0106837D01*
X0042105Y0106837D01*
X0042105Y0109763D01*
X0042105Y0107811D02*
X0045031Y0107811D01*
X0045031Y0108785D02*
X0042105Y0108785D01*
X0042105Y0109759D02*
X0045031Y0109759D01*
X0035304Y0109337D02*
X0035304Y0112263D01*
X0038230Y0112263D01*
X0038230Y0109337D01*
X0035304Y0109337D01*
X0035304Y0110311D02*
X0038230Y0110311D01*
X0038230Y0111285D02*
X0035304Y0111285D01*
X0035304Y0112259D02*
X0038230Y0112259D01*
X0035304Y0106263D02*
X0035304Y0103337D01*
X0035304Y0106263D02*
X0038230Y0106263D01*
X0038230Y0103337D01*
X0035304Y0103337D01*
X0035304Y0104311D02*
X0038230Y0104311D01*
X0038230Y0105285D02*
X0035304Y0105285D01*
X0035304Y0106259D02*
X0038230Y0106259D01*
X0042105Y0103763D02*
X0045031Y0103763D01*
X0045031Y0100837D01*
X0042105Y0100837D01*
X0042105Y0103763D01*
X0042105Y0101811D02*
X0045031Y0101811D01*
X0045031Y0102785D02*
X0042105Y0102785D01*
X0042105Y0103759D02*
X0045031Y0103759D01*
X0048105Y0103763D02*
X0051031Y0103763D01*
X0051031Y0100837D01*
X0048105Y0100837D01*
X0048105Y0103763D01*
X0048105Y0101811D02*
X0051031Y0101811D01*
X0051031Y0102785D02*
X0048105Y0102785D01*
X0048105Y0103759D02*
X0051031Y0103759D01*
X0035304Y0100263D02*
X0035304Y0097337D01*
X0035304Y0100263D02*
X0038230Y0100263D01*
X0038230Y0097337D01*
X0035304Y0097337D01*
X0035304Y0098311D02*
X0038230Y0098311D01*
X0038230Y0099285D02*
X0035304Y0099285D01*
X0035304Y0100259D02*
X0038230Y0100259D01*
X0035304Y0094263D02*
X0035304Y0091337D01*
X0035304Y0094263D02*
X0038230Y0094263D01*
X0038230Y0091337D01*
X0035304Y0091337D01*
X0035304Y0092311D02*
X0038230Y0092311D01*
X0038230Y0093285D02*
X0035304Y0093285D01*
X0035304Y0094259D02*
X0038230Y0094259D01*
X0198204Y0095263D02*
X0198204Y0092337D01*
X0198204Y0095263D02*
X0201130Y0095263D01*
X0201130Y0092337D01*
X0198204Y0092337D01*
X0198204Y0093311D02*
X0201130Y0093311D01*
X0201130Y0094285D02*
X0198204Y0094285D01*
X0198204Y0095259D02*
X0201130Y0095259D01*
X0198204Y0089263D02*
X0198204Y0086337D01*
X0198204Y0089263D02*
X0201130Y0089263D01*
X0201130Y0086337D01*
X0198204Y0086337D01*
X0198204Y0087311D02*
X0201130Y0087311D01*
X0201130Y0088285D02*
X0198204Y0088285D01*
X0198204Y0089259D02*
X0201130Y0089259D01*
X0221204Y0087837D02*
X0221204Y0090763D01*
X0224130Y0090763D01*
X0224130Y0087837D01*
X0221204Y0087837D01*
X0221204Y0088811D02*
X0224130Y0088811D01*
X0224130Y0089785D02*
X0221204Y0089785D01*
X0221204Y0090759D02*
X0224130Y0090759D01*
X0221204Y0093837D02*
X0221204Y0096763D01*
X0224130Y0096763D01*
X0224130Y0093837D01*
X0221204Y0093837D01*
X0221204Y0094811D02*
X0224130Y0094811D01*
X0224130Y0095785D02*
X0221204Y0095785D01*
X0221204Y0096759D02*
X0224130Y0096759D01*
X0231204Y0097263D02*
X0231204Y0094337D01*
X0231204Y0097263D02*
X0234130Y0097263D01*
X0234130Y0094337D01*
X0231204Y0094337D01*
X0231204Y0095311D02*
X0234130Y0095311D01*
X0234130Y0096285D02*
X0231204Y0096285D01*
X0231204Y0097259D02*
X0234130Y0097259D01*
X0231204Y0091263D02*
X0231204Y0088337D01*
X0231204Y0091263D02*
X0234130Y0091263D01*
X0234130Y0088337D01*
X0231204Y0088337D01*
X0231204Y0089311D02*
X0234130Y0089311D01*
X0234130Y0090285D02*
X0231204Y0090285D01*
X0231204Y0091259D02*
X0234130Y0091259D01*
X0242204Y0091263D02*
X0242204Y0088337D01*
X0242204Y0091263D02*
X0245130Y0091263D01*
X0245130Y0088337D01*
X0242204Y0088337D01*
X0242204Y0089311D02*
X0245130Y0089311D01*
X0245130Y0090285D02*
X0242204Y0090285D01*
X0242204Y0091259D02*
X0245130Y0091259D01*
X0242204Y0094337D02*
X0242204Y0097263D01*
X0245130Y0097263D01*
X0245130Y0094337D01*
X0242204Y0094337D01*
X0242204Y0095311D02*
X0245130Y0095311D01*
X0245130Y0096285D02*
X0242204Y0096285D01*
X0242204Y0097259D02*
X0245130Y0097259D01*
X0237204Y0034263D02*
X0237204Y0031337D01*
X0237204Y0034263D02*
X0240130Y0034263D01*
X0240130Y0031337D01*
X0237204Y0031337D01*
X0237204Y0032311D02*
X0240130Y0032311D01*
X0240130Y0033285D02*
X0237204Y0033285D01*
X0237204Y0034259D02*
X0240130Y0034259D01*
X0237204Y0028263D02*
X0237204Y0025337D01*
X0237204Y0028263D02*
X0240130Y0028263D01*
X0240130Y0025337D01*
X0237204Y0025337D01*
X0237204Y0026311D02*
X0240130Y0026311D01*
X0240130Y0027285D02*
X0237204Y0027285D01*
X0237204Y0028259D02*
X0240130Y0028259D01*
X0218204Y0028763D02*
X0218204Y0025837D01*
X0218204Y0028763D02*
X0221130Y0028763D01*
X0221130Y0025837D01*
X0218204Y0025837D01*
X0218204Y0026811D02*
X0221130Y0026811D01*
X0221130Y0027785D02*
X0218204Y0027785D01*
X0218204Y0028759D02*
X0221130Y0028759D01*
X0218204Y0031837D02*
X0218204Y0034763D01*
X0221130Y0034763D01*
X0221130Y0031837D01*
X0218204Y0031837D01*
X0218204Y0032811D02*
X0221130Y0032811D01*
X0221130Y0033785D02*
X0218204Y0033785D01*
X0218204Y0034759D02*
X0221130Y0034759D01*
X0209204Y0034763D02*
X0209204Y0031837D01*
X0209204Y0034763D02*
X0212130Y0034763D01*
X0212130Y0031837D01*
X0209204Y0031837D01*
X0209204Y0032811D02*
X0212130Y0032811D01*
X0212130Y0033785D02*
X0209204Y0033785D01*
X0209204Y0034759D02*
X0212130Y0034759D01*
X0200204Y0034763D02*
X0200204Y0031837D01*
X0200204Y0034763D02*
X0203130Y0034763D01*
X0203130Y0031837D01*
X0200204Y0031837D01*
X0200204Y0032811D02*
X0203130Y0032811D01*
X0203130Y0033785D02*
X0200204Y0033785D01*
X0200204Y0034759D02*
X0203130Y0034759D01*
X0200204Y0028763D02*
X0200204Y0025837D01*
X0200204Y0028763D02*
X0203130Y0028763D01*
X0203130Y0025837D01*
X0200204Y0025837D01*
X0200204Y0026811D02*
X0203130Y0026811D01*
X0203130Y0027785D02*
X0200204Y0027785D01*
X0200204Y0028759D02*
X0203130Y0028759D01*
X0209204Y0028763D02*
X0209204Y0025837D01*
X0209204Y0028763D02*
X0212130Y0028763D01*
X0212130Y0025837D01*
X0209204Y0025837D01*
X0209204Y0026811D02*
X0212130Y0026811D01*
X0212130Y0027785D02*
X0209204Y0027785D01*
X0209204Y0028759D02*
X0212130Y0028759D01*
D15*
X0022417Y0093300D03*
X0013917Y0093300D03*
X0013917Y0108300D03*
X0022417Y0108300D03*
D16*
X0059270Y0109840D02*
X0066064Y0109840D01*
X0066064Y0107572D01*
X0059270Y0107572D01*
X0059270Y0109840D01*
X0059270Y0109838D02*
X0066064Y0109838D01*
X0066064Y0098028D02*
X0059270Y0098028D01*
X0066064Y0098028D02*
X0066064Y0095760D01*
X0059270Y0095760D01*
X0059270Y0098028D01*
X0059270Y0098026D02*
X0066064Y0098026D01*
X0177170Y0020672D02*
X0183964Y0020672D01*
X0177170Y0020672D02*
X0177170Y0022940D01*
X0183964Y0022940D01*
X0183964Y0020672D01*
X0183964Y0022938D02*
X0177170Y0022938D01*
X0177170Y0008860D02*
X0183964Y0008860D01*
X0177170Y0008860D02*
X0177170Y0011128D01*
X0183964Y0011128D01*
X0183964Y0008860D01*
X0183964Y0011126D02*
X0177170Y0011126D01*
D17*
X0175750Y0016984D02*
X0173384Y0016984D01*
X0175750Y0016984D02*
X0175750Y0014816D01*
X0173384Y0014816D01*
X0173384Y0016984D01*
X0175750Y0016984D01*
X0069850Y0101716D02*
X0067484Y0101716D01*
X0067484Y0103884D01*
X0069850Y0103884D01*
X0069850Y0101716D01*
X0069850Y0103884D02*
X0067484Y0103884D01*
D18*
X0066667Y0012300D03*
X0056667Y0012300D03*
D19*
X0180167Y0028800D03*
X0180167Y0038800D03*
X0180167Y0048800D03*
X0180167Y0058800D03*
X0180167Y0068800D03*
X0180167Y0078800D03*
X0180167Y0088800D03*
X0180167Y0098800D03*
X0180167Y0108800D03*
X0255167Y0118800D03*
X0255167Y0128800D03*
X0255167Y0138800D03*
D20*
X0169942Y0011025D02*
X0168492Y0011025D01*
X0169942Y0011025D02*
X0169942Y0009575D01*
X0168492Y0009575D01*
X0168492Y0011025D01*
X0168492Y0011024D02*
X0169942Y0011024D01*
X0166442Y0011025D02*
X0164992Y0011025D01*
X0166442Y0011025D02*
X0166442Y0009575D01*
X0164992Y0009575D01*
X0164992Y0011025D01*
X0164992Y0011024D02*
X0166442Y0011024D01*
X0162142Y0011025D02*
X0160692Y0011025D01*
X0162142Y0011025D02*
X0162142Y0009575D01*
X0160692Y0009575D01*
X0160692Y0011025D01*
X0160692Y0011024D02*
X0162142Y0011024D01*
X0158642Y0011025D02*
X0157192Y0011025D01*
X0158642Y0011025D02*
X0158642Y0009575D01*
X0157192Y0009575D01*
X0157192Y0011025D01*
X0157192Y0011024D02*
X0158642Y0011024D01*
D21*
X0059753Y0083867D03*
D22*
X0059753Y0058867D03*
D23*
X0050702Y0094414D03*
X0042828Y0094414D03*
D24*
X0032192Y0094075D02*
X0032192Y0091525D01*
X0029142Y0091525D01*
X0029142Y0094075D01*
X0032192Y0094075D01*
X0032192Y0092374D02*
X0029142Y0092374D01*
X0029142Y0093223D02*
X0032192Y0093223D01*
X0032192Y0094072D02*
X0029142Y0094072D01*
X0032192Y0097525D02*
X0032192Y0100075D01*
X0032192Y0097525D02*
X0029142Y0097525D01*
X0029142Y0100075D01*
X0032192Y0100075D01*
X0032192Y0098374D02*
X0029142Y0098374D01*
X0029142Y0099223D02*
X0032192Y0099223D01*
X0032192Y0100072D02*
X0029142Y0100072D01*
X0032192Y0103525D02*
X0032192Y0106075D01*
X0032192Y0103525D02*
X0029142Y0103525D01*
X0029142Y0106075D01*
X0032192Y0106075D01*
X0032192Y0104374D02*
X0029142Y0104374D01*
X0029142Y0105223D02*
X0032192Y0105223D01*
X0032192Y0106072D02*
X0029142Y0106072D01*
X0032192Y0109525D02*
X0032192Y0112075D01*
X0032192Y0109525D02*
X0029142Y0109525D01*
X0029142Y0112075D01*
X0032192Y0112075D01*
X0032192Y0110374D02*
X0029142Y0110374D01*
X0029142Y0111223D02*
X0032192Y0111223D01*
X0032192Y0112072D02*
X0029142Y0112072D01*
X0211692Y0095575D02*
X0211692Y0093025D01*
X0208642Y0093025D01*
X0208642Y0095575D01*
X0211692Y0095575D01*
X0211692Y0093874D02*
X0208642Y0093874D01*
X0208642Y0094723D02*
X0211692Y0094723D01*
X0211692Y0095572D02*
X0208642Y0095572D01*
X0211692Y0089575D02*
X0211692Y0087025D01*
X0208642Y0087025D01*
X0208642Y0089575D01*
X0211692Y0089575D01*
X0211692Y0087874D02*
X0208642Y0087874D01*
X0208642Y0088723D02*
X0211692Y0088723D01*
X0211692Y0089572D02*
X0208642Y0089572D01*
X0214192Y0104525D02*
X0214192Y0107075D01*
X0214192Y0104525D02*
X0211142Y0104525D01*
X0211142Y0107075D01*
X0214192Y0107075D01*
X0214192Y0105374D02*
X0211142Y0105374D01*
X0211142Y0106223D02*
X0214192Y0106223D01*
X0214192Y0107072D02*
X0211142Y0107072D01*
X0214192Y0110525D02*
X0214192Y0113075D01*
X0214192Y0110525D02*
X0211142Y0110525D01*
X0211142Y0113075D01*
X0214192Y0113075D01*
X0214192Y0111374D02*
X0211142Y0111374D01*
X0211142Y0112223D02*
X0214192Y0112223D01*
X0214192Y0113072D02*
X0211142Y0113072D01*
X0231192Y0034075D02*
X0231192Y0031525D01*
X0228142Y0031525D01*
X0228142Y0034075D01*
X0231192Y0034075D01*
X0231192Y0032374D02*
X0228142Y0032374D01*
X0228142Y0033223D02*
X0231192Y0033223D01*
X0231192Y0034072D02*
X0228142Y0034072D01*
X0231192Y0028075D02*
X0231192Y0025525D01*
X0228142Y0025525D01*
X0228142Y0028075D01*
X0231192Y0028075D01*
X0231192Y0026374D02*
X0228142Y0026374D01*
X0228142Y0027223D02*
X0231192Y0027223D01*
X0231192Y0028072D02*
X0228142Y0028072D01*
D25*
X0064344Y0021313D03*
X0061785Y0021313D03*
X0059226Y0021313D03*
X0056667Y0021313D03*
X0054108Y0021313D03*
X0051549Y0021313D03*
X0048989Y0021313D03*
X0048989Y0044287D03*
X0051549Y0044287D03*
X0054108Y0044287D03*
X0056667Y0044287D03*
X0059226Y0044287D03*
X0061785Y0044287D03*
X0064344Y0044287D03*
D26*
X0037234Y0067363D03*
X0037234Y0075237D03*
D27*
X0016761Y0084686D03*
X0016761Y0057914D03*
D28*
X0232427Y0107181D03*
X0236167Y0107181D03*
X0239907Y0107181D03*
X0239907Y0117419D03*
X0232427Y0117419D03*
D29*
X0064667Y0137800D02*
X0064667Y0145800D01*
X0040167Y0145800D02*
X0040167Y0137800D01*
X0048167Y0122300D02*
X0056167Y0122300D01*
D30*
X0104167Y0139300D03*
D31*
X0136967Y0139300D03*
X0136967Y0132600D03*
X0136967Y0125900D03*
X0136967Y0146000D03*
X0136967Y0152700D03*
D32*
X0212966Y0146800D03*
X0230367Y0146800D03*
D33*
X0199667Y0112950D03*
X0199667Y0106650D03*
D34*
X0192667Y0129300D03*
X0161667Y0130300D03*
X0192667Y0150300D03*
X0161667Y0151300D03*
D35*
X0210267Y0074824D03*
X0210267Y0071674D03*
X0210267Y0068524D03*
X0210267Y0065375D03*
X0210267Y0062225D03*
X0210267Y0059076D03*
X0210267Y0055926D03*
X0210267Y0052776D03*
X0244067Y0052776D03*
X0244067Y0055926D03*
X0244067Y0059076D03*
X0244067Y0062225D03*
X0244067Y0065375D03*
X0244067Y0068524D03*
X0244067Y0071674D03*
X0244067Y0074824D03*
D36*
X0238190Y0080700D03*
X0235041Y0080700D03*
X0231891Y0080700D03*
X0228741Y0080700D03*
X0225592Y0080700D03*
X0222442Y0080700D03*
X0219293Y0080700D03*
X0216143Y0080700D03*
X0216143Y0046900D03*
X0219293Y0046900D03*
X0222442Y0046900D03*
X0225592Y0046900D03*
X0228741Y0046900D03*
X0231891Y0046900D03*
X0235041Y0046900D03*
X0238190Y0046900D03*
D37*
X0250667Y0034524D03*
X0250667Y0029800D03*
X0250667Y0025076D03*
D38*
X0251667Y0010800D03*
X0241667Y0010800D03*
X0231667Y0010800D03*
X0221667Y0010800D03*
X0211667Y0010800D03*
X0261667Y0010800D03*
D39*
X0255167Y0148800D03*
M02*
