G75*
%MOIN*%
%OFA0B0*%
%FSLAX25Y25*%
%IPPOS*%
%LPD*%
%AMOC8*
5,1,8,0,0,1.08239X$1,22.5*
%
%ADD10C,0.10400*%
%ADD11C,0.08274*%
%ADD12R,0.08274X0.05124*%
%ADD13C,0.06900*%
%ADD14R,0.05518X0.02959*%
%ADD15R,0.04337X0.03550*%
%ADD16R,0.14180X0.04337*%
%ADD17C,0.08400*%
%ADD18C,0.07800*%
%ADD19R,0.06900X0.06900*%
D10*
X0037667Y0013800D03*
D11*
X0014667Y0022300D03*
X0014667Y0161300D03*
X0268667Y0161300D03*
X0268667Y0022300D03*
D12*
X0169812Y0027300D03*
X0169812Y0037300D03*
X0169812Y0047300D03*
X0070521Y0047300D03*
X0070521Y0037300D03*
X0070521Y0027300D03*
D13*
X0180167Y0028800D03*
X0180167Y0038800D03*
X0180167Y0048800D03*
X0180167Y0058800D03*
X0180167Y0068800D03*
X0180167Y0078800D03*
X0180167Y0088800D03*
X0180167Y0098800D03*
X0180167Y0108800D03*
X0255167Y0118800D03*
X0255167Y0128800D03*
X0255167Y0138800D03*
D14*
X0131997Y0091001D03*
X0131997Y0087261D03*
X0131997Y0083520D03*
X0122942Y0083520D03*
X0122942Y0091001D03*
D15*
X0147730Y0090800D03*
X0155604Y0090800D03*
X0155604Y0083800D03*
X0147730Y0083800D03*
D16*
X0016761Y0077206D03*
X0016761Y0065394D03*
D17*
X0048167Y0122300D02*
X0056167Y0122300D01*
X0064667Y0137800D02*
X0064667Y0145800D01*
X0040167Y0145800D02*
X0040167Y0137800D01*
D18*
X0211667Y0010800D03*
X0221667Y0010800D03*
X0231667Y0010800D03*
X0241667Y0010800D03*
X0251667Y0010800D03*
X0261667Y0010800D03*
D19*
X0255167Y0148800D03*
M02*
