G75*
%MOIN*%
%OFA0B0*%
%FSLAX25Y25*%
%IPPOS*%
%LPD*%
%AMOC8*
5,1,8,0,0,1.08239X$1,22.5*
%
%ADD10R,0.07600X0.02600*%
%ADD11R,0.02600X0.07600*%
%ADD12C,0.00875*%
%ADD13R,0.02500X0.05000*%
%ADD14C,0.02067*%
%ADD15C,0.01969*%
%ADD16R,0.05000X0.05000*%
%ADD17C,0.01250*%
%ADD18R,0.12000X0.10000*%
%ADD19R,0.12500X0.10000*%
%ADD20R,0.03937X0.03150*%
%ADD21C,0.00750*%
%ADD22R,0.01200X0.03900*%
%ADD23R,0.18110X0.03937*%
%ADD24R,0.13386X0.06299*%
%ADD25R,0.02165X0.04724*%
%ADD26R,0.40984X0.42520*%
%ADD27R,0.08500X0.04200*%
%ADD28R,0.08500X0.10799*%
%ADD29R,0.04724X0.03150*%
%ADD30R,0.06500X0.12000*%
%ADD31R,0.05000X0.02200*%
%ADD32R,0.02200X0.05000*%
%ADD33R,0.06693X0.02756*%
D10*
X0074423Y0029804D03*
X0074423Y0033741D03*
X0074423Y0037678D03*
X0074423Y0041615D03*
X0074423Y0045552D03*
X0074423Y0049489D03*
X0074423Y0053426D03*
X0074423Y0057363D03*
X0074423Y0061300D03*
X0074423Y0065237D03*
X0074423Y0069174D03*
X0074423Y0073111D03*
X0074423Y0077048D03*
X0074423Y0080985D03*
X0074423Y0084922D03*
X0074423Y0088859D03*
X0074423Y0092796D03*
X0168911Y0092796D03*
X0168911Y0088859D03*
X0168911Y0084922D03*
X0168911Y0080985D03*
X0168911Y0077048D03*
X0168911Y0073111D03*
X0168911Y0069174D03*
X0168911Y0065237D03*
X0168911Y0061300D03*
X0168911Y0057363D03*
X0168911Y0053426D03*
X0168911Y0049489D03*
X0168911Y0045552D03*
X0168911Y0041615D03*
X0168911Y0037678D03*
X0168911Y0033741D03*
X0168911Y0029804D03*
D11*
X0153163Y0014056D03*
X0149226Y0014056D03*
X0145289Y0014056D03*
X0141352Y0014056D03*
X0137415Y0014056D03*
X0133478Y0014056D03*
X0129541Y0014056D03*
X0125604Y0014056D03*
X0121667Y0014056D03*
X0117730Y0014056D03*
X0113793Y0014056D03*
X0109856Y0014056D03*
X0105919Y0014056D03*
X0101982Y0014056D03*
X0098045Y0014056D03*
X0094108Y0014056D03*
X0090171Y0014056D03*
X0090171Y0108544D03*
X0094108Y0108544D03*
X0098045Y0108544D03*
X0101982Y0108544D03*
X0105919Y0108544D03*
X0109856Y0108544D03*
X0113793Y0108544D03*
X0117730Y0108544D03*
X0121667Y0108544D03*
X0125604Y0108544D03*
X0129541Y0108544D03*
X0133478Y0108544D03*
X0137415Y0108544D03*
X0141352Y0108544D03*
X0145289Y0108544D03*
X0149226Y0108544D03*
X0153163Y0108544D03*
D12*
X0198354Y0095113D02*
X0198354Y0092487D01*
X0198354Y0095113D02*
X0200980Y0095113D01*
X0200980Y0092487D01*
X0198354Y0092487D01*
X0198354Y0093361D02*
X0200980Y0093361D01*
X0200980Y0094235D02*
X0198354Y0094235D01*
X0198354Y0095109D02*
X0200980Y0095109D01*
X0198354Y0089113D02*
X0198354Y0086487D01*
X0198354Y0089113D02*
X0200980Y0089113D01*
X0200980Y0086487D01*
X0198354Y0086487D01*
X0198354Y0087361D02*
X0200980Y0087361D01*
X0200980Y0088235D02*
X0198354Y0088235D01*
X0198354Y0089109D02*
X0200980Y0089109D01*
X0221354Y0087987D02*
X0221354Y0090613D01*
X0223980Y0090613D01*
X0223980Y0087987D01*
X0221354Y0087987D01*
X0221354Y0088861D02*
X0223980Y0088861D01*
X0223980Y0089735D02*
X0221354Y0089735D01*
X0221354Y0090609D02*
X0223980Y0090609D01*
X0221354Y0093987D02*
X0221354Y0096613D01*
X0223980Y0096613D01*
X0223980Y0093987D01*
X0221354Y0093987D01*
X0221354Y0094861D02*
X0223980Y0094861D01*
X0223980Y0095735D02*
X0221354Y0095735D01*
X0221354Y0096609D02*
X0223980Y0096609D01*
X0231354Y0097113D02*
X0231354Y0094487D01*
X0231354Y0097113D02*
X0233980Y0097113D01*
X0233980Y0094487D01*
X0231354Y0094487D01*
X0231354Y0095361D02*
X0233980Y0095361D01*
X0233980Y0096235D02*
X0231354Y0096235D01*
X0231354Y0097109D02*
X0233980Y0097109D01*
X0231354Y0091113D02*
X0231354Y0088487D01*
X0231354Y0091113D02*
X0233980Y0091113D01*
X0233980Y0088487D01*
X0231354Y0088487D01*
X0231354Y0089361D02*
X0233980Y0089361D01*
X0233980Y0090235D02*
X0231354Y0090235D01*
X0231354Y0091109D02*
X0233980Y0091109D01*
X0242354Y0091113D02*
X0242354Y0088487D01*
X0242354Y0091113D02*
X0244980Y0091113D01*
X0244980Y0088487D01*
X0242354Y0088487D01*
X0242354Y0089361D02*
X0244980Y0089361D01*
X0244980Y0090235D02*
X0242354Y0090235D01*
X0242354Y0091109D02*
X0244980Y0091109D01*
X0242354Y0094487D02*
X0242354Y0097113D01*
X0244980Y0097113D01*
X0244980Y0094487D01*
X0242354Y0094487D01*
X0242354Y0095361D02*
X0244980Y0095361D01*
X0244980Y0096235D02*
X0242354Y0096235D01*
X0242354Y0097109D02*
X0244980Y0097109D01*
X0237354Y0034113D02*
X0237354Y0031487D01*
X0237354Y0034113D02*
X0239980Y0034113D01*
X0239980Y0031487D01*
X0237354Y0031487D01*
X0237354Y0032361D02*
X0239980Y0032361D01*
X0239980Y0033235D02*
X0237354Y0033235D01*
X0237354Y0034109D02*
X0239980Y0034109D01*
X0237354Y0028113D02*
X0237354Y0025487D01*
X0237354Y0028113D02*
X0239980Y0028113D01*
X0239980Y0025487D01*
X0237354Y0025487D01*
X0237354Y0026361D02*
X0239980Y0026361D01*
X0239980Y0027235D02*
X0237354Y0027235D01*
X0237354Y0028109D02*
X0239980Y0028109D01*
X0218354Y0028613D02*
X0218354Y0025987D01*
X0218354Y0028613D02*
X0220980Y0028613D01*
X0220980Y0025987D01*
X0218354Y0025987D01*
X0218354Y0026861D02*
X0220980Y0026861D01*
X0220980Y0027735D02*
X0218354Y0027735D01*
X0218354Y0028609D02*
X0220980Y0028609D01*
X0218354Y0031987D02*
X0218354Y0034613D01*
X0220980Y0034613D01*
X0220980Y0031987D01*
X0218354Y0031987D01*
X0218354Y0032861D02*
X0220980Y0032861D01*
X0220980Y0033735D02*
X0218354Y0033735D01*
X0218354Y0034609D02*
X0220980Y0034609D01*
X0209354Y0034613D02*
X0209354Y0031987D01*
X0209354Y0034613D02*
X0211980Y0034613D01*
X0211980Y0031987D01*
X0209354Y0031987D01*
X0209354Y0032861D02*
X0211980Y0032861D01*
X0211980Y0033735D02*
X0209354Y0033735D01*
X0209354Y0034609D02*
X0211980Y0034609D01*
X0200354Y0034613D02*
X0200354Y0031987D01*
X0200354Y0034613D02*
X0202980Y0034613D01*
X0202980Y0031987D01*
X0200354Y0031987D01*
X0200354Y0032861D02*
X0202980Y0032861D01*
X0202980Y0033735D02*
X0200354Y0033735D01*
X0200354Y0034609D02*
X0202980Y0034609D01*
X0200354Y0028613D02*
X0200354Y0025987D01*
X0200354Y0028613D02*
X0202980Y0028613D01*
X0202980Y0025987D01*
X0200354Y0025987D01*
X0200354Y0026861D02*
X0202980Y0026861D01*
X0202980Y0027735D02*
X0200354Y0027735D01*
X0200354Y0028609D02*
X0202980Y0028609D01*
X0209354Y0028613D02*
X0209354Y0025987D01*
X0209354Y0028613D02*
X0211980Y0028613D01*
X0211980Y0025987D01*
X0209354Y0025987D01*
X0209354Y0026861D02*
X0211980Y0026861D01*
X0211980Y0027735D02*
X0209354Y0027735D01*
X0209354Y0028609D02*
X0211980Y0028609D01*
X0050881Y0103613D02*
X0048255Y0103613D01*
X0050881Y0103613D02*
X0050881Y0100987D01*
X0048255Y0100987D01*
X0048255Y0103613D01*
X0048255Y0101861D02*
X0050881Y0101861D01*
X0050881Y0102735D02*
X0048255Y0102735D01*
X0048255Y0103609D02*
X0050881Y0103609D01*
X0044881Y0103613D02*
X0042255Y0103613D01*
X0044881Y0103613D02*
X0044881Y0100987D01*
X0042255Y0100987D01*
X0042255Y0103613D01*
X0042255Y0101861D02*
X0044881Y0101861D01*
X0044881Y0102735D02*
X0042255Y0102735D01*
X0042255Y0103609D02*
X0044881Y0103609D01*
X0044881Y0109613D02*
X0042255Y0109613D01*
X0044881Y0109613D02*
X0044881Y0106987D01*
X0042255Y0106987D01*
X0042255Y0109613D01*
X0042255Y0107861D02*
X0044881Y0107861D01*
X0044881Y0108735D02*
X0042255Y0108735D01*
X0042255Y0109609D02*
X0044881Y0109609D01*
X0048255Y0109613D02*
X0050881Y0109613D01*
X0050881Y0106987D01*
X0048255Y0106987D01*
X0048255Y0109613D01*
X0048255Y0107861D02*
X0050881Y0107861D01*
X0050881Y0108735D02*
X0048255Y0108735D01*
X0048255Y0109609D02*
X0050881Y0109609D01*
X0035454Y0109487D02*
X0035454Y0112113D01*
X0038080Y0112113D01*
X0038080Y0109487D01*
X0035454Y0109487D01*
X0035454Y0110361D02*
X0038080Y0110361D01*
X0038080Y0111235D02*
X0035454Y0111235D01*
X0035454Y0112109D02*
X0038080Y0112109D01*
X0035454Y0106113D02*
X0035454Y0103487D01*
X0035454Y0106113D02*
X0038080Y0106113D01*
X0038080Y0103487D01*
X0035454Y0103487D01*
X0035454Y0104361D02*
X0038080Y0104361D01*
X0038080Y0105235D02*
X0035454Y0105235D01*
X0035454Y0106109D02*
X0038080Y0106109D01*
X0035454Y0100113D02*
X0035454Y0097487D01*
X0035454Y0100113D02*
X0038080Y0100113D01*
X0038080Y0097487D01*
X0035454Y0097487D01*
X0035454Y0098361D02*
X0038080Y0098361D01*
X0038080Y0099235D02*
X0035454Y0099235D01*
X0035454Y0100109D02*
X0038080Y0100109D01*
X0035454Y0094113D02*
X0035454Y0091487D01*
X0035454Y0094113D02*
X0038080Y0094113D01*
X0038080Y0091487D01*
X0035454Y0091487D01*
X0035454Y0092361D02*
X0038080Y0092361D01*
X0038080Y0093235D02*
X0035454Y0093235D01*
X0035454Y0094109D02*
X0038080Y0094109D01*
D13*
X0022417Y0093300D03*
X0013917Y0093300D03*
X0013917Y0108300D03*
X0022417Y0108300D03*
D14*
X0059370Y0109740D02*
X0065964Y0109740D01*
X0065964Y0107672D01*
X0059370Y0107672D01*
X0059370Y0109740D01*
X0059370Y0109738D02*
X0065964Y0109738D01*
X0065964Y0097928D02*
X0059370Y0097928D01*
X0065964Y0097928D02*
X0065964Y0095860D01*
X0059370Y0095860D01*
X0059370Y0097928D01*
X0059370Y0097926D02*
X0065964Y0097926D01*
X0177270Y0020772D02*
X0183864Y0020772D01*
X0177270Y0020772D02*
X0177270Y0022840D01*
X0183864Y0022840D01*
X0183864Y0020772D01*
X0183864Y0022838D02*
X0177270Y0022838D01*
X0177270Y0008960D02*
X0183864Y0008960D01*
X0177270Y0008960D02*
X0177270Y0011028D01*
X0183864Y0011028D01*
X0183864Y0008960D01*
X0183864Y0011026D02*
X0177270Y0011026D01*
D15*
X0175650Y0016884D02*
X0173484Y0016884D01*
X0175650Y0016884D02*
X0175650Y0014916D01*
X0173484Y0014916D01*
X0173484Y0016884D01*
X0175650Y0016884D01*
X0069750Y0101816D02*
X0067584Y0101816D01*
X0067584Y0103784D01*
X0069750Y0103784D01*
X0069750Y0101816D01*
X0069750Y0103784D02*
X0067584Y0103784D01*
D16*
X0066667Y0012300D03*
X0056667Y0012300D03*
D17*
X0157292Y0010925D02*
X0158542Y0010925D01*
X0158542Y0009675D01*
X0157292Y0009675D01*
X0157292Y0010925D01*
X0157292Y0010924D02*
X0158542Y0010924D01*
X0160792Y0010925D02*
X0162042Y0010925D01*
X0162042Y0009675D01*
X0160792Y0009675D01*
X0160792Y0010925D01*
X0160792Y0010924D02*
X0162042Y0010924D01*
X0165092Y0010925D02*
X0166342Y0010925D01*
X0166342Y0009675D01*
X0165092Y0009675D01*
X0165092Y0010925D01*
X0165092Y0010924D02*
X0166342Y0010924D01*
X0168592Y0010925D02*
X0169842Y0010925D01*
X0169842Y0009675D01*
X0168592Y0009675D01*
X0168592Y0010925D01*
X0168592Y0010924D02*
X0169842Y0010924D01*
D18*
X0059753Y0083867D03*
D19*
X0059753Y0058867D03*
D20*
X0050702Y0094414D03*
X0042828Y0094414D03*
D21*
X0032042Y0093925D02*
X0032042Y0091675D01*
X0029292Y0091675D01*
X0029292Y0093925D01*
X0032042Y0093925D01*
X0032042Y0092424D02*
X0029292Y0092424D01*
X0029292Y0093173D02*
X0032042Y0093173D01*
X0032042Y0093922D02*
X0029292Y0093922D01*
X0032042Y0097675D02*
X0032042Y0099925D01*
X0032042Y0097675D02*
X0029292Y0097675D01*
X0029292Y0099925D01*
X0032042Y0099925D01*
X0032042Y0098424D02*
X0029292Y0098424D01*
X0029292Y0099173D02*
X0032042Y0099173D01*
X0032042Y0099922D02*
X0029292Y0099922D01*
X0032042Y0103675D02*
X0032042Y0105925D01*
X0032042Y0103675D02*
X0029292Y0103675D01*
X0029292Y0105925D01*
X0032042Y0105925D01*
X0032042Y0104424D02*
X0029292Y0104424D01*
X0029292Y0105173D02*
X0032042Y0105173D01*
X0032042Y0105922D02*
X0029292Y0105922D01*
X0032042Y0109675D02*
X0032042Y0111925D01*
X0032042Y0109675D02*
X0029292Y0109675D01*
X0029292Y0111925D01*
X0032042Y0111925D01*
X0032042Y0110424D02*
X0029292Y0110424D01*
X0029292Y0111173D02*
X0032042Y0111173D01*
X0032042Y0111922D02*
X0029292Y0111922D01*
X0211542Y0095425D02*
X0211542Y0093175D01*
X0208792Y0093175D01*
X0208792Y0095425D01*
X0211542Y0095425D01*
X0211542Y0093924D02*
X0208792Y0093924D01*
X0208792Y0094673D02*
X0211542Y0094673D01*
X0211542Y0095422D02*
X0208792Y0095422D01*
X0211542Y0089425D02*
X0211542Y0087175D01*
X0208792Y0087175D01*
X0208792Y0089425D01*
X0211542Y0089425D01*
X0211542Y0087924D02*
X0208792Y0087924D01*
X0208792Y0088673D02*
X0211542Y0088673D01*
X0211542Y0089422D02*
X0208792Y0089422D01*
X0214042Y0104675D02*
X0214042Y0106925D01*
X0214042Y0104675D02*
X0211292Y0104675D01*
X0211292Y0106925D01*
X0214042Y0106925D01*
X0214042Y0105424D02*
X0211292Y0105424D01*
X0211292Y0106173D02*
X0214042Y0106173D01*
X0214042Y0106922D02*
X0211292Y0106922D01*
X0214042Y0110675D02*
X0214042Y0112925D01*
X0214042Y0110675D02*
X0211292Y0110675D01*
X0211292Y0112925D01*
X0214042Y0112925D01*
X0214042Y0111424D02*
X0211292Y0111424D01*
X0211292Y0112173D02*
X0214042Y0112173D01*
X0214042Y0112922D02*
X0211292Y0112922D01*
X0231042Y0033925D02*
X0231042Y0031675D01*
X0228292Y0031675D01*
X0228292Y0033925D01*
X0231042Y0033925D01*
X0231042Y0032424D02*
X0228292Y0032424D01*
X0228292Y0033173D02*
X0231042Y0033173D01*
X0231042Y0033922D02*
X0228292Y0033922D01*
X0231042Y0027925D02*
X0231042Y0025675D01*
X0228292Y0025675D01*
X0228292Y0027925D01*
X0231042Y0027925D01*
X0231042Y0026424D02*
X0228292Y0026424D01*
X0228292Y0027173D02*
X0231042Y0027173D01*
X0231042Y0027922D02*
X0228292Y0027922D01*
D22*
X0048989Y0021313D03*
X0051549Y0021313D03*
X0054108Y0021313D03*
X0056667Y0021313D03*
X0059226Y0021313D03*
X0061785Y0021313D03*
X0064344Y0021313D03*
X0064344Y0044287D03*
X0061785Y0044287D03*
X0059226Y0044287D03*
X0056667Y0044287D03*
X0054108Y0044287D03*
X0051549Y0044287D03*
X0048989Y0044287D03*
D23*
X0037234Y0067363D03*
X0037234Y0075237D03*
D24*
X0016761Y0084686D03*
X0016761Y0057914D03*
D25*
X0232427Y0107181D03*
X0236167Y0107181D03*
X0239907Y0107181D03*
X0239907Y0117419D03*
X0232427Y0117419D03*
D26*
X0104167Y0139300D03*
D27*
X0136967Y0139300D03*
X0136967Y0132600D03*
X0136967Y0125900D03*
X0136967Y0146000D03*
X0136967Y0152700D03*
D28*
X0212966Y0146800D03*
X0230367Y0146800D03*
D29*
X0199667Y0112950D03*
X0199667Y0106650D03*
D30*
X0192667Y0129300D03*
X0161667Y0130300D03*
X0192667Y0150300D03*
X0161667Y0151300D03*
D31*
X0210267Y0074824D03*
X0210267Y0071674D03*
X0210267Y0068524D03*
X0210267Y0065375D03*
X0210267Y0062225D03*
X0210267Y0059076D03*
X0210267Y0055926D03*
X0210267Y0052776D03*
X0244067Y0052776D03*
X0244067Y0055926D03*
X0244067Y0059076D03*
X0244067Y0062225D03*
X0244067Y0065375D03*
X0244067Y0068524D03*
X0244067Y0071674D03*
X0244067Y0074824D03*
D32*
X0238190Y0080700D03*
X0235041Y0080700D03*
X0231891Y0080700D03*
X0228741Y0080700D03*
X0225592Y0080700D03*
X0222442Y0080700D03*
X0219293Y0080700D03*
X0216143Y0080700D03*
X0216143Y0046900D03*
X0219293Y0046900D03*
X0222442Y0046900D03*
X0225592Y0046900D03*
X0228741Y0046900D03*
X0231891Y0046900D03*
X0235041Y0046900D03*
X0238190Y0046900D03*
D33*
X0250667Y0034524D03*
X0250667Y0029800D03*
X0250667Y0025076D03*
M02*
