G75*
%MOIN*%
%OFA0B0*%
%FSLAX25Y25*%
%IPPOS*%
%LPD*%
%AMOC8*
5,1,8,0,0,1.08239X$1,22.5*
%
%ADD10C,0.00400*%
%ADD11C,0.00500*%
%ADD12C,0.01200*%
%ADD13C,0.00700*%
%ADD14C,0.00300*%
%ADD15R,0.03000X0.08000*%
%ADD16R,0.02500X0.04000*%
%ADD17C,0.00600*%
%ADD18R,0.16500X0.03500*%
%ADD19C,0.00200*%
%ADD20C,0.00800*%
%ADD21R,0.06600X0.03800*%
%ADD22C,0.03000*%
%ADD23C,0.00100*%
D10*
X0035867Y0021967D02*
X0036334Y0021500D01*
X0037268Y0021500D01*
X0037735Y0021967D01*
X0037735Y0022901D01*
X0036801Y0022901D01*
X0037735Y0023835D02*
X0037268Y0024302D01*
X0036334Y0024302D01*
X0035867Y0023835D01*
X0035867Y0021967D01*
X0038813Y0021500D02*
X0038813Y0024302D01*
X0040681Y0021500D01*
X0040681Y0024302D01*
X0041760Y0024302D02*
X0043161Y0024302D01*
X0043628Y0023835D01*
X0043628Y0021967D01*
X0043161Y0021500D01*
X0041760Y0021500D01*
X0041760Y0024302D01*
X0068264Y0033834D02*
X0071266Y0033834D01*
X0071867Y0034434D01*
X0071867Y0035635D01*
X0071266Y0036236D01*
X0068264Y0036236D01*
X0069465Y0037517D02*
X0068264Y0038718D01*
X0071867Y0038718D01*
X0071867Y0037517D02*
X0071867Y0039919D01*
X0042181Y0044434D02*
X0042181Y0046302D01*
X0040313Y0046302D02*
X0040313Y0044434D01*
X0041247Y0043500D01*
X0042181Y0044434D01*
X0039235Y0044901D02*
X0039235Y0043967D01*
X0038768Y0043500D01*
X0037834Y0043500D01*
X0037367Y0043967D01*
X0037367Y0044901D02*
X0038301Y0045368D01*
X0038768Y0045368D01*
X0039235Y0044901D01*
X0039235Y0046302D02*
X0037367Y0046302D01*
X0037367Y0044901D01*
X0007467Y0062267D02*
X0007467Y0063802D01*
X0006699Y0064569D01*
X0007467Y0066104D02*
X0002863Y0066104D01*
X0007467Y0069173D01*
X0002863Y0069173D01*
X0003630Y0070708D02*
X0002863Y0071475D01*
X0002863Y0073010D01*
X0003630Y0073777D01*
X0004397Y0073777D01*
X0007467Y0070708D01*
X0007467Y0073777D01*
X0003630Y0064569D02*
X0002863Y0063802D01*
X0002863Y0062267D01*
X0003630Y0061500D01*
X0006699Y0061500D01*
X0007467Y0062267D01*
X0124090Y0112500D02*
X0125624Y0112500D01*
X0124857Y0112500D02*
X0124857Y0117104D01*
X0124090Y0117104D02*
X0125624Y0117104D01*
X0127159Y0116337D02*
X0127159Y0113267D01*
X0127926Y0112500D01*
X0129461Y0112500D01*
X0130228Y0113267D01*
X0131763Y0112500D02*
X0134832Y0112500D01*
X0133297Y0112500D02*
X0133297Y0117104D01*
X0131763Y0115569D01*
X0130228Y0116337D02*
X0129461Y0117104D01*
X0127926Y0117104D01*
X0127159Y0116337D01*
X0144364Y0134017D02*
X0144881Y0133500D01*
X0146950Y0133500D01*
X0147467Y0134017D01*
X0147467Y0135051D01*
X0146950Y0135568D01*
X0144881Y0135568D02*
X0144364Y0135051D01*
X0144364Y0134017D01*
X0144364Y0136723D02*
X0144364Y0138791D01*
X0144364Y0137757D02*
X0147467Y0137757D01*
X0147467Y0139945D02*
X0147467Y0142014D01*
X0147467Y0140980D02*
X0144364Y0140980D01*
X0145398Y0139945D01*
X0175364Y0139463D02*
X0175881Y0138945D01*
X0175364Y0139463D02*
X0175364Y0140497D01*
X0175881Y0141014D01*
X0176398Y0141014D01*
X0178467Y0138945D01*
X0178467Y0141014D01*
X0175364Y0137791D02*
X0175364Y0135723D01*
X0175364Y0136757D02*
X0178467Y0136757D01*
X0177950Y0134568D02*
X0178467Y0134051D01*
X0178467Y0133017D01*
X0177950Y0132500D01*
X0175881Y0132500D01*
X0175364Y0133017D01*
X0175364Y0134051D01*
X0175881Y0134568D01*
X0187164Y0112861D02*
X0187164Y0110993D01*
X0187164Y0111927D02*
X0189967Y0111927D01*
X0189967Y0109915D02*
X0188098Y0109915D01*
X0187164Y0108981D01*
X0188098Y0108047D01*
X0189967Y0108047D01*
X0189500Y0106968D02*
X0189967Y0106501D01*
X0189967Y0105100D01*
X0187164Y0105100D01*
X0187164Y0106501D01*
X0187631Y0106968D01*
X0188098Y0106968D01*
X0188565Y0106501D01*
X0188565Y0105100D01*
X0188565Y0106501D02*
X0189033Y0106968D01*
X0189500Y0106968D01*
X0188565Y0108047D02*
X0188565Y0109915D01*
X0193364Y0107274D02*
X0193364Y0106240D01*
X0193881Y0105723D01*
X0193364Y0107274D02*
X0193881Y0107791D01*
X0194398Y0107791D01*
X0196467Y0105723D01*
X0196467Y0107791D01*
X0196467Y0104568D02*
X0196467Y0102500D01*
X0193364Y0102500D01*
X0189967Y0102294D02*
X0189967Y0100893D01*
X0187164Y0100893D01*
X0187164Y0102294D01*
X0187631Y0102761D01*
X0189500Y0102761D01*
X0189967Y0102294D01*
X0189967Y0099815D02*
X0187164Y0099815D01*
X0187164Y0097947D02*
X0189967Y0099815D01*
X0189967Y0097947D02*
X0187164Y0097947D01*
X0187631Y0096868D02*
X0187164Y0096401D01*
X0187164Y0095467D01*
X0187631Y0095000D01*
X0189500Y0095000D01*
X0189967Y0095467D01*
X0189967Y0096401D01*
X0189500Y0096868D01*
X0188565Y0096868D01*
X0188565Y0095934D01*
X0187631Y0092679D02*
X0187164Y0092212D01*
X0187164Y0091278D01*
X0187631Y0090811D01*
X0189500Y0090811D01*
X0189967Y0091278D01*
X0189967Y0092212D01*
X0189500Y0092679D01*
X0187631Y0092679D01*
X0187164Y0089781D02*
X0187164Y0088847D01*
X0187164Y0089314D02*
X0189967Y0089314D01*
X0189967Y0088847D02*
X0189967Y0089781D01*
X0189033Y0087768D02*
X0187164Y0087768D01*
X0187164Y0085900D02*
X0189033Y0085900D01*
X0189967Y0086834D01*
X0189033Y0087768D01*
X0188565Y0083161D02*
X0189033Y0082694D01*
X0189033Y0081293D01*
X0189967Y0081293D02*
X0187164Y0081293D01*
X0187164Y0082694D01*
X0187631Y0083161D01*
X0188565Y0083161D01*
X0189033Y0082227D02*
X0189967Y0083161D01*
X0189967Y0079281D02*
X0187164Y0079281D01*
X0187164Y0078347D02*
X0187164Y0080215D01*
X0187631Y0077268D02*
X0187164Y0076801D01*
X0187164Y0075400D01*
X0189967Y0075400D01*
X0189967Y0076801D01*
X0189500Y0077268D01*
X0187631Y0077268D01*
X0187631Y0072861D02*
X0188565Y0072861D01*
X0189033Y0072394D01*
X0189033Y0070993D01*
X0189967Y0070993D02*
X0187164Y0070993D01*
X0187164Y0072394D01*
X0187631Y0072861D01*
X0189033Y0071927D02*
X0189967Y0072861D01*
X0189967Y0069915D02*
X0187164Y0069915D01*
X0187164Y0068047D02*
X0189967Y0068047D01*
X0189033Y0068981D01*
X0189967Y0069915D01*
X0188565Y0066968D02*
X0189033Y0066501D01*
X0189033Y0065100D01*
X0189967Y0065100D02*
X0187164Y0065100D01*
X0187164Y0066501D01*
X0187631Y0066968D01*
X0188565Y0066968D01*
X0187164Y0060881D02*
X0187164Y0059947D01*
X0187164Y0060414D02*
X0189967Y0060414D01*
X0189967Y0059947D02*
X0189967Y0060881D01*
X0189967Y0058868D02*
X0189033Y0057934D01*
X0189033Y0058401D02*
X0189033Y0057000D01*
X0189967Y0057000D02*
X0187164Y0057000D01*
X0187164Y0058401D01*
X0187631Y0058868D01*
X0188565Y0058868D01*
X0189033Y0058401D01*
X0189500Y0052761D02*
X0187631Y0052761D01*
X0187164Y0052294D01*
X0187164Y0050893D01*
X0189967Y0050893D01*
X0189967Y0052294D01*
X0189500Y0052761D01*
X0189967Y0049815D02*
X0187164Y0047947D01*
X0187164Y0046868D02*
X0187164Y0045000D01*
X0187164Y0045934D02*
X0189967Y0045934D01*
X0189967Y0047947D02*
X0187164Y0049815D01*
X0187631Y0042761D02*
X0187164Y0042294D01*
X0187164Y0040893D01*
X0189967Y0040893D01*
X0189967Y0042294D01*
X0189500Y0042761D01*
X0187631Y0042761D01*
X0187164Y0039815D02*
X0189967Y0037947D01*
X0189967Y0036868D02*
X0189033Y0035934D01*
X0189033Y0036401D02*
X0189033Y0035000D01*
X0189967Y0035000D02*
X0187164Y0035000D01*
X0187164Y0036401D01*
X0187631Y0036868D01*
X0188565Y0036868D01*
X0189033Y0036401D01*
X0187164Y0037947D02*
X0189967Y0039815D01*
X0187164Y0032861D02*
X0187164Y0030993D01*
X0187164Y0031927D02*
X0189967Y0031927D01*
X0189500Y0029915D02*
X0189967Y0029448D01*
X0189967Y0028514D01*
X0189500Y0028047D01*
X0188565Y0028514D02*
X0188565Y0029448D01*
X0189033Y0029915D01*
X0189500Y0029915D01*
X0188565Y0028514D02*
X0188098Y0028047D01*
X0187631Y0028047D01*
X0187164Y0028514D01*
X0187164Y0029448D01*
X0187631Y0029915D01*
X0187631Y0026968D02*
X0188565Y0026968D01*
X0189033Y0026501D01*
X0189033Y0025100D01*
X0189967Y0025100D02*
X0187164Y0025100D01*
X0187164Y0026501D01*
X0187631Y0026968D01*
X0189033Y0026034D02*
X0189967Y0026968D01*
X0194364Y0028291D02*
X0194881Y0027257D01*
X0195915Y0026223D01*
X0195915Y0027774D01*
X0196432Y0028291D01*
X0196950Y0028291D01*
X0197467Y0027774D01*
X0197467Y0026740D01*
X0196950Y0026223D01*
X0195915Y0026223D01*
X0195915Y0025068D02*
X0196432Y0024551D01*
X0196432Y0023000D01*
X0196432Y0024034D02*
X0197467Y0025068D01*
X0195915Y0025068D02*
X0194881Y0025068D01*
X0194364Y0024551D01*
X0194364Y0023000D01*
X0197467Y0023000D01*
X0214364Y0029572D02*
X0214881Y0029055D01*
X0216950Y0029055D01*
X0217467Y0029572D01*
X0217467Y0030606D01*
X0216950Y0031123D01*
X0216950Y0032277D02*
X0217467Y0032277D01*
X0216950Y0032277D02*
X0214881Y0034346D01*
X0214364Y0034346D01*
X0214364Y0032277D01*
X0214881Y0031123D02*
X0214364Y0030606D01*
X0214364Y0029572D01*
X0222864Y0029463D02*
X0222864Y0030497D01*
X0223381Y0031014D01*
X0225450Y0028945D01*
X0225967Y0029463D01*
X0225967Y0030497D01*
X0225450Y0031014D01*
X0223381Y0031014D01*
X0223364Y0030606D02*
X0223881Y0031123D01*
X0223364Y0030606D02*
X0223364Y0029572D01*
X0223881Y0029055D01*
X0225950Y0029055D01*
X0226467Y0029572D01*
X0226467Y0030606D01*
X0225950Y0031123D01*
X0225950Y0032277D02*
X0226467Y0032794D01*
X0226467Y0033829D01*
X0225950Y0034346D01*
X0225432Y0034346D01*
X0224915Y0033829D01*
X0224915Y0032277D01*
X0225950Y0032277D01*
X0224915Y0032277D02*
X0223881Y0033311D01*
X0223364Y0034346D01*
X0222864Y0029463D02*
X0223381Y0028945D01*
X0225450Y0028945D01*
X0225967Y0027791D02*
X0225967Y0025723D01*
X0225967Y0026757D02*
X0222864Y0026757D01*
X0223898Y0025723D01*
X0223381Y0024568D02*
X0222864Y0024051D01*
X0222864Y0022500D01*
X0225967Y0022500D01*
X0225967Y0024051D01*
X0225450Y0024568D01*
X0223381Y0024568D01*
X0231364Y0024051D02*
X0231364Y0022500D01*
X0234467Y0022500D01*
X0233432Y0022500D02*
X0233432Y0024051D01*
X0232915Y0024568D01*
X0231881Y0024568D01*
X0231364Y0024051D01*
X0231364Y0025723D02*
X0232915Y0025723D01*
X0232398Y0026757D01*
X0232398Y0027274D01*
X0232915Y0027791D01*
X0233950Y0027791D01*
X0234467Y0027274D01*
X0234467Y0026240D01*
X0233950Y0025723D01*
X0234467Y0024568D02*
X0233432Y0023534D01*
X0231364Y0025723D02*
X0231364Y0027791D01*
X0224641Y0084000D02*
X0223607Y0084000D01*
X0223089Y0084517D01*
X0221935Y0084517D02*
X0221935Y0087103D01*
X0223089Y0086586D02*
X0223607Y0087103D01*
X0224641Y0087103D01*
X0225158Y0086586D01*
X0225158Y0086068D01*
X0224641Y0085551D01*
X0225158Y0085034D01*
X0225158Y0084517D01*
X0224641Y0084000D01*
X0224641Y0085551D02*
X0224124Y0085551D01*
X0225364Y0085500D02*
X0225364Y0087051D01*
X0225881Y0087568D01*
X0226915Y0087568D01*
X0227432Y0087051D01*
X0227432Y0085500D01*
X0227432Y0086534D02*
X0228467Y0087568D01*
X0228467Y0088723D02*
X0226398Y0090791D01*
X0225881Y0090791D01*
X0225364Y0090274D01*
X0225364Y0089240D01*
X0225881Y0088723D01*
X0228467Y0088723D02*
X0228467Y0090791D01*
X0236364Y0090274D02*
X0236881Y0090791D01*
X0237398Y0090791D01*
X0237915Y0090274D01*
X0238432Y0090791D01*
X0238950Y0090791D01*
X0239467Y0090274D01*
X0239467Y0089240D01*
X0238950Y0088723D01*
X0239467Y0087568D02*
X0238432Y0086534D01*
X0238432Y0087051D02*
X0238432Y0085500D01*
X0239467Y0085500D02*
X0236364Y0085500D01*
X0236364Y0087051D01*
X0236881Y0087568D01*
X0237915Y0087568D01*
X0238432Y0087051D01*
X0236881Y0088723D02*
X0236364Y0089240D01*
X0236364Y0090274D01*
X0237915Y0090274D02*
X0237915Y0089757D01*
X0228467Y0085500D02*
X0225364Y0085500D01*
X0221935Y0084517D02*
X0221418Y0084000D01*
X0220384Y0084000D01*
X0219867Y0084517D01*
X0219867Y0087103D01*
X0218467Y0087068D02*
X0217432Y0086034D01*
X0217432Y0086551D02*
X0217432Y0085000D01*
X0218467Y0085000D02*
X0215364Y0085000D01*
X0215364Y0086551D01*
X0215881Y0087068D01*
X0216915Y0087068D01*
X0217432Y0086551D01*
X0216398Y0088223D02*
X0215364Y0089257D01*
X0218467Y0089257D01*
X0218467Y0088223D02*
X0218467Y0090291D01*
X0206467Y0090072D02*
X0206467Y0091106D01*
X0205950Y0091623D01*
X0205950Y0092777D02*
X0206467Y0093294D01*
X0206467Y0094329D01*
X0205950Y0094846D01*
X0204915Y0094846D01*
X0204398Y0094329D01*
X0204398Y0093811D01*
X0204915Y0092777D01*
X0203364Y0092777D01*
X0203364Y0094846D01*
X0203881Y0091623D02*
X0203364Y0091106D01*
X0203364Y0090072D01*
X0203881Y0089555D01*
X0205950Y0089555D01*
X0206467Y0090072D01*
X0205950Y0089291D02*
X0206467Y0088774D01*
X0206467Y0087740D01*
X0205950Y0087223D01*
X0205950Y0086068D02*
X0203881Y0086068D01*
X0203364Y0085551D01*
X0203364Y0084000D01*
X0206467Y0084000D01*
X0206467Y0085551D01*
X0205950Y0086068D01*
X0204398Y0087223D02*
X0204915Y0087740D01*
X0204915Y0089291D01*
X0203881Y0089291D02*
X0203364Y0088774D01*
X0203364Y0087740D01*
X0203881Y0087223D01*
X0204398Y0087223D01*
X0203881Y0089291D02*
X0205950Y0089291D01*
X0205864Y0101500D02*
X0205864Y0103051D01*
X0206381Y0103568D01*
X0208450Y0103568D01*
X0208967Y0103051D01*
X0208967Y0101500D01*
X0205864Y0101500D01*
X0205864Y0104723D02*
X0205864Y0106791D01*
X0206381Y0106791D01*
X0208450Y0104723D01*
X0208967Y0104723D01*
X0244364Y0127534D02*
X0244364Y0128568D01*
X0244364Y0128051D02*
X0246950Y0128051D01*
X0247467Y0127534D01*
X0247467Y0127017D01*
X0246950Y0126500D01*
X0245915Y0129723D02*
X0245915Y0131791D01*
X0244364Y0131274D02*
X0245915Y0129723D01*
X0244364Y0131274D02*
X0247467Y0131274D01*
X0229212Y0136017D02*
X0229212Y0136534D01*
X0228695Y0137051D01*
X0227144Y0137051D01*
X0227144Y0136017D01*
X0227661Y0135500D01*
X0228695Y0135500D01*
X0229212Y0136017D01*
X0228178Y0138086D02*
X0227144Y0137051D01*
X0228178Y0138086D02*
X0229212Y0138603D01*
X0225990Y0138086D02*
X0225990Y0136017D01*
X0225472Y0135500D01*
X0223921Y0135500D01*
X0223921Y0138603D01*
X0225472Y0138603D01*
X0225990Y0138086D01*
X0020158Y0157517D02*
X0019641Y0157000D01*
X0018607Y0157000D01*
X0018089Y0157517D01*
X0018089Y0158551D02*
X0019124Y0159068D01*
X0019641Y0159068D01*
X0020158Y0158551D01*
X0020158Y0157517D01*
X0018089Y0158551D02*
X0018089Y0160103D01*
X0020158Y0160103D01*
X0016935Y0160103D02*
X0015901Y0160103D01*
X0016418Y0160103D02*
X0016418Y0157517D01*
X0015901Y0157000D01*
X0015384Y0157000D01*
X0014867Y0157517D01*
D11*
X0009667Y0154300D02*
X0009667Y0122300D01*
X0009647Y0122115D02*
X0009647Y0122509D01*
X0009647Y0122115D02*
X0043505Y0122115D01*
X0061222Y0122115D02*
X0064765Y0122115D01*
X0064765Y0133139D01*
X0064765Y0150461D02*
X0064765Y0154300D01*
X0064667Y0154300D02*
X0009667Y0154300D01*
X0030667Y0108300D02*
X0029917Y0107800D01*
X0031417Y0107800D01*
X0030667Y0108300D01*
X0031417Y0107800D02*
X0032167Y0107300D01*
X0029167Y0107300D01*
X0029917Y0107800D01*
X0029667Y0107550D02*
X0031667Y0107550D01*
X0024867Y0107500D02*
X0024867Y0094100D01*
X0011467Y0094100D01*
X0011467Y0107500D01*
X0024867Y0107500D01*
X0030667Y0096300D02*
X0029917Y0095800D01*
X0031417Y0095800D01*
X0030667Y0096300D01*
X0031417Y0095800D02*
X0032167Y0095300D01*
X0029167Y0095300D01*
X0029917Y0095800D01*
X0029667Y0095550D02*
X0031667Y0095550D01*
X0043419Y0096973D02*
X0043419Y0091855D01*
X0050112Y0091855D01*
X0050112Y0096973D01*
X0043419Y0096973D01*
X0047946Y0096776D02*
X0047946Y0092052D01*
X0048340Y0092052D01*
X0048340Y0096776D01*
X0057167Y0097682D02*
X0057167Y0107918D01*
X0059123Y0107918D01*
X0059123Y0108706D01*
X0066210Y0108706D01*
X0066210Y0107918D01*
X0068167Y0107918D01*
X0068167Y0105800D01*
X0066210Y0107918D02*
X0059123Y0107918D01*
X0068167Y0099800D02*
X0068167Y0097682D01*
X0066210Y0097682D01*
X0066210Y0096894D01*
X0059123Y0096894D01*
X0059123Y0097682D01*
X0057167Y0097682D01*
X0059123Y0097682D02*
X0066210Y0097682D01*
X0074423Y0094765D02*
X0074423Y0108544D01*
X0088202Y0108544D01*
X0068253Y0089617D02*
X0051253Y0089617D01*
X0051253Y0053117D01*
X0068253Y0053117D01*
X0068253Y0089617D01*
X0059753Y0078117D02*
X0059753Y0075117D01*
X0058253Y0076617D02*
X0061253Y0076617D01*
X0040383Y0083702D02*
X0030541Y0083702D01*
X0030541Y0078190D01*
X0040383Y0083702D02*
X0040383Y0087048D01*
X0024635Y0087048D01*
X0010856Y0080158D02*
X0010856Y0062442D01*
X0024635Y0055552D02*
X0040383Y0055552D01*
X0040383Y0058898D01*
X0030541Y0058898D01*
X0030541Y0064410D01*
X0074423Y0027835D02*
X0074423Y0014056D01*
X0088202Y0014056D01*
X0069917Y0015550D02*
X0069917Y0009050D01*
X0053417Y0009050D01*
X0053417Y0015550D01*
X0069917Y0015550D01*
X0063417Y0012300D02*
X0061417Y0012300D01*
X0062417Y0013300D02*
X0062417Y0011300D01*
X0155131Y0014056D02*
X0168911Y0014056D01*
X0168911Y0027835D01*
X0175167Y0025800D02*
X0175167Y0031800D01*
X0177167Y0033800D01*
X0175167Y0035800D01*
X0175167Y0041800D01*
X0177167Y0043800D01*
X0175167Y0045800D01*
X0175167Y0051800D01*
X0177167Y0053800D01*
X0175167Y0055800D01*
X0175167Y0061800D01*
X0177167Y0063800D01*
X0175167Y0065800D01*
X0175167Y0071800D01*
X0177167Y0073800D01*
X0175167Y0075800D01*
X0175167Y0081800D01*
X0177167Y0083800D01*
X0175167Y0085800D01*
X0175167Y0091800D01*
X0177167Y0093800D01*
X0175167Y0095800D01*
X0175167Y0101800D01*
X0177167Y0103800D01*
X0175167Y0105800D01*
X0175167Y0111800D01*
X0177167Y0113800D01*
X0183167Y0113800D01*
X0185167Y0111800D01*
X0185167Y0105800D01*
X0183167Y0103800D01*
X0185167Y0101800D01*
X0185167Y0095800D01*
X0183167Y0093800D01*
X0185167Y0091800D01*
X0185167Y0085800D01*
X0183167Y0083800D01*
X0185167Y0081800D01*
X0185167Y0075800D01*
X0183167Y0073800D01*
X0185167Y0071800D01*
X0185167Y0065800D01*
X0183167Y0063800D01*
X0185167Y0061800D01*
X0185167Y0055800D01*
X0183167Y0053800D01*
X0185167Y0051800D01*
X0185167Y0045800D01*
X0183167Y0043800D01*
X0185167Y0041800D01*
X0185167Y0035800D01*
X0183167Y0033800D01*
X0177167Y0033800D01*
X0183167Y0033800D02*
X0185167Y0031800D01*
X0185167Y0025800D01*
X0183167Y0023800D01*
X0177167Y0023800D01*
X0175167Y0025800D01*
X0177023Y0021806D02*
X0184110Y0021806D01*
X0184110Y0021018D01*
X0186067Y0021018D01*
X0186067Y0010782D01*
X0184110Y0010782D01*
X0184110Y0009994D01*
X0177023Y0009994D01*
X0177023Y0010782D01*
X0175067Y0010782D01*
X0175067Y0012900D01*
X0177023Y0010782D02*
X0184110Y0010782D01*
X0175067Y0018900D02*
X0175067Y0021018D01*
X0177023Y0021018D01*
X0177023Y0021806D01*
X0177023Y0021018D02*
X0184110Y0021018D01*
X0199167Y0024800D02*
X0199167Y0035800D01*
X0204167Y0035800D01*
X0204167Y0024800D01*
X0199167Y0024800D01*
X0208167Y0024800D02*
X0208167Y0035800D01*
X0213167Y0035800D01*
X0213167Y0024800D01*
X0208167Y0024800D01*
X0208118Y0022754D02*
X0209619Y0022754D01*
X0208869Y0022754D02*
X0208869Y0019001D01*
X0208118Y0018250D01*
X0207367Y0018250D01*
X0206617Y0019001D01*
X0211221Y0019751D02*
X0213473Y0019751D01*
X0214223Y0020502D01*
X0214223Y0022003D01*
X0213473Y0022754D01*
X0211221Y0022754D01*
X0211221Y0018250D01*
X0215825Y0018250D02*
X0218827Y0018250D01*
X0217326Y0018250D02*
X0217326Y0022754D01*
X0215825Y0021253D01*
X0217167Y0024800D02*
X0217167Y0035800D01*
X0222167Y0035800D01*
X0222167Y0024800D01*
X0217167Y0024800D01*
X0227167Y0024550D02*
X0232167Y0024550D01*
X0232167Y0035050D01*
X0227167Y0035050D01*
X0227167Y0024550D01*
X0228167Y0029300D02*
X0228917Y0029800D01*
X0230417Y0029800D01*
X0229667Y0030300D01*
X0228917Y0029800D01*
X0228667Y0029550D02*
X0230667Y0029550D01*
X0230417Y0029800D02*
X0231167Y0029300D01*
X0228167Y0029300D01*
X0236167Y0024300D02*
X0236167Y0035300D01*
X0241167Y0035300D01*
X0241167Y0024300D01*
X0236167Y0024300D01*
X0183167Y0043800D02*
X0177167Y0043800D01*
X0177167Y0053800D02*
X0183167Y0053800D01*
X0183167Y0063800D02*
X0177167Y0063800D01*
X0177167Y0073800D02*
X0183167Y0073800D01*
X0183167Y0083800D02*
X0177167Y0083800D01*
X0177167Y0093800D02*
X0183167Y0093800D01*
X0168911Y0094765D02*
X0168911Y0108544D01*
X0155131Y0108544D01*
X0177167Y0103800D02*
X0183167Y0103800D01*
X0197304Y0108619D02*
X0197304Y0110981D01*
X0202029Y0110981D02*
X0202029Y0108619D01*
X0211167Y0108300D02*
X0211917Y0108800D01*
X0213417Y0108800D01*
X0212667Y0109300D01*
X0211917Y0108800D01*
X0211667Y0108550D02*
X0213667Y0108550D01*
X0213417Y0108800D02*
X0214167Y0108300D01*
X0211167Y0108300D01*
X0210167Y0103550D02*
X0215167Y0103550D01*
X0215167Y0114050D01*
X0210167Y0114050D01*
X0210167Y0103550D01*
X0220167Y0097800D02*
X0225167Y0097800D01*
X0225167Y0086800D01*
X0220167Y0086800D01*
X0220167Y0097800D01*
X0212667Y0096550D02*
X0212667Y0086050D01*
X0207667Y0086050D01*
X0207667Y0096550D01*
X0212667Y0096550D01*
X0210167Y0091800D02*
X0209417Y0091300D01*
X0210917Y0091300D01*
X0210167Y0091800D01*
X0210917Y0091300D02*
X0211667Y0090800D01*
X0208667Y0090800D01*
X0209417Y0091300D01*
X0209167Y0091050D02*
X0211167Y0091050D01*
X0202167Y0096300D02*
X0197167Y0096300D01*
X0197167Y0085300D01*
X0202167Y0085300D01*
X0202167Y0096300D01*
X0230167Y0098300D02*
X0230167Y0087300D01*
X0235167Y0087300D01*
X0235167Y0098300D01*
X0230167Y0098300D01*
X0241167Y0098300D02*
X0246167Y0098300D01*
X0246167Y0087300D01*
X0241167Y0087300D01*
X0241167Y0098300D01*
X0250167Y0113800D02*
X0250167Y0153800D01*
X0260167Y0153800D01*
X0260167Y0113800D01*
X0250167Y0113800D01*
X0223667Y0142800D02*
X0223167Y0143300D01*
X0223167Y0150300D01*
X0222667Y0149800D01*
X0222667Y0143800D01*
X0222167Y0144300D01*
X0222167Y0149300D01*
X0221667Y0148800D01*
X0221667Y0144800D01*
X0221167Y0145300D01*
X0221167Y0148300D01*
X0221667Y0148800D01*
X0222167Y0149300D02*
X0222667Y0149800D01*
X0223167Y0150300D02*
X0223667Y0150800D01*
X0223667Y0142800D01*
X0223167Y0143300D02*
X0222667Y0143800D01*
X0222167Y0144300D02*
X0221667Y0144800D01*
X0221167Y0145300D02*
X0220667Y0145800D01*
X0220167Y0146300D01*
X0220167Y0147300D01*
X0220667Y0147800D01*
X0220667Y0145800D01*
X0220167Y0146300D02*
X0219667Y0146800D01*
X0220167Y0147300D01*
X0220667Y0147800D02*
X0221167Y0148300D01*
D12*
X0080299Y0100906D02*
X0080301Y0100990D01*
X0080307Y0101073D01*
X0080317Y0101157D01*
X0080331Y0101239D01*
X0080349Y0101321D01*
X0080370Y0101402D01*
X0080396Y0101482D01*
X0080425Y0101560D01*
X0080458Y0101638D01*
X0080495Y0101713D01*
X0080535Y0101786D01*
X0080579Y0101858D01*
X0080626Y0101927D01*
X0080676Y0101995D01*
X0080729Y0102059D01*
X0080786Y0102121D01*
X0080845Y0102180D01*
X0080907Y0102237D01*
X0080971Y0102290D01*
X0081039Y0102340D01*
X0081108Y0102387D01*
X0081179Y0102431D01*
X0081253Y0102471D01*
X0081328Y0102508D01*
X0081406Y0102541D01*
X0081484Y0102570D01*
X0081564Y0102596D01*
X0081645Y0102617D01*
X0081727Y0102635D01*
X0081809Y0102649D01*
X0081893Y0102659D01*
X0081976Y0102665D01*
X0082060Y0102667D01*
X0082144Y0102665D01*
X0082227Y0102659D01*
X0082311Y0102649D01*
X0082393Y0102635D01*
X0082475Y0102617D01*
X0082556Y0102596D01*
X0082636Y0102570D01*
X0082714Y0102541D01*
X0082792Y0102508D01*
X0082867Y0102471D01*
X0082940Y0102431D01*
X0083012Y0102387D01*
X0083081Y0102340D01*
X0083149Y0102290D01*
X0083213Y0102237D01*
X0083275Y0102180D01*
X0083334Y0102121D01*
X0083391Y0102059D01*
X0083444Y0101995D01*
X0083494Y0101927D01*
X0083541Y0101858D01*
X0083585Y0101787D01*
X0083625Y0101713D01*
X0083662Y0101638D01*
X0083695Y0101560D01*
X0083724Y0101482D01*
X0083750Y0101402D01*
X0083771Y0101321D01*
X0083789Y0101239D01*
X0083803Y0101157D01*
X0083813Y0101073D01*
X0083819Y0100990D01*
X0083821Y0100906D01*
X0083819Y0100822D01*
X0083813Y0100739D01*
X0083803Y0100655D01*
X0083789Y0100573D01*
X0083771Y0100491D01*
X0083750Y0100410D01*
X0083724Y0100330D01*
X0083695Y0100252D01*
X0083662Y0100174D01*
X0083625Y0100099D01*
X0083585Y0100026D01*
X0083541Y0099954D01*
X0083494Y0099885D01*
X0083444Y0099817D01*
X0083391Y0099753D01*
X0083334Y0099691D01*
X0083275Y0099632D01*
X0083213Y0099575D01*
X0083149Y0099522D01*
X0083081Y0099472D01*
X0083012Y0099425D01*
X0082941Y0099381D01*
X0082867Y0099341D01*
X0082792Y0099304D01*
X0082714Y0099271D01*
X0082636Y0099242D01*
X0082556Y0099216D01*
X0082475Y0099195D01*
X0082393Y0099177D01*
X0082311Y0099163D01*
X0082227Y0099153D01*
X0082144Y0099147D01*
X0082060Y0099145D01*
X0081976Y0099147D01*
X0081893Y0099153D01*
X0081809Y0099163D01*
X0081727Y0099177D01*
X0081645Y0099195D01*
X0081564Y0099216D01*
X0081484Y0099242D01*
X0081406Y0099271D01*
X0081328Y0099304D01*
X0081253Y0099341D01*
X0081180Y0099381D01*
X0081108Y0099425D01*
X0081039Y0099472D01*
X0080971Y0099522D01*
X0080907Y0099575D01*
X0080845Y0099632D01*
X0080786Y0099691D01*
X0080729Y0099753D01*
X0080676Y0099817D01*
X0080626Y0099885D01*
X0080579Y0099954D01*
X0080535Y0100025D01*
X0080495Y0100099D01*
X0080458Y0100174D01*
X0080425Y0100252D01*
X0080396Y0100330D01*
X0080370Y0100410D01*
X0080349Y0100491D01*
X0080331Y0100573D01*
X0080317Y0100655D01*
X0080307Y0100739D01*
X0080301Y0100822D01*
X0080299Y0100906D01*
D13*
X0073251Y0084975D02*
X0073251Y0080771D01*
X0070098Y0083924D01*
X0076403Y0083924D01*
X0075352Y0078530D02*
X0076403Y0077479D01*
X0076403Y0075377D01*
X0075352Y0074326D01*
X0071149Y0074326D01*
X0070098Y0075377D01*
X0070098Y0077479D01*
X0071149Y0078530D01*
X0111017Y0077455D02*
X0111017Y0072201D01*
X0112068Y0071150D01*
X0114169Y0071150D01*
X0115220Y0072201D01*
X0115220Y0077455D01*
X0117462Y0076404D02*
X0118513Y0077455D01*
X0120615Y0077455D01*
X0121666Y0076404D01*
X0120615Y0074303D02*
X0118513Y0074303D01*
X0117462Y0075354D01*
X0117462Y0076404D01*
X0119564Y0078506D02*
X0119564Y0070099D01*
X0118513Y0071150D02*
X0120615Y0071150D01*
X0121666Y0072201D01*
X0121666Y0073252D01*
X0120615Y0074303D01*
X0123908Y0075354D02*
X0126009Y0077455D01*
X0126009Y0071150D01*
X0123908Y0071150D02*
X0128111Y0071150D01*
X0118513Y0071150D02*
X0117462Y0072201D01*
D14*
X0066483Y0101450D02*
X0065015Y0101450D01*
X0066483Y0102918D01*
X0066483Y0103285D01*
X0066116Y0103652D01*
X0065382Y0103652D01*
X0065015Y0103285D01*
X0064181Y0103652D02*
X0062713Y0103652D01*
X0063447Y0103652D02*
X0063447Y0101450D01*
X0061879Y0101450D02*
X0061879Y0103652D01*
X0060411Y0103652D02*
X0061879Y0101450D01*
X0060411Y0101450D02*
X0060411Y0103652D01*
X0059577Y0102918D02*
X0059577Y0101450D01*
X0059577Y0102551D02*
X0058109Y0102551D01*
X0058109Y0102918D02*
X0058109Y0101450D01*
X0058109Y0102918D02*
X0058843Y0103652D01*
X0059577Y0102918D01*
X0051568Y0103800D02*
X0051568Y0100800D01*
X0051566Y0100756D01*
X0051560Y0100713D01*
X0051551Y0100671D01*
X0051538Y0100629D01*
X0051521Y0100589D01*
X0051501Y0100550D01*
X0051478Y0100513D01*
X0051451Y0100479D01*
X0051422Y0100446D01*
X0051389Y0100417D01*
X0051355Y0100390D01*
X0051318Y0100367D01*
X0051279Y0100347D01*
X0051239Y0100330D01*
X0051197Y0100317D01*
X0051155Y0100308D01*
X0051112Y0100302D01*
X0051068Y0100300D01*
X0042068Y0100300D01*
X0042024Y0100302D01*
X0041981Y0100308D01*
X0041939Y0100317D01*
X0041897Y0100330D01*
X0041857Y0100347D01*
X0041818Y0100367D01*
X0041781Y0100390D01*
X0041747Y0100417D01*
X0041714Y0100446D01*
X0041685Y0100479D01*
X0041658Y0100513D01*
X0041635Y0100550D01*
X0041615Y0100589D01*
X0041598Y0100629D01*
X0041585Y0100671D01*
X0041576Y0100713D01*
X0041570Y0100756D01*
X0041568Y0100800D01*
X0041568Y0103800D01*
X0041570Y0103844D01*
X0041576Y0103887D01*
X0041585Y0103929D01*
X0041598Y0103971D01*
X0041615Y0104011D01*
X0041635Y0104050D01*
X0041658Y0104087D01*
X0041685Y0104121D01*
X0041714Y0104154D01*
X0041747Y0104183D01*
X0041781Y0104210D01*
X0041818Y0104233D01*
X0041857Y0104253D01*
X0041897Y0104270D01*
X0041939Y0104283D01*
X0041981Y0104292D01*
X0042024Y0104298D01*
X0042068Y0104300D01*
X0051068Y0104300D01*
X0051112Y0104298D01*
X0051155Y0104292D01*
X0051197Y0104283D01*
X0051239Y0104270D01*
X0051279Y0104253D01*
X0051318Y0104233D01*
X0051355Y0104210D01*
X0051389Y0104183D01*
X0051422Y0104154D01*
X0051451Y0104121D01*
X0051478Y0104087D01*
X0051501Y0104050D01*
X0051521Y0104011D01*
X0051538Y0103971D01*
X0051551Y0103929D01*
X0051560Y0103887D01*
X0051566Y0103844D01*
X0051568Y0103800D01*
X0049088Y0101350D02*
X0047620Y0101350D01*
X0048354Y0101350D02*
X0048354Y0103552D01*
X0047620Y0102818D01*
X0046786Y0103185D02*
X0046419Y0103552D01*
X0045685Y0103552D01*
X0045318Y0103185D01*
X0045318Y0101717D01*
X0045685Y0101350D01*
X0046419Y0101350D01*
X0046786Y0101717D01*
X0046280Y0096510D02*
X0044828Y0096510D01*
X0044828Y0093607D01*
X0046280Y0093607D01*
X0046763Y0094091D01*
X0046763Y0096026D01*
X0046280Y0096510D01*
X0047775Y0096026D02*
X0047775Y0095542D01*
X0048259Y0095059D01*
X0049226Y0095059D01*
X0049710Y0094575D01*
X0049710Y0094091D01*
X0049226Y0093607D01*
X0048259Y0093607D01*
X0047775Y0094091D01*
X0047775Y0094575D01*
X0048259Y0095059D01*
X0049226Y0095059D02*
X0049710Y0095542D01*
X0049710Y0096026D01*
X0049226Y0096510D01*
X0048259Y0096510D01*
X0047775Y0096026D01*
X0038017Y0096114D02*
X0038017Y0094646D01*
X0038017Y0095380D02*
X0035815Y0095380D01*
X0036549Y0094646D01*
X0036916Y0093812D02*
X0037283Y0093445D01*
X0037283Y0092344D01*
X0038017Y0092344D02*
X0035815Y0092344D01*
X0035815Y0093445D01*
X0036182Y0093812D01*
X0036916Y0093812D01*
X0037283Y0093078D02*
X0038017Y0093812D01*
X0038767Y0091300D02*
X0038765Y0091256D01*
X0038759Y0091213D01*
X0038750Y0091171D01*
X0038737Y0091129D01*
X0038720Y0091089D01*
X0038700Y0091050D01*
X0038677Y0091013D01*
X0038650Y0090979D01*
X0038621Y0090946D01*
X0038588Y0090917D01*
X0038554Y0090890D01*
X0038517Y0090867D01*
X0038478Y0090847D01*
X0038438Y0090830D01*
X0038396Y0090817D01*
X0038354Y0090808D01*
X0038311Y0090802D01*
X0038267Y0090800D01*
X0035267Y0090800D01*
X0035223Y0090802D01*
X0035180Y0090808D01*
X0035138Y0090817D01*
X0035096Y0090830D01*
X0035056Y0090847D01*
X0035017Y0090867D01*
X0034980Y0090890D01*
X0034946Y0090917D01*
X0034913Y0090946D01*
X0034884Y0090979D01*
X0034857Y0091013D01*
X0034834Y0091050D01*
X0034814Y0091089D01*
X0034797Y0091129D01*
X0034784Y0091171D01*
X0034775Y0091213D01*
X0034769Y0091256D01*
X0034767Y0091300D01*
X0034767Y0100300D01*
X0034769Y0100344D01*
X0034775Y0100387D01*
X0034784Y0100429D01*
X0034797Y0100471D01*
X0034814Y0100511D01*
X0034834Y0100550D01*
X0034857Y0100587D01*
X0034884Y0100621D01*
X0034913Y0100654D01*
X0034946Y0100683D01*
X0034980Y0100710D01*
X0035017Y0100733D01*
X0035056Y0100753D01*
X0035096Y0100770D01*
X0035138Y0100783D01*
X0035180Y0100792D01*
X0035223Y0100798D01*
X0035267Y0100800D01*
X0038267Y0100800D01*
X0038311Y0100798D01*
X0038354Y0100792D01*
X0038396Y0100783D01*
X0038438Y0100770D01*
X0038478Y0100753D01*
X0038517Y0100733D01*
X0038554Y0100710D01*
X0038588Y0100683D01*
X0038621Y0100654D01*
X0038650Y0100621D01*
X0038677Y0100587D01*
X0038700Y0100550D01*
X0038720Y0100511D01*
X0038737Y0100471D01*
X0038750Y0100429D01*
X0038759Y0100387D01*
X0038765Y0100344D01*
X0038767Y0100300D01*
X0038767Y0091300D01*
X0032667Y0091300D02*
X0032667Y0100300D01*
X0032665Y0100344D01*
X0032659Y0100387D01*
X0032650Y0100429D01*
X0032637Y0100471D01*
X0032620Y0100511D01*
X0032600Y0100550D01*
X0032577Y0100587D01*
X0032550Y0100621D01*
X0032521Y0100654D01*
X0032488Y0100683D01*
X0032454Y0100710D01*
X0032417Y0100733D01*
X0032378Y0100753D01*
X0032338Y0100770D01*
X0032296Y0100783D01*
X0032254Y0100792D01*
X0032211Y0100798D01*
X0032167Y0100800D01*
X0029167Y0100800D01*
X0029123Y0100798D01*
X0029080Y0100792D01*
X0029038Y0100783D01*
X0028996Y0100770D01*
X0028956Y0100753D01*
X0028917Y0100733D01*
X0028880Y0100710D01*
X0028846Y0100683D01*
X0028813Y0100654D01*
X0028784Y0100621D01*
X0028757Y0100587D01*
X0028734Y0100550D01*
X0028714Y0100511D01*
X0028697Y0100471D01*
X0028684Y0100429D01*
X0028675Y0100387D01*
X0028669Y0100344D01*
X0028667Y0100300D01*
X0028667Y0091300D01*
X0028669Y0091256D01*
X0028675Y0091213D01*
X0028684Y0091171D01*
X0028697Y0091129D01*
X0028714Y0091089D01*
X0028734Y0091050D01*
X0028757Y0091013D01*
X0028784Y0090979D01*
X0028813Y0090946D01*
X0028846Y0090917D01*
X0028880Y0090890D01*
X0028917Y0090867D01*
X0028956Y0090847D01*
X0028996Y0090830D01*
X0029038Y0090817D01*
X0029080Y0090808D01*
X0029123Y0090802D01*
X0029167Y0090800D01*
X0032167Y0090800D01*
X0032211Y0090802D01*
X0032254Y0090808D01*
X0032296Y0090817D01*
X0032338Y0090830D01*
X0032378Y0090847D01*
X0032417Y0090867D01*
X0032454Y0090890D01*
X0032488Y0090917D01*
X0032521Y0090946D01*
X0032550Y0090979D01*
X0032577Y0091013D01*
X0032600Y0091050D01*
X0032620Y0091089D01*
X0032637Y0091129D01*
X0032650Y0091171D01*
X0032659Y0091213D01*
X0032665Y0091256D01*
X0032667Y0091300D01*
X0035815Y0096948D02*
X0036916Y0096948D01*
X0036549Y0097682D01*
X0036549Y0098049D01*
X0036916Y0098416D01*
X0037650Y0098416D01*
X0038017Y0098049D01*
X0038017Y0097315D01*
X0037650Y0096948D01*
X0035815Y0096948D02*
X0035815Y0098416D01*
X0035267Y0102800D02*
X0038267Y0102800D01*
X0038311Y0102802D01*
X0038354Y0102808D01*
X0038396Y0102817D01*
X0038438Y0102830D01*
X0038478Y0102847D01*
X0038517Y0102867D01*
X0038554Y0102890D01*
X0038588Y0102917D01*
X0038621Y0102946D01*
X0038650Y0102979D01*
X0038677Y0103013D01*
X0038700Y0103050D01*
X0038720Y0103089D01*
X0038737Y0103129D01*
X0038750Y0103171D01*
X0038759Y0103213D01*
X0038765Y0103256D01*
X0038767Y0103300D01*
X0038767Y0112300D01*
X0038765Y0112344D01*
X0038759Y0112387D01*
X0038750Y0112429D01*
X0038737Y0112471D01*
X0038720Y0112511D01*
X0038700Y0112550D01*
X0038677Y0112587D01*
X0038650Y0112621D01*
X0038621Y0112654D01*
X0038588Y0112683D01*
X0038554Y0112710D01*
X0038517Y0112733D01*
X0038478Y0112753D01*
X0038438Y0112770D01*
X0038396Y0112783D01*
X0038354Y0112792D01*
X0038311Y0112798D01*
X0038267Y0112800D01*
X0035267Y0112800D01*
X0035223Y0112798D01*
X0035180Y0112792D01*
X0035138Y0112783D01*
X0035096Y0112770D01*
X0035056Y0112753D01*
X0035017Y0112733D01*
X0034980Y0112710D01*
X0034946Y0112683D01*
X0034913Y0112654D01*
X0034884Y0112621D01*
X0034857Y0112587D01*
X0034834Y0112550D01*
X0034814Y0112511D01*
X0034797Y0112471D01*
X0034784Y0112429D01*
X0034775Y0112387D01*
X0034769Y0112344D01*
X0034767Y0112300D01*
X0034767Y0103300D01*
X0034769Y0103256D01*
X0034775Y0103213D01*
X0034784Y0103171D01*
X0034797Y0103129D01*
X0034814Y0103089D01*
X0034834Y0103050D01*
X0034857Y0103013D01*
X0034884Y0102979D01*
X0034913Y0102946D01*
X0034946Y0102917D01*
X0034980Y0102890D01*
X0035017Y0102867D01*
X0035056Y0102847D01*
X0035096Y0102830D01*
X0035138Y0102817D01*
X0035180Y0102808D01*
X0035223Y0102802D01*
X0035267Y0102800D01*
X0035815Y0104144D02*
X0035815Y0105245D01*
X0036182Y0105612D01*
X0036916Y0105612D01*
X0037283Y0105245D01*
X0037283Y0104144D01*
X0038017Y0104144D02*
X0035815Y0104144D01*
X0037283Y0104878D02*
X0038017Y0105612D01*
X0038017Y0106446D02*
X0038017Y0107914D01*
X0038017Y0107180D02*
X0035815Y0107180D01*
X0036549Y0106446D01*
X0036916Y0108748D02*
X0036916Y0110216D01*
X0038017Y0109849D02*
X0035815Y0109849D01*
X0036916Y0108748D01*
X0041568Y0109800D02*
X0041568Y0106800D01*
X0041570Y0106756D01*
X0041576Y0106713D01*
X0041585Y0106671D01*
X0041598Y0106629D01*
X0041615Y0106589D01*
X0041635Y0106550D01*
X0041658Y0106513D01*
X0041685Y0106479D01*
X0041714Y0106446D01*
X0041747Y0106417D01*
X0041781Y0106390D01*
X0041818Y0106367D01*
X0041857Y0106347D01*
X0041897Y0106330D01*
X0041939Y0106317D01*
X0041981Y0106308D01*
X0042024Y0106302D01*
X0042068Y0106300D01*
X0051068Y0106300D01*
X0051112Y0106302D01*
X0051155Y0106308D01*
X0051197Y0106317D01*
X0051239Y0106330D01*
X0051279Y0106347D01*
X0051318Y0106367D01*
X0051355Y0106390D01*
X0051389Y0106417D01*
X0051422Y0106446D01*
X0051451Y0106479D01*
X0051478Y0106513D01*
X0051501Y0106550D01*
X0051521Y0106589D01*
X0051538Y0106629D01*
X0051551Y0106671D01*
X0051560Y0106713D01*
X0051566Y0106756D01*
X0051568Y0106800D01*
X0051568Y0109800D01*
X0051566Y0109844D01*
X0051560Y0109887D01*
X0051551Y0109929D01*
X0051538Y0109971D01*
X0051521Y0110011D01*
X0051501Y0110050D01*
X0051478Y0110087D01*
X0051451Y0110121D01*
X0051422Y0110154D01*
X0051389Y0110183D01*
X0051355Y0110210D01*
X0051318Y0110233D01*
X0051279Y0110253D01*
X0051239Y0110270D01*
X0051197Y0110283D01*
X0051155Y0110292D01*
X0051112Y0110298D01*
X0051068Y0110300D01*
X0042068Y0110300D01*
X0042024Y0110298D01*
X0041981Y0110292D01*
X0041939Y0110283D01*
X0041897Y0110270D01*
X0041857Y0110253D01*
X0041818Y0110233D01*
X0041781Y0110210D01*
X0041747Y0110183D01*
X0041714Y0110154D01*
X0041685Y0110121D01*
X0041658Y0110087D01*
X0041635Y0110050D01*
X0041615Y0110011D01*
X0041598Y0109971D01*
X0041585Y0109929D01*
X0041576Y0109887D01*
X0041570Y0109844D01*
X0041568Y0109800D01*
X0044718Y0109285D02*
X0044718Y0107817D01*
X0045085Y0107450D01*
X0045819Y0107450D01*
X0046186Y0107817D01*
X0047020Y0107450D02*
X0048488Y0108918D01*
X0048488Y0109285D01*
X0048121Y0109652D01*
X0047387Y0109652D01*
X0047020Y0109285D01*
X0046186Y0109285D02*
X0045819Y0109652D01*
X0045085Y0109652D01*
X0044718Y0109285D01*
X0047020Y0107450D02*
X0048488Y0107450D01*
X0032667Y0103300D02*
X0032667Y0112300D01*
X0032665Y0112344D01*
X0032659Y0112387D01*
X0032650Y0112429D01*
X0032637Y0112471D01*
X0032620Y0112511D01*
X0032600Y0112550D01*
X0032577Y0112587D01*
X0032550Y0112621D01*
X0032521Y0112654D01*
X0032488Y0112683D01*
X0032454Y0112710D01*
X0032417Y0112733D01*
X0032378Y0112753D01*
X0032338Y0112770D01*
X0032296Y0112783D01*
X0032254Y0112792D01*
X0032211Y0112798D01*
X0032167Y0112800D01*
X0029167Y0112800D01*
X0029123Y0112798D01*
X0029080Y0112792D01*
X0029038Y0112783D01*
X0028996Y0112770D01*
X0028956Y0112753D01*
X0028917Y0112733D01*
X0028880Y0112710D01*
X0028846Y0112683D01*
X0028813Y0112654D01*
X0028784Y0112621D01*
X0028757Y0112587D01*
X0028734Y0112550D01*
X0028714Y0112511D01*
X0028697Y0112471D01*
X0028684Y0112429D01*
X0028675Y0112387D01*
X0028669Y0112344D01*
X0028667Y0112300D01*
X0028667Y0103300D01*
X0028669Y0103256D01*
X0028675Y0103213D01*
X0028684Y0103171D01*
X0028697Y0103129D01*
X0028714Y0103089D01*
X0028734Y0103050D01*
X0028757Y0103013D01*
X0028784Y0102979D01*
X0028813Y0102946D01*
X0028846Y0102917D01*
X0028880Y0102890D01*
X0028917Y0102867D01*
X0028956Y0102847D01*
X0028996Y0102830D01*
X0029038Y0102817D01*
X0029080Y0102808D01*
X0029123Y0102802D01*
X0029167Y0102800D01*
X0032167Y0102800D01*
X0032211Y0102802D01*
X0032254Y0102808D01*
X0032296Y0102817D01*
X0032338Y0102830D01*
X0032378Y0102847D01*
X0032417Y0102867D01*
X0032454Y0102890D01*
X0032488Y0102917D01*
X0032521Y0102946D01*
X0032550Y0102979D01*
X0032577Y0103013D01*
X0032600Y0103050D01*
X0032620Y0103089D01*
X0032637Y0103129D01*
X0032650Y0103171D01*
X0032659Y0103213D01*
X0032665Y0103256D01*
X0032667Y0103300D01*
X0021805Y0102750D02*
X0019870Y0102750D01*
X0020838Y0102750D02*
X0020838Y0105652D01*
X0019870Y0104685D01*
X0018859Y0105652D02*
X0016924Y0103717D01*
X0017407Y0104201D02*
X0018859Y0102750D01*
X0016924Y0102750D02*
X0016924Y0105652D01*
X0056184Y0014315D02*
X0055566Y0013697D01*
X0055566Y0011229D01*
X0056184Y0010611D01*
X0057418Y0010611D01*
X0058035Y0011229D01*
X0059250Y0010611D02*
X0061718Y0010611D01*
X0060484Y0010611D02*
X0060484Y0014315D01*
X0059250Y0013080D01*
X0058035Y0013697D02*
X0057418Y0014315D01*
X0056184Y0014315D01*
X0062933Y0013697D02*
X0062933Y0013080D01*
X0063550Y0012463D01*
X0064784Y0012463D01*
X0065402Y0011846D01*
X0065402Y0011229D01*
X0064784Y0010611D01*
X0063550Y0010611D01*
X0062933Y0011229D01*
X0062933Y0011846D01*
X0063550Y0012463D01*
X0064784Y0012463D02*
X0065402Y0013080D01*
X0065402Y0013697D01*
X0064784Y0014315D01*
X0063550Y0014315D01*
X0062933Y0013697D01*
X0156167Y0011550D02*
X0156167Y0009050D01*
X0156169Y0009006D01*
X0156175Y0008963D01*
X0156184Y0008921D01*
X0156197Y0008879D01*
X0156214Y0008839D01*
X0156234Y0008800D01*
X0156257Y0008763D01*
X0156284Y0008729D01*
X0156313Y0008696D01*
X0156346Y0008667D01*
X0156380Y0008640D01*
X0156417Y0008617D01*
X0156456Y0008597D01*
X0156496Y0008580D01*
X0156538Y0008567D01*
X0156580Y0008558D01*
X0156623Y0008552D01*
X0156667Y0008550D01*
X0162667Y0008550D01*
X0162711Y0008552D01*
X0162754Y0008558D01*
X0162796Y0008567D01*
X0162838Y0008580D01*
X0162878Y0008597D01*
X0162917Y0008617D01*
X0162954Y0008640D01*
X0162988Y0008667D01*
X0163021Y0008696D01*
X0163050Y0008729D01*
X0163077Y0008763D01*
X0163100Y0008800D01*
X0163120Y0008839D01*
X0163137Y0008879D01*
X0163150Y0008921D01*
X0163159Y0008963D01*
X0163165Y0009006D01*
X0163167Y0009050D01*
X0163167Y0011550D01*
X0163165Y0011594D01*
X0163159Y0011637D01*
X0163150Y0011679D01*
X0163137Y0011721D01*
X0163120Y0011761D01*
X0163100Y0011800D01*
X0163077Y0011837D01*
X0163050Y0011871D01*
X0163021Y0011904D01*
X0162988Y0011933D01*
X0162954Y0011960D01*
X0162917Y0011983D01*
X0162878Y0012003D01*
X0162838Y0012020D01*
X0162796Y0012033D01*
X0162754Y0012042D01*
X0162711Y0012048D01*
X0162667Y0012050D01*
X0156667Y0012050D01*
X0156623Y0012048D01*
X0156580Y0012042D01*
X0156538Y0012033D01*
X0156496Y0012020D01*
X0156456Y0012003D01*
X0156417Y0011983D01*
X0156380Y0011960D01*
X0156346Y0011933D01*
X0156313Y0011904D01*
X0156284Y0011871D01*
X0156257Y0011837D01*
X0156234Y0011800D01*
X0156214Y0011761D01*
X0156197Y0011721D01*
X0156184Y0011679D01*
X0156175Y0011637D01*
X0156169Y0011594D01*
X0156167Y0011550D01*
X0157213Y0007652D02*
X0158314Y0007652D01*
X0158681Y0007285D01*
X0158681Y0006551D01*
X0158314Y0006184D01*
X0157213Y0006184D01*
X0157947Y0006184D02*
X0158681Y0005450D01*
X0159515Y0006551D02*
X0160983Y0006551D01*
X0160616Y0005450D02*
X0160616Y0007652D01*
X0159515Y0006551D01*
X0157213Y0005450D02*
X0157213Y0007652D01*
X0163967Y0009050D02*
X0163967Y0011550D01*
X0163969Y0011594D01*
X0163975Y0011637D01*
X0163984Y0011679D01*
X0163997Y0011721D01*
X0164014Y0011761D01*
X0164034Y0011800D01*
X0164057Y0011837D01*
X0164084Y0011871D01*
X0164113Y0011904D01*
X0164146Y0011933D01*
X0164180Y0011960D01*
X0164217Y0011983D01*
X0164256Y0012003D01*
X0164296Y0012020D01*
X0164338Y0012033D01*
X0164380Y0012042D01*
X0164423Y0012048D01*
X0164467Y0012050D01*
X0170467Y0012050D01*
X0170511Y0012048D01*
X0170554Y0012042D01*
X0170596Y0012033D01*
X0170638Y0012020D01*
X0170678Y0012003D01*
X0170717Y0011983D01*
X0170754Y0011960D01*
X0170788Y0011933D01*
X0170821Y0011904D01*
X0170850Y0011871D01*
X0170877Y0011837D01*
X0170900Y0011800D01*
X0170920Y0011761D01*
X0170937Y0011721D01*
X0170950Y0011679D01*
X0170959Y0011637D01*
X0170965Y0011594D01*
X0170967Y0011550D01*
X0170967Y0009050D01*
X0170965Y0009006D01*
X0170959Y0008963D01*
X0170950Y0008921D01*
X0170937Y0008879D01*
X0170920Y0008839D01*
X0170900Y0008800D01*
X0170877Y0008763D01*
X0170850Y0008729D01*
X0170821Y0008696D01*
X0170788Y0008667D01*
X0170754Y0008640D01*
X0170717Y0008617D01*
X0170678Y0008597D01*
X0170638Y0008580D01*
X0170596Y0008567D01*
X0170554Y0008558D01*
X0170511Y0008552D01*
X0170467Y0008550D01*
X0164467Y0008550D01*
X0164423Y0008552D01*
X0164380Y0008558D01*
X0164338Y0008567D01*
X0164296Y0008580D01*
X0164256Y0008597D01*
X0164217Y0008617D01*
X0164180Y0008640D01*
X0164146Y0008667D01*
X0164113Y0008696D01*
X0164084Y0008729D01*
X0164057Y0008763D01*
X0164034Y0008800D01*
X0164014Y0008839D01*
X0163997Y0008879D01*
X0163984Y0008921D01*
X0163975Y0008963D01*
X0163969Y0009006D01*
X0163967Y0009050D01*
X0165013Y0007652D02*
X0165013Y0005450D01*
X0166481Y0005450D01*
X0167315Y0005450D02*
X0168783Y0005450D01*
X0168049Y0005450D02*
X0168049Y0007652D01*
X0167315Y0006918D01*
X0176009Y0016850D02*
X0176009Y0018318D01*
X0176743Y0019052D01*
X0177477Y0018318D01*
X0177477Y0016850D01*
X0178311Y0016850D02*
X0178311Y0019052D01*
X0179779Y0016850D01*
X0179779Y0019052D01*
X0180613Y0019052D02*
X0182081Y0019052D01*
X0181347Y0019052D02*
X0181347Y0016850D01*
X0182915Y0016850D02*
X0184383Y0016850D01*
X0183649Y0016850D02*
X0183649Y0019052D01*
X0182915Y0018318D01*
X0177477Y0017951D02*
X0176009Y0017951D01*
D15*
X0173567Y0015900D03*
X0069667Y0102800D03*
D16*
X0055917Y0102800D03*
X0187317Y0015900D03*
D17*
X0213367Y0050001D02*
X0213367Y0076202D01*
X0214765Y0077599D01*
X0240966Y0077599D01*
X0240966Y0050001D01*
X0213367Y0050001D01*
X0183146Y0056000D02*
X0179810Y0056000D01*
X0183146Y0059336D01*
X0183146Y0060170D01*
X0182312Y0061004D01*
X0180644Y0061004D01*
X0179810Y0060170D01*
X0177990Y0061004D02*
X0176322Y0061004D01*
X0177156Y0061004D02*
X0177156Y0056834D01*
X0176322Y0056000D01*
X0175488Y0056000D01*
X0174654Y0056834D01*
X0244254Y0113034D02*
X0244688Y0112600D01*
X0245555Y0112600D01*
X0245989Y0113034D01*
X0245989Y0115202D01*
X0247201Y0114769D02*
X0247634Y0115202D01*
X0248502Y0115202D01*
X0248935Y0114769D01*
X0248935Y0114335D01*
X0247201Y0112600D01*
X0248935Y0112600D01*
X0244254Y0113034D02*
X0244254Y0115202D01*
X0066567Y0041787D02*
X0066567Y0023813D01*
X0046767Y0023813D02*
X0046767Y0041787D01*
X0061267Y0037600D02*
X0061269Y0037684D01*
X0061275Y0037769D01*
X0061285Y0037852D01*
X0061299Y0037936D01*
X0061316Y0038018D01*
X0061338Y0038100D01*
X0061363Y0038180D01*
X0061392Y0038259D01*
X0061425Y0038337D01*
X0061461Y0038413D01*
X0061501Y0038488D01*
X0061545Y0038560D01*
X0061591Y0038631D01*
X0061641Y0038699D01*
X0061694Y0038764D01*
X0061750Y0038827D01*
X0061809Y0038888D01*
X0061871Y0038945D01*
X0061935Y0039000D01*
X0062002Y0039051D01*
X0062071Y0039100D01*
X0062143Y0039145D01*
X0062216Y0039186D01*
X0062291Y0039224D01*
X0062368Y0039259D01*
X0062447Y0039290D01*
X0062527Y0039317D01*
X0062608Y0039340D01*
X0062690Y0039360D01*
X0062773Y0039376D01*
X0062856Y0039388D01*
X0062941Y0039396D01*
X0063025Y0039400D01*
X0063109Y0039400D01*
X0063193Y0039396D01*
X0063278Y0039388D01*
X0063361Y0039376D01*
X0063444Y0039360D01*
X0063526Y0039340D01*
X0063607Y0039317D01*
X0063687Y0039290D01*
X0063766Y0039259D01*
X0063843Y0039224D01*
X0063918Y0039186D01*
X0063991Y0039145D01*
X0064063Y0039100D01*
X0064132Y0039051D01*
X0064199Y0039000D01*
X0064263Y0038945D01*
X0064325Y0038888D01*
X0064384Y0038827D01*
X0064440Y0038764D01*
X0064493Y0038699D01*
X0064543Y0038631D01*
X0064589Y0038560D01*
X0064633Y0038488D01*
X0064673Y0038413D01*
X0064709Y0038337D01*
X0064742Y0038259D01*
X0064771Y0038180D01*
X0064796Y0038100D01*
X0064818Y0038018D01*
X0064835Y0037936D01*
X0064849Y0037852D01*
X0064859Y0037769D01*
X0064865Y0037684D01*
X0064867Y0037600D01*
X0064865Y0037516D01*
X0064859Y0037431D01*
X0064849Y0037348D01*
X0064835Y0037264D01*
X0064818Y0037182D01*
X0064796Y0037100D01*
X0064771Y0037020D01*
X0064742Y0036941D01*
X0064709Y0036863D01*
X0064673Y0036787D01*
X0064633Y0036712D01*
X0064589Y0036640D01*
X0064543Y0036569D01*
X0064493Y0036501D01*
X0064440Y0036436D01*
X0064384Y0036373D01*
X0064325Y0036312D01*
X0064263Y0036255D01*
X0064199Y0036200D01*
X0064132Y0036149D01*
X0064063Y0036100D01*
X0063991Y0036055D01*
X0063918Y0036014D01*
X0063843Y0035976D01*
X0063766Y0035941D01*
X0063687Y0035910D01*
X0063607Y0035883D01*
X0063526Y0035860D01*
X0063444Y0035840D01*
X0063361Y0035824D01*
X0063278Y0035812D01*
X0063193Y0035804D01*
X0063109Y0035800D01*
X0063025Y0035800D01*
X0062941Y0035804D01*
X0062856Y0035812D01*
X0062773Y0035824D01*
X0062690Y0035840D01*
X0062608Y0035860D01*
X0062527Y0035883D01*
X0062447Y0035910D01*
X0062368Y0035941D01*
X0062291Y0035976D01*
X0062216Y0036014D01*
X0062143Y0036055D01*
X0062071Y0036100D01*
X0062002Y0036149D01*
X0061935Y0036200D01*
X0061871Y0036255D01*
X0061809Y0036312D01*
X0061750Y0036373D01*
X0061694Y0036436D01*
X0061641Y0036501D01*
X0061591Y0036569D01*
X0061545Y0036640D01*
X0061501Y0036712D01*
X0061461Y0036787D01*
X0061425Y0036863D01*
X0061392Y0036941D01*
X0061363Y0037020D01*
X0061338Y0037100D01*
X0061316Y0037182D01*
X0061299Y0037264D01*
X0061285Y0037348D01*
X0061275Y0037431D01*
X0061269Y0037516D01*
X0061267Y0037600D01*
D18*
X0060003Y0077117D03*
D19*
X0027817Y0094000D02*
X0027817Y0095101D01*
X0027450Y0095468D01*
X0025982Y0095468D01*
X0025615Y0095101D01*
X0025615Y0094000D01*
X0027817Y0094000D01*
X0027450Y0096210D02*
X0027817Y0096577D01*
X0027817Y0097311D01*
X0027450Y0097678D01*
X0026716Y0097678D01*
X0026349Y0097311D01*
X0026349Y0096944D01*
X0026716Y0096210D01*
X0025615Y0096210D01*
X0025615Y0097678D01*
X0025115Y0107000D02*
X0025115Y0108101D01*
X0025482Y0108468D01*
X0026950Y0108468D01*
X0027317Y0108101D01*
X0027317Y0107000D01*
X0025115Y0107000D01*
X0026216Y0109210D02*
X0026216Y0110678D01*
X0027317Y0110311D02*
X0025115Y0110311D01*
X0026216Y0109210D01*
D20*
X0045865Y0082903D02*
X0045865Y0079700D01*
X0044263Y0081301D02*
X0047466Y0081301D01*
X0045865Y0062903D02*
X0045865Y0059700D01*
X0125505Y0119245D02*
X0125505Y0159355D01*
X0149167Y0150300D02*
X0152167Y0153300D01*
X0157167Y0153300D01*
X0149167Y0150300D02*
X0149167Y0128300D01*
X0157167Y0128300D01*
X0166167Y0128300D02*
X0174167Y0128300D01*
X0174167Y0150300D01*
X0171167Y0153300D01*
X0166167Y0153300D01*
X0180167Y0149300D02*
X0183167Y0152300D01*
X0188167Y0152300D01*
X0180167Y0149300D02*
X0180167Y0127300D01*
X0188167Y0127300D01*
X0197167Y0127300D02*
X0205167Y0127300D01*
X0205167Y0149300D01*
X0202167Y0152300D01*
X0197167Y0152300D01*
X0213163Y0152706D02*
X0213163Y0153808D01*
X0230092Y0153808D01*
X0230092Y0152706D01*
X0230092Y0153808D02*
X0230171Y0153808D01*
X0230092Y0140816D02*
X0230092Y0139792D01*
X0213163Y0139792D01*
X0213163Y0140816D01*
X0230092Y0139792D02*
X0230171Y0139792D01*
X0234592Y0116434D02*
X0237741Y0116434D01*
X0242663Y0115450D02*
X0242663Y0109150D01*
X0229671Y0109150D02*
X0229671Y0115450D01*
X0188267Y0129000D02*
X0188005Y0129111D01*
X0187745Y0129228D01*
X0187489Y0129351D01*
X0187235Y0129480D01*
X0186985Y0129616D01*
X0186738Y0129758D01*
X0186495Y0129905D01*
X0186255Y0130059D01*
X0186019Y0130218D01*
X0185787Y0130384D01*
X0185559Y0130554D01*
X0185336Y0130731D01*
X0185117Y0130912D01*
X0184902Y0131099D01*
X0184692Y0131291D01*
X0184487Y0131488D01*
X0184286Y0131691D01*
X0184091Y0131898D01*
X0183900Y0132109D01*
X0183715Y0132326D01*
X0183535Y0132546D01*
X0183361Y0132771D01*
X0183192Y0133001D01*
X0183029Y0133234D01*
X0182872Y0133471D01*
X0182720Y0133712D01*
X0182575Y0133957D01*
X0182435Y0134205D01*
X0182301Y0134456D01*
X0182174Y0134711D01*
X0182053Y0134968D01*
X0181938Y0135229D01*
X0181830Y0135492D01*
X0181728Y0135758D01*
X0181633Y0136026D01*
X0181544Y0136296D01*
X0181462Y0136569D01*
X0181386Y0136844D01*
X0181317Y0137120D01*
X0181255Y0137398D01*
X0181200Y0137677D01*
X0181151Y0137957D01*
X0181110Y0138239D01*
X0181075Y0138522D01*
X0181048Y0138805D01*
X0181027Y0139089D01*
X0181013Y0139373D01*
X0181006Y0139658D01*
X0181006Y0139942D01*
X0181013Y0140227D01*
X0181027Y0140511D01*
X0181048Y0140795D01*
X0181075Y0141078D01*
X0181110Y0141361D01*
X0181151Y0141643D01*
X0181200Y0141923D01*
X0181255Y0142202D01*
X0181317Y0142480D01*
X0181386Y0142756D01*
X0181462Y0143031D01*
X0181544Y0143304D01*
X0181633Y0143574D01*
X0181728Y0143842D01*
X0181830Y0144108D01*
X0181938Y0144371D01*
X0182053Y0144632D01*
X0182174Y0144889D01*
X0182301Y0145144D01*
X0182435Y0145395D01*
X0182575Y0145643D01*
X0182720Y0145888D01*
X0182872Y0146129D01*
X0183029Y0146366D01*
X0183192Y0146599D01*
X0183361Y0146829D01*
X0183535Y0147054D01*
X0183715Y0147274D01*
X0183900Y0147491D01*
X0184091Y0147702D01*
X0184286Y0147909D01*
X0184487Y0148112D01*
X0184692Y0148309D01*
X0184902Y0148501D01*
X0185117Y0148688D01*
X0185336Y0148869D01*
X0185559Y0149046D01*
X0185787Y0149216D01*
X0186019Y0149382D01*
X0186255Y0149541D01*
X0186495Y0149695D01*
X0186738Y0149842D01*
X0186985Y0149984D01*
X0187235Y0150120D01*
X0187489Y0150249D01*
X0187745Y0150372D01*
X0188005Y0150489D01*
X0188267Y0150600D01*
X0197067Y0150600D02*
X0197329Y0150489D01*
X0197589Y0150372D01*
X0197845Y0150249D01*
X0198099Y0150120D01*
X0198349Y0149984D01*
X0198596Y0149842D01*
X0198839Y0149695D01*
X0199079Y0149541D01*
X0199315Y0149382D01*
X0199547Y0149216D01*
X0199775Y0149046D01*
X0199998Y0148869D01*
X0200217Y0148688D01*
X0200432Y0148501D01*
X0200642Y0148309D01*
X0200847Y0148112D01*
X0201048Y0147909D01*
X0201243Y0147702D01*
X0201434Y0147491D01*
X0201619Y0147274D01*
X0201799Y0147054D01*
X0201973Y0146829D01*
X0202142Y0146599D01*
X0202305Y0146366D01*
X0202462Y0146129D01*
X0202614Y0145888D01*
X0202759Y0145643D01*
X0202899Y0145395D01*
X0203033Y0145144D01*
X0203160Y0144889D01*
X0203281Y0144632D01*
X0203396Y0144371D01*
X0203504Y0144108D01*
X0203606Y0143842D01*
X0203701Y0143574D01*
X0203790Y0143304D01*
X0203872Y0143031D01*
X0203948Y0142756D01*
X0204017Y0142480D01*
X0204079Y0142202D01*
X0204134Y0141923D01*
X0204183Y0141643D01*
X0204224Y0141361D01*
X0204259Y0141078D01*
X0204286Y0140795D01*
X0204307Y0140511D01*
X0204321Y0140227D01*
X0204328Y0139942D01*
X0204328Y0139658D01*
X0204321Y0139373D01*
X0204307Y0139089D01*
X0204286Y0138805D01*
X0204259Y0138522D01*
X0204224Y0138239D01*
X0204183Y0137957D01*
X0204134Y0137677D01*
X0204079Y0137398D01*
X0204017Y0137120D01*
X0203948Y0136844D01*
X0203872Y0136569D01*
X0203790Y0136296D01*
X0203701Y0136026D01*
X0203606Y0135758D01*
X0203504Y0135492D01*
X0203396Y0135229D01*
X0203281Y0134968D01*
X0203160Y0134711D01*
X0203033Y0134456D01*
X0202899Y0134205D01*
X0202759Y0133957D01*
X0202614Y0133712D01*
X0202462Y0133471D01*
X0202305Y0133234D01*
X0202142Y0133001D01*
X0201973Y0132771D01*
X0201799Y0132546D01*
X0201619Y0132326D01*
X0201434Y0132109D01*
X0201243Y0131898D01*
X0201048Y0131691D01*
X0200847Y0131488D01*
X0200642Y0131291D01*
X0200432Y0131099D01*
X0200217Y0130912D01*
X0199998Y0130731D01*
X0199775Y0130554D01*
X0199547Y0130384D01*
X0199315Y0130218D01*
X0199079Y0130059D01*
X0198839Y0129905D01*
X0198596Y0129758D01*
X0198349Y0129616D01*
X0198099Y0129480D01*
X0197845Y0129351D01*
X0197589Y0129228D01*
X0197329Y0129111D01*
X0197067Y0129000D01*
X0157267Y0130000D02*
X0157005Y0130111D01*
X0156745Y0130228D01*
X0156489Y0130351D01*
X0156235Y0130480D01*
X0155985Y0130616D01*
X0155738Y0130758D01*
X0155495Y0130905D01*
X0155255Y0131059D01*
X0155019Y0131218D01*
X0154787Y0131384D01*
X0154559Y0131554D01*
X0154336Y0131731D01*
X0154117Y0131912D01*
X0153902Y0132099D01*
X0153692Y0132291D01*
X0153487Y0132488D01*
X0153286Y0132691D01*
X0153091Y0132898D01*
X0152900Y0133109D01*
X0152715Y0133326D01*
X0152535Y0133546D01*
X0152361Y0133771D01*
X0152192Y0134001D01*
X0152029Y0134234D01*
X0151872Y0134471D01*
X0151720Y0134712D01*
X0151575Y0134957D01*
X0151435Y0135205D01*
X0151301Y0135456D01*
X0151174Y0135711D01*
X0151053Y0135968D01*
X0150938Y0136229D01*
X0150830Y0136492D01*
X0150728Y0136758D01*
X0150633Y0137026D01*
X0150544Y0137296D01*
X0150462Y0137569D01*
X0150386Y0137844D01*
X0150317Y0138120D01*
X0150255Y0138398D01*
X0150200Y0138677D01*
X0150151Y0138957D01*
X0150110Y0139239D01*
X0150075Y0139522D01*
X0150048Y0139805D01*
X0150027Y0140089D01*
X0150013Y0140373D01*
X0150006Y0140658D01*
X0150006Y0140942D01*
X0150013Y0141227D01*
X0150027Y0141511D01*
X0150048Y0141795D01*
X0150075Y0142078D01*
X0150110Y0142361D01*
X0150151Y0142643D01*
X0150200Y0142923D01*
X0150255Y0143202D01*
X0150317Y0143480D01*
X0150386Y0143756D01*
X0150462Y0144031D01*
X0150544Y0144304D01*
X0150633Y0144574D01*
X0150728Y0144842D01*
X0150830Y0145108D01*
X0150938Y0145371D01*
X0151053Y0145632D01*
X0151174Y0145889D01*
X0151301Y0146144D01*
X0151435Y0146395D01*
X0151575Y0146643D01*
X0151720Y0146888D01*
X0151872Y0147129D01*
X0152029Y0147366D01*
X0152192Y0147599D01*
X0152361Y0147829D01*
X0152535Y0148054D01*
X0152715Y0148274D01*
X0152900Y0148491D01*
X0153091Y0148702D01*
X0153286Y0148909D01*
X0153487Y0149112D01*
X0153692Y0149309D01*
X0153902Y0149501D01*
X0154117Y0149688D01*
X0154336Y0149869D01*
X0154559Y0150046D01*
X0154787Y0150216D01*
X0155019Y0150382D01*
X0155255Y0150541D01*
X0155495Y0150695D01*
X0155738Y0150842D01*
X0155985Y0150984D01*
X0156235Y0151120D01*
X0156489Y0151249D01*
X0156745Y0151372D01*
X0157005Y0151489D01*
X0157267Y0151600D01*
X0166067Y0151600D02*
X0166329Y0151489D01*
X0166589Y0151372D01*
X0166845Y0151249D01*
X0167099Y0151120D01*
X0167349Y0150984D01*
X0167596Y0150842D01*
X0167839Y0150695D01*
X0168079Y0150541D01*
X0168315Y0150382D01*
X0168547Y0150216D01*
X0168775Y0150046D01*
X0168998Y0149869D01*
X0169217Y0149688D01*
X0169432Y0149501D01*
X0169642Y0149309D01*
X0169847Y0149112D01*
X0170048Y0148909D01*
X0170243Y0148702D01*
X0170434Y0148491D01*
X0170619Y0148274D01*
X0170799Y0148054D01*
X0170973Y0147829D01*
X0171142Y0147599D01*
X0171305Y0147366D01*
X0171462Y0147129D01*
X0171614Y0146888D01*
X0171759Y0146643D01*
X0171899Y0146395D01*
X0172033Y0146144D01*
X0172160Y0145889D01*
X0172281Y0145632D01*
X0172396Y0145371D01*
X0172504Y0145108D01*
X0172606Y0144842D01*
X0172701Y0144574D01*
X0172790Y0144304D01*
X0172872Y0144031D01*
X0172948Y0143756D01*
X0173017Y0143480D01*
X0173079Y0143202D01*
X0173134Y0142923D01*
X0173183Y0142643D01*
X0173224Y0142361D01*
X0173259Y0142078D01*
X0173286Y0141795D01*
X0173307Y0141511D01*
X0173321Y0141227D01*
X0173328Y0140942D01*
X0173328Y0140658D01*
X0173321Y0140373D01*
X0173307Y0140089D01*
X0173286Y0139805D01*
X0173259Y0139522D01*
X0173224Y0139239D01*
X0173183Y0138957D01*
X0173134Y0138677D01*
X0173079Y0138398D01*
X0173017Y0138120D01*
X0172948Y0137844D01*
X0172872Y0137569D01*
X0172790Y0137296D01*
X0172701Y0137026D01*
X0172606Y0136758D01*
X0172504Y0136492D01*
X0172396Y0136229D01*
X0172281Y0135968D01*
X0172160Y0135711D01*
X0172033Y0135456D01*
X0171899Y0135205D01*
X0171759Y0134957D01*
X0171614Y0134712D01*
X0171462Y0134471D01*
X0171305Y0134234D01*
X0171142Y0134001D01*
X0170973Y0133771D01*
X0170799Y0133546D01*
X0170619Y0133326D01*
X0170434Y0133109D01*
X0170243Y0132898D01*
X0170048Y0132691D01*
X0169847Y0132488D01*
X0169642Y0132291D01*
X0169432Y0132099D01*
X0169217Y0131912D01*
X0168998Y0131731D01*
X0168775Y0131554D01*
X0168547Y0131384D01*
X0168315Y0131218D01*
X0168079Y0131059D01*
X0167839Y0130905D01*
X0167596Y0130758D01*
X0167349Y0130616D01*
X0167099Y0130480D01*
X0166845Y0130351D01*
X0166589Y0130228D01*
X0166329Y0130111D01*
X0166067Y0130000D01*
X0248108Y0036887D02*
X0253226Y0036887D01*
X0253226Y0022713D02*
X0248108Y0022713D01*
X0249167Y0015800D02*
X0254167Y0015800D01*
X0256667Y0013300D01*
X0259167Y0015800D01*
X0264167Y0015800D01*
X0266667Y0013300D01*
X0266667Y0008300D01*
X0264167Y0005800D01*
X0259167Y0005800D01*
X0256667Y0008300D01*
X0254167Y0005800D01*
X0249167Y0005800D01*
X0246667Y0008300D01*
X0244167Y0005800D01*
X0239167Y0005800D01*
X0236667Y0008300D01*
X0234167Y0005800D01*
X0229167Y0005800D01*
X0226667Y0008300D01*
X0224167Y0005800D01*
X0219167Y0005800D01*
X0216667Y0008300D01*
X0214167Y0005800D01*
X0209167Y0005800D01*
X0206667Y0008300D01*
X0206667Y0013300D01*
X0209167Y0015800D01*
X0214167Y0015800D01*
X0216667Y0013300D01*
X0219167Y0015800D01*
X0224167Y0015800D01*
X0226667Y0013300D01*
X0229167Y0015800D01*
X0234167Y0015800D01*
X0236667Y0013300D01*
X0239167Y0015800D01*
X0244167Y0015800D01*
X0246667Y0013300D01*
X0249167Y0015800D01*
D21*
X0128467Y0125900D03*
X0128467Y0132600D03*
X0128467Y0139300D03*
X0128467Y0146000D03*
X0128467Y0152700D03*
D22*
X0211667Y0079300D03*
D23*
X0244366Y0031771D02*
X0244616Y0031771D01*
X0244866Y0031520D01*
X0245116Y0031771D01*
X0245366Y0031771D01*
X0245617Y0031520D01*
X0245617Y0031020D01*
X0245366Y0030770D01*
X0245617Y0030297D02*
X0245617Y0029297D01*
X0244616Y0030297D01*
X0244366Y0030297D01*
X0244115Y0030047D01*
X0244115Y0029547D01*
X0244366Y0029297D01*
X0244366Y0028824D02*
X0244115Y0028574D01*
X0244115Y0028073D01*
X0244366Y0027823D01*
X0244616Y0027823D01*
X0244866Y0028073D01*
X0244866Y0028574D01*
X0245116Y0028824D01*
X0245366Y0028824D01*
X0245617Y0028574D01*
X0245617Y0028073D01*
X0245366Y0027823D01*
X0245366Y0027351D02*
X0244115Y0027351D01*
X0244115Y0026350D02*
X0245366Y0026350D01*
X0245617Y0026600D01*
X0245617Y0027101D01*
X0245366Y0027351D01*
X0245867Y0028324D02*
X0243865Y0028324D01*
X0244366Y0030770D02*
X0244115Y0031020D01*
X0244115Y0031520D01*
X0244366Y0031771D01*
X0244866Y0031520D02*
X0244866Y0031270D01*
M02*
