%
M48
M72
T01C0.0120
T02C0.0236
T03C0.0320
T04C0.0350
T05C0.0400
T06C0.0787
T07C0.1000
%
T01
X4607Y1030
X4617Y1390
X6167Y1830
X6967Y2080
X6067Y2680
X5717Y2880
X5417Y3080
X5217Y3690
X5067Y3990
X5917Y4880
X6277Y4880
X5917Y5790
X5567Y5790
X5567Y6090
X5917Y6090
X6317Y6090
X5967Y6640
X6817Y6530
X7967Y6130
X8017Y5730
X8917Y6080
X8967Y6580
X9367Y7330
X9867Y7930
X10417Y8080
X11317Y7430
X11837Y7440
X12367Y7430
X12117Y6980
X11607Y6980
X10957Y6980
X12727Y6960
X13817Y7580
X13317Y7930
X12767Y7880
X11817Y8280
X11567Y9330
X10247Y10120
X9907Y9760
X9537Y9540
X9067Y9490
X8647Y9520
X8227Y9540
X7587Y9730
X7167Y9730
X6817Y9330
X6287Y9280
X5787Y9340
X5577Y9800
X5407Y10310
X5457Y10770
X5567Y11230
X7067Y11180
X7267Y10780
X7767Y10730
X8317Y10630
X8667Y8250
X11127Y5690
X11637Y5680
X12137Y5680
X13167Y5580
X13717Y5230
X14117Y5380
X14107Y5730
X15017Y5880
X15867Y5480
X16217Y5480
X15967Y6380
X15967Y6730
X15957Y7080
X17597Y7370
X18517Y8380
X16947Y9820
X17297Y10020
X16537Y11120
X15967Y11130
X14217Y9280
X20427Y11070
X23247Y11190
X24327Y10110
X21267Y8190
X21627Y7530
X22227Y7290
X22587Y7590
X23727Y5850
X23487Y3570
X22467Y3090
X21567Y3330
X19707Y4530
X18837Y3390
X17357Y2180
X16367Y2180
X16367Y1840
X16377Y1450
X17337Y1070
X18817Y1090
X18817Y2020
X15467Y3730
X15017Y3930
X15367Y3230
X14967Y2060
X15317Y2050
X13367Y2130
X12827Y2190
X12427Y2190
X11117Y2280
X9667Y2990
X9317Y2980
X8317Y2980
X9067Y3730
X10117Y4230
X10717Y4230
X10457Y4730
X11057Y4730
X11957Y4280
X12257Y4580
X12817Y3230
X14367Y4580
X9867Y4930
X8417Y1590
X8167Y940
X7777Y940
X7387Y950
X3067Y8880
X1967Y9280
X1917Y9930
X1917Y10330
X2617Y10180
X14727Y13290
X20427Y13830
X24507Y2550
T02
X4917Y7530
T03
X5217Y12230
X4017Y14180
X6467Y14180
T04
X25517Y13880
X25517Y14880
X25517Y12880
X25517Y11880
T05
X18017Y10880
X18017Y9880
X18017Y8880
X18017Y7880
X18017Y6880
X18017Y5880
X18017Y4880
X18017Y3880
X18017Y2880
X21167Y1080
X22167Y1080
X23167Y1080
X24167Y1080
X25167Y1080
X26167Y1080
T06
X1467Y2230
X1467Y16130
X26867Y16130
X26867Y2230
T07
X3767Y1380
M30
