G75*
%MOIN*%
%OFA0B0*%
%FSLAX25Y25*%
%IPPOS*%
%LPD*%
%AMOC8*
5,1,8,0,0,1.08239X$1,22.5*
%
%ADD10R,0.07600X0.02600*%
%ADD11R,0.02600X0.07600*%
%ADD12C,0.00875*%
%ADD13R,0.02500X0.05000*%
%ADD14C,0.02067*%
%ADD15C,0.01969*%
%ADD16R,0.05000X0.05000*%
%ADD17C,0.06500*%
%ADD18C,0.01250*%
%ADD19R,0.12000X0.10000*%
%ADD20R,0.12500X0.10000*%
%ADD21R,0.03937X0.03150*%
%ADD22C,0.00750*%
%ADD23R,0.01200X0.03900*%
%ADD24R,0.18110X0.03937*%
%ADD25R,0.13386X0.06299*%
%ADD26R,0.02165X0.04724*%
%ADD27C,0.08000*%
%ADD28R,0.40984X0.42520*%
%ADD29R,0.08500X0.04200*%
%ADD30R,0.08500X0.10799*%
%ADD31R,0.04724X0.03150*%
%ADD32R,0.06500X0.12000*%
%ADD33R,0.05000X0.02200*%
%ADD34R,0.02200X0.05000*%
%ADD35R,0.06693X0.02756*%
%ADD36C,0.07400*%
%ADD37R,0.06500X0.06500*%
%ADD38C,0.04000*%
%ADD39C,0.02400*%
%ADD40C,0.03200*%
%ADD41C,0.05000*%
%ADD42C,0.01000*%
%ADD43C,0.02400*%
%ADD44C,0.00600*%
%ADD45C,0.01600*%
%ADD46C,0.02600*%
%ADD47C,0.00800*%
D10*
X0074423Y0029804D03*
X0074423Y0033741D03*
X0074423Y0037678D03*
X0074423Y0041615D03*
X0074423Y0045552D03*
X0074423Y0049489D03*
X0074423Y0053426D03*
X0074423Y0057363D03*
X0074423Y0061300D03*
X0074423Y0065237D03*
X0074423Y0069174D03*
X0074423Y0073111D03*
X0074423Y0077048D03*
X0074423Y0080985D03*
X0074423Y0084922D03*
X0074423Y0088859D03*
X0074423Y0092796D03*
X0168911Y0092796D03*
X0168911Y0088859D03*
X0168911Y0084922D03*
X0168911Y0080985D03*
X0168911Y0077048D03*
X0168911Y0073111D03*
X0168911Y0069174D03*
X0168911Y0065237D03*
X0168911Y0061300D03*
X0168911Y0057363D03*
X0168911Y0053426D03*
X0168911Y0049489D03*
X0168911Y0045552D03*
X0168911Y0041615D03*
X0168911Y0037678D03*
X0168911Y0033741D03*
X0168911Y0029804D03*
D11*
X0153163Y0014056D03*
X0149226Y0014056D03*
X0145289Y0014056D03*
X0141352Y0014056D03*
X0137415Y0014056D03*
X0133478Y0014056D03*
X0129541Y0014056D03*
X0125604Y0014056D03*
X0121667Y0014056D03*
X0117730Y0014056D03*
X0113793Y0014056D03*
X0109856Y0014056D03*
X0105919Y0014056D03*
X0101982Y0014056D03*
X0098045Y0014056D03*
X0094108Y0014056D03*
X0090171Y0014056D03*
X0090171Y0108544D03*
X0094108Y0108544D03*
X0098045Y0108544D03*
X0101982Y0108544D03*
X0105919Y0108544D03*
X0109856Y0108544D03*
X0113793Y0108544D03*
X0117730Y0108544D03*
X0121667Y0108544D03*
X0125604Y0108544D03*
X0129541Y0108544D03*
X0133478Y0108544D03*
X0137415Y0108544D03*
X0141352Y0108544D03*
X0145289Y0108544D03*
X0149226Y0108544D03*
X0153163Y0108544D03*
D12*
X0198354Y0095113D02*
X0198354Y0092487D01*
X0198354Y0095113D02*
X0200980Y0095113D01*
X0200980Y0092487D01*
X0198354Y0092487D01*
X0198354Y0093361D02*
X0200980Y0093361D01*
X0200980Y0094235D02*
X0198354Y0094235D01*
X0198354Y0095109D02*
X0200980Y0095109D01*
X0198354Y0089113D02*
X0198354Y0086487D01*
X0198354Y0089113D02*
X0200980Y0089113D01*
X0200980Y0086487D01*
X0198354Y0086487D01*
X0198354Y0087361D02*
X0200980Y0087361D01*
X0200980Y0088235D02*
X0198354Y0088235D01*
X0198354Y0089109D02*
X0200980Y0089109D01*
X0221354Y0087987D02*
X0221354Y0090613D01*
X0223980Y0090613D01*
X0223980Y0087987D01*
X0221354Y0087987D01*
X0221354Y0088861D02*
X0223980Y0088861D01*
X0223980Y0089735D02*
X0221354Y0089735D01*
X0221354Y0090609D02*
X0223980Y0090609D01*
X0221354Y0093987D02*
X0221354Y0096613D01*
X0223980Y0096613D01*
X0223980Y0093987D01*
X0221354Y0093987D01*
X0221354Y0094861D02*
X0223980Y0094861D01*
X0223980Y0095735D02*
X0221354Y0095735D01*
X0221354Y0096609D02*
X0223980Y0096609D01*
X0231354Y0097113D02*
X0231354Y0094487D01*
X0231354Y0097113D02*
X0233980Y0097113D01*
X0233980Y0094487D01*
X0231354Y0094487D01*
X0231354Y0095361D02*
X0233980Y0095361D01*
X0233980Y0096235D02*
X0231354Y0096235D01*
X0231354Y0097109D02*
X0233980Y0097109D01*
X0231354Y0091113D02*
X0231354Y0088487D01*
X0231354Y0091113D02*
X0233980Y0091113D01*
X0233980Y0088487D01*
X0231354Y0088487D01*
X0231354Y0089361D02*
X0233980Y0089361D01*
X0233980Y0090235D02*
X0231354Y0090235D01*
X0231354Y0091109D02*
X0233980Y0091109D01*
X0242354Y0091113D02*
X0242354Y0088487D01*
X0242354Y0091113D02*
X0244980Y0091113D01*
X0244980Y0088487D01*
X0242354Y0088487D01*
X0242354Y0089361D02*
X0244980Y0089361D01*
X0244980Y0090235D02*
X0242354Y0090235D01*
X0242354Y0091109D02*
X0244980Y0091109D01*
X0242354Y0094487D02*
X0242354Y0097113D01*
X0244980Y0097113D01*
X0244980Y0094487D01*
X0242354Y0094487D01*
X0242354Y0095361D02*
X0244980Y0095361D01*
X0244980Y0096235D02*
X0242354Y0096235D01*
X0242354Y0097109D02*
X0244980Y0097109D01*
X0237354Y0034113D02*
X0237354Y0031487D01*
X0237354Y0034113D02*
X0239980Y0034113D01*
X0239980Y0031487D01*
X0237354Y0031487D01*
X0237354Y0032361D02*
X0239980Y0032361D01*
X0239980Y0033235D02*
X0237354Y0033235D01*
X0237354Y0034109D02*
X0239980Y0034109D01*
X0237354Y0028113D02*
X0237354Y0025487D01*
X0237354Y0028113D02*
X0239980Y0028113D01*
X0239980Y0025487D01*
X0237354Y0025487D01*
X0237354Y0026361D02*
X0239980Y0026361D01*
X0239980Y0027235D02*
X0237354Y0027235D01*
X0237354Y0028109D02*
X0239980Y0028109D01*
X0218354Y0028613D02*
X0218354Y0025987D01*
X0218354Y0028613D02*
X0220980Y0028613D01*
X0220980Y0025987D01*
X0218354Y0025987D01*
X0218354Y0026861D02*
X0220980Y0026861D01*
X0220980Y0027735D02*
X0218354Y0027735D01*
X0218354Y0028609D02*
X0220980Y0028609D01*
X0218354Y0031987D02*
X0218354Y0034613D01*
X0220980Y0034613D01*
X0220980Y0031987D01*
X0218354Y0031987D01*
X0218354Y0032861D02*
X0220980Y0032861D01*
X0220980Y0033735D02*
X0218354Y0033735D01*
X0218354Y0034609D02*
X0220980Y0034609D01*
X0209354Y0034613D02*
X0209354Y0031987D01*
X0209354Y0034613D02*
X0211980Y0034613D01*
X0211980Y0031987D01*
X0209354Y0031987D01*
X0209354Y0032861D02*
X0211980Y0032861D01*
X0211980Y0033735D02*
X0209354Y0033735D01*
X0209354Y0034609D02*
X0211980Y0034609D01*
X0200354Y0034613D02*
X0200354Y0031987D01*
X0200354Y0034613D02*
X0202980Y0034613D01*
X0202980Y0031987D01*
X0200354Y0031987D01*
X0200354Y0032861D02*
X0202980Y0032861D01*
X0202980Y0033735D02*
X0200354Y0033735D01*
X0200354Y0034609D02*
X0202980Y0034609D01*
X0200354Y0028613D02*
X0200354Y0025987D01*
X0200354Y0028613D02*
X0202980Y0028613D01*
X0202980Y0025987D01*
X0200354Y0025987D01*
X0200354Y0026861D02*
X0202980Y0026861D01*
X0202980Y0027735D02*
X0200354Y0027735D01*
X0200354Y0028609D02*
X0202980Y0028609D01*
X0209354Y0028613D02*
X0209354Y0025987D01*
X0209354Y0028613D02*
X0211980Y0028613D01*
X0211980Y0025987D01*
X0209354Y0025987D01*
X0209354Y0026861D02*
X0211980Y0026861D01*
X0211980Y0027735D02*
X0209354Y0027735D01*
X0209354Y0028609D02*
X0211980Y0028609D01*
X0050881Y0103613D02*
X0048255Y0103613D01*
X0050881Y0103613D02*
X0050881Y0100987D01*
X0048255Y0100987D01*
X0048255Y0103613D01*
X0048255Y0101861D02*
X0050881Y0101861D01*
X0050881Y0102735D02*
X0048255Y0102735D01*
X0048255Y0103609D02*
X0050881Y0103609D01*
X0044881Y0103613D02*
X0042255Y0103613D01*
X0044881Y0103613D02*
X0044881Y0100987D01*
X0042255Y0100987D01*
X0042255Y0103613D01*
X0042255Y0101861D02*
X0044881Y0101861D01*
X0044881Y0102735D02*
X0042255Y0102735D01*
X0042255Y0103609D02*
X0044881Y0103609D01*
X0044881Y0109613D02*
X0042255Y0109613D01*
X0044881Y0109613D02*
X0044881Y0106987D01*
X0042255Y0106987D01*
X0042255Y0109613D01*
X0042255Y0107861D02*
X0044881Y0107861D01*
X0044881Y0108735D02*
X0042255Y0108735D01*
X0042255Y0109609D02*
X0044881Y0109609D01*
X0048255Y0109613D02*
X0050881Y0109613D01*
X0050881Y0106987D01*
X0048255Y0106987D01*
X0048255Y0109613D01*
X0048255Y0107861D02*
X0050881Y0107861D01*
X0050881Y0108735D02*
X0048255Y0108735D01*
X0048255Y0109609D02*
X0050881Y0109609D01*
X0035454Y0109487D02*
X0035454Y0112113D01*
X0038080Y0112113D01*
X0038080Y0109487D01*
X0035454Y0109487D01*
X0035454Y0110361D02*
X0038080Y0110361D01*
X0038080Y0111235D02*
X0035454Y0111235D01*
X0035454Y0112109D02*
X0038080Y0112109D01*
X0035454Y0106113D02*
X0035454Y0103487D01*
X0035454Y0106113D02*
X0038080Y0106113D01*
X0038080Y0103487D01*
X0035454Y0103487D01*
X0035454Y0104361D02*
X0038080Y0104361D01*
X0038080Y0105235D02*
X0035454Y0105235D01*
X0035454Y0106109D02*
X0038080Y0106109D01*
X0035454Y0100113D02*
X0035454Y0097487D01*
X0035454Y0100113D02*
X0038080Y0100113D01*
X0038080Y0097487D01*
X0035454Y0097487D01*
X0035454Y0098361D02*
X0038080Y0098361D01*
X0038080Y0099235D02*
X0035454Y0099235D01*
X0035454Y0100109D02*
X0038080Y0100109D01*
X0035454Y0094113D02*
X0035454Y0091487D01*
X0035454Y0094113D02*
X0038080Y0094113D01*
X0038080Y0091487D01*
X0035454Y0091487D01*
X0035454Y0092361D02*
X0038080Y0092361D01*
X0038080Y0093235D02*
X0035454Y0093235D01*
X0035454Y0094109D02*
X0038080Y0094109D01*
D13*
X0022417Y0093300D03*
X0013917Y0093300D03*
X0013917Y0108300D03*
X0022417Y0108300D03*
D14*
X0059370Y0109740D02*
X0065964Y0109740D01*
X0065964Y0107672D01*
X0059370Y0107672D01*
X0059370Y0109740D01*
X0059370Y0109738D02*
X0065964Y0109738D01*
X0065964Y0097928D02*
X0059370Y0097928D01*
X0065964Y0097928D02*
X0065964Y0095860D01*
X0059370Y0095860D01*
X0059370Y0097928D01*
X0059370Y0097926D02*
X0065964Y0097926D01*
X0177270Y0020772D02*
X0183864Y0020772D01*
X0177270Y0020772D02*
X0177270Y0022840D01*
X0183864Y0022840D01*
X0183864Y0020772D01*
X0183864Y0022838D02*
X0177270Y0022838D01*
X0177270Y0008960D02*
X0183864Y0008960D01*
X0177270Y0008960D02*
X0177270Y0011028D01*
X0183864Y0011028D01*
X0183864Y0008960D01*
X0183864Y0011026D02*
X0177270Y0011026D01*
D15*
X0175650Y0016884D02*
X0173484Y0016884D01*
X0175650Y0016884D02*
X0175650Y0014916D01*
X0173484Y0014916D01*
X0173484Y0016884D01*
X0175650Y0016884D01*
X0069750Y0101816D02*
X0067584Y0101816D01*
X0067584Y0103784D01*
X0069750Y0103784D01*
X0069750Y0101816D01*
X0069750Y0103784D02*
X0067584Y0103784D01*
D16*
X0066667Y0012300D03*
X0056667Y0012300D03*
D17*
X0180167Y0028800D03*
X0180167Y0038800D03*
X0180167Y0048800D03*
X0180167Y0058800D03*
X0180167Y0068800D03*
X0180167Y0078800D03*
X0180167Y0088800D03*
X0180167Y0098800D03*
X0180167Y0108800D03*
X0255167Y0118800D03*
X0255167Y0128800D03*
X0255167Y0138800D03*
D18*
X0169842Y0010925D02*
X0168592Y0010925D01*
X0169842Y0010925D02*
X0169842Y0009675D01*
X0168592Y0009675D01*
X0168592Y0010925D01*
X0168592Y0010924D02*
X0169842Y0010924D01*
X0166342Y0010925D02*
X0165092Y0010925D01*
X0166342Y0010925D02*
X0166342Y0009675D01*
X0165092Y0009675D01*
X0165092Y0010925D01*
X0165092Y0010924D02*
X0166342Y0010924D01*
X0162042Y0010925D02*
X0160792Y0010925D01*
X0162042Y0010925D02*
X0162042Y0009675D01*
X0160792Y0009675D01*
X0160792Y0010925D01*
X0160792Y0010924D02*
X0162042Y0010924D01*
X0158542Y0010925D02*
X0157292Y0010925D01*
X0158542Y0010925D02*
X0158542Y0009675D01*
X0157292Y0009675D01*
X0157292Y0010925D01*
X0157292Y0010924D02*
X0158542Y0010924D01*
D19*
X0059753Y0083867D03*
D20*
X0059753Y0058867D03*
D21*
X0050702Y0094414D03*
X0042828Y0094414D03*
D22*
X0032042Y0093925D02*
X0032042Y0091675D01*
X0029292Y0091675D01*
X0029292Y0093925D01*
X0032042Y0093925D01*
X0032042Y0092424D02*
X0029292Y0092424D01*
X0029292Y0093173D02*
X0032042Y0093173D01*
X0032042Y0093922D02*
X0029292Y0093922D01*
X0032042Y0097675D02*
X0032042Y0099925D01*
X0032042Y0097675D02*
X0029292Y0097675D01*
X0029292Y0099925D01*
X0032042Y0099925D01*
X0032042Y0098424D02*
X0029292Y0098424D01*
X0029292Y0099173D02*
X0032042Y0099173D01*
X0032042Y0099922D02*
X0029292Y0099922D01*
X0032042Y0103675D02*
X0032042Y0105925D01*
X0032042Y0103675D02*
X0029292Y0103675D01*
X0029292Y0105925D01*
X0032042Y0105925D01*
X0032042Y0104424D02*
X0029292Y0104424D01*
X0029292Y0105173D02*
X0032042Y0105173D01*
X0032042Y0105922D02*
X0029292Y0105922D01*
X0032042Y0109675D02*
X0032042Y0111925D01*
X0032042Y0109675D02*
X0029292Y0109675D01*
X0029292Y0111925D01*
X0032042Y0111925D01*
X0032042Y0110424D02*
X0029292Y0110424D01*
X0029292Y0111173D02*
X0032042Y0111173D01*
X0032042Y0111922D02*
X0029292Y0111922D01*
X0211542Y0095425D02*
X0211542Y0093175D01*
X0208792Y0093175D01*
X0208792Y0095425D01*
X0211542Y0095425D01*
X0211542Y0093924D02*
X0208792Y0093924D01*
X0208792Y0094673D02*
X0211542Y0094673D01*
X0211542Y0095422D02*
X0208792Y0095422D01*
X0211542Y0089425D02*
X0211542Y0087175D01*
X0208792Y0087175D01*
X0208792Y0089425D01*
X0211542Y0089425D01*
X0211542Y0087924D02*
X0208792Y0087924D01*
X0208792Y0088673D02*
X0211542Y0088673D01*
X0211542Y0089422D02*
X0208792Y0089422D01*
X0214042Y0104675D02*
X0214042Y0106925D01*
X0214042Y0104675D02*
X0211292Y0104675D01*
X0211292Y0106925D01*
X0214042Y0106925D01*
X0214042Y0105424D02*
X0211292Y0105424D01*
X0211292Y0106173D02*
X0214042Y0106173D01*
X0214042Y0106922D02*
X0211292Y0106922D01*
X0214042Y0110675D02*
X0214042Y0112925D01*
X0214042Y0110675D02*
X0211292Y0110675D01*
X0211292Y0112925D01*
X0214042Y0112925D01*
X0214042Y0111424D02*
X0211292Y0111424D01*
X0211292Y0112173D02*
X0214042Y0112173D01*
X0214042Y0112922D02*
X0211292Y0112922D01*
X0231042Y0033925D02*
X0231042Y0031675D01*
X0228292Y0031675D01*
X0228292Y0033925D01*
X0231042Y0033925D01*
X0231042Y0032424D02*
X0228292Y0032424D01*
X0228292Y0033173D02*
X0231042Y0033173D01*
X0231042Y0033922D02*
X0228292Y0033922D01*
X0231042Y0027925D02*
X0231042Y0025675D01*
X0228292Y0025675D01*
X0228292Y0027925D01*
X0231042Y0027925D01*
X0231042Y0026424D02*
X0228292Y0026424D01*
X0228292Y0027173D02*
X0231042Y0027173D01*
X0231042Y0027922D02*
X0228292Y0027922D01*
D23*
X0064344Y0021313D03*
X0061785Y0021313D03*
X0059226Y0021313D03*
X0056667Y0021313D03*
X0054108Y0021313D03*
X0051549Y0021313D03*
X0048989Y0021313D03*
X0048989Y0044287D03*
X0051549Y0044287D03*
X0054108Y0044287D03*
X0056667Y0044287D03*
X0059226Y0044287D03*
X0061785Y0044287D03*
X0064344Y0044287D03*
D24*
X0037234Y0067363D03*
X0037234Y0075237D03*
D25*
X0016761Y0084686D03*
X0016761Y0057914D03*
D26*
X0232427Y0107181D03*
X0236167Y0107181D03*
X0239907Y0107181D03*
X0239907Y0117419D03*
X0232427Y0117419D03*
D27*
X0064667Y0137800D02*
X0064667Y0145800D01*
X0040167Y0145800D02*
X0040167Y0137800D01*
X0048167Y0122300D02*
X0056167Y0122300D01*
D28*
X0104167Y0139300D03*
D29*
X0136967Y0139300D03*
X0136967Y0132600D03*
X0136967Y0125900D03*
X0136967Y0146000D03*
X0136967Y0152700D03*
D30*
X0212966Y0146800D03*
X0230367Y0146800D03*
D31*
X0199667Y0112950D03*
X0199667Y0106650D03*
D32*
X0192667Y0129300D03*
X0161667Y0130300D03*
X0192667Y0150300D03*
X0161667Y0151300D03*
D33*
X0210267Y0074824D03*
X0210267Y0071674D03*
X0210267Y0068524D03*
X0210267Y0065375D03*
X0210267Y0062225D03*
X0210267Y0059076D03*
X0210267Y0055926D03*
X0210267Y0052776D03*
X0244067Y0052776D03*
X0244067Y0055926D03*
X0244067Y0059076D03*
X0244067Y0062225D03*
X0244067Y0065375D03*
X0244067Y0068524D03*
X0244067Y0071674D03*
X0244067Y0074824D03*
D34*
X0238190Y0080700D03*
X0235041Y0080700D03*
X0231891Y0080700D03*
X0228741Y0080700D03*
X0225592Y0080700D03*
X0222442Y0080700D03*
X0219293Y0080700D03*
X0216143Y0080700D03*
X0216143Y0046900D03*
X0219293Y0046900D03*
X0222442Y0046900D03*
X0225592Y0046900D03*
X0228741Y0046900D03*
X0231891Y0046900D03*
X0235041Y0046900D03*
X0238190Y0046900D03*
D35*
X0250667Y0034524D03*
X0250667Y0029800D03*
X0250667Y0025076D03*
D36*
X0251667Y0010800D03*
X0241667Y0010800D03*
X0231667Y0010800D03*
X0221667Y0010800D03*
X0211667Y0010800D03*
X0261667Y0010800D03*
D37*
X0255167Y0148800D03*
D38*
X0180167Y0108800D02*
X0179667Y0109300D01*
X0172667Y0109300D01*
X0161667Y0098300D01*
X0107567Y0098300D01*
X0089167Y0077300D01*
X0074675Y0077300D01*
X0074423Y0077048D02*
X0074467Y0079000D01*
X0074171Y0077300D02*
X0074423Y0077048D01*
X0074171Y0077300D02*
X0066667Y0077300D01*
X0060100Y0083867D01*
X0059753Y0083867D01*
X0168611Y0028844D02*
X0168667Y0027800D01*
X0168667Y0024300D01*
X0168667Y0018800D01*
X0171167Y0015800D01*
X0174567Y0015900D01*
D39*
X0168611Y0028844D02*
X0168911Y0029804D01*
X0074567Y0075500D02*
X0074423Y0077048D01*
X0074423Y0073111D01*
X0074423Y0077048D02*
X0074423Y0080985D01*
X0059753Y0083867D02*
X0050702Y0092418D01*
X0050702Y0094414D01*
X0050636Y0094416D01*
X0050570Y0094422D01*
X0050505Y0094431D01*
X0050440Y0094445D01*
X0050377Y0094462D01*
X0050314Y0094482D01*
X0050253Y0094507D01*
X0050193Y0094535D01*
X0050135Y0094566D01*
X0050079Y0094601D01*
X0050025Y0094638D01*
X0049973Y0094679D01*
X0049924Y0094723D01*
X0049877Y0094770D01*
X0049833Y0094819D01*
X0049792Y0094871D01*
X0049755Y0094925D01*
X0049720Y0094981D01*
X0049689Y0095039D01*
X0049661Y0095099D01*
X0049636Y0095160D01*
X0049616Y0095223D01*
X0049599Y0095286D01*
X0049585Y0095351D01*
X0049576Y0095416D01*
X0049570Y0095482D01*
X0049568Y0095548D01*
X0049568Y0102300D01*
X0049568Y0108300D01*
X0043167Y0104300D02*
X0043167Y0102702D01*
X0043166Y0102702D02*
X0043168Y0102665D01*
X0043173Y0102628D01*
X0043181Y0102592D01*
X0043193Y0102557D01*
X0043208Y0102523D01*
X0043226Y0102490D01*
X0043247Y0102460D01*
X0043271Y0102431D01*
X0043297Y0102405D01*
X0043326Y0102381D01*
X0043356Y0102360D01*
X0043389Y0102342D01*
X0043423Y0102327D01*
X0043458Y0102315D01*
X0043494Y0102307D01*
X0043531Y0102302D01*
X0043568Y0102300D01*
X0042828Y0097810D01*
X0042828Y0094414D01*
X0043167Y0104300D02*
X0043165Y0104344D01*
X0043159Y0104387D01*
X0043150Y0104429D01*
X0043137Y0104471D01*
X0043120Y0104511D01*
X0043100Y0104550D01*
X0043077Y0104587D01*
X0043050Y0104621D01*
X0043021Y0104654D01*
X0042988Y0104683D01*
X0042954Y0104710D01*
X0042917Y0104733D01*
X0042878Y0104753D01*
X0042838Y0104770D01*
X0042796Y0104783D01*
X0042754Y0104792D01*
X0042711Y0104798D01*
X0042667Y0104800D01*
X0036767Y0104800D01*
D40*
X0068667Y0102800D02*
X0070267Y0102700D01*
X0077367Y0102700D01*
X0077667Y0102400D01*
X0077667Y0102300D01*
X0079667Y0100300D01*
X0095667Y0100300D01*
X0098045Y0102678D01*
X0059753Y0083867D02*
X0057234Y0083867D01*
X0049167Y0075300D01*
X0048604Y0075237D01*
X0037234Y0075237D01*
X0074423Y0077048D02*
X0074675Y0077300D01*
D41*
X0049167Y0075300D03*
D42*
X0052541Y0069174D02*
X0050167Y0066800D01*
X0050167Y0053300D01*
X0050917Y0052550D01*
X0045667Y0046300D01*
X0045667Y0039300D01*
X0048989Y0035977D01*
X0048989Y0021313D01*
X0054108Y0021313D02*
X0054108Y0025741D01*
X0054167Y0030800D01*
X0056667Y0028300D02*
X0056667Y0021313D01*
X0059226Y0021313D02*
X0059226Y0025359D01*
X0060667Y0026800D01*
X0057167Y0028800D02*
X0056667Y0028300D01*
X0061785Y0021313D02*
X0061667Y0018300D01*
X0064344Y0021313D02*
X0064856Y0020800D01*
X0069667Y0020800D01*
X0083167Y0029800D02*
X0090667Y0037300D01*
X0094167Y0037800D02*
X0099667Y0032300D01*
X0128167Y0032300D01*
X0131667Y0030800D02*
X0131667Y0055800D01*
X0133667Y0053800D02*
X0135167Y0055300D01*
X0135167Y0071300D01*
X0127667Y0078800D01*
X0133167Y0079300D02*
X0144167Y0079300D01*
X0155167Y0068300D01*
X0155167Y0037800D01*
X0154667Y0037300D01*
X0145289Y0027922D01*
X0145289Y0014056D01*
X0141352Y0014056D02*
X0141352Y0043485D01*
X0143667Y0045800D01*
X0144167Y0046300D01*
X0144167Y0068800D01*
X0138167Y0075300D01*
X0138167Y0075800D01*
X0118167Y0082800D02*
X0111167Y0082800D01*
X0098667Y0070300D01*
X0098667Y0049300D01*
X0089167Y0055800D02*
X0089167Y0060800D01*
X0089167Y0055800D02*
X0085667Y0052300D01*
X0085667Y0037300D01*
X0082167Y0033800D01*
X0074482Y0033800D01*
X0074423Y0033741D01*
X0074423Y0037678D02*
X0056789Y0037678D01*
X0054167Y0040300D01*
X0054167Y0044228D01*
X0054108Y0044287D01*
X0056667Y0044287D02*
X0056667Y0041300D01*
X0057667Y0040300D01*
X0066667Y0040300D01*
X0067982Y0041615D01*
X0074423Y0041615D01*
X0066667Y0047965D02*
X0064344Y0044287D01*
X0061785Y0044287D02*
X0061767Y0047306D01*
X0062767Y0048800D01*
X0059167Y0048800D02*
X0059226Y0047641D01*
X0059226Y0044287D01*
X0066667Y0047965D02*
X0066667Y0049800D01*
X0064667Y0051800D01*
X0051667Y0051800D01*
X0050917Y0052550D01*
X0068167Y0065300D02*
X0074360Y0065300D01*
X0074423Y0065237D01*
X0074986Y0065800D01*
X0089667Y0065800D01*
X0092293Y0069174D02*
X0094167Y0067300D01*
X0094167Y0037800D01*
X0111167Y0022800D02*
X0116667Y0028300D01*
X0129167Y0028300D01*
X0131667Y0030800D01*
X0133667Y0021300D02*
X0133667Y0053800D01*
X0137167Y0052300D02*
X0137415Y0051552D01*
X0137415Y0014056D01*
X0133478Y0014056D02*
X0133667Y0021300D01*
X0153667Y0032300D02*
X0157917Y0028050D01*
X0157917Y0010300D01*
X0161417Y0010300D02*
X0165717Y0010300D01*
X0169217Y0010300D02*
X0169467Y0010300D01*
X0169467Y0017800D01*
X0168667Y0024300D01*
X0180167Y0028800D02*
X0183667Y0028800D01*
X0185167Y0030300D01*
X0185167Y0083800D01*
X0188167Y0085800D02*
X0188167Y0036800D01*
X0188367Y0033900D01*
X0150167Y0039300D02*
X0150167Y0058800D01*
X0185167Y0088800D02*
X0188167Y0085800D01*
X0185167Y0088800D02*
X0180167Y0088800D01*
X0092293Y0069174D02*
X0074423Y0069174D01*
X0052541Y0069174D01*
X0073167Y0061300D02*
X0074423Y0061300D01*
X0079667Y0061300D01*
X0080167Y0057300D02*
X0074486Y0057300D01*
X0074423Y0057363D01*
X0022417Y0093300D02*
X0019667Y0092800D01*
X0022417Y0093300D02*
X0022417Y0108300D01*
X0030667Y0110800D02*
X0033667Y0110800D01*
X0034917Y0109550D01*
X0036767Y0110800D01*
X0036767Y0098800D02*
X0034917Y0097050D01*
X0033667Y0098300D01*
X0031167Y0098300D01*
X0030667Y0098800D01*
X0180567Y0009994D02*
X0182067Y0009200D01*
D43*
X0188167Y0010900D03*
X0188167Y0020200D03*
X0173567Y0021800D03*
X0163667Y0021800D03*
X0163667Y0018400D03*
X0163767Y0014500D03*
X0173367Y0010700D03*
X0153167Y0020500D03*
X0149667Y0020600D03*
X0153667Y0032300D03*
X0154667Y0037300D03*
X0150167Y0039300D03*
X0143667Y0045800D03*
X0137167Y0052300D03*
X0141167Y0053800D03*
X0141067Y0057300D03*
X0150167Y0058800D03*
X0158667Y0054800D03*
X0162167Y0054800D03*
X0159667Y0063800D03*
X0159667Y0067300D03*
X0159567Y0070800D03*
X0175967Y0073700D03*
X0185167Y0083800D03*
X0169467Y0098200D03*
X0172967Y0100200D03*
X0165367Y0111200D03*
X0159667Y0111300D03*
X0142167Y0092800D03*
X0133167Y0079300D03*
X0127667Y0078800D03*
X0123667Y0074300D03*
X0118367Y0074400D03*
X0113167Y0074300D03*
X0116067Y0069800D03*
X0121167Y0069800D03*
X0127267Y0069600D03*
X0138167Y0075800D03*
X0118167Y0082800D03*
X0104167Y0080800D03*
X0098667Y0079300D03*
X0093667Y0073300D03*
X0089667Y0065800D03*
X0089167Y0060800D03*
X0080167Y0057300D03*
X0079667Y0061300D03*
X0068167Y0065300D03*
X0063167Y0060900D03*
X0059167Y0060900D03*
X0055667Y0060900D03*
X0055667Y0057900D03*
X0059167Y0057900D03*
X0059667Y0066400D03*
X0059167Y0048800D03*
X0062767Y0048800D03*
X0050667Y0039900D03*
X0052167Y0036900D03*
X0054167Y0030800D03*
X0057167Y0028800D03*
X0060667Y0026800D03*
X0069667Y0020800D03*
X0061667Y0018300D03*
X0073867Y0009500D03*
X0077767Y0009400D03*
X0081667Y0009400D03*
X0084167Y0015900D03*
X0083167Y0029800D03*
X0093167Y0029800D03*
X0096667Y0029900D03*
X0090667Y0037300D03*
X0101167Y0042300D03*
X0107167Y0042300D03*
X0104567Y0047300D03*
X0110567Y0047300D03*
X0119567Y0042800D03*
X0122567Y0045800D03*
X0131667Y0055800D03*
X0121367Y0056800D03*
X0116367Y0056800D03*
X0111267Y0056900D03*
X0098667Y0049300D03*
X0128167Y0032300D03*
X0128267Y0021900D03*
X0124267Y0021900D03*
X0133667Y0021300D03*
X0111167Y0022800D03*
X0046167Y0013900D03*
X0046067Y0010300D03*
X0109567Y0069800D03*
X0086667Y0082500D03*
X0086467Y0095200D03*
X0090667Y0094900D03*
X0095367Y0095400D03*
X0099067Y0097600D03*
X0102467Y0101200D03*
X0115667Y0093300D03*
X0083167Y0106300D03*
X0077667Y0107300D03*
X0072667Y0107800D03*
X0070667Y0111800D03*
X0055667Y0112300D03*
X0054567Y0107700D03*
X0054067Y0103100D03*
X0055767Y0098000D03*
X0057867Y0093400D03*
X0062867Y0092800D03*
X0068167Y0093300D03*
X0071667Y0097300D03*
X0075867Y0097300D03*
X0082267Y0095400D03*
X0030667Y0088800D03*
X0019667Y0092800D03*
X0019167Y0099300D03*
X0019167Y0103300D03*
X0026167Y0101800D03*
X0147267Y0132900D03*
X0204267Y0138300D03*
X0232467Y0111900D03*
X0243267Y0101100D03*
X0212667Y0081900D03*
X0216267Y0075300D03*
X0222267Y0072900D03*
X0225867Y0075900D03*
X0237267Y0058500D03*
X0234867Y0035700D03*
X0224667Y0030900D03*
X0215667Y0033300D03*
X0197067Y0045300D03*
X0188367Y0033900D03*
X0245067Y0025500D03*
X0204267Y0110700D03*
D44*
X0203667Y0110700D01*
X0200067Y0107100D01*
X0199667Y0106650D01*
X0199667Y0112950D02*
X0200067Y0113100D01*
X0205467Y0113100D01*
X0212667Y0105900D01*
X0212667Y0105800D01*
X0212667Y0105300D01*
X0213267Y0104700D01*
X0213267Y0092700D01*
X0212067Y0091500D01*
X0208467Y0091500D01*
X0204867Y0087900D01*
X0200067Y0087900D01*
X0199667Y0087800D01*
X0199467Y0087300D01*
X0199467Y0073500D01*
X0197067Y0071100D01*
X0197067Y0045300D01*
X0201867Y0052500D02*
X0207867Y0058500D01*
X0210267Y0059076D01*
X0210267Y0058500D01*
X0212667Y0058500D01*
X0215067Y0056100D01*
X0243867Y0056100D01*
X0244067Y0055926D01*
X0244467Y0056100D01*
X0246267Y0056100D01*
X0248667Y0058500D01*
X0248667Y0098700D01*
X0240267Y0107100D01*
X0239907Y0107181D01*
X0240267Y0107700D01*
X0240267Y0112500D01*
X0254667Y0126900D01*
X0254667Y0128700D01*
X0255167Y0128800D01*
X0240267Y0129900D02*
X0254667Y0144300D01*
X0258867Y0144300D01*
X0259467Y0144900D01*
X0259467Y0027300D01*
X0254667Y0022500D01*
X0246267Y0022500D01*
X0234867Y0011100D01*
X0231867Y0011100D01*
X0231667Y0010800D01*
X0215067Y0014100D02*
X0212067Y0011100D01*
X0211667Y0010800D01*
X0211467Y0011100D01*
X0188667Y0011100D01*
X0188167Y0010900D01*
X0188067Y0010500D01*
X0183267Y0010500D01*
X0182067Y0009300D01*
X0180567Y0009994D01*
X0180267Y0010500D01*
X0173667Y0010500D01*
X0173367Y0010700D01*
X0164067Y0014700D02*
X0163767Y0014500D01*
X0164067Y0014700D02*
X0164067Y0018300D01*
X0163667Y0018400D01*
X0164067Y0018900D01*
X0164067Y0021300D01*
X0163667Y0021800D01*
X0173567Y0021800D02*
X0173667Y0021900D01*
X0173667Y0031500D01*
X0171867Y0033300D01*
X0168911Y0033741D01*
X0169467Y0033300D01*
X0171867Y0033300D01*
X0173667Y0035100D01*
X0173667Y0047700D01*
X0172467Y0048900D01*
X0169467Y0048900D01*
X0168911Y0049489D01*
X0168867Y0049500D01*
X0165867Y0049500D01*
X0162267Y0053100D01*
X0162267Y0054300D01*
X0162167Y0054800D01*
X0161667Y0054900D01*
X0159867Y0054900D01*
X0159867Y0063300D01*
X0159667Y0063800D01*
X0159867Y0063900D01*
X0159867Y0066900D01*
X0159667Y0067300D01*
X0159867Y0067500D01*
X0159867Y0070500D01*
X0159567Y0070800D01*
X0175467Y0074100D02*
X0175967Y0073700D01*
X0175467Y0074100D02*
X0175467Y0089100D01*
X0171867Y0092700D01*
X0169467Y0092700D01*
X0168911Y0092796D01*
X0169467Y0093300D01*
X0169467Y0098200D01*
X0169467Y0098700D01*
X0171267Y0098700D01*
X0172467Y0099900D01*
X0172967Y0100200D01*
X0173067Y0099900D01*
X0179067Y0099900D01*
X0180167Y0098800D01*
X0185067Y0093900D01*
X0199467Y0093900D01*
X0199667Y0093800D01*
X0200067Y0093900D01*
X0209667Y0093900D01*
X0210167Y0094300D01*
X0210267Y0088500D02*
X0210167Y0088300D01*
X0210267Y0088500D02*
X0215667Y0088500D01*
X0222267Y0095100D01*
X0222667Y0095300D01*
X0227667Y0096300D02*
X0212667Y0111300D01*
X0212667Y0111800D01*
X0232467Y0111900D02*
X0232467Y0117300D01*
X0232427Y0117419D01*
X0239907Y0117419D02*
X0240267Y0117900D01*
X0240267Y0129900D01*
X0236667Y0129300D02*
X0192667Y0129300D01*
X0165867Y0129300D01*
X0165867Y0158100D01*
X0165267Y0158700D01*
X0158067Y0158700D01*
X0147867Y0148500D01*
X0142467Y0148500D01*
X0138267Y0152700D01*
X0136967Y0152700D01*
X0132867Y0149700D02*
X0132267Y0149700D01*
X0131667Y0150300D01*
X0131667Y0155100D01*
X0136467Y0159900D01*
X0182667Y0159900D01*
X0192267Y0150300D01*
X0192667Y0150300D01*
X0192867Y0150300D01*
X0195867Y0153300D01*
X0258867Y0153300D01*
X0259467Y0152700D01*
X0259467Y0144900D01*
X0255167Y0148800D02*
X0254667Y0148500D01*
X0253467Y0147300D01*
X0236667Y0147300D01*
X0236667Y0129300D01*
X0236667Y0107700D01*
X0236167Y0107181D01*
X0236667Y0107100D01*
X0236667Y0098100D01*
X0243267Y0091500D01*
X0243267Y0090300D01*
X0243667Y0089800D01*
X0243867Y0089700D01*
X0247467Y0086100D01*
X0247467Y0066900D01*
X0246267Y0065700D01*
X0244467Y0065700D01*
X0244067Y0065375D01*
X0243867Y0065100D01*
X0242067Y0065100D01*
X0239667Y0062700D01*
X0210267Y0062700D01*
X0210267Y0062225D01*
X0210267Y0062700D02*
X0207867Y0062700D01*
X0206667Y0063900D01*
X0206667Y0066900D01*
X0207867Y0068100D01*
X0210267Y0068100D01*
X0210267Y0068524D01*
X0212667Y0065700D02*
X0213867Y0066900D01*
X0213867Y0076500D01*
X0213267Y0077100D01*
X0207267Y0077100D01*
X0205467Y0075300D01*
X0205467Y0060900D01*
X0207867Y0058500D01*
X0210267Y0058500D01*
X0210267Y0055926D02*
X0210267Y0055500D01*
X0207867Y0055500D01*
X0206667Y0054300D01*
X0206667Y0051300D01*
X0222267Y0035700D01*
X0234867Y0035700D01*
X0238467Y0035100D02*
X0238467Y0033300D01*
X0238667Y0032800D01*
X0238467Y0035100D02*
X0228867Y0044700D01*
X0228867Y0046500D01*
X0228741Y0046900D01*
X0237867Y0052500D02*
X0250467Y0039900D01*
X0250467Y0035100D01*
X0250667Y0034524D01*
X0250667Y0029800D02*
X0250467Y0029700D01*
X0233067Y0029700D01*
X0230067Y0032700D01*
X0229667Y0032800D01*
X0229467Y0033300D01*
X0219667Y0033300D01*
X0219267Y0033300D01*
X0219267Y0031500D01*
X0215067Y0027300D01*
X0215067Y0014100D01*
X0212667Y0024300D02*
X0198267Y0024300D01*
X0188667Y0033900D01*
X0188367Y0033900D01*
X0198867Y0035100D02*
X0198867Y0029700D01*
X0201267Y0027300D01*
X0201667Y0027300D01*
X0210667Y0027300D01*
X0212667Y0024300D02*
X0213867Y0025500D01*
X0213867Y0029100D01*
X0212667Y0030300D01*
X0209067Y0030300D01*
X0206067Y0033300D01*
X0201867Y0033300D01*
X0201667Y0033300D01*
X0201867Y0033300D02*
X0201867Y0052500D01*
X0210267Y0052500D02*
X0210267Y0052776D01*
X0210267Y0052500D02*
X0237867Y0052500D01*
X0238467Y0058500D02*
X0237267Y0058500D01*
X0238467Y0058500D02*
X0242067Y0062100D01*
X0243867Y0062100D01*
X0244067Y0062225D01*
X0225867Y0075900D02*
X0225267Y0075900D01*
X0222267Y0072900D01*
X0225267Y0075900D02*
X0222867Y0078300D01*
X0222867Y0080700D01*
X0222442Y0080700D01*
X0225267Y0080700D02*
X0225267Y0083100D01*
X0224067Y0084300D01*
X0212067Y0084300D01*
X0199467Y0071700D01*
X0199467Y0035700D01*
X0198867Y0035100D01*
X0210667Y0033300D02*
X0215667Y0033300D01*
X0221067Y0027300D02*
X0224667Y0030900D01*
X0221067Y0027300D02*
X0219667Y0027300D01*
X0229667Y0026800D02*
X0230067Y0026700D01*
X0238467Y0026700D01*
X0238667Y0026800D01*
X0245067Y0025500D02*
X0250467Y0025500D01*
X0250667Y0025076D01*
X0188667Y0020100D02*
X0188667Y0011100D01*
X0188667Y0020100D02*
X0188167Y0020200D01*
X0188067Y0020700D01*
X0181467Y0020700D01*
X0180867Y0021300D01*
X0180567Y0021806D01*
X0180267Y0021900D01*
X0173667Y0021900D01*
X0153267Y0020100D02*
X0153267Y0014100D01*
X0153163Y0014056D01*
X0153267Y0020100D02*
X0153167Y0020500D01*
X0152667Y0020700D01*
X0149667Y0020700D01*
X0149667Y0020600D01*
X0129541Y0014056D02*
X0129267Y0014100D01*
X0128667Y0014700D01*
X0128667Y0021900D01*
X0128267Y0021900D01*
X0124267Y0021900D01*
X0123867Y0021900D01*
X0122667Y0020700D01*
X0092667Y0020700D01*
X0087867Y0015900D01*
X0089667Y0014100D01*
X0090171Y0014056D01*
X0087867Y0015900D02*
X0084167Y0015900D01*
X0083667Y0015900D01*
X0081867Y0014100D01*
X0081867Y0009900D01*
X0081667Y0009400D01*
X0081267Y0009900D01*
X0078267Y0009900D01*
X0077767Y0009400D01*
X0077667Y0009900D01*
X0074067Y0009900D01*
X0073867Y0009500D01*
X0073467Y0009300D01*
X0072867Y0008700D01*
X0063867Y0008700D01*
X0060267Y0012300D01*
X0056667Y0012300D01*
X0046467Y0012300D01*
X0046467Y0010500D01*
X0046067Y0010300D01*
X0046467Y0012300D02*
X0046467Y0013500D01*
X0046167Y0013900D01*
X0051867Y0036900D02*
X0052167Y0036900D01*
X0051867Y0036900D02*
X0051867Y0038700D01*
X0050667Y0039900D01*
X0050667Y0041100D01*
X0049467Y0042300D01*
X0049467Y0044100D01*
X0048989Y0044287D01*
X0055667Y0057900D02*
X0056067Y0057900D01*
X0056067Y0060900D01*
X0059753Y0058867D01*
X0057867Y0059700D01*
X0059067Y0060900D01*
X0059167Y0060900D01*
X0059667Y0060900D01*
X0059667Y0066400D01*
X0059667Y0060900D02*
X0063167Y0060900D01*
X0059753Y0058867D02*
X0059667Y0058500D01*
X0059667Y0057900D01*
X0059167Y0057900D01*
X0056067Y0060900D02*
X0055667Y0060900D01*
X0037234Y0067363D02*
X0036867Y0067500D01*
X0032667Y0067500D01*
X0027267Y0072900D01*
X0027267Y0081900D01*
X0036267Y0090900D01*
X0036267Y0092700D01*
X0036767Y0092800D01*
X0036867Y0093300D01*
X0042267Y0093300D01*
X0042828Y0094414D01*
X0054267Y0099300D02*
X0055467Y0098100D01*
X0055767Y0098000D01*
X0056067Y0097500D01*
X0056067Y0095700D01*
X0057867Y0093900D01*
X0057867Y0093400D01*
X0057867Y0093900D02*
X0062667Y0093900D01*
X0062867Y0092800D01*
X0063267Y0093300D01*
X0068067Y0093300D01*
X0068167Y0093300D01*
X0068067Y0093300D02*
X0071667Y0096900D01*
X0071667Y0097300D01*
X0071667Y0097500D01*
X0074067Y0097500D01*
X0074067Y0093300D01*
X0074423Y0092796D01*
X0074667Y0092700D01*
X0074667Y0089100D01*
X0074423Y0088859D01*
X0074667Y0088500D01*
X0074667Y0085500D01*
X0074423Y0084922D01*
X0086667Y0082500D02*
X0086667Y0095100D01*
X0086467Y0095200D01*
X0086067Y0095700D01*
X0082467Y0095700D01*
X0082267Y0095400D01*
X0081867Y0095700D01*
X0077067Y0095700D01*
X0075867Y0096900D01*
X0075867Y0097300D01*
X0075867Y0097500D01*
X0074067Y0097500D01*
X0062667Y0096894D02*
X0062667Y0093900D01*
X0062667Y0093300D01*
X0062867Y0092800D01*
X0054267Y0099300D02*
X0054267Y0102900D01*
X0054067Y0103100D01*
X0054267Y0103500D01*
X0054267Y0107700D01*
X0054567Y0107700D01*
X0054867Y0107700D01*
X0055467Y0108300D01*
X0055467Y0108900D01*
X0062667Y0108900D01*
X0062667Y0108706D01*
X0062667Y0108900D02*
X0065067Y0111300D01*
X0070467Y0111300D01*
X0070667Y0111800D01*
X0071067Y0111300D01*
X0072267Y0110100D01*
X0072267Y0108300D01*
X0072667Y0107800D01*
X0072867Y0107700D01*
X0077667Y0107700D01*
X0077667Y0107300D01*
X0077667Y0107100D01*
X0078267Y0106500D01*
X0083067Y0106500D01*
X0083167Y0106300D01*
X0083667Y0106500D01*
X0087867Y0106500D01*
X0089667Y0108300D01*
X0090171Y0108544D01*
X0090267Y0108900D01*
X0093867Y0108900D01*
X0094108Y0108544D01*
X0101982Y0108544D02*
X0102267Y0108300D01*
X0102267Y0101700D01*
X0102467Y0101200D01*
X0102267Y0101100D01*
X0099267Y0098100D01*
X0099067Y0097600D01*
X0098667Y0097500D01*
X0097467Y0097500D01*
X0095367Y0095400D01*
X0095067Y0095100D01*
X0090867Y0095100D01*
X0090667Y0094900D01*
X0090267Y0095100D01*
X0086667Y0095100D01*
X0101982Y0108544D02*
X0102267Y0108900D01*
X0105867Y0108900D01*
X0105919Y0108544D01*
X0127467Y0116700D02*
X0083667Y0116700D01*
X0065067Y0135300D01*
X0065067Y0141300D01*
X0064667Y0141800D01*
X0051867Y0122700D02*
X0040467Y0134100D01*
X0040467Y0141300D01*
X0040167Y0141800D01*
X0051867Y0122700D02*
X0052167Y0122300D01*
X0052467Y0122100D01*
X0052467Y0116700D01*
X0044067Y0108300D01*
X0043568Y0108300D01*
X0043467Y0108300D01*
X0043467Y0105300D01*
X0042667Y0104800D01*
X0036767Y0104800D02*
X0035667Y0105300D01*
X0033267Y0107700D01*
X0029067Y0107700D01*
X0024867Y0111900D01*
X0020067Y0111900D01*
X0015267Y0107100D01*
X0018867Y0103500D01*
X0019167Y0103300D01*
X0019467Y0102900D01*
X0019467Y0099300D01*
X0019167Y0099300D01*
X0018867Y0099300D01*
X0014067Y0094500D01*
X0014067Y0093300D01*
X0013917Y0093300D01*
X0015267Y0107100D02*
X0014067Y0108300D01*
X0013917Y0108300D01*
X0052467Y0115500D02*
X0055667Y0112300D01*
X0055467Y0111900D01*
X0055467Y0108900D01*
X0052467Y0115500D02*
X0052467Y0116700D01*
X0096867Y0073500D02*
X0104167Y0080800D01*
X0113167Y0074300D02*
X0113667Y0074700D01*
X0117867Y0074700D01*
X0118367Y0074400D01*
X0118467Y0074100D01*
X0118467Y0069900D01*
X0120867Y0069900D01*
X0121167Y0069800D01*
X0121467Y0069300D01*
X0121467Y0057300D01*
X0121367Y0056800D01*
X0120867Y0057300D01*
X0116667Y0057300D01*
X0116367Y0056800D01*
X0116067Y0057300D01*
X0111267Y0057300D01*
X0111267Y0056900D01*
X0111267Y0048300D01*
X0110667Y0047700D01*
X0110567Y0047300D01*
X0110667Y0047100D01*
X0114867Y0042900D01*
X0119067Y0042900D01*
X0119567Y0042800D01*
X0122567Y0045800D01*
X0110567Y0047300D02*
X0110067Y0047700D01*
X0104667Y0047700D01*
X0104567Y0047300D01*
X0104667Y0047100D01*
X0104667Y0042300D01*
X0101167Y0042300D01*
X0104667Y0042300D02*
X0107167Y0042300D01*
X0096267Y0030300D02*
X0093267Y0030300D01*
X0093167Y0029800D01*
X0092667Y0029700D01*
X0092667Y0020700D01*
X0096667Y0029900D02*
X0096267Y0030300D01*
X0141167Y0053800D02*
X0141267Y0054300D01*
X0141267Y0057300D01*
X0141067Y0057300D01*
X0158667Y0054900D02*
X0158667Y0054800D01*
X0158667Y0054900D02*
X0159867Y0054900D01*
X0127267Y0069600D02*
X0126867Y0069900D01*
X0123867Y0069900D01*
X0123867Y0074100D01*
X0123667Y0074300D01*
X0123867Y0069900D02*
X0121467Y0069900D01*
X0121167Y0069800D01*
X0118467Y0069900D02*
X0116067Y0069900D01*
X0116067Y0069800D01*
X0116067Y0069900D02*
X0110067Y0069900D01*
X0109567Y0069800D01*
X0096867Y0073500D02*
X0093867Y0073500D01*
X0093667Y0073300D01*
X0145289Y0108544D02*
X0145467Y0108900D01*
X0145467Y0111300D01*
X0147867Y0113700D01*
X0150867Y0113700D01*
X0154467Y0110100D01*
X0155667Y0111300D01*
X0159667Y0111300D01*
X0161667Y0111300D01*
X0161667Y0129300D01*
X0165867Y0129300D01*
X0161667Y0129300D02*
X0161667Y0130300D01*
X0161667Y0129900D01*
X0147267Y0132900D02*
X0137067Y0132900D01*
X0136967Y0132600D01*
X0137067Y0126300D02*
X0136967Y0125900D01*
X0136467Y0125700D01*
X0127467Y0116700D01*
X0137067Y0126300D02*
X0143667Y0126300D01*
X0161667Y0144300D01*
X0161667Y0151300D01*
X0142467Y0148500D02*
X0142467Y0143700D01*
X0138267Y0139500D01*
X0137067Y0139500D01*
X0136967Y0139300D01*
X0136967Y0146000D02*
X0136467Y0146100D01*
X0132867Y0149700D01*
X0161667Y0111300D02*
X0165267Y0111300D01*
X0165367Y0111200D01*
X0154467Y0110100D02*
X0153267Y0108900D01*
X0153163Y0108544D01*
X0204267Y0138300D02*
X0212667Y0146700D01*
X0212966Y0146800D01*
X0230367Y0146800D02*
X0230667Y0147300D01*
X0236667Y0147300D01*
X0232427Y0107181D02*
X0232467Y0107100D01*
X0232467Y0101100D01*
X0235467Y0098100D01*
X0235467Y0092700D01*
X0233067Y0090300D01*
X0232667Y0089800D01*
X0232467Y0089700D01*
X0222867Y0089700D01*
X0222667Y0089300D01*
X0227667Y0096300D02*
X0232467Y0096300D01*
X0232667Y0095800D01*
X0243267Y0096300D02*
X0243667Y0095800D01*
X0243267Y0096300D02*
X0243267Y0101100D01*
X0225592Y0080700D02*
X0225267Y0080700D01*
X0219293Y0080700D02*
X0219267Y0080700D01*
X0219267Y0078300D01*
X0216267Y0075300D01*
X0216143Y0080700D02*
X0213867Y0080700D01*
X0212667Y0081900D01*
X0212667Y0065700D02*
X0210267Y0065700D01*
X0210267Y0065375D01*
D45*
X0007667Y0002300D02*
X0007667Y0168300D01*
X0276167Y0168300D01*
X0276167Y0002800D01*
X0008667Y0002800D01*
X0007667Y0002300D01*
X0007667Y0003103D02*
X0276167Y0003103D01*
X0276167Y0004701D02*
X0014975Y0004701D01*
X0014574Y0004300D02*
X0015745Y0005472D01*
X0015745Y0007128D01*
X0014574Y0008300D01*
X0012838Y0008300D01*
X0011667Y0007128D01*
X0011667Y0005472D01*
X0012838Y0004300D01*
X0014574Y0004300D01*
X0012437Y0004701D02*
X0007667Y0004701D01*
X0007667Y0006300D02*
X0011667Y0006300D01*
X0012437Y0007899D02*
X0007667Y0007899D01*
X0007667Y0009497D02*
X0032070Y0009497D01*
X0031732Y0009835D02*
X0033701Y0007866D01*
X0036274Y0006800D01*
X0039059Y0006800D01*
X0041632Y0007866D01*
X0043601Y0009835D01*
X0044667Y0012408D01*
X0044667Y0015192D01*
X0043601Y0017765D01*
X0041632Y0019734D01*
X0039059Y0020800D01*
X0036274Y0020800D01*
X0033701Y0019734D01*
X0031732Y0017765D01*
X0030667Y0015192D01*
X0030667Y0012408D01*
X0031732Y0009835D01*
X0031210Y0011096D02*
X0007667Y0011096D01*
X0007667Y0012694D02*
X0030667Y0012694D01*
X0030667Y0014293D02*
X0007667Y0014293D01*
X0007667Y0015891D02*
X0030956Y0015891D01*
X0031618Y0017490D02*
X0018252Y0017490D01*
X0018030Y0017267D02*
X0019700Y0018937D01*
X0020604Y0021119D01*
X0020604Y0023481D01*
X0019700Y0025663D01*
X0018030Y0027333D01*
X0015848Y0028237D01*
X0013486Y0028237D01*
X0011304Y0027333D01*
X0009634Y0025663D01*
X0008730Y0023481D01*
X0008730Y0021119D01*
X0009634Y0018937D01*
X0011304Y0017267D01*
X0013486Y0016363D01*
X0015848Y0016363D01*
X0018030Y0017267D01*
X0019762Y0019088D02*
X0033055Y0019088D01*
X0036001Y0020687D02*
X0020425Y0020687D01*
X0020604Y0022285D02*
X0046389Y0022285D01*
X0046389Y0020687D02*
X0039333Y0020687D01*
X0042278Y0019088D02*
X0046389Y0019088D01*
X0046389Y0018534D02*
X0047561Y0017363D01*
X0058591Y0017363D01*
X0058907Y0016600D01*
X0057117Y0016600D01*
X0057117Y0012750D01*
X0060967Y0012750D01*
X0060967Y0015037D01*
X0060940Y0015137D01*
X0061030Y0015100D01*
X0062167Y0015100D01*
X0062167Y0008972D01*
X0063338Y0007800D01*
X0069995Y0007800D01*
X0071167Y0008972D01*
X0071167Y0010500D01*
X0071224Y0010500D01*
X0071547Y0010634D01*
X0071886Y0010719D01*
X0072057Y0010845D01*
X0072253Y0010926D01*
X0072500Y0011174D01*
X0072781Y0011382D01*
X0072890Y0011564D01*
X0076253Y0014926D01*
X0077040Y0015714D01*
X0077467Y0016743D01*
X0077467Y0026504D01*
X0079051Y0026504D01*
X0080223Y0027676D01*
X0080223Y0028546D01*
X0080454Y0027987D01*
X0081354Y0027087D01*
X0082530Y0026600D01*
X0083803Y0026600D01*
X0084979Y0027087D01*
X0085879Y0027987D01*
X0086367Y0029163D01*
X0086367Y0029464D01*
X0091002Y0034100D01*
X0091303Y0034100D01*
X0092479Y0034587D01*
X0093162Y0035269D01*
X0097547Y0030884D01*
X0098251Y0030181D01*
X0099169Y0029800D01*
X0114631Y0029800D01*
X0114547Y0029716D01*
X0110831Y0026000D01*
X0110530Y0026000D01*
X0109354Y0025513D01*
X0108454Y0024613D01*
X0107967Y0023437D01*
X0107967Y0022163D01*
X0108454Y0020987D01*
X0109354Y0020087D01*
X0109912Y0019856D01*
X0091979Y0019856D01*
X0091764Y0019641D01*
X0091708Y0019656D01*
X0090171Y0019656D01*
X0090171Y0014056D01*
X0090171Y0014056D01*
X0090171Y0008456D01*
X0091708Y0008456D01*
X0091764Y0008471D01*
X0091979Y0008256D01*
X0127732Y0008256D01*
X0127947Y0008471D01*
X0128004Y0008456D01*
X0129541Y0008456D01*
X0131078Y0008456D01*
X0131134Y0008471D01*
X0131349Y0008256D01*
X0151354Y0008256D01*
X0151569Y0008471D01*
X0151626Y0008456D01*
X0153163Y0008456D01*
X0154700Y0008456D01*
X0154930Y0008518D01*
X0155066Y0008188D01*
X0155805Y0007450D01*
X0156770Y0007050D01*
X0159064Y0007050D01*
X0159667Y0007300D01*
X0160270Y0007050D01*
X0162564Y0007050D01*
X0163529Y0007450D01*
X0163567Y0007488D01*
X0163605Y0007450D01*
X0164570Y0007050D01*
X0166864Y0007050D01*
X0167467Y0007300D01*
X0168070Y0007050D01*
X0170364Y0007050D01*
X0171329Y0007450D01*
X0172067Y0008188D01*
X0172467Y0009153D01*
X0172467Y0011447D01*
X0172307Y0011832D01*
X0174563Y0011898D01*
X0174545Y0011854D01*
X0174436Y0011307D01*
X0174436Y0010228D01*
X0175733Y0010228D01*
X0175801Y0010160D01*
X0180333Y0010160D01*
X0180333Y0009761D01*
X0174436Y0009761D01*
X0174436Y0008682D01*
X0174545Y0008135D01*
X0174758Y0007619D01*
X0175069Y0007155D01*
X0175463Y0006760D01*
X0175927Y0006450D01*
X0176443Y0006236D01*
X0176990Y0006128D01*
X0180333Y0006128D01*
X0180333Y0009761D01*
X0180800Y0009761D01*
X0180800Y0006128D01*
X0184143Y0006128D01*
X0184690Y0006236D01*
X0185206Y0006450D01*
X0185670Y0006760D01*
X0186065Y0007155D01*
X0186375Y0007619D01*
X0186588Y0008135D01*
X0186697Y0008682D01*
X0186697Y0009761D01*
X0180800Y0009761D01*
X0180800Y0010160D01*
X0185726Y0010160D01*
X0185794Y0010228D01*
X0186697Y0010228D01*
X0186697Y0011131D01*
X0186897Y0011331D01*
X0186897Y0020469D01*
X0186697Y0020669D01*
X0186697Y0021572D01*
X0185794Y0021572D01*
X0185726Y0021640D01*
X0180800Y0021640D01*
X0180800Y0022039D01*
X0186697Y0022039D01*
X0186697Y0023118D01*
X0186588Y0023665D01*
X0186375Y0024181D01*
X0186065Y0024645D01*
X0185670Y0025040D01*
X0185206Y0025350D01*
X0184690Y0025564D01*
X0184410Y0025619D01*
X0184617Y0025826D01*
X0184948Y0026625D01*
X0185083Y0026681D01*
X0187286Y0028884D01*
X0187667Y0029803D01*
X0187667Y0030726D01*
X0187730Y0030700D01*
X0188614Y0030700D01*
X0197314Y0022000D01*
X0213619Y0022000D01*
X0214967Y0023347D01*
X0216167Y0024547D01*
X0216167Y0024899D01*
X0216288Y0024607D01*
X0216973Y0023921D01*
X0217869Y0023550D01*
X0221464Y0023550D01*
X0222360Y0023921D01*
X0223046Y0024607D01*
X0223417Y0025503D01*
X0223417Y0026397D01*
X0224719Y0027700D01*
X0225303Y0027700D01*
X0225917Y0027954D01*
X0225917Y0024691D01*
X0227308Y0023300D01*
X0232025Y0023300D01*
X0233125Y0024400D01*
X0235166Y0024400D01*
X0235288Y0024107D01*
X0235973Y0023421D01*
X0236869Y0023050D01*
X0240464Y0023050D01*
X0241360Y0023421D01*
X0242046Y0024107D01*
X0242113Y0024269D01*
X0242354Y0023687D01*
X0243254Y0022787D01*
X0243287Y0022773D01*
X0235521Y0015007D01*
X0234895Y0015632D01*
X0232800Y0016500D01*
X0230533Y0016500D01*
X0228438Y0015632D01*
X0226834Y0014029D01*
X0226667Y0013624D01*
X0226499Y0014029D01*
X0224895Y0015632D01*
X0222800Y0016500D01*
X0220533Y0016500D01*
X0218438Y0015632D01*
X0216834Y0014029D01*
X0216547Y0013336D01*
X0216371Y0013683D01*
X0215862Y0014383D01*
X0215250Y0014995D01*
X0214549Y0015504D01*
X0213778Y0015897D01*
X0212955Y0016165D01*
X0212100Y0016300D01*
X0211867Y0016300D01*
X0211867Y0011000D01*
X0211467Y0011000D01*
X0211467Y0016300D01*
X0211234Y0016300D01*
X0210379Y0016165D01*
X0209555Y0015897D01*
X0208784Y0015504D01*
X0208084Y0014995D01*
X0207471Y0014383D01*
X0206963Y0013683D01*
X0206570Y0012911D01*
X0206302Y0012088D01*
X0206167Y0011233D01*
X0206167Y0011000D01*
X0211467Y0011000D01*
X0211467Y0010600D01*
X0211867Y0010600D01*
X0211867Y0005300D01*
X0212100Y0005300D01*
X0212955Y0005435D01*
X0213778Y0005703D01*
X0214549Y0006096D01*
X0215250Y0006605D01*
X0215862Y0007217D01*
X0216371Y0007917D01*
X0216547Y0008264D01*
X0216834Y0007571D01*
X0218438Y0005968D01*
X0220533Y0005100D01*
X0222800Y0005100D01*
X0224895Y0005968D01*
X0226499Y0007571D01*
X0226667Y0007976D01*
X0226834Y0007571D01*
X0228438Y0005968D01*
X0230533Y0005100D01*
X0232800Y0005100D01*
X0234895Y0005968D01*
X0236499Y0007571D01*
X0236667Y0007976D01*
X0236834Y0007571D01*
X0238438Y0005968D01*
X0240533Y0005100D01*
X0242800Y0005100D01*
X0244895Y0005968D01*
X0246499Y0007571D01*
X0246667Y0007976D01*
X0246834Y0007571D01*
X0248438Y0005968D01*
X0250533Y0005100D01*
X0252800Y0005100D01*
X0254895Y0005968D01*
X0256499Y0007571D01*
X0256667Y0007976D01*
X0256834Y0007571D01*
X0258438Y0005968D01*
X0260533Y0005100D01*
X0262800Y0005100D01*
X0264895Y0005968D01*
X0266499Y0007571D01*
X0267367Y0009666D01*
X0267367Y0011934D01*
X0266499Y0014029D01*
X0264895Y0015632D01*
X0262800Y0016500D01*
X0260533Y0016500D01*
X0258438Y0015632D01*
X0256834Y0014029D01*
X0256667Y0013624D01*
X0256499Y0014029D01*
X0254895Y0015632D01*
X0252800Y0016500D01*
X0250533Y0016500D01*
X0248438Y0015632D01*
X0246834Y0014029D01*
X0246667Y0013624D01*
X0246499Y0014029D01*
X0244895Y0015632D01*
X0243309Y0016289D01*
X0247219Y0020200D01*
X0255619Y0020200D01*
X0260419Y0025000D01*
X0261767Y0026347D01*
X0261767Y0153653D01*
X0261167Y0154253D01*
X0259819Y0155600D01*
X0197917Y0155600D01*
X0197917Y0157128D01*
X0196745Y0158300D01*
X0188588Y0158300D01*
X0188054Y0157766D01*
X0183619Y0162200D01*
X0135514Y0162200D01*
X0134167Y0160853D01*
X0129367Y0156053D01*
X0129367Y0149347D01*
X0130714Y0148000D01*
X0130717Y0147997D01*
X0130717Y0143072D01*
X0131280Y0142509D01*
X0131276Y0142505D01*
X0131039Y0142095D01*
X0130917Y0141637D01*
X0130917Y0139550D01*
X0136717Y0139550D01*
X0136717Y0139050D01*
X0130917Y0139050D01*
X0130917Y0136963D01*
X0131039Y0136505D01*
X0131276Y0136095D01*
X0131280Y0136091D01*
X0130717Y0135528D01*
X0130717Y0129672D01*
X0131138Y0129250D01*
X0130717Y0128828D01*
X0130717Y0123203D01*
X0126659Y0119145D01*
X0126659Y0161388D01*
X0125487Y0162560D01*
X0082846Y0162560D01*
X0081675Y0161388D01*
X0081675Y0121945D01*
X0069486Y0134134D01*
X0069753Y0134401D01*
X0070667Y0136607D01*
X0070667Y0146993D01*
X0069753Y0149199D01*
X0068065Y0150887D01*
X0065860Y0151800D01*
X0063473Y0151800D01*
X0061268Y0150887D01*
X0059580Y0149199D01*
X0058667Y0146993D01*
X0058667Y0136607D01*
X0059580Y0134401D01*
X0061268Y0132713D01*
X0063473Y0131800D01*
X0065314Y0131800D01*
X0082714Y0114400D01*
X0128419Y0114400D01*
X0135819Y0121800D01*
X0142045Y0121800D01*
X0143217Y0122972D01*
X0143217Y0124000D01*
X0144619Y0124000D01*
X0156617Y0135997D01*
X0156617Y0131100D01*
X0160867Y0131100D01*
X0160867Y0138100D01*
X0158719Y0138100D01*
X0162619Y0142000D01*
X0163919Y0143300D01*
X0165745Y0143300D01*
X0166917Y0144472D01*
X0166917Y0157600D01*
X0181714Y0157600D01*
X0187417Y0151897D01*
X0187417Y0143472D01*
X0188588Y0142300D01*
X0196745Y0142300D01*
X0197917Y0143472D01*
X0197917Y0151000D01*
X0206716Y0151000D01*
X0206716Y0144002D01*
X0204214Y0141500D01*
X0203630Y0141500D01*
X0202454Y0141013D01*
X0201554Y0140113D01*
X0201067Y0138937D01*
X0201067Y0137663D01*
X0201554Y0136487D01*
X0202454Y0135587D01*
X0203630Y0135100D01*
X0204903Y0135100D01*
X0206079Y0135587D01*
X0206979Y0136487D01*
X0207467Y0137663D01*
X0207467Y0138247D01*
X0208620Y0139400D01*
X0218044Y0139400D01*
X0219216Y0140572D01*
X0219216Y0151000D01*
X0224317Y0151000D01*
X0224317Y0147600D01*
X0229567Y0147600D01*
X0229567Y0146000D01*
X0224317Y0146000D01*
X0224317Y0141163D01*
X0224440Y0140706D01*
X0224677Y0140295D01*
X0225012Y0139960D01*
X0225423Y0139723D01*
X0225880Y0139600D01*
X0229567Y0139600D01*
X0229567Y0146000D01*
X0231167Y0146000D01*
X0231167Y0139600D01*
X0234854Y0139600D01*
X0235312Y0139723D01*
X0235723Y0139960D01*
X0236058Y0140295D01*
X0236295Y0140706D01*
X0236417Y0141163D01*
X0236417Y0146000D01*
X0231167Y0146000D01*
X0231167Y0147600D01*
X0236417Y0147600D01*
X0236417Y0151000D01*
X0250117Y0151000D01*
X0250117Y0148875D01*
X0255092Y0148875D01*
X0255092Y0148725D01*
X0250117Y0148725D01*
X0250117Y0145313D01*
X0250239Y0144855D01*
X0250476Y0144445D01*
X0250811Y0144110D01*
X0251073Y0143959D01*
X0237967Y0130853D01*
X0237967Y0121752D01*
X0236824Y0120609D01*
X0236824Y0114228D01*
X0237967Y0113085D01*
X0237967Y0111515D01*
X0237730Y0111278D01*
X0237486Y0111344D01*
X0236167Y0111344D01*
X0236167Y0107182D01*
X0236167Y0107182D01*
X0236167Y0111344D01*
X0235667Y0111344D01*
X0235667Y0112537D01*
X0235179Y0113713D01*
X0235087Y0113805D01*
X0235509Y0114228D01*
X0235509Y0120609D01*
X0234338Y0121781D01*
X0230515Y0121781D01*
X0229344Y0120609D01*
X0229344Y0114228D01*
X0229806Y0113765D01*
X0229754Y0113713D01*
X0229267Y0112537D01*
X0229267Y0111263D01*
X0229550Y0110579D01*
X0229344Y0110372D01*
X0229344Y0103991D01*
X0230167Y0103168D01*
X0230167Y0100147D01*
X0230795Y0099519D01*
X0229973Y0099179D01*
X0229395Y0098600D01*
X0228619Y0098600D01*
X0216417Y0110803D01*
X0216417Y0113909D01*
X0215025Y0115300D01*
X0210308Y0115300D01*
X0208917Y0113909D01*
X0208917Y0112903D01*
X0206419Y0115400D01*
X0203982Y0115400D01*
X0202857Y0116524D01*
X0196476Y0116524D01*
X0195304Y0115353D01*
X0195304Y0110546D01*
X0196051Y0109800D01*
X0195304Y0109054D01*
X0195304Y0104247D01*
X0196476Y0103076D01*
X0202857Y0103076D01*
X0204029Y0104247D01*
X0204029Y0107500D01*
X0204903Y0107500D01*
X0206079Y0107987D01*
X0206703Y0108611D01*
X0208917Y0106397D01*
X0208917Y0103691D01*
X0210308Y0102300D01*
X0210967Y0102300D01*
X0210967Y0097600D01*
X0210167Y0097600D01*
X0210167Y0094300D01*
X0210167Y0094300D01*
X0210167Y0097600D01*
X0208505Y0097600D01*
X0207952Y0097452D01*
X0207456Y0097165D01*
X0207051Y0096760D01*
X0206765Y0096265D01*
X0206617Y0095711D01*
X0206617Y0094300D01*
X0206617Y0092903D01*
X0206167Y0092453D01*
X0203914Y0090200D01*
X0203167Y0090200D01*
X0203046Y0090493D01*
X0202597Y0090941D01*
X0202770Y0091114D01*
X0203064Y0091624D01*
X0203217Y0092193D01*
X0203217Y0093725D01*
X0199742Y0093725D01*
X0199742Y0093875D01*
X0203217Y0093875D01*
X0203217Y0095407D01*
X0203064Y0095976D01*
X0202770Y0096486D01*
X0202353Y0096903D01*
X0201843Y0097198D01*
X0201274Y0097350D01*
X0199742Y0097350D01*
X0199742Y0093875D01*
X0199592Y0093875D01*
X0199592Y0097350D01*
X0198060Y0097350D01*
X0197491Y0097198D01*
X0196980Y0096903D01*
X0196564Y0096486D01*
X0196269Y0095976D01*
X0196117Y0095407D01*
X0196117Y0093875D01*
X0199592Y0093875D01*
X0199592Y0093725D01*
X0196117Y0093725D01*
X0196117Y0092193D01*
X0196269Y0091624D01*
X0196564Y0091114D01*
X0196736Y0090941D01*
X0196288Y0090493D01*
X0195917Y0089597D01*
X0195917Y0086003D01*
X0196288Y0085107D01*
X0196973Y0084421D01*
X0197167Y0084341D01*
X0197167Y0074453D01*
X0196114Y0073400D01*
X0194767Y0072053D01*
X0194767Y0047525D01*
X0194354Y0047113D01*
X0193867Y0045937D01*
X0193867Y0044663D01*
X0194354Y0043487D01*
X0195254Y0042587D01*
X0196430Y0042100D01*
X0197167Y0042100D01*
X0197167Y0036653D01*
X0196567Y0036053D01*
X0196567Y0029253D01*
X0191567Y0034253D01*
X0191567Y0034537D01*
X0191079Y0035713D01*
X0190723Y0036069D01*
X0190667Y0036886D01*
X0190667Y0086297D01*
X0190286Y0087216D01*
X0189583Y0087919D01*
X0186583Y0090919D01*
X0185664Y0091300D01*
X0184814Y0091300D01*
X0184617Y0091774D01*
X0183141Y0093251D01*
X0181509Y0093926D01*
X0182105Y0094120D01*
X0182813Y0094481D01*
X0183457Y0094948D01*
X0184019Y0095510D01*
X0184486Y0096153D01*
X0184847Y0096861D01*
X0185092Y0097617D01*
X0185217Y0098403D01*
X0185217Y0098600D01*
X0180367Y0098600D01*
X0180367Y0099000D01*
X0185217Y0099000D01*
X0185217Y0099197D01*
X0185092Y0099983D01*
X0184847Y0100739D01*
X0184486Y0101447D01*
X0184019Y0102090D01*
X0183457Y0102652D01*
X0182813Y0103119D01*
X0182105Y0103480D01*
X0181509Y0103674D01*
X0183141Y0104349D01*
X0184617Y0105826D01*
X0185417Y0107756D01*
X0185417Y0109844D01*
X0184617Y0111774D01*
X0183141Y0113251D01*
X0181211Y0114050D01*
X0179122Y0114050D01*
X0177312Y0113300D01*
X0171871Y0113300D01*
X0170401Y0112691D01*
X0160010Y0102300D01*
X0108226Y0102300D01*
X0108097Y0102344D01*
X0107435Y0102300D01*
X0106771Y0102300D01*
X0106645Y0102248D01*
X0106509Y0102239D01*
X0105914Y0101945D01*
X0105301Y0101691D01*
X0105205Y0101595D01*
X0105082Y0101534D01*
X0104645Y0101035D01*
X0104176Y0100566D01*
X0104124Y0100440D01*
X0087353Y0081300D01*
X0080223Y0081300D01*
X0080223Y0083113D01*
X0080007Y0083329D01*
X0080023Y0083385D01*
X0080023Y0084922D01*
X0080023Y0086459D01*
X0079907Y0086891D01*
X0080023Y0087322D01*
X0080023Y0088859D01*
X0080023Y0090396D01*
X0079907Y0090828D01*
X0080023Y0091259D01*
X0080023Y0092796D01*
X0080023Y0094333D01*
X0079900Y0094791D01*
X0079663Y0095201D01*
X0079328Y0095536D01*
X0078917Y0095773D01*
X0078460Y0095896D01*
X0074423Y0095896D01*
X0074423Y0092796D01*
X0074423Y0092796D01*
X0080023Y0092796D01*
X0074423Y0092796D01*
X0074423Y0088859D01*
X0074423Y0088859D01*
X0080023Y0088859D01*
X0074423Y0088859D01*
X0074423Y0084922D01*
X0074423Y0084922D01*
X0080023Y0084922D01*
X0074423Y0084922D01*
X0074422Y0084922D01*
X0068823Y0084922D01*
X0068823Y0083385D01*
X0068838Y0083329D01*
X0068623Y0083113D01*
X0068623Y0081300D01*
X0068324Y0081300D01*
X0067753Y0081870D01*
X0067753Y0089695D01*
X0066582Y0090867D01*
X0057004Y0090867D01*
X0054671Y0093071D01*
X0054671Y0096817D01*
X0053499Y0097989D01*
X0052768Y0097989D01*
X0052768Y0099428D01*
X0052947Y0099607D01*
X0053318Y0100503D01*
X0053318Y0104097D01*
X0052947Y0104993D01*
X0052768Y0105172D01*
X0052768Y0105428D01*
X0052947Y0105607D01*
X0053318Y0106503D01*
X0053318Y0110097D01*
X0052947Y0110993D01*
X0052261Y0111679D01*
X0051366Y0112050D01*
X0047771Y0112050D01*
X0046875Y0111679D01*
X0046427Y0111231D01*
X0046255Y0111403D01*
X0045744Y0111698D01*
X0045175Y0111850D01*
X0043643Y0111850D01*
X0043643Y0108375D01*
X0043493Y0108375D01*
X0040257Y0108375D01*
X0040195Y0108225D01*
X0043493Y0108225D01*
X0043493Y0108375D01*
X0043493Y0111850D01*
X0041961Y0111850D01*
X0041392Y0111698D01*
X0040882Y0111403D01*
X0040517Y0111038D01*
X0040517Y0112597D01*
X0040146Y0113493D01*
X0039460Y0114179D01*
X0038564Y0114550D01*
X0034969Y0114550D01*
X0034073Y0114179D01*
X0033610Y0113715D01*
X0033025Y0114300D01*
X0028308Y0114300D01*
X0026917Y0112909D01*
X0026917Y0108691D01*
X0027808Y0107800D01*
X0027208Y0107200D01*
X0027189Y0107200D01*
X0026307Y0106835D01*
X0025667Y0106194D01*
X0025667Y0111628D01*
X0024495Y0112800D01*
X0020338Y0112800D01*
X0019167Y0111628D01*
X0019167Y0104972D01*
X0019917Y0104222D01*
X0019917Y0097378D01*
X0019167Y0096628D01*
X0019167Y0096000D01*
X0019030Y0096000D01*
X0017854Y0095513D01*
X0016967Y0094625D01*
X0016967Y0096037D01*
X0016844Y0096495D01*
X0016607Y0096905D01*
X0016272Y0097240D01*
X0015861Y0097477D01*
X0015404Y0097600D01*
X0013917Y0097600D01*
X0013917Y0093300D01*
X0016467Y0093300D01*
X0016467Y0093300D01*
X0013917Y0093300D01*
X0013917Y0093300D01*
X0013917Y0093300D01*
X0013917Y0097600D01*
X0012430Y0097600D01*
X0011972Y0097477D01*
X0011561Y0097240D01*
X0011226Y0096905D01*
X0010989Y0096495D01*
X0010867Y0096037D01*
X0010867Y0093300D01*
X0010867Y0090563D01*
X0010989Y0090105D01*
X0011145Y0089835D01*
X0009240Y0089835D01*
X0008068Y0088664D01*
X0008068Y0080708D01*
X0009240Y0079536D01*
X0024282Y0079536D01*
X0025454Y0080708D01*
X0025454Y0088664D01*
X0024906Y0089211D01*
X0025667Y0089972D01*
X0025667Y0096628D01*
X0024917Y0097378D01*
X0024917Y0098854D01*
X0025530Y0098600D01*
X0026803Y0098600D01*
X0026917Y0098647D01*
X0026917Y0096691D01*
X0027808Y0095800D01*
X0026917Y0094909D01*
X0026917Y0090691D01*
X0027673Y0089935D01*
X0027467Y0089437D01*
X0027467Y0088163D01*
X0027954Y0086987D01*
X0028854Y0086087D01*
X0030030Y0085600D01*
X0031303Y0085600D01*
X0032479Y0086087D01*
X0033379Y0086987D01*
X0033867Y0088163D01*
X0033867Y0089437D01*
X0033660Y0089935D01*
X0033751Y0090026D01*
X0034080Y0089697D01*
X0034591Y0089402D01*
X0035160Y0089250D01*
X0036692Y0089250D01*
X0036692Y0092725D01*
X0036842Y0092725D01*
X0036842Y0089250D01*
X0038374Y0089250D01*
X0038943Y0089402D01*
X0039453Y0089697D01*
X0039870Y0090114D01*
X0040164Y0090624D01*
X0040299Y0091126D01*
X0040623Y0091039D01*
X0042828Y0091039D01*
X0042828Y0094414D01*
X0042828Y0094414D01*
X0042828Y0091039D01*
X0045034Y0091039D01*
X0045491Y0091162D01*
X0045902Y0091399D01*
X0046237Y0091734D01*
X0046474Y0092145D01*
X0046597Y0092602D01*
X0046597Y0093991D01*
X0046734Y0093754D01*
X0046734Y0092011D01*
X0047883Y0090861D01*
X0047989Y0090605D01*
X0048023Y0090572D01*
X0048042Y0090529D01*
X0048471Y0090123D01*
X0048889Y0089705D01*
X0048933Y0089687D01*
X0051753Y0087023D01*
X0051753Y0083298D01*
X0048459Y0079800D01*
X0048272Y0079800D01*
X0046836Y0079205D01*
X0027350Y0079205D01*
X0026178Y0078034D01*
X0026178Y0072440D01*
X0027350Y0071269D01*
X0047117Y0071269D01*
X0047124Y0071275D01*
X0048272Y0070800D01*
X0050062Y0070800D01*
X0051034Y0071203D01*
X0048751Y0068919D01*
X0048751Y0068919D01*
X0048089Y0068258D01*
X0048089Y0069568D01*
X0047966Y0070026D01*
X0047729Y0070437D01*
X0047394Y0070772D01*
X0046983Y0071009D01*
X0046526Y0071131D01*
X0037418Y0071131D01*
X0037418Y0067547D01*
X0037049Y0067547D01*
X0037049Y0067179D01*
X0026378Y0067179D01*
X0026378Y0065158D01*
X0026501Y0064700D01*
X0026738Y0064289D01*
X0027073Y0063954D01*
X0027484Y0063717D01*
X0027941Y0063594D01*
X0037049Y0063594D01*
X0037049Y0067179D01*
X0037418Y0067179D01*
X0037418Y0063594D01*
X0046526Y0063594D01*
X0046983Y0063717D01*
X0047394Y0063954D01*
X0047667Y0064227D01*
X0047667Y0052803D01*
X0047732Y0052645D01*
X0043822Y0047991D01*
X0043547Y0047716D01*
X0043504Y0047613D01*
X0043433Y0047527D01*
X0043315Y0047156D01*
X0043167Y0046797D01*
X0043167Y0046685D01*
X0043133Y0046579D01*
X0043167Y0046191D01*
X0043167Y0038803D01*
X0043547Y0037884D01*
X0044251Y0037181D01*
X0046489Y0034942D01*
X0046489Y0024191D01*
X0046389Y0024091D01*
X0046389Y0018534D01*
X0047434Y0017490D02*
X0043715Y0017490D01*
X0044377Y0015891D02*
X0052718Y0015891D01*
X0052726Y0015905D02*
X0052489Y0015495D01*
X0052367Y0015037D01*
X0052367Y0012750D01*
X0056217Y0012750D01*
X0056217Y0016600D01*
X0053930Y0016600D01*
X0053472Y0016477D01*
X0053061Y0016240D01*
X0052726Y0015905D01*
X0052367Y0014293D02*
X0044667Y0014293D01*
X0044667Y0012694D02*
X0056217Y0012694D01*
X0056217Y0012750D02*
X0056217Y0011850D01*
X0057117Y0011850D01*
X0057117Y0012750D01*
X0056217Y0012750D01*
X0056217Y0011850D02*
X0052367Y0011850D01*
X0052367Y0009563D01*
X0052489Y0009105D01*
X0052726Y0008695D01*
X0053061Y0008360D01*
X0053472Y0008123D01*
X0053930Y0008000D01*
X0056217Y0008000D01*
X0056217Y0011850D01*
X0056217Y0011096D02*
X0057117Y0011096D01*
X0057117Y0011850D02*
X0057117Y0008000D01*
X0059404Y0008000D01*
X0059861Y0008123D01*
X0060272Y0008360D01*
X0060607Y0008695D01*
X0060844Y0009105D01*
X0060967Y0009563D01*
X0060967Y0011850D01*
X0057117Y0011850D01*
X0057117Y0012694D02*
X0062167Y0012694D01*
X0062167Y0011096D02*
X0060967Y0011096D01*
X0060949Y0009497D02*
X0062167Y0009497D01*
X0063240Y0007899D02*
X0041665Y0007899D01*
X0043263Y0009497D02*
X0052384Y0009497D01*
X0052367Y0011096D02*
X0044123Y0011096D01*
X0033669Y0007899D02*
X0014975Y0007899D01*
X0015745Y0006300D02*
X0176289Y0006300D01*
X0174643Y0007899D02*
X0171777Y0007899D01*
X0172467Y0009497D02*
X0174436Y0009497D01*
X0174436Y0011096D02*
X0172467Y0011096D01*
X0166967Y0013507D02*
X0166967Y0014592D01*
X0165710Y0016100D01*
X0165276Y0016534D01*
X0165204Y0016707D01*
X0165084Y0016850D01*
X0164902Y0017437D01*
X0164667Y0018004D01*
X0164667Y0018191D01*
X0164611Y0018370D01*
X0164667Y0018981D01*
X0164667Y0026504D01*
X0164282Y0026504D01*
X0163111Y0027676D01*
X0163111Y0031932D01*
X0163326Y0032147D01*
X0163311Y0032204D01*
X0163311Y0033741D01*
X0168911Y0033741D01*
X0174511Y0033741D01*
X0174511Y0035278D01*
X0174496Y0035334D01*
X0174711Y0035550D01*
X0174711Y0047680D01*
X0174496Y0047896D01*
X0174511Y0047952D01*
X0174511Y0049489D01*
X0174511Y0051026D01*
X0174496Y0051082D01*
X0174711Y0051298D01*
X0174711Y0090987D01*
X0174496Y0091203D01*
X0174511Y0091259D01*
X0174511Y0092796D01*
X0174511Y0094333D01*
X0174388Y0094791D01*
X0174151Y0095201D01*
X0173816Y0095536D01*
X0173406Y0095773D01*
X0172948Y0095896D01*
X0168911Y0095896D01*
X0168911Y0092796D01*
X0168911Y0092796D01*
X0174511Y0092796D01*
X0168911Y0092796D01*
X0168911Y0092796D01*
X0168911Y0095896D01*
X0164920Y0095896D01*
X0174324Y0105300D01*
X0176242Y0105300D01*
X0177193Y0104349D01*
X0178824Y0103674D01*
X0178228Y0103480D01*
X0177520Y0103119D01*
X0176877Y0102652D01*
X0176315Y0102090D01*
X0175848Y0101447D01*
X0175487Y0100739D01*
X0175241Y0099983D01*
X0175117Y0099197D01*
X0175117Y0099000D01*
X0179967Y0099000D01*
X0179967Y0098600D01*
X0175117Y0098600D01*
X0175117Y0098403D01*
X0175241Y0097617D01*
X0175487Y0096861D01*
X0175848Y0096153D01*
X0176315Y0095510D01*
X0176877Y0094948D01*
X0177520Y0094481D01*
X0178228Y0094120D01*
X0178824Y0093926D01*
X0177193Y0093251D01*
X0175716Y0091774D01*
X0174917Y0089844D01*
X0174917Y0087756D01*
X0175716Y0085826D01*
X0177193Y0084349D01*
X0178519Y0083800D01*
X0177193Y0083251D01*
X0175716Y0081774D01*
X0174917Y0079844D01*
X0174917Y0077756D01*
X0175716Y0075826D01*
X0177193Y0074349D01*
X0178519Y0073800D01*
X0177193Y0073251D01*
X0175716Y0071774D01*
X0174917Y0069844D01*
X0174917Y0067756D01*
X0175716Y0065826D01*
X0177193Y0064349D01*
X0178519Y0063800D01*
X0177193Y0063251D01*
X0175716Y0061774D01*
X0174917Y0059844D01*
X0174917Y0057756D01*
X0175716Y0055826D01*
X0177193Y0054349D01*
X0178519Y0053800D01*
X0177193Y0053251D01*
X0175716Y0051774D01*
X0174917Y0049844D01*
X0174917Y0047756D01*
X0175716Y0045826D01*
X0177193Y0044349D01*
X0178519Y0043800D01*
X0177193Y0043251D01*
X0175716Y0041774D01*
X0174917Y0039844D01*
X0174917Y0037756D01*
X0175716Y0035826D01*
X0177193Y0034349D01*
X0178519Y0033800D01*
X0177193Y0033251D01*
X0175716Y0031774D01*
X0174917Y0029844D01*
X0174917Y0027756D01*
X0175716Y0025826D01*
X0176115Y0025428D01*
X0175927Y0025350D01*
X0175463Y0025040D01*
X0175069Y0024645D01*
X0174758Y0024181D01*
X0174545Y0023665D01*
X0174436Y0023118D01*
X0174436Y0022039D01*
X0180333Y0022039D01*
X0180333Y0021640D01*
X0175801Y0021640D01*
X0175733Y0021572D01*
X0174436Y0021572D01*
X0174436Y0020493D01*
X0174545Y0019946D01*
X0174563Y0019902D01*
X0173437Y0019868D01*
X0172983Y0019868D01*
X0172667Y0020248D01*
X0172667Y0026504D01*
X0173539Y0026504D01*
X0174711Y0027676D01*
X0174711Y0031932D01*
X0174496Y0032147D01*
X0174511Y0032204D01*
X0174511Y0033741D01*
X0168911Y0033741D01*
X0168911Y0033741D01*
X0168911Y0033741D01*
X0163311Y0033741D01*
X0163311Y0035278D01*
X0163326Y0035334D01*
X0163111Y0035550D01*
X0163111Y0047680D01*
X0163326Y0047896D01*
X0163311Y0047952D01*
X0163311Y0049489D01*
X0168911Y0049489D01*
X0174511Y0049489D01*
X0168911Y0049489D01*
X0168911Y0049489D01*
X0168911Y0049489D01*
X0163311Y0049489D01*
X0163311Y0051026D01*
X0163326Y0051082D01*
X0163111Y0051298D01*
X0163111Y0082522D01*
X0130567Y0082522D01*
X0129685Y0082887D01*
X0126173Y0086400D01*
X0109161Y0086400D01*
X0101867Y0079106D01*
X0101867Y0078663D01*
X0101379Y0077487D01*
X0100479Y0076587D01*
X0099303Y0076100D01*
X0098030Y0076100D01*
X0096854Y0076587D01*
X0095954Y0077487D01*
X0095535Y0078499D01*
X0092610Y0075160D01*
X0092558Y0075034D01*
X0092088Y0074565D01*
X0091651Y0074066D01*
X0091529Y0074005D01*
X0091432Y0073909D01*
X0090819Y0073655D01*
X0090224Y0073361D01*
X0090088Y0073352D01*
X0089962Y0073300D01*
X0089299Y0073300D01*
X0088636Y0073256D01*
X0088507Y0073300D01*
X0080223Y0073300D01*
X0080223Y0071674D01*
X0091795Y0071674D01*
X0092790Y0071674D01*
X0093709Y0071293D01*
X0095583Y0069419D01*
X0096167Y0068836D01*
X0096167Y0070797D01*
X0096547Y0071716D01*
X0109047Y0084216D01*
X0109751Y0084919D01*
X0110669Y0085300D01*
X0116141Y0085300D01*
X0116354Y0085513D01*
X0117530Y0086000D01*
X0118803Y0086000D01*
X0119979Y0085513D01*
X0120879Y0084613D01*
X0121367Y0083437D01*
X0121367Y0082163D01*
X0120879Y0080987D01*
X0119979Y0080087D01*
X0118803Y0079600D01*
X0117530Y0079600D01*
X0116354Y0080087D01*
X0116141Y0080300D01*
X0112202Y0080300D01*
X0101167Y0069264D01*
X0101167Y0051325D01*
X0101379Y0051113D01*
X0101867Y0049937D01*
X0101867Y0048663D01*
X0101379Y0047487D01*
X0100479Y0046587D01*
X0099303Y0046100D01*
X0098030Y0046100D01*
X0096854Y0046587D01*
X0096667Y0046775D01*
X0096667Y0038836D01*
X0100702Y0034800D01*
X0126141Y0034800D01*
X0126354Y0035013D01*
X0127530Y0035500D01*
X0128803Y0035500D01*
X0129167Y0035349D01*
X0129167Y0053775D01*
X0128954Y0053987D01*
X0128467Y0055163D01*
X0128467Y0056437D01*
X0128954Y0057613D01*
X0129854Y0058513D01*
X0131030Y0059000D01*
X0132303Y0059000D01*
X0132667Y0058849D01*
X0132667Y0070264D01*
X0127331Y0075600D01*
X0127030Y0075600D01*
X0125854Y0076087D01*
X0124954Y0076987D01*
X0124467Y0078163D01*
X0124467Y0079437D01*
X0124954Y0080613D01*
X0125854Y0081513D01*
X0127030Y0082000D01*
X0128303Y0082000D01*
X0129479Y0081513D01*
X0130286Y0080707D01*
X0130454Y0081113D01*
X0131354Y0082013D01*
X0132530Y0082500D01*
X0133803Y0082500D01*
X0134979Y0082013D01*
X0135192Y0081800D01*
X0144664Y0081800D01*
X0145583Y0081419D01*
X0156583Y0070419D01*
X0157286Y0069716D01*
X0157667Y0068797D01*
X0157667Y0038419D01*
X0157867Y0037937D01*
X0157867Y0036663D01*
X0157379Y0035487D01*
X0156479Y0034587D01*
X0156073Y0034419D01*
X0156379Y0034113D01*
X0156867Y0032937D01*
X0156867Y0032636D01*
X0159333Y0030169D01*
X0160036Y0029466D01*
X0160417Y0028547D01*
X0160417Y0013550D01*
X0162564Y0013550D01*
X0163529Y0013150D01*
X0163567Y0013112D01*
X0163605Y0013150D01*
X0164570Y0013550D01*
X0166864Y0013550D01*
X0166967Y0013507D01*
X0166967Y0014293D02*
X0160417Y0014293D01*
X0160417Y0015891D02*
X0165884Y0015891D01*
X0164880Y0017490D02*
X0160417Y0017490D01*
X0160417Y0019088D02*
X0164667Y0019088D01*
X0164667Y0020687D02*
X0160417Y0020687D01*
X0160417Y0022285D02*
X0164667Y0022285D01*
X0164667Y0023884D02*
X0160417Y0023884D01*
X0160417Y0025482D02*
X0164667Y0025482D01*
X0163706Y0027081D02*
X0160417Y0027081D01*
X0160362Y0028679D02*
X0163111Y0028679D01*
X0163111Y0030278D02*
X0159225Y0030278D01*
X0157626Y0031876D02*
X0163111Y0031876D01*
X0163311Y0033475D02*
X0156644Y0033475D01*
X0156965Y0035073D02*
X0163311Y0035073D01*
X0163111Y0036672D02*
X0157867Y0036672D01*
X0157728Y0038270D02*
X0163111Y0038270D01*
X0163111Y0039869D02*
X0157667Y0039869D01*
X0157667Y0041467D02*
X0163111Y0041467D01*
X0163111Y0043066D02*
X0157667Y0043066D01*
X0157667Y0044664D02*
X0163111Y0044664D01*
X0163111Y0046263D02*
X0157667Y0046263D01*
X0157667Y0047861D02*
X0163292Y0047861D01*
X0163311Y0049460D02*
X0157667Y0049460D01*
X0157667Y0051058D02*
X0163319Y0051058D01*
X0163111Y0052657D02*
X0157667Y0052657D01*
X0157667Y0054255D02*
X0163111Y0054255D01*
X0163111Y0055854D02*
X0157667Y0055854D01*
X0157667Y0057452D02*
X0163111Y0057452D01*
X0163111Y0059051D02*
X0157667Y0059051D01*
X0157667Y0060649D02*
X0163111Y0060649D01*
X0163111Y0062248D02*
X0157667Y0062248D01*
X0157667Y0063846D02*
X0163111Y0063846D01*
X0163111Y0065445D02*
X0157667Y0065445D01*
X0157667Y0067043D02*
X0163111Y0067043D01*
X0163111Y0068642D02*
X0157667Y0068642D01*
X0156762Y0070240D02*
X0163111Y0070240D01*
X0163111Y0071839D02*
X0155163Y0071839D01*
X0153565Y0073437D02*
X0163111Y0073437D01*
X0163111Y0075036D02*
X0151966Y0075036D01*
X0150368Y0076634D02*
X0163111Y0076634D01*
X0163111Y0078233D02*
X0148769Y0078233D01*
X0147171Y0079832D02*
X0163111Y0079832D01*
X0163111Y0081430D02*
X0145557Y0081430D01*
X0137397Y0072448D02*
X0141667Y0067823D01*
X0141667Y0048325D01*
X0140954Y0047613D01*
X0140467Y0046437D01*
X0140467Y0046136D01*
X0139915Y0045584D01*
X0139915Y0050572D01*
X0140367Y0051663D01*
X0140367Y0052937D01*
X0139879Y0054113D01*
X0138979Y0055013D01*
X0137803Y0055500D01*
X0137667Y0055500D01*
X0137667Y0071797D01*
X0137397Y0072448D01*
X0137649Y0071839D02*
X0137959Y0071839D01*
X0137667Y0070240D02*
X0139435Y0070240D01*
X0140910Y0068642D02*
X0137667Y0068642D01*
X0137667Y0067043D02*
X0141667Y0067043D01*
X0141667Y0065445D02*
X0137667Y0065445D01*
X0137667Y0063846D02*
X0141667Y0063846D01*
X0141667Y0062248D02*
X0137667Y0062248D01*
X0137667Y0060649D02*
X0141667Y0060649D01*
X0141667Y0059051D02*
X0137667Y0059051D01*
X0137667Y0057452D02*
X0141667Y0057452D01*
X0141667Y0055854D02*
X0137667Y0055854D01*
X0139737Y0054255D02*
X0141667Y0054255D01*
X0141667Y0052657D02*
X0140367Y0052657D01*
X0140116Y0051058D02*
X0141667Y0051058D01*
X0141667Y0049460D02*
X0139915Y0049460D01*
X0139915Y0047861D02*
X0141202Y0047861D01*
X0140467Y0046263D02*
X0139915Y0046263D01*
X0129167Y0046263D02*
X0099696Y0046263D01*
X0097637Y0046263D02*
X0096667Y0046263D01*
X0096667Y0044664D02*
X0129167Y0044664D01*
X0129167Y0043066D02*
X0096667Y0043066D01*
X0096667Y0041467D02*
X0129167Y0041467D01*
X0129167Y0039869D02*
X0096667Y0039869D01*
X0097232Y0038270D02*
X0129167Y0038270D01*
X0129167Y0036672D02*
X0098830Y0036672D01*
X0100429Y0035073D02*
X0126500Y0035073D01*
X0131167Y0026764D02*
X0131167Y0023325D01*
X0130954Y0023113D01*
X0130467Y0021937D01*
X0130467Y0020663D01*
X0130884Y0019656D01*
X0129541Y0019656D01*
X0129541Y0014056D01*
X0129541Y0014056D01*
X0129541Y0008456D01*
X0129541Y0014056D01*
X0129541Y0014056D01*
X0129541Y0019656D01*
X0128004Y0019656D01*
X0127947Y0019641D01*
X0127732Y0019856D01*
X0112421Y0019856D01*
X0112979Y0020087D01*
X0113879Y0020987D01*
X0114367Y0022163D01*
X0114367Y0022464D01*
X0117702Y0025800D01*
X0129664Y0025800D01*
X0130583Y0026181D01*
X0131167Y0026764D01*
X0131167Y0025482D02*
X0117384Y0025482D01*
X0115786Y0023884D02*
X0131167Y0023884D01*
X0130611Y0022285D02*
X0114367Y0022285D01*
X0113579Y0020687D02*
X0130467Y0020687D01*
X0129541Y0019088D02*
X0129541Y0019088D01*
X0129541Y0017490D02*
X0129541Y0017490D01*
X0129541Y0015891D02*
X0129541Y0015891D01*
X0129541Y0014293D02*
X0129541Y0014293D01*
X0129541Y0012694D02*
X0129541Y0012694D01*
X0129541Y0011096D02*
X0129541Y0011096D01*
X0129541Y0009497D02*
X0129541Y0009497D01*
X0147789Y0019856D02*
X0147789Y0026887D01*
X0151172Y0030270D01*
X0151854Y0029587D01*
X0153030Y0029100D01*
X0153331Y0029100D01*
X0155417Y0027014D01*
X0155417Y0019384D01*
X0155157Y0019533D01*
X0154700Y0019656D01*
X0153163Y0019656D01*
X0153163Y0014056D01*
X0153163Y0014056D01*
X0153163Y0008456D01*
X0153163Y0014056D01*
X0153163Y0014056D01*
X0153163Y0019656D01*
X0151626Y0019656D01*
X0151569Y0019641D01*
X0151354Y0019856D01*
X0147789Y0019856D01*
X0147789Y0020687D02*
X0155417Y0020687D01*
X0155417Y0022285D02*
X0147789Y0022285D01*
X0147789Y0023884D02*
X0155417Y0023884D01*
X0155417Y0025482D02*
X0147789Y0025482D01*
X0147983Y0027081D02*
X0155350Y0027081D01*
X0153752Y0028679D02*
X0149581Y0028679D01*
X0153163Y0019088D02*
X0153163Y0019088D01*
X0153163Y0017490D02*
X0153163Y0017490D01*
X0153163Y0015891D02*
X0153163Y0015891D01*
X0153163Y0014293D02*
X0153163Y0014293D01*
X0153163Y0012694D02*
X0153163Y0012694D01*
X0153163Y0011096D02*
X0153163Y0011096D01*
X0153163Y0009497D02*
X0153163Y0009497D01*
X0155356Y0007899D02*
X0070094Y0007899D01*
X0071167Y0009497D02*
X0087230Y0009497D01*
X0087193Y0009561D02*
X0087430Y0009151D01*
X0087765Y0008816D01*
X0088176Y0008579D01*
X0088634Y0008456D01*
X0090171Y0008456D01*
X0090171Y0014056D01*
X0090171Y0014056D01*
X0090171Y0019656D01*
X0088634Y0019656D01*
X0088176Y0019533D01*
X0087765Y0019296D01*
X0087430Y0018961D01*
X0087193Y0018551D01*
X0087071Y0018093D01*
X0087071Y0014056D01*
X0090170Y0014056D01*
X0090170Y0014056D01*
X0087071Y0014056D01*
X0087071Y0010019D01*
X0087193Y0009561D01*
X0087071Y0011096D02*
X0072422Y0011096D01*
X0074020Y0012694D02*
X0087071Y0012694D01*
X0087071Y0014293D02*
X0075619Y0014293D01*
X0077114Y0015891D02*
X0087071Y0015891D01*
X0087071Y0017490D02*
X0077467Y0017490D01*
X0077467Y0019088D02*
X0087557Y0019088D01*
X0090171Y0019088D02*
X0090171Y0019088D01*
X0090171Y0017490D02*
X0090171Y0017490D01*
X0090171Y0015891D02*
X0090171Y0015891D01*
X0090171Y0014293D02*
X0090171Y0014293D01*
X0090171Y0012694D02*
X0090171Y0012694D01*
X0090171Y0011096D02*
X0090171Y0011096D01*
X0090171Y0009497D02*
X0090171Y0009497D01*
X0074667Y0017300D02*
X0074667Y0029560D01*
X0074423Y0029804D01*
X0071867Y0026504D02*
X0069794Y0026504D01*
X0068623Y0027676D01*
X0068623Y0031932D01*
X0068623Y0035178D01*
X0056291Y0035178D01*
X0055373Y0035559D01*
X0052751Y0038181D01*
X0052047Y0038884D01*
X0051667Y0039803D01*
X0051667Y0040337D01*
X0050120Y0040337D01*
X0049900Y0040557D01*
X0049826Y0040537D01*
X0048990Y0040537D01*
X0048990Y0041468D01*
X0048989Y0041468D01*
X0048989Y0040537D01*
X0048167Y0040537D01*
X0048167Y0040336D01*
X0051109Y0037393D01*
X0051489Y0036474D01*
X0051489Y0032648D01*
X0052354Y0033513D01*
X0053530Y0034000D01*
X0054803Y0034000D01*
X0055979Y0033513D01*
X0056879Y0032613D01*
X0057133Y0032000D01*
X0057803Y0032000D01*
X0058979Y0031513D01*
X0059879Y0030613D01*
X0060133Y0030000D01*
X0061303Y0030000D01*
X0062479Y0029513D01*
X0063379Y0028613D01*
X0063867Y0027437D01*
X0063867Y0026163D01*
X0063493Y0025263D01*
X0065772Y0025263D01*
X0066944Y0024091D01*
X0066944Y0023300D01*
X0067641Y0023300D01*
X0067854Y0023513D01*
X0069030Y0024000D01*
X0070303Y0024000D01*
X0071479Y0023513D01*
X0071867Y0023125D01*
X0071867Y0026504D01*
X0071867Y0025482D02*
X0063584Y0025482D01*
X0063867Y0027081D02*
X0069217Y0027081D01*
X0068623Y0028679D02*
X0063313Y0028679D01*
X0060018Y0030278D02*
X0068623Y0030278D01*
X0068623Y0031876D02*
X0058102Y0031876D01*
X0056017Y0033475D02*
X0068623Y0033475D01*
X0068623Y0035073D02*
X0051489Y0035073D01*
X0051489Y0033475D02*
X0052316Y0033475D01*
X0051408Y0036672D02*
X0054259Y0036672D01*
X0052661Y0038270D02*
X0050232Y0038270D01*
X0051667Y0039869D02*
X0048633Y0039869D01*
X0048989Y0041467D02*
X0048990Y0041467D01*
X0043167Y0041467D02*
X0007667Y0041467D01*
X0007667Y0039869D02*
X0043167Y0039869D01*
X0043387Y0038270D02*
X0007667Y0038270D01*
X0007667Y0036672D02*
X0044759Y0036672D01*
X0046358Y0035073D02*
X0007667Y0035073D01*
X0007667Y0033475D02*
X0046489Y0033475D01*
X0046489Y0031876D02*
X0007667Y0031876D01*
X0007667Y0030278D02*
X0046489Y0030278D01*
X0046489Y0028679D02*
X0007667Y0028679D01*
X0007667Y0027081D02*
X0011051Y0027081D01*
X0009559Y0025482D02*
X0007667Y0025482D01*
X0007667Y0023884D02*
X0008896Y0023884D01*
X0008730Y0022285D02*
X0007667Y0022285D01*
X0007667Y0020687D02*
X0008909Y0020687D01*
X0009571Y0019088D02*
X0007667Y0019088D01*
X0007667Y0017490D02*
X0011081Y0017490D01*
X0020437Y0023884D02*
X0046389Y0023884D01*
X0046489Y0025482D02*
X0019775Y0025482D01*
X0018282Y0027081D02*
X0046489Y0027081D01*
X0056217Y0015891D02*
X0057117Y0015891D01*
X0057117Y0014293D02*
X0056217Y0014293D01*
X0060967Y0014293D02*
X0062167Y0014293D01*
X0066667Y0012300D02*
X0070667Y0013300D01*
X0074667Y0017300D01*
X0077467Y0020687D02*
X0108755Y0020687D01*
X0107967Y0022285D02*
X0077467Y0022285D01*
X0077467Y0023884D02*
X0108152Y0023884D01*
X0109323Y0025482D02*
X0077467Y0025482D01*
X0079628Y0027081D02*
X0081370Y0027081D01*
X0084964Y0027081D02*
X0111912Y0027081D01*
X0113510Y0028679D02*
X0086166Y0028679D01*
X0087180Y0030278D02*
X0098153Y0030278D01*
X0096555Y0031876D02*
X0088778Y0031876D01*
X0090377Y0033475D02*
X0094956Y0033475D01*
X0093358Y0035073D02*
X0092965Y0035073D01*
X0101534Y0047861D02*
X0129167Y0047861D01*
X0129167Y0049460D02*
X0101867Y0049460D01*
X0101402Y0051058D02*
X0129167Y0051058D01*
X0129167Y0052657D02*
X0101167Y0052657D01*
X0101167Y0054255D02*
X0128843Y0054255D01*
X0128467Y0055854D02*
X0101167Y0055854D01*
X0101167Y0057452D02*
X0128887Y0057452D01*
X0132667Y0059051D02*
X0101167Y0059051D01*
X0101167Y0060649D02*
X0132667Y0060649D01*
X0132667Y0062248D02*
X0101167Y0062248D01*
X0101167Y0063846D02*
X0132667Y0063846D01*
X0132667Y0065445D02*
X0101167Y0065445D01*
X0101167Y0067043D02*
X0132667Y0067043D01*
X0132667Y0068642D02*
X0101167Y0068642D01*
X0102143Y0070240D02*
X0132667Y0070240D01*
X0131092Y0071839D02*
X0103741Y0071839D01*
X0105340Y0073437D02*
X0129494Y0073437D01*
X0127895Y0075036D02*
X0106938Y0075036D01*
X0108537Y0076634D02*
X0125307Y0076634D01*
X0124467Y0078233D02*
X0110135Y0078233D01*
X0111734Y0079832D02*
X0116971Y0079832D01*
X0119362Y0079832D02*
X0124630Y0079832D01*
X0125771Y0081430D02*
X0121063Y0081430D01*
X0121367Y0083029D02*
X0129544Y0083029D01*
X0129562Y0081430D02*
X0130771Y0081430D01*
X0127945Y0084627D02*
X0120865Y0084627D01*
X0126347Y0086226D02*
X0108986Y0086226D01*
X0109458Y0084627D02*
X0107388Y0084627D01*
X0107860Y0083029D02*
X0105789Y0083029D01*
X0106261Y0081430D02*
X0104191Y0081430D01*
X0104663Y0079832D02*
X0102592Y0079832D01*
X0103064Y0078233D02*
X0101688Y0078233D01*
X0101466Y0076634D02*
X0100527Y0076634D01*
X0099867Y0075036D02*
X0092558Y0075036D01*
X0093902Y0076634D02*
X0096807Y0076634D01*
X0095645Y0078233D02*
X0095302Y0078233D01*
X0098269Y0073437D02*
X0090379Y0073437D01*
X0094762Y0070240D02*
X0096167Y0070240D01*
X0096670Y0071839D02*
X0080223Y0071839D01*
X0068623Y0062100D02*
X0068623Y0051380D01*
X0068083Y0051919D01*
X0067342Y0052660D01*
X0067444Y0052762D01*
X0067681Y0053172D01*
X0067803Y0053630D01*
X0067803Y0058067D01*
X0060553Y0058067D01*
X0060553Y0054300D01*
X0058953Y0054300D01*
X0058953Y0058067D01*
X0052667Y0058067D01*
X0052667Y0059667D01*
X0058953Y0059667D01*
X0058953Y0058067D01*
X0060553Y0058067D01*
X0060553Y0059667D01*
X0058953Y0059667D01*
X0058953Y0065667D01*
X0053266Y0065667D01*
X0052808Y0065544D01*
X0052667Y0065462D01*
X0052667Y0065764D01*
X0053576Y0066674D01*
X0065272Y0066674D01*
X0064967Y0065937D01*
X0064967Y0065667D01*
X0060553Y0065667D01*
X0060553Y0059667D01*
X0067803Y0059667D01*
X0067803Y0062100D01*
X0068623Y0062100D01*
X0068623Y0060649D02*
X0067803Y0060649D01*
X0068623Y0059051D02*
X0060553Y0059051D01*
X0060553Y0060649D02*
X0058953Y0060649D01*
X0058953Y0059051D02*
X0052667Y0059051D01*
X0047667Y0059051D02*
X0025454Y0059051D01*
X0025454Y0060649D02*
X0047667Y0060649D01*
X0047667Y0062248D02*
X0025098Y0062248D01*
X0025454Y0061892D02*
X0024282Y0063064D01*
X0009240Y0063064D01*
X0008068Y0061892D01*
X0008068Y0053936D01*
X0009240Y0052765D01*
X0024282Y0052765D01*
X0025454Y0053936D01*
X0025454Y0061892D01*
X0027260Y0063846D02*
X0007667Y0063846D01*
X0007667Y0062248D02*
X0008424Y0062248D01*
X0008068Y0060649D02*
X0007667Y0060649D01*
X0007667Y0059051D02*
X0008068Y0059051D01*
X0008068Y0057452D02*
X0007667Y0057452D01*
X0007667Y0055854D02*
X0008068Y0055854D01*
X0008068Y0054255D02*
X0007667Y0054255D01*
X0007667Y0052657D02*
X0047727Y0052657D01*
X0047667Y0054255D02*
X0025454Y0054255D01*
X0025454Y0055854D02*
X0047667Y0055854D01*
X0047667Y0057452D02*
X0025454Y0057452D01*
X0037049Y0063846D02*
X0037418Y0063846D01*
X0037418Y0065445D02*
X0037049Y0065445D01*
X0037049Y0067043D02*
X0037418Y0067043D01*
X0037049Y0067547D02*
X0026378Y0067547D01*
X0026378Y0069568D01*
X0026501Y0070026D01*
X0026738Y0070437D01*
X0027073Y0070772D01*
X0027484Y0071009D01*
X0027941Y0071131D01*
X0037049Y0071131D01*
X0037049Y0067547D01*
X0037049Y0068642D02*
X0037418Y0068642D01*
X0037418Y0070240D02*
X0037049Y0070240D01*
X0026780Y0071839D02*
X0007667Y0071839D01*
X0007667Y0073437D02*
X0026178Y0073437D01*
X0026178Y0075036D02*
X0007667Y0075036D01*
X0007667Y0076634D02*
X0026178Y0076634D01*
X0026378Y0078233D02*
X0007667Y0078233D01*
X0007667Y0079832D02*
X0008945Y0079832D01*
X0008068Y0081430D02*
X0007667Y0081430D01*
X0007667Y0083029D02*
X0008068Y0083029D01*
X0008068Y0084627D02*
X0007667Y0084627D01*
X0007667Y0086226D02*
X0008068Y0086226D01*
X0008068Y0087824D02*
X0007667Y0087824D01*
X0007667Y0089423D02*
X0008827Y0089423D01*
X0007667Y0091021D02*
X0010867Y0091021D01*
X0010867Y0092620D02*
X0007667Y0092620D01*
X0007667Y0094218D02*
X0010867Y0094218D01*
X0010867Y0093300D02*
X0013917Y0093300D01*
X0010867Y0093300D01*
X0013917Y0093300D02*
X0013917Y0093300D01*
X0013917Y0094218D02*
X0013917Y0094218D01*
X0013917Y0095817D02*
X0013917Y0095817D01*
X0013917Y0097415D02*
X0013917Y0097415D01*
X0015969Y0097415D02*
X0019917Y0097415D01*
X0019917Y0099014D02*
X0007667Y0099014D01*
X0007667Y0100612D02*
X0019917Y0100612D01*
X0019917Y0102211D02*
X0007667Y0102211D01*
X0007667Y0103809D02*
X0019917Y0103809D01*
X0019167Y0105408D02*
X0016925Y0105408D01*
X0016967Y0105563D02*
X0016967Y0108300D01*
X0016967Y0111037D01*
X0016844Y0111495D01*
X0016607Y0111905D01*
X0016272Y0112240D01*
X0015861Y0112477D01*
X0015404Y0112600D01*
X0013917Y0112600D01*
X0013917Y0108300D01*
X0016967Y0108300D01*
X0013917Y0108300D01*
X0013917Y0108300D01*
X0013917Y0108300D01*
X0013917Y0104000D01*
X0015404Y0104000D01*
X0015861Y0104123D01*
X0016272Y0104360D01*
X0016607Y0104695D01*
X0016844Y0105105D01*
X0016967Y0105563D01*
X0016967Y0107006D02*
X0019167Y0107006D01*
X0019167Y0108605D02*
X0016967Y0108605D01*
X0016967Y0110203D02*
X0019167Y0110203D01*
X0019340Y0111802D02*
X0016667Y0111802D01*
X0013917Y0111802D02*
X0013917Y0111802D01*
X0013917Y0112600D02*
X0012430Y0112600D01*
X0011972Y0112477D01*
X0011561Y0112240D01*
X0011226Y0111905D01*
X0010989Y0111495D01*
X0010867Y0111037D01*
X0010867Y0108300D01*
X0010867Y0105563D01*
X0010989Y0105105D01*
X0011226Y0104695D01*
X0011561Y0104360D01*
X0011972Y0104123D01*
X0012430Y0104000D01*
X0013917Y0104000D01*
X0013917Y0108300D01*
X0013917Y0108300D01*
X0013917Y0112600D01*
X0013917Y0110203D02*
X0013917Y0110203D01*
X0013917Y0108605D02*
X0013917Y0108605D01*
X0013917Y0108300D02*
X0013917Y0108300D01*
X0010867Y0108300D01*
X0013917Y0108300D01*
X0013917Y0107006D02*
X0013917Y0107006D01*
X0013917Y0105408D02*
X0013917Y0105408D01*
X0010908Y0105408D02*
X0007667Y0105408D01*
X0007667Y0107006D02*
X0010867Y0107006D01*
X0010867Y0108605D02*
X0007667Y0108605D01*
X0007667Y0110203D02*
X0010867Y0110203D01*
X0011167Y0111802D02*
X0007667Y0111802D01*
X0007667Y0113400D02*
X0027408Y0113400D01*
X0026917Y0111802D02*
X0025493Y0111802D01*
X0025667Y0110203D02*
X0026917Y0110203D01*
X0027003Y0108605D02*
X0025667Y0108605D01*
X0025667Y0107006D02*
X0026721Y0107006D01*
X0036842Y0104875D02*
X0040317Y0104875D01*
X0040317Y0105871D01*
X0040465Y0105614D01*
X0040779Y0105300D01*
X0040465Y0104986D01*
X0040314Y0104725D01*
X0036842Y0104725D01*
X0036842Y0104875D01*
X0040317Y0105408D02*
X0040671Y0105408D01*
X0043493Y0105408D02*
X0043643Y0105408D01*
X0043643Y0104750D02*
X0043643Y0108225D01*
X0043493Y0108225D01*
X0043493Y0102375D01*
X0043493Y0102225D01*
X0040018Y0102225D01*
X0040018Y0101621D01*
X0039697Y0101941D01*
X0039870Y0102114D01*
X0040020Y0102375D01*
X0043493Y0102375D01*
X0043643Y0102375D01*
X0043643Y0104750D01*
X0043643Y0103809D02*
X0043493Y0103809D01*
X0043493Y0102225D02*
X0043643Y0102225D01*
X0043643Y0098750D01*
X0045175Y0098750D01*
X0045744Y0098902D01*
X0046255Y0099197D01*
X0046368Y0099311D01*
X0046368Y0096867D01*
X0046237Y0097094D01*
X0045902Y0097429D01*
X0045491Y0097666D01*
X0045034Y0097789D01*
X0042828Y0097789D01*
X0040623Y0097789D01*
X0040517Y0097761D01*
X0040517Y0099562D01*
X0040882Y0099197D01*
X0041392Y0098902D01*
X0041961Y0098750D01*
X0043493Y0098750D01*
X0043493Y0102225D01*
X0043493Y0102211D02*
X0043643Y0102211D01*
X0043643Y0100612D02*
X0043493Y0100612D01*
X0043493Y0099014D02*
X0043643Y0099014D01*
X0042828Y0097789D02*
X0042828Y0094414D01*
X0042828Y0097789D01*
X0042828Y0097415D02*
X0042828Y0097415D01*
X0042828Y0095817D02*
X0042828Y0095817D01*
X0042828Y0094414D02*
X0042828Y0094414D01*
X0042828Y0094218D02*
X0042828Y0094218D01*
X0042828Y0092620D02*
X0042828Y0092620D01*
X0040271Y0091021D02*
X0047723Y0091021D01*
X0046734Y0092620D02*
X0046597Y0092620D01*
X0049213Y0089423D02*
X0038978Y0089423D01*
X0036842Y0089423D02*
X0036692Y0089423D01*
X0036692Y0091021D02*
X0036842Y0091021D01*
X0036842Y0092620D02*
X0036692Y0092620D01*
X0034556Y0089423D02*
X0033867Y0089423D01*
X0033726Y0087824D02*
X0050905Y0087824D01*
X0051753Y0086226D02*
X0032618Y0086226D01*
X0028716Y0086226D02*
X0025454Y0086226D01*
X0025454Y0087824D02*
X0027607Y0087824D01*
X0027467Y0089423D02*
X0025118Y0089423D01*
X0025667Y0091021D02*
X0026917Y0091021D01*
X0026917Y0092620D02*
X0025667Y0092620D01*
X0025667Y0094218D02*
X0026917Y0094218D01*
X0027791Y0095817D02*
X0025667Y0095817D01*
X0024917Y0097415D02*
X0026917Y0097415D01*
X0018587Y0095817D02*
X0016967Y0095817D01*
X0011864Y0097415D02*
X0007667Y0097415D01*
X0007667Y0095817D02*
X0010867Y0095817D01*
X0025454Y0084627D02*
X0051753Y0084627D01*
X0051499Y0083029D02*
X0025454Y0083029D01*
X0025454Y0081430D02*
X0049994Y0081430D01*
X0048489Y0079832D02*
X0024578Y0079832D01*
X0026625Y0070240D02*
X0007667Y0070240D01*
X0007667Y0068642D02*
X0026378Y0068642D01*
X0026378Y0067043D02*
X0007667Y0067043D01*
X0007667Y0065445D02*
X0026378Y0065445D01*
X0047207Y0063846D02*
X0047667Y0063846D01*
X0048089Y0068642D02*
X0048473Y0068642D01*
X0047842Y0070240D02*
X0050072Y0070240D01*
X0058953Y0065445D02*
X0060553Y0065445D01*
X0060553Y0063846D02*
X0058953Y0063846D01*
X0058953Y0062248D02*
X0060553Y0062248D01*
X0060553Y0057452D02*
X0058953Y0057452D01*
X0058953Y0055854D02*
X0060553Y0055854D01*
X0067803Y0055854D02*
X0068623Y0055854D01*
X0068623Y0057452D02*
X0067803Y0057452D01*
X0067803Y0054255D02*
X0068623Y0054255D01*
X0068623Y0052657D02*
X0067345Y0052657D01*
X0046399Y0051058D02*
X0007667Y0051058D01*
X0007667Y0049460D02*
X0045056Y0049460D01*
X0043692Y0047861D02*
X0007667Y0047861D01*
X0007667Y0046263D02*
X0043160Y0046263D01*
X0043167Y0044664D02*
X0007667Y0044664D01*
X0007667Y0043066D02*
X0043167Y0043066D01*
X0066944Y0023884D02*
X0068749Y0023884D01*
X0070584Y0023884D02*
X0071867Y0023884D01*
X0057117Y0009497D02*
X0056217Y0009497D01*
X0172667Y0020687D02*
X0174436Y0020687D01*
X0174436Y0022285D02*
X0172667Y0022285D01*
X0172667Y0023884D02*
X0174635Y0023884D01*
X0176060Y0025482D02*
X0172667Y0025482D01*
X0174116Y0027081D02*
X0175196Y0027081D01*
X0174917Y0028679D02*
X0174711Y0028679D01*
X0174711Y0030278D02*
X0175096Y0030278D01*
X0174711Y0031876D02*
X0175818Y0031876D01*
X0174511Y0033475D02*
X0177733Y0033475D01*
X0176469Y0035073D02*
X0174511Y0035073D01*
X0174711Y0036672D02*
X0175366Y0036672D01*
X0174917Y0038270D02*
X0174711Y0038270D01*
X0174711Y0039869D02*
X0174927Y0039869D01*
X0174711Y0041467D02*
X0175589Y0041467D01*
X0174711Y0043066D02*
X0177008Y0043066D01*
X0176878Y0044664D02*
X0174711Y0044664D01*
X0174711Y0046263D02*
X0175535Y0046263D01*
X0174917Y0047861D02*
X0174530Y0047861D01*
X0174511Y0049460D02*
X0174917Y0049460D01*
X0174502Y0051058D02*
X0175420Y0051058D01*
X0174711Y0052657D02*
X0176599Y0052657D01*
X0177420Y0054255D02*
X0174711Y0054255D01*
X0174711Y0055854D02*
X0175704Y0055854D01*
X0175042Y0057452D02*
X0174711Y0057452D01*
X0174711Y0059051D02*
X0174917Y0059051D01*
X0174711Y0060649D02*
X0175250Y0060649D01*
X0174711Y0062248D02*
X0176190Y0062248D01*
X0174711Y0063846D02*
X0178407Y0063846D01*
X0176097Y0065445D02*
X0174711Y0065445D01*
X0174711Y0067043D02*
X0175212Y0067043D01*
X0174917Y0068642D02*
X0174711Y0068642D01*
X0174711Y0070240D02*
X0175081Y0070240D01*
X0174711Y0071839D02*
X0175781Y0071839D01*
X0174711Y0073437D02*
X0177644Y0073437D01*
X0176506Y0075036D02*
X0174711Y0075036D01*
X0174711Y0076634D02*
X0175381Y0076634D01*
X0174917Y0078233D02*
X0174711Y0078233D01*
X0174711Y0079832D02*
X0174917Y0079832D01*
X0174711Y0081430D02*
X0175573Y0081430D01*
X0174711Y0083029D02*
X0176971Y0083029D01*
X0176915Y0084627D02*
X0174711Y0084627D01*
X0174711Y0086226D02*
X0175550Y0086226D01*
X0174917Y0087824D02*
X0174711Y0087824D01*
X0174711Y0089423D02*
X0174917Y0089423D01*
X0174677Y0091021D02*
X0175404Y0091021D01*
X0174511Y0092620D02*
X0176562Y0092620D01*
X0178036Y0094218D02*
X0174511Y0094218D01*
X0173244Y0095817D02*
X0176092Y0095817D01*
X0175307Y0097415D02*
X0166439Y0097415D01*
X0168037Y0099014D02*
X0175117Y0099014D01*
X0175446Y0100612D02*
X0169636Y0100612D01*
X0171234Y0102211D02*
X0176436Y0102211D01*
X0178497Y0103809D02*
X0172833Y0103809D01*
X0166315Y0108605D02*
X0156263Y0108605D01*
X0156263Y0108544D02*
X0156263Y0112581D01*
X0156140Y0113039D01*
X0155903Y0113449D01*
X0155568Y0113784D01*
X0155157Y0114021D01*
X0154700Y0114144D01*
X0153163Y0114144D01*
X0153163Y0108544D01*
X0153163Y0108544D01*
X0156263Y0108544D01*
X0156263Y0104507D01*
X0156140Y0104049D01*
X0155903Y0103639D01*
X0155568Y0103304D01*
X0155157Y0103067D01*
X0154700Y0102944D01*
X0153163Y0102944D01*
X0153163Y0108544D01*
X0156263Y0108544D01*
X0156263Y0107006D02*
X0164716Y0107006D01*
X0163118Y0105408D02*
X0156263Y0105408D01*
X0156001Y0103809D02*
X0161519Y0103809D01*
X0153163Y0103809D02*
X0153163Y0103809D01*
X0153163Y0102944D02*
X0153163Y0108544D01*
X0153163Y0108544D01*
X0153163Y0108544D01*
X0153163Y0114144D01*
X0151626Y0114144D01*
X0151569Y0114129D01*
X0151354Y0114344D01*
X0147097Y0114344D01*
X0146882Y0114129D01*
X0146826Y0114144D01*
X0145289Y0114144D01*
X0145289Y0108544D01*
X0145289Y0102944D01*
X0146826Y0102944D01*
X0146882Y0102959D01*
X0147097Y0102744D01*
X0151354Y0102744D01*
X0151569Y0102959D01*
X0151626Y0102944D01*
X0153163Y0102944D01*
X0153163Y0105408D02*
X0153163Y0105408D01*
X0153163Y0107006D02*
X0153163Y0107006D01*
X0153163Y0108605D02*
X0153163Y0108605D01*
X0153163Y0110203D02*
X0153163Y0110203D01*
X0153163Y0111802D02*
X0153163Y0111802D01*
X0153163Y0113400D02*
X0153163Y0113400D01*
X0155931Y0113400D02*
X0177554Y0113400D01*
X0182780Y0113400D02*
X0195304Y0113400D01*
X0195304Y0111802D02*
X0184590Y0111802D01*
X0185268Y0110203D02*
X0195648Y0110203D01*
X0195304Y0108605D02*
X0185417Y0108605D01*
X0185106Y0107006D02*
X0195304Y0107006D01*
X0195304Y0105408D02*
X0184199Y0105408D01*
X0181837Y0103809D02*
X0195742Y0103809D01*
X0203591Y0103809D02*
X0208917Y0103809D01*
X0208917Y0105408D02*
X0204029Y0105408D01*
X0204029Y0107006D02*
X0208308Y0107006D01*
X0206709Y0108605D02*
X0206697Y0108605D01*
X0208419Y0113400D02*
X0208917Y0113400D01*
X0210007Y0114999D02*
X0206821Y0114999D01*
X0215327Y0114999D02*
X0229344Y0114999D01*
X0229344Y0116597D02*
X0130617Y0116597D01*
X0132215Y0118196D02*
X0229344Y0118196D01*
X0229344Y0119794D02*
X0133814Y0119794D01*
X0135412Y0121393D02*
X0230128Y0121393D01*
X0234725Y0121393D02*
X0237608Y0121393D01*
X0237967Y0122991D02*
X0197697Y0122991D01*
X0197717Y0123063D02*
X0197717Y0128500D01*
X0193467Y0128500D01*
X0193467Y0130100D01*
X0197717Y0130100D01*
X0197717Y0135537D01*
X0197594Y0135995D01*
X0197357Y0136405D01*
X0197022Y0136740D01*
X0196611Y0136977D01*
X0196154Y0137100D01*
X0193467Y0137100D01*
X0193467Y0130100D01*
X0191867Y0130100D01*
X0191867Y0137100D01*
X0189180Y0137100D01*
X0188722Y0136977D01*
X0188311Y0136740D01*
X0187976Y0136405D01*
X0187739Y0135995D01*
X0187617Y0135537D01*
X0187617Y0130100D01*
X0191867Y0130100D01*
X0191867Y0128500D01*
X0193467Y0128500D01*
X0193467Y0121500D01*
X0196154Y0121500D01*
X0196611Y0121623D01*
X0197022Y0121860D01*
X0197357Y0122195D01*
X0197594Y0122605D01*
X0197717Y0123063D01*
X0197717Y0124590D02*
X0237967Y0124590D01*
X0237967Y0126188D02*
X0197717Y0126188D01*
X0197717Y0127787D02*
X0237967Y0127787D01*
X0237967Y0129385D02*
X0193467Y0129385D01*
X0193467Y0127787D02*
X0191867Y0127787D01*
X0191867Y0128500D02*
X0191867Y0121500D01*
X0189180Y0121500D01*
X0188722Y0121623D01*
X0188311Y0121860D01*
X0187976Y0122195D01*
X0187739Y0122605D01*
X0187617Y0123063D01*
X0187617Y0128500D01*
X0191867Y0128500D01*
X0191867Y0129385D02*
X0166717Y0129385D01*
X0166717Y0129500D02*
X0162467Y0129500D01*
X0162467Y0131100D01*
X0166717Y0131100D01*
X0166717Y0136537D01*
X0166594Y0136995D01*
X0166357Y0137405D01*
X0166022Y0137740D01*
X0165611Y0137977D01*
X0165154Y0138100D01*
X0162467Y0138100D01*
X0162467Y0131100D01*
X0160867Y0131100D01*
X0160867Y0129500D01*
X0162467Y0129500D01*
X0162467Y0122500D01*
X0165154Y0122500D01*
X0165611Y0122623D01*
X0166022Y0122860D01*
X0166357Y0123195D01*
X0166594Y0123605D01*
X0166717Y0124063D01*
X0166717Y0129500D01*
X0166717Y0127787D02*
X0187617Y0127787D01*
X0187617Y0126188D02*
X0166717Y0126188D01*
X0166717Y0124590D02*
X0187617Y0124590D01*
X0187636Y0122991D02*
X0166154Y0122991D01*
X0162467Y0122991D02*
X0160867Y0122991D01*
X0160867Y0122500D02*
X0160867Y0129500D01*
X0156617Y0129500D01*
X0156617Y0124063D01*
X0156739Y0123605D01*
X0156976Y0123195D01*
X0157311Y0122860D01*
X0157722Y0122623D01*
X0158180Y0122500D01*
X0160867Y0122500D01*
X0160867Y0124590D02*
X0162467Y0124590D01*
X0162467Y0126188D02*
X0160867Y0126188D01*
X0160867Y0127787D02*
X0162467Y0127787D01*
X0162467Y0129385D02*
X0160867Y0129385D01*
X0160867Y0130984D02*
X0151603Y0130984D01*
X0150005Y0129385D02*
X0156617Y0129385D01*
X0156617Y0127787D02*
X0148406Y0127787D01*
X0146808Y0126188D02*
X0156617Y0126188D01*
X0156617Y0124590D02*
X0145209Y0124590D01*
X0143217Y0122991D02*
X0157180Y0122991D01*
X0162467Y0130984D02*
X0187617Y0130984D01*
X0187617Y0132582D02*
X0166717Y0132582D01*
X0166717Y0134181D02*
X0187617Y0134181D01*
X0187682Y0135779D02*
X0166717Y0135779D01*
X0166373Y0137378D02*
X0201185Y0137378D01*
X0201083Y0138976D02*
X0159596Y0138976D01*
X0160867Y0137378D02*
X0162467Y0137378D01*
X0162467Y0135779D02*
X0160867Y0135779D01*
X0160867Y0134181D02*
X0162467Y0134181D01*
X0162467Y0132582D02*
X0160867Y0132582D01*
X0156617Y0132582D02*
X0153202Y0132582D01*
X0154800Y0134181D02*
X0156617Y0134181D01*
X0156617Y0135779D02*
X0156399Y0135779D01*
X0153090Y0138976D02*
X0143017Y0138976D01*
X0143017Y0139050D02*
X0137217Y0139050D01*
X0137217Y0139550D01*
X0143017Y0139550D01*
X0143017Y0141637D01*
X0142894Y0142095D01*
X0142657Y0142505D01*
X0142654Y0142509D01*
X0143217Y0143072D01*
X0143217Y0148928D01*
X0142654Y0149491D01*
X0142657Y0149495D01*
X0142894Y0149905D01*
X0143017Y0150363D01*
X0143017Y0152450D01*
X0137217Y0152450D01*
X0137217Y0152950D01*
X0143017Y0152950D01*
X0143017Y0155037D01*
X0142894Y0155495D01*
X0142657Y0155905D01*
X0142322Y0156240D01*
X0141911Y0156477D01*
X0141454Y0156600D01*
X0137217Y0156600D01*
X0137217Y0152950D01*
X0136717Y0152950D01*
X0136717Y0156600D01*
X0136419Y0156600D01*
X0137419Y0157600D01*
X0156417Y0157600D01*
X0156417Y0144472D01*
X0157501Y0143387D01*
X0149403Y0135289D01*
X0149079Y0135613D01*
X0147903Y0136100D01*
X0146630Y0136100D01*
X0145454Y0135613D01*
X0145041Y0135200D01*
X0143217Y0135200D01*
X0143217Y0135528D01*
X0142654Y0136091D01*
X0142657Y0136095D01*
X0142894Y0136505D01*
X0143017Y0136963D01*
X0143017Y0139050D01*
X0143017Y0140575D02*
X0154689Y0140575D01*
X0156287Y0142173D02*
X0142849Y0142173D01*
X0143217Y0143772D02*
X0157116Y0143772D01*
X0156417Y0145370D02*
X0143217Y0145370D01*
X0143217Y0146969D02*
X0156417Y0146969D01*
X0156417Y0148568D02*
X0143217Y0148568D01*
X0142964Y0150166D02*
X0156417Y0150166D01*
X0156417Y0151765D02*
X0143017Y0151765D01*
X0143017Y0153363D02*
X0156417Y0153363D01*
X0156417Y0154962D02*
X0143017Y0154962D01*
X0141603Y0156560D02*
X0156417Y0156560D01*
X0166917Y0156560D02*
X0182754Y0156560D01*
X0184352Y0154962D02*
X0166917Y0154962D01*
X0166917Y0153363D02*
X0185951Y0153363D01*
X0187417Y0151765D02*
X0166917Y0151765D01*
X0166917Y0150166D02*
X0187417Y0150166D01*
X0187417Y0148568D02*
X0166917Y0148568D01*
X0166917Y0146969D02*
X0187417Y0146969D01*
X0187417Y0145370D02*
X0166917Y0145370D01*
X0166217Y0143772D02*
X0187417Y0143772D01*
X0197917Y0143772D02*
X0206486Y0143772D01*
X0206716Y0145370D02*
X0197917Y0145370D01*
X0197917Y0146969D02*
X0206716Y0146969D01*
X0206716Y0148568D02*
X0197917Y0148568D01*
X0197917Y0150166D02*
X0206716Y0150166D01*
X0204887Y0142173D02*
X0162793Y0142173D01*
X0161194Y0140575D02*
X0202016Y0140575D01*
X0207348Y0137378D02*
X0244492Y0137378D01*
X0246090Y0138976D02*
X0208196Y0138976D01*
X0206272Y0135779D02*
X0242893Y0135779D01*
X0241295Y0134181D02*
X0197717Y0134181D01*
X0197717Y0132582D02*
X0239696Y0132582D01*
X0238098Y0130984D02*
X0197717Y0130984D01*
X0193467Y0130984D02*
X0191867Y0130984D01*
X0191867Y0132582D02*
X0193467Y0132582D01*
X0193467Y0134181D02*
X0191867Y0134181D01*
X0191867Y0135779D02*
X0193467Y0135779D01*
X0197652Y0135779D02*
X0202262Y0135779D01*
X0193467Y0126188D02*
X0191867Y0126188D01*
X0191867Y0124590D02*
X0193467Y0124590D01*
X0193467Y0122991D02*
X0191867Y0122991D01*
X0195304Y0114999D02*
X0129018Y0114999D01*
X0127308Y0119794D02*
X0126659Y0119794D01*
X0126659Y0121393D02*
X0128907Y0121393D01*
X0130505Y0122991D02*
X0126659Y0122991D01*
X0126659Y0124590D02*
X0130717Y0124590D01*
X0130717Y0126188D02*
X0126659Y0126188D01*
X0126659Y0127787D02*
X0130717Y0127787D01*
X0131003Y0129385D02*
X0126659Y0129385D01*
X0126659Y0130984D02*
X0130717Y0130984D01*
X0130717Y0132582D02*
X0126659Y0132582D01*
X0126659Y0134181D02*
X0130717Y0134181D01*
X0130968Y0135779D02*
X0126659Y0135779D01*
X0126659Y0137378D02*
X0130917Y0137378D01*
X0130917Y0138976D02*
X0126659Y0138976D01*
X0126659Y0140575D02*
X0130917Y0140575D01*
X0131085Y0142173D02*
X0126659Y0142173D01*
X0126659Y0143772D02*
X0130717Y0143772D01*
X0130717Y0145370D02*
X0126659Y0145370D01*
X0126659Y0146969D02*
X0130717Y0146969D01*
X0130146Y0148568D02*
X0126659Y0148568D01*
X0126659Y0150166D02*
X0129367Y0150166D01*
X0129367Y0151765D02*
X0126659Y0151765D01*
X0126659Y0153363D02*
X0129367Y0153363D01*
X0129367Y0154962D02*
X0126659Y0154962D01*
X0126659Y0156560D02*
X0129874Y0156560D01*
X0131473Y0158159D02*
X0126659Y0158159D01*
X0126659Y0159757D02*
X0133071Y0159757D01*
X0134670Y0161356D02*
X0126659Y0161356D01*
X0136717Y0156560D02*
X0137217Y0156560D01*
X0137217Y0154962D02*
X0136717Y0154962D01*
X0136717Y0153363D02*
X0137217Y0153363D01*
X0143017Y0137378D02*
X0151492Y0137378D01*
X0149893Y0135779D02*
X0148677Y0135779D01*
X0145856Y0135779D02*
X0142966Y0135779D01*
X0143480Y0114344D02*
X0107727Y0114344D01*
X0107512Y0114129D01*
X0107456Y0114144D01*
X0105919Y0114144D01*
X0105919Y0108544D01*
X0105919Y0102944D01*
X0107456Y0102944D01*
X0107512Y0102959D01*
X0107727Y0102744D01*
X0143480Y0102744D01*
X0143695Y0102959D01*
X0143752Y0102944D01*
X0145289Y0102944D01*
X0145289Y0108544D01*
X0145289Y0108544D01*
X0145289Y0108544D01*
X0145289Y0114144D01*
X0143752Y0114144D01*
X0143695Y0114129D01*
X0143480Y0114344D01*
X0145289Y0113400D02*
X0145289Y0113400D01*
X0145289Y0111802D02*
X0145289Y0111802D01*
X0145289Y0110203D02*
X0145289Y0110203D01*
X0145289Y0108605D02*
X0145289Y0108605D01*
X0145289Y0107006D02*
X0145289Y0107006D01*
X0145289Y0105408D02*
X0145289Y0105408D01*
X0145289Y0103809D02*
X0145289Y0103809D01*
X0156263Y0110203D02*
X0167913Y0110203D01*
X0169512Y0111802D02*
X0156263Y0111802D01*
X0168911Y0095817D02*
X0168911Y0095817D01*
X0168911Y0094218D02*
X0168911Y0094218D01*
X0168911Y0092796D02*
X0168911Y0092796D01*
X0163311Y0092796D01*
X0163311Y0091259D01*
X0134102Y0091259D01*
X0131061Y0094300D01*
X0160871Y0094300D01*
X0162462Y0094300D01*
X0163407Y0094691D01*
X0163311Y0094333D01*
X0163311Y0092796D01*
X0168911Y0092796D01*
X0163311Y0092620D02*
X0132741Y0092620D01*
X0131143Y0094218D02*
X0163311Y0094218D01*
X0163311Y0091259D02*
X0163311Y0091259D01*
X0182298Y0094218D02*
X0196117Y0094218D01*
X0196117Y0092620D02*
X0183772Y0092620D01*
X0186337Y0091021D02*
X0196656Y0091021D01*
X0195917Y0089423D02*
X0188080Y0089423D01*
X0189678Y0087824D02*
X0195917Y0087824D01*
X0195917Y0086226D02*
X0190667Y0086226D01*
X0190667Y0084627D02*
X0196767Y0084627D01*
X0197167Y0083029D02*
X0190667Y0083029D01*
X0190667Y0081430D02*
X0197167Y0081430D01*
X0197167Y0079832D02*
X0190667Y0079832D01*
X0190667Y0078233D02*
X0197167Y0078233D01*
X0197167Y0076634D02*
X0190667Y0076634D01*
X0190667Y0075036D02*
X0197167Y0075036D01*
X0196151Y0073437D02*
X0190667Y0073437D01*
X0190667Y0071839D02*
X0194767Y0071839D01*
X0194767Y0070240D02*
X0190667Y0070240D01*
X0190667Y0068642D02*
X0194767Y0068642D01*
X0194767Y0067043D02*
X0190667Y0067043D01*
X0190667Y0065445D02*
X0194767Y0065445D01*
X0194767Y0063846D02*
X0190667Y0063846D01*
X0190667Y0062248D02*
X0194767Y0062248D01*
X0194767Y0060649D02*
X0190667Y0060649D01*
X0190667Y0059051D02*
X0194767Y0059051D01*
X0194767Y0057452D02*
X0190667Y0057452D01*
X0190667Y0055854D02*
X0194767Y0055854D01*
X0194767Y0054255D02*
X0190667Y0054255D01*
X0190667Y0052657D02*
X0194767Y0052657D01*
X0194767Y0051058D02*
X0190667Y0051058D01*
X0190667Y0049460D02*
X0194767Y0049460D01*
X0194767Y0047861D02*
X0190667Y0047861D01*
X0190667Y0046263D02*
X0194002Y0046263D01*
X0193867Y0044664D02*
X0190667Y0044664D01*
X0190667Y0043066D02*
X0194775Y0043066D01*
X0197167Y0041467D02*
X0190667Y0041467D01*
X0190667Y0039869D02*
X0197167Y0039869D01*
X0197167Y0038270D02*
X0190667Y0038270D01*
X0190681Y0036672D02*
X0197167Y0036672D01*
X0196567Y0035073D02*
X0191344Y0035073D01*
X0192345Y0033475D02*
X0196567Y0033475D01*
X0196567Y0031876D02*
X0193943Y0031876D01*
X0195542Y0030278D02*
X0196567Y0030278D01*
X0192233Y0027081D02*
X0185483Y0027081D01*
X0184887Y0025482D02*
X0193832Y0025482D01*
X0195430Y0023884D02*
X0186498Y0023884D01*
X0186697Y0022285D02*
X0197029Y0022285D01*
X0190635Y0028679D02*
X0187081Y0028679D01*
X0187667Y0030278D02*
X0189036Y0030278D01*
X0186697Y0020687D02*
X0241201Y0020687D01*
X0242799Y0022285D02*
X0213904Y0022285D01*
X0215503Y0023884D02*
X0217064Y0023884D01*
X0222269Y0023884D02*
X0226724Y0023884D01*
X0225917Y0025482D02*
X0223408Y0025482D01*
X0224100Y0027081D02*
X0225917Y0027081D01*
X0232384Y0029941D02*
X0233325Y0029000D01*
X0235083Y0029000D01*
X0235288Y0029493D01*
X0235595Y0029800D01*
X0235288Y0030107D01*
X0234917Y0031003D01*
X0234917Y0032500D01*
X0234230Y0032500D01*
X0233217Y0032920D01*
X0233217Y0032800D01*
X0229667Y0032800D01*
X0229667Y0032800D01*
X0233217Y0032800D01*
X0233217Y0031389D01*
X0233068Y0030835D01*
X0232782Y0030340D01*
X0232384Y0029941D01*
X0232720Y0030278D02*
X0235217Y0030278D01*
X0234917Y0031876D02*
X0233217Y0031876D01*
X0240148Y0036672D02*
X0245320Y0036672D01*
X0245320Y0036731D02*
X0245320Y0032318D01*
X0245688Y0031950D01*
X0245643Y0031873D01*
X0245520Y0031415D01*
X0245520Y0029800D01*
X0250667Y0029800D01*
X0255813Y0029800D01*
X0255813Y0031415D01*
X0255690Y0031873D01*
X0255646Y0031950D01*
X0256013Y0032318D01*
X0256013Y0036731D01*
X0254842Y0037902D01*
X0252767Y0037902D01*
X0252767Y0040853D01*
X0251419Y0042200D01*
X0243943Y0049676D01*
X0247395Y0049676D01*
X0248567Y0050848D01*
X0248567Y0055147D01*
X0250967Y0057547D01*
X0250967Y0099653D01*
X0249619Y0101000D01*
X0242989Y0107630D01*
X0242989Y0110372D01*
X0242567Y0110795D01*
X0242567Y0111547D01*
X0249917Y0118897D01*
X0249917Y0117756D01*
X0250716Y0115826D01*
X0252193Y0114349D01*
X0254122Y0113550D01*
X0256211Y0113550D01*
X0257167Y0113946D01*
X0257167Y0028253D01*
X0256013Y0027099D01*
X0256013Y0027282D01*
X0255646Y0027650D01*
X0255690Y0027727D01*
X0255813Y0028185D01*
X0255813Y0029800D01*
X0250667Y0029800D01*
X0250667Y0029800D01*
X0245520Y0029800D01*
X0245520Y0028700D01*
X0244430Y0028700D01*
X0243254Y0028213D01*
X0242417Y0027375D01*
X0242417Y0028597D01*
X0242046Y0029493D01*
X0241739Y0029800D01*
X0242046Y0030107D01*
X0242417Y0031003D01*
X0242417Y0034597D01*
X0242046Y0035493D01*
X0241360Y0036179D01*
X0240464Y0036550D01*
X0240269Y0036550D01*
X0234419Y0042400D01*
X0240119Y0042400D01*
X0241290Y0043572D01*
X0241290Y0045824D01*
X0248167Y0038947D01*
X0248167Y0037902D01*
X0246492Y0037902D01*
X0245320Y0036731D01*
X0245320Y0035073D02*
X0242220Y0035073D01*
X0242417Y0033475D02*
X0245320Y0033475D01*
X0245645Y0031876D02*
X0242417Y0031876D01*
X0242116Y0030278D02*
X0245520Y0030278D01*
X0244380Y0028679D02*
X0242383Y0028679D01*
X0242273Y0023884D02*
X0241822Y0023884D01*
X0239602Y0019088D02*
X0186897Y0019088D01*
X0186897Y0017490D02*
X0238004Y0017490D01*
X0236405Y0015891D02*
X0234271Y0015891D01*
X0229063Y0015891D02*
X0224271Y0015891D01*
X0226235Y0014293D02*
X0227098Y0014293D01*
X0219063Y0015891D02*
X0213790Y0015891D01*
X0211867Y0015891D02*
X0211467Y0015891D01*
X0211467Y0014293D02*
X0211867Y0014293D01*
X0211867Y0012694D02*
X0211467Y0012694D01*
X0211467Y0011096D02*
X0211867Y0011096D01*
X0211467Y0010600D02*
X0206167Y0010600D01*
X0206167Y0010367D01*
X0206302Y0009512D01*
X0206570Y0008689D01*
X0206963Y0007917D01*
X0207471Y0007217D01*
X0208084Y0006605D01*
X0208784Y0006096D01*
X0209555Y0005703D01*
X0210379Y0005435D01*
X0211234Y0005300D01*
X0211467Y0005300D01*
X0211467Y0010600D01*
X0211467Y0009497D02*
X0211867Y0009497D01*
X0211867Y0007899D02*
X0211467Y0007899D01*
X0211467Y0006300D02*
X0211867Y0006300D01*
X0214830Y0006300D02*
X0218106Y0006300D01*
X0216699Y0007899D02*
X0216357Y0007899D01*
X0208503Y0006300D02*
X0184844Y0006300D01*
X0186491Y0007899D02*
X0206976Y0007899D01*
X0206307Y0009497D02*
X0186697Y0009497D01*
X0186697Y0011096D02*
X0206167Y0011096D01*
X0206499Y0012694D02*
X0186897Y0012694D01*
X0186897Y0014293D02*
X0207406Y0014293D01*
X0209544Y0015891D02*
X0186897Y0015891D01*
X0180800Y0009497D02*
X0180333Y0009497D01*
X0180333Y0007899D02*
X0180800Y0007899D01*
X0180800Y0006300D02*
X0180333Y0006300D01*
X0215928Y0014293D02*
X0217098Y0014293D01*
X0226634Y0007899D02*
X0226699Y0007899D01*
X0228106Y0006300D02*
X0225228Y0006300D01*
X0235228Y0006300D02*
X0238106Y0006300D01*
X0236699Y0007899D02*
X0236634Y0007899D01*
X0245228Y0006300D02*
X0248106Y0006300D01*
X0246699Y0007899D02*
X0246634Y0007899D01*
X0255228Y0006300D02*
X0258106Y0006300D01*
X0256699Y0007899D02*
X0256634Y0007899D01*
X0265228Y0006300D02*
X0276167Y0006300D01*
X0276167Y0007899D02*
X0266634Y0007899D01*
X0267297Y0009497D02*
X0276167Y0009497D01*
X0276167Y0011096D02*
X0267367Y0011096D01*
X0267052Y0012694D02*
X0276167Y0012694D01*
X0276167Y0014293D02*
X0266235Y0014293D01*
X0267486Y0016363D02*
X0269848Y0016363D01*
X0272030Y0017267D01*
X0273700Y0018937D01*
X0274604Y0021119D01*
X0274604Y0023481D01*
X0273700Y0025663D01*
X0272030Y0027333D01*
X0269848Y0028237D01*
X0267486Y0028237D01*
X0265304Y0027333D01*
X0263634Y0025663D01*
X0262730Y0023481D01*
X0262730Y0021119D01*
X0263634Y0018937D01*
X0265304Y0017267D01*
X0267486Y0016363D01*
X0265081Y0017490D02*
X0244509Y0017490D01*
X0244271Y0015891D02*
X0249063Y0015891D01*
X0247098Y0014293D02*
X0246235Y0014293D01*
X0254271Y0015891D02*
X0259063Y0015891D01*
X0257098Y0014293D02*
X0256235Y0014293D01*
X0264271Y0015891D02*
X0276167Y0015891D01*
X0276167Y0017490D02*
X0272252Y0017490D01*
X0273762Y0019088D02*
X0276167Y0019088D01*
X0276167Y0020687D02*
X0274425Y0020687D01*
X0274604Y0022285D02*
X0276167Y0022285D01*
X0276167Y0023884D02*
X0274437Y0023884D01*
X0273775Y0025482D02*
X0276167Y0025482D01*
X0276167Y0027081D02*
X0272282Y0027081D01*
X0276167Y0028679D02*
X0261767Y0028679D01*
X0261767Y0027081D02*
X0265051Y0027081D01*
X0263559Y0025482D02*
X0260901Y0025482D01*
X0259303Y0023884D02*
X0262896Y0023884D01*
X0262730Y0022285D02*
X0257704Y0022285D01*
X0256106Y0020687D02*
X0262909Y0020687D01*
X0263571Y0019088D02*
X0246107Y0019088D01*
X0235511Y0023884D02*
X0232609Y0023884D01*
X0219592Y0033225D02*
X0218867Y0033225D01*
X0218867Y0033375D01*
X0219592Y0033375D01*
X0219592Y0033225D01*
X0235352Y0041467D02*
X0245647Y0041467D01*
X0247245Y0039869D02*
X0236951Y0039869D01*
X0238549Y0038270D02*
X0248167Y0038270D01*
X0252767Y0038270D02*
X0257167Y0038270D01*
X0257167Y0036672D02*
X0256013Y0036672D01*
X0256013Y0035073D02*
X0257167Y0035073D01*
X0257167Y0033475D02*
X0256013Y0033475D01*
X0255688Y0031876D02*
X0257167Y0031876D01*
X0257167Y0030278D02*
X0255813Y0030278D01*
X0255813Y0028679D02*
X0257167Y0028679D01*
X0261767Y0030278D02*
X0276167Y0030278D01*
X0276167Y0031876D02*
X0261767Y0031876D01*
X0261767Y0033475D02*
X0276167Y0033475D01*
X0276167Y0035073D02*
X0261767Y0035073D01*
X0261767Y0036672D02*
X0276167Y0036672D01*
X0276167Y0038270D02*
X0261767Y0038270D01*
X0261767Y0039869D02*
X0276167Y0039869D01*
X0276167Y0041467D02*
X0261767Y0041467D01*
X0261767Y0043066D02*
X0276167Y0043066D01*
X0276167Y0044664D02*
X0261767Y0044664D01*
X0261767Y0046263D02*
X0276167Y0046263D01*
X0276167Y0047861D02*
X0261767Y0047861D01*
X0261767Y0049460D02*
X0276167Y0049460D01*
X0276167Y0051058D02*
X0261767Y0051058D01*
X0261767Y0052657D02*
X0276167Y0052657D01*
X0276167Y0054255D02*
X0261767Y0054255D01*
X0261767Y0055854D02*
X0276167Y0055854D01*
X0276167Y0057452D02*
X0261767Y0057452D01*
X0261767Y0059051D02*
X0276167Y0059051D01*
X0276167Y0060649D02*
X0261767Y0060649D01*
X0261767Y0062248D02*
X0276167Y0062248D01*
X0276167Y0063846D02*
X0261767Y0063846D01*
X0261767Y0065445D02*
X0276167Y0065445D01*
X0276167Y0067043D02*
X0261767Y0067043D01*
X0261767Y0068642D02*
X0276167Y0068642D01*
X0276167Y0070240D02*
X0261767Y0070240D01*
X0261767Y0071839D02*
X0276167Y0071839D01*
X0276167Y0073437D02*
X0261767Y0073437D01*
X0261767Y0075036D02*
X0276167Y0075036D01*
X0276167Y0076634D02*
X0261767Y0076634D01*
X0261767Y0078233D02*
X0276167Y0078233D01*
X0276167Y0079832D02*
X0261767Y0079832D01*
X0261767Y0081430D02*
X0276167Y0081430D01*
X0276167Y0083029D02*
X0261767Y0083029D01*
X0261767Y0084627D02*
X0276167Y0084627D01*
X0276167Y0086226D02*
X0261767Y0086226D01*
X0261767Y0087824D02*
X0276167Y0087824D01*
X0276167Y0089423D02*
X0261767Y0089423D01*
X0261767Y0091021D02*
X0276167Y0091021D01*
X0276167Y0092620D02*
X0261767Y0092620D01*
X0261767Y0094218D02*
X0276167Y0094218D01*
X0276167Y0095817D02*
X0261767Y0095817D01*
X0261767Y0097415D02*
X0276167Y0097415D01*
X0276167Y0099014D02*
X0261767Y0099014D01*
X0261767Y0100612D02*
X0276167Y0100612D01*
X0276167Y0102211D02*
X0261767Y0102211D01*
X0261767Y0103809D02*
X0276167Y0103809D01*
X0276167Y0105408D02*
X0261767Y0105408D01*
X0261767Y0107006D02*
X0276167Y0107006D01*
X0276167Y0108605D02*
X0261767Y0108605D01*
X0261767Y0110203D02*
X0276167Y0110203D01*
X0276167Y0111802D02*
X0261767Y0111802D01*
X0261767Y0113400D02*
X0276167Y0113400D01*
X0276167Y0114999D02*
X0261767Y0114999D01*
X0261767Y0116597D02*
X0276167Y0116597D01*
X0276167Y0118196D02*
X0261767Y0118196D01*
X0261767Y0119794D02*
X0276167Y0119794D01*
X0276167Y0121393D02*
X0261767Y0121393D01*
X0261767Y0122991D02*
X0276167Y0122991D01*
X0276167Y0124590D02*
X0261767Y0124590D01*
X0261767Y0126188D02*
X0276167Y0126188D01*
X0276167Y0127787D02*
X0261767Y0127787D01*
X0261767Y0129385D02*
X0276167Y0129385D01*
X0276167Y0130984D02*
X0261767Y0130984D01*
X0261767Y0132582D02*
X0276167Y0132582D01*
X0276167Y0134181D02*
X0261767Y0134181D01*
X0261767Y0135779D02*
X0276167Y0135779D01*
X0276167Y0137378D02*
X0261767Y0137378D01*
X0261767Y0138976D02*
X0276167Y0138976D01*
X0276167Y0140575D02*
X0261767Y0140575D01*
X0261767Y0142173D02*
X0276167Y0142173D01*
X0276167Y0143772D02*
X0261767Y0143772D01*
X0261767Y0145370D02*
X0276167Y0145370D01*
X0276167Y0146969D02*
X0261767Y0146969D01*
X0261767Y0148568D02*
X0276167Y0148568D01*
X0276167Y0150166D02*
X0261767Y0150166D01*
X0261767Y0151765D02*
X0276167Y0151765D01*
X0276167Y0153363D02*
X0261767Y0153363D01*
X0260458Y0154962D02*
X0276167Y0154962D01*
X0276167Y0156560D02*
X0272323Y0156560D01*
X0272030Y0156267D02*
X0273700Y0157937D01*
X0274604Y0160119D01*
X0274604Y0162481D01*
X0273700Y0164663D01*
X0272030Y0166333D01*
X0269848Y0167237D01*
X0267486Y0167237D01*
X0265304Y0166333D01*
X0263634Y0164663D01*
X0262730Y0162481D01*
X0262730Y0160119D01*
X0263634Y0157937D01*
X0265304Y0156267D01*
X0267486Y0155363D01*
X0269848Y0155363D01*
X0272030Y0156267D01*
X0273792Y0158159D02*
X0276167Y0158159D01*
X0276167Y0159757D02*
X0274454Y0159757D01*
X0274604Y0161356D02*
X0276167Y0161356D01*
X0276167Y0162954D02*
X0274408Y0162954D01*
X0273746Y0164553D02*
X0276167Y0164553D01*
X0276167Y0166151D02*
X0272212Y0166151D01*
X0276167Y0167750D02*
X0007667Y0167750D01*
X0007667Y0166151D02*
X0011122Y0166151D01*
X0011304Y0166333D02*
X0009634Y0164663D01*
X0008730Y0162481D01*
X0008730Y0160119D01*
X0009634Y0157937D01*
X0011304Y0156267D01*
X0013486Y0155363D01*
X0015848Y0155363D01*
X0018030Y0156267D01*
X0019700Y0157937D01*
X0020604Y0160119D01*
X0020604Y0162481D01*
X0019700Y0164663D01*
X0018030Y0166333D01*
X0015848Y0167237D01*
X0013486Y0167237D01*
X0011304Y0166333D01*
X0009588Y0164553D02*
X0007667Y0164553D01*
X0007667Y0162954D02*
X0008926Y0162954D01*
X0008730Y0161356D02*
X0007667Y0161356D01*
X0007667Y0159757D02*
X0008880Y0159757D01*
X0009542Y0158159D02*
X0007667Y0158159D01*
X0007667Y0156560D02*
X0011010Y0156560D01*
X0007667Y0154962D02*
X0081675Y0154962D01*
X0081675Y0156560D02*
X0018323Y0156560D01*
X0019792Y0158159D02*
X0081675Y0158159D01*
X0081675Y0159757D02*
X0020454Y0159757D01*
X0020604Y0161356D02*
X0081675Y0161356D01*
X0081675Y0153363D02*
X0007667Y0153363D01*
X0007667Y0151765D02*
X0063388Y0151765D01*
X0065946Y0151765D02*
X0081675Y0151765D01*
X0081675Y0150166D02*
X0068786Y0150166D01*
X0070015Y0148568D02*
X0081675Y0148568D01*
X0081675Y0146969D02*
X0070667Y0146969D01*
X0070667Y0145370D02*
X0081675Y0145370D01*
X0081675Y0143772D02*
X0070667Y0143772D01*
X0070667Y0142173D02*
X0081675Y0142173D01*
X0081675Y0140575D02*
X0070667Y0140575D01*
X0070667Y0138976D02*
X0081675Y0138976D01*
X0081675Y0137378D02*
X0070667Y0137378D01*
X0070324Y0135779D02*
X0081675Y0135779D01*
X0081675Y0134181D02*
X0069533Y0134181D01*
X0071037Y0132582D02*
X0081675Y0132582D01*
X0081675Y0130984D02*
X0072635Y0130984D01*
X0074234Y0129385D02*
X0081675Y0129385D01*
X0081675Y0127787D02*
X0075832Y0127787D01*
X0077431Y0126188D02*
X0081675Y0126188D01*
X0081675Y0124590D02*
X0079029Y0124590D01*
X0080628Y0122991D02*
X0081675Y0122991D01*
X0077320Y0119794D02*
X0061399Y0119794D01*
X0061542Y0120074D02*
X0061824Y0120942D01*
X0061967Y0121844D01*
X0061967Y0122300D01*
X0061967Y0122756D01*
X0061824Y0123658D01*
X0061542Y0124526D01*
X0061127Y0125340D01*
X0060591Y0126078D01*
X0059945Y0126724D01*
X0059207Y0127261D01*
X0058393Y0127675D01*
X0057525Y0127957D01*
X0056623Y0128100D01*
X0052167Y0128100D01*
X0052167Y0122300D01*
X0061967Y0122300D01*
X0052167Y0122300D01*
X0052167Y0122300D01*
X0052167Y0122300D01*
X0052167Y0116500D01*
X0056623Y0116500D01*
X0057525Y0116643D01*
X0058393Y0116925D01*
X0059207Y0117339D01*
X0059945Y0117876D01*
X0060591Y0118522D01*
X0061127Y0119260D01*
X0061542Y0120074D01*
X0061895Y0121393D02*
X0075721Y0121393D01*
X0074123Y0122991D02*
X0061929Y0122991D01*
X0061509Y0124590D02*
X0072524Y0124590D01*
X0070926Y0126188D02*
X0060481Y0126188D01*
X0058049Y0127787D02*
X0069327Y0127787D01*
X0067729Y0129385D02*
X0007667Y0129385D01*
X0007667Y0127787D02*
X0046284Y0127787D01*
X0045940Y0127675D02*
X0045127Y0127261D01*
X0044388Y0126724D01*
X0043743Y0126078D01*
X0043206Y0125340D01*
X0042792Y0124526D01*
X0042509Y0123658D01*
X0042367Y0122756D01*
X0042367Y0122300D01*
X0052167Y0122300D01*
X0052167Y0122300D01*
X0052167Y0128100D01*
X0047710Y0128100D01*
X0046808Y0127957D01*
X0045940Y0127675D01*
X0043853Y0126188D02*
X0007667Y0126188D01*
X0007667Y0124590D02*
X0042824Y0124590D01*
X0042404Y0122991D02*
X0007667Y0122991D01*
X0007667Y0121393D02*
X0042438Y0121393D01*
X0042367Y0121844D02*
X0042509Y0120942D01*
X0042792Y0120074D01*
X0043206Y0119260D01*
X0043743Y0118522D01*
X0044388Y0117876D01*
X0045127Y0117339D01*
X0045940Y0116925D01*
X0046808Y0116643D01*
X0047710Y0116500D01*
X0052167Y0116500D01*
X0052167Y0122300D01*
X0042367Y0122300D01*
X0042367Y0121844D01*
X0042934Y0119794D02*
X0007667Y0119794D01*
X0007667Y0118196D02*
X0044068Y0118196D01*
X0047096Y0116597D02*
X0007667Y0116597D01*
X0007667Y0114999D02*
X0082115Y0114999D01*
X0080517Y0116597D02*
X0057237Y0116597D01*
X0052167Y0116597D02*
X0052167Y0116597D01*
X0052167Y0118196D02*
X0052167Y0118196D01*
X0052167Y0119794D02*
X0052167Y0119794D01*
X0052167Y0121393D02*
X0052167Y0121393D01*
X0052167Y0122300D02*
X0052167Y0122300D01*
X0052167Y0122991D02*
X0052167Y0122991D01*
X0052167Y0124590D02*
X0052167Y0124590D01*
X0052167Y0126188D02*
X0052167Y0126188D01*
X0052167Y0127787D02*
X0052167Y0127787D01*
X0044591Y0134022D02*
X0043945Y0133376D01*
X0043207Y0132839D01*
X0042393Y0132425D01*
X0041525Y0132143D01*
X0040623Y0132000D01*
X0040167Y0132000D01*
X0040167Y0141800D01*
X0045967Y0141800D01*
X0045967Y0146256D01*
X0045824Y0147158D01*
X0045542Y0148026D01*
X0045127Y0148840D01*
X0044591Y0149578D01*
X0043945Y0150224D01*
X0043207Y0150761D01*
X0042393Y0151175D01*
X0041525Y0151457D01*
X0040623Y0151600D01*
X0040167Y0151600D01*
X0040167Y0141800D01*
X0040167Y0141800D01*
X0045967Y0141800D01*
X0045967Y0137344D01*
X0045824Y0136442D01*
X0045542Y0135574D01*
X0045127Y0134760D01*
X0044591Y0134022D01*
X0044706Y0134181D02*
X0059800Y0134181D01*
X0059009Y0135779D02*
X0045609Y0135779D01*
X0045967Y0137378D02*
X0058667Y0137378D01*
X0058667Y0138976D02*
X0045967Y0138976D01*
X0045967Y0140575D02*
X0058667Y0140575D01*
X0058667Y0142173D02*
X0045967Y0142173D01*
X0045967Y0143772D02*
X0058667Y0143772D01*
X0058667Y0145370D02*
X0045967Y0145370D01*
X0045854Y0146969D02*
X0058667Y0146969D01*
X0059319Y0148568D02*
X0045266Y0148568D01*
X0044003Y0150166D02*
X0060547Y0150166D01*
X0040167Y0150166D02*
X0040167Y0150166D01*
X0040167Y0151600D02*
X0039710Y0151600D01*
X0038808Y0151457D01*
X0037940Y0151175D01*
X0037127Y0150761D01*
X0036388Y0150224D01*
X0035743Y0149578D01*
X0035206Y0148840D01*
X0034792Y0148026D01*
X0034509Y0147158D01*
X0034367Y0146256D01*
X0034367Y0141800D01*
X0034367Y0137344D01*
X0034509Y0136442D01*
X0034792Y0135574D01*
X0035206Y0134760D01*
X0035743Y0134022D01*
X0036388Y0133376D01*
X0037127Y0132839D01*
X0037940Y0132425D01*
X0038808Y0132143D01*
X0039710Y0132000D01*
X0040167Y0132000D01*
X0040167Y0141800D01*
X0040167Y0141800D01*
X0040167Y0141800D01*
X0040167Y0151600D01*
X0040167Y0148568D02*
X0040167Y0148568D01*
X0040167Y0146969D02*
X0040167Y0146969D01*
X0040167Y0145370D02*
X0040167Y0145370D01*
X0040167Y0143772D02*
X0040167Y0143772D01*
X0040167Y0142173D02*
X0040167Y0142173D01*
X0040167Y0141800D02*
X0040167Y0141800D01*
X0034367Y0141800D01*
X0040167Y0141800D01*
X0040167Y0140575D02*
X0040167Y0140575D01*
X0040167Y0138976D02*
X0040167Y0138976D01*
X0040167Y0137378D02*
X0040167Y0137378D01*
X0040167Y0135779D02*
X0040167Y0135779D01*
X0040167Y0134181D02*
X0040167Y0134181D01*
X0040167Y0132582D02*
X0040167Y0132582D01*
X0042702Y0132582D02*
X0061584Y0132582D01*
X0066130Y0130984D02*
X0007667Y0130984D01*
X0007667Y0132582D02*
X0037631Y0132582D01*
X0035627Y0134181D02*
X0007667Y0134181D01*
X0007667Y0135779D02*
X0034725Y0135779D01*
X0034367Y0137378D02*
X0007667Y0137378D01*
X0007667Y0138976D02*
X0034367Y0138976D01*
X0034367Y0140575D02*
X0007667Y0140575D01*
X0007667Y0142173D02*
X0034367Y0142173D01*
X0034367Y0143772D02*
X0007667Y0143772D01*
X0007667Y0145370D02*
X0034367Y0145370D01*
X0034480Y0146969D02*
X0007667Y0146969D01*
X0007667Y0148568D02*
X0035067Y0148568D01*
X0036330Y0150166D02*
X0007667Y0150166D01*
X0020408Y0162954D02*
X0262926Y0162954D01*
X0262730Y0161356D02*
X0184464Y0161356D01*
X0186062Y0159757D02*
X0262880Y0159757D01*
X0263542Y0158159D02*
X0196886Y0158159D01*
X0197917Y0156560D02*
X0265010Y0156560D01*
X0263588Y0164553D02*
X0019746Y0164553D01*
X0018212Y0166151D02*
X0265122Y0166151D01*
X0250117Y0150166D02*
X0236417Y0150166D01*
X0236417Y0148568D02*
X0250117Y0148568D01*
X0250117Y0146969D02*
X0231167Y0146969D01*
X0231167Y0145370D02*
X0229567Y0145370D01*
X0229567Y0143772D02*
X0231167Y0143772D01*
X0231167Y0142173D02*
X0229567Y0142173D01*
X0229567Y0140575D02*
X0231167Y0140575D01*
X0236219Y0140575D02*
X0247689Y0140575D01*
X0249287Y0142173D02*
X0236417Y0142173D01*
X0236417Y0143772D02*
X0250886Y0143772D01*
X0250117Y0145370D02*
X0236417Y0145370D01*
X0229567Y0146969D02*
X0219216Y0146969D01*
X0219216Y0145370D02*
X0224317Y0145370D01*
X0224317Y0143772D02*
X0219216Y0143772D01*
X0219216Y0142173D02*
X0224317Y0142173D01*
X0224516Y0140575D02*
X0219216Y0140575D01*
X0219216Y0148568D02*
X0224317Y0148568D01*
X0224317Y0150166D02*
X0219216Y0150166D01*
X0188447Y0158159D02*
X0187661Y0158159D01*
X0235509Y0119794D02*
X0236824Y0119794D01*
X0236824Y0118196D02*
X0235509Y0118196D01*
X0235509Y0116597D02*
X0236824Y0116597D01*
X0236824Y0114999D02*
X0235509Y0114999D01*
X0235309Y0113400D02*
X0237652Y0113400D01*
X0237967Y0111802D02*
X0235667Y0111802D01*
X0236167Y0110203D02*
X0236167Y0110203D01*
X0236167Y0108605D02*
X0236167Y0108605D01*
X0236167Y0107181D02*
X0236167Y0103019D01*
X0237486Y0103019D01*
X0237730Y0103085D01*
X0237996Y0102819D01*
X0240515Y0102819D01*
X0240067Y0101737D01*
X0240067Y0100463D01*
X0240554Y0099287D01*
X0240818Y0099023D01*
X0240288Y0098493D01*
X0239917Y0097597D01*
X0239917Y0094003D01*
X0240288Y0093107D01*
X0240736Y0092659D01*
X0240564Y0092486D01*
X0240269Y0091976D01*
X0240117Y0091407D01*
X0240117Y0089875D01*
X0243592Y0089875D01*
X0243592Y0089725D01*
X0243742Y0089725D01*
X0243742Y0086250D01*
X0245274Y0086250D01*
X0245843Y0086402D01*
X0246353Y0086697D01*
X0246367Y0086711D01*
X0246367Y0077924D01*
X0241290Y0077924D01*
X0241290Y0084028D01*
X0240119Y0085200D01*
X0226419Y0085200D01*
X0226367Y0085253D01*
X0225529Y0086090D01*
X0226046Y0086607D01*
X0226374Y0087400D01*
X0229166Y0087400D01*
X0229288Y0087107D01*
X0229973Y0086421D01*
X0230869Y0086050D01*
X0234464Y0086050D01*
X0235360Y0086421D01*
X0236046Y0087107D01*
X0236417Y0088003D01*
X0236417Y0090397D01*
X0237767Y0091747D01*
X0237767Y0099053D01*
X0236419Y0100400D01*
X0234767Y0102053D01*
X0234767Y0103041D01*
X0234847Y0103019D01*
X0236167Y0103019D01*
X0236167Y0107181D01*
X0236167Y0107181D01*
X0236167Y0107006D02*
X0236167Y0107006D01*
X0236167Y0105408D02*
X0236167Y0105408D01*
X0236167Y0103809D02*
X0236167Y0103809D01*
X0234767Y0102211D02*
X0240263Y0102211D01*
X0240067Y0100612D02*
X0236207Y0100612D01*
X0237767Y0099014D02*
X0240808Y0099014D01*
X0239917Y0097415D02*
X0237767Y0097415D01*
X0237767Y0095817D02*
X0239917Y0095817D01*
X0239917Y0094218D02*
X0237767Y0094218D01*
X0237767Y0092620D02*
X0240697Y0092620D01*
X0240117Y0091021D02*
X0237040Y0091021D01*
X0236417Y0089423D02*
X0240117Y0089423D01*
X0240117Y0089725D02*
X0240117Y0088193D01*
X0240269Y0087624D01*
X0240564Y0087114D01*
X0240980Y0086697D01*
X0241491Y0086402D01*
X0242060Y0086250D01*
X0243592Y0086250D01*
X0243592Y0089725D01*
X0240117Y0089725D01*
X0240215Y0087824D02*
X0236343Y0087824D01*
X0234888Y0086226D02*
X0246367Y0086226D01*
X0246367Y0084627D02*
X0240692Y0084627D01*
X0241290Y0083029D02*
X0246367Y0083029D01*
X0246367Y0081430D02*
X0241290Y0081430D01*
X0241290Y0079832D02*
X0246367Y0079832D01*
X0246367Y0078233D02*
X0241290Y0078233D01*
X0239567Y0076200D02*
X0239567Y0066596D01*
X0239767Y0066396D01*
X0239767Y0065375D01*
X0244067Y0065375D01*
X0244067Y0065375D01*
X0239767Y0065375D01*
X0239767Y0064354D01*
X0239567Y0064154D01*
X0239567Y0062853D01*
X0238264Y0061550D01*
X0237903Y0061700D01*
X0236630Y0061700D01*
X0235454Y0061213D01*
X0234554Y0060313D01*
X0234067Y0059137D01*
X0234067Y0058400D01*
X0216019Y0058400D01*
X0214967Y0059453D01*
X0214767Y0059653D01*
X0214767Y0061004D01*
X0214567Y0061204D01*
X0214567Y0062225D01*
X0210267Y0062225D01*
X0210267Y0062225D01*
X0214567Y0062225D01*
X0214567Y0063246D01*
X0214767Y0063446D01*
X0214767Y0064547D01*
X0214819Y0064600D01*
X0216167Y0065947D01*
X0216167Y0072100D01*
X0216903Y0072100D01*
X0218079Y0072587D01*
X0218979Y0073487D01*
X0219467Y0074663D01*
X0219467Y0075247D01*
X0220419Y0076200D01*
X0221714Y0076200D01*
X0221814Y0076100D01*
X0221630Y0076100D01*
X0220454Y0075613D01*
X0219554Y0074713D01*
X0219067Y0073537D01*
X0219067Y0072263D01*
X0219554Y0071087D01*
X0220454Y0070187D01*
X0221630Y0069700D01*
X0222903Y0069700D01*
X0224079Y0070187D01*
X0224979Y0071087D01*
X0225467Y0072263D01*
X0225467Y0072700D01*
X0226503Y0072700D01*
X0227679Y0073187D01*
X0228579Y0074087D01*
X0229067Y0075263D01*
X0229067Y0076200D01*
X0239567Y0076200D01*
X0239567Y0075036D02*
X0228972Y0075036D01*
X0227930Y0073437D02*
X0239567Y0073437D01*
X0239567Y0071839D02*
X0225291Y0071839D01*
X0224133Y0070240D02*
X0239567Y0070240D01*
X0239567Y0068642D02*
X0216167Y0068642D01*
X0216167Y0070240D02*
X0220401Y0070240D01*
X0219242Y0071839D02*
X0216167Y0071839D01*
X0218930Y0073437D02*
X0219067Y0073437D01*
X0219467Y0075036D02*
X0219877Y0075036D01*
X0216167Y0067043D02*
X0239567Y0067043D01*
X0239767Y0065445D02*
X0215664Y0065445D01*
X0214767Y0063846D02*
X0239567Y0063846D01*
X0238962Y0062248D02*
X0214567Y0062248D01*
X0214767Y0060649D02*
X0234891Y0060649D01*
X0234067Y0059051D02*
X0215368Y0059051D01*
X0241290Y0044664D02*
X0242450Y0044664D01*
X0244048Y0043066D02*
X0240784Y0043066D01*
X0245758Y0047861D02*
X0257167Y0047861D01*
X0257167Y0046263D02*
X0247357Y0046263D01*
X0248955Y0044664D02*
X0257167Y0044664D01*
X0257167Y0043066D02*
X0250554Y0043066D01*
X0252152Y0041467D02*
X0257167Y0041467D01*
X0257167Y0039869D02*
X0252767Y0039869D01*
X0257167Y0049460D02*
X0244160Y0049460D01*
X0248567Y0051058D02*
X0257167Y0051058D01*
X0257167Y0052657D02*
X0248567Y0052657D01*
X0248567Y0054255D02*
X0257167Y0054255D01*
X0257167Y0055854D02*
X0249273Y0055854D01*
X0250872Y0057452D02*
X0257167Y0057452D01*
X0257167Y0059051D02*
X0250967Y0059051D01*
X0250967Y0060649D02*
X0257167Y0060649D01*
X0257167Y0062248D02*
X0250967Y0062248D01*
X0250967Y0063846D02*
X0257167Y0063846D01*
X0257167Y0065445D02*
X0250967Y0065445D01*
X0250967Y0067043D02*
X0257167Y0067043D01*
X0257167Y0068642D02*
X0250967Y0068642D01*
X0250967Y0070240D02*
X0257167Y0070240D01*
X0257167Y0071839D02*
X0250967Y0071839D01*
X0250967Y0073437D02*
X0257167Y0073437D01*
X0257167Y0075036D02*
X0250967Y0075036D01*
X0250967Y0076634D02*
X0257167Y0076634D01*
X0257167Y0078233D02*
X0250967Y0078233D01*
X0250967Y0079832D02*
X0257167Y0079832D01*
X0257167Y0081430D02*
X0250967Y0081430D01*
X0250967Y0083029D02*
X0257167Y0083029D01*
X0257167Y0084627D02*
X0250967Y0084627D01*
X0250967Y0086226D02*
X0257167Y0086226D01*
X0257167Y0087824D02*
X0250967Y0087824D01*
X0250967Y0089423D02*
X0257167Y0089423D01*
X0257167Y0091021D02*
X0250967Y0091021D01*
X0250967Y0092620D02*
X0257167Y0092620D01*
X0257167Y0094218D02*
X0250967Y0094218D01*
X0250967Y0095817D02*
X0257167Y0095817D01*
X0257167Y0097415D02*
X0250967Y0097415D01*
X0250967Y0099014D02*
X0257167Y0099014D01*
X0257167Y0100612D02*
X0250007Y0100612D01*
X0248409Y0102211D02*
X0257167Y0102211D01*
X0257167Y0103809D02*
X0246810Y0103809D01*
X0245212Y0105408D02*
X0257167Y0105408D01*
X0257167Y0107006D02*
X0243613Y0107006D01*
X0242989Y0108605D02*
X0257167Y0108605D01*
X0257167Y0110203D02*
X0242989Y0110203D01*
X0242821Y0111802D02*
X0257167Y0111802D01*
X0257167Y0113400D02*
X0244420Y0113400D01*
X0246018Y0114999D02*
X0251543Y0114999D01*
X0250396Y0116597D02*
X0247617Y0116597D01*
X0249215Y0118196D02*
X0249917Y0118196D01*
X0229624Y0113400D02*
X0216417Y0113400D01*
X0216417Y0111802D02*
X0229267Y0111802D01*
X0229344Y0110203D02*
X0217016Y0110203D01*
X0218615Y0108605D02*
X0229344Y0108605D01*
X0229344Y0107006D02*
X0220213Y0107006D01*
X0221812Y0105408D02*
X0229344Y0105408D01*
X0229525Y0103809D02*
X0223410Y0103809D01*
X0225009Y0102211D02*
X0230167Y0102211D01*
X0230167Y0100612D02*
X0226607Y0100612D01*
X0228206Y0099014D02*
X0229808Y0099014D01*
X0243592Y0089423D02*
X0243742Y0089423D01*
X0243742Y0087824D02*
X0243592Y0087824D01*
X0230445Y0086226D02*
X0225664Y0086226D01*
X0210167Y0094300D02*
X0206617Y0094300D01*
X0210167Y0094300D01*
X0210167Y0094300D01*
X0210167Y0095817D02*
X0210167Y0095817D01*
X0210167Y0097415D02*
X0210167Y0097415D01*
X0210967Y0099014D02*
X0185217Y0099014D01*
X0185027Y0097415D02*
X0207889Y0097415D01*
X0206645Y0095817D02*
X0203107Y0095817D01*
X0203217Y0094218D02*
X0206617Y0094218D01*
X0206334Y0092620D02*
X0203217Y0092620D01*
X0202677Y0091021D02*
X0204735Y0091021D01*
X0199742Y0094218D02*
X0199592Y0094218D01*
X0199592Y0095817D02*
X0199742Y0095817D01*
X0196226Y0095817D02*
X0184241Y0095817D01*
X0184888Y0100612D02*
X0210967Y0100612D01*
X0210967Y0102211D02*
X0183898Y0102211D01*
X0106452Y0102211D02*
X0101645Y0102211D01*
X0101645Y0101962D02*
X0101645Y0102944D01*
X0101982Y0102944D01*
X0103519Y0102944D01*
X0103950Y0103060D01*
X0104382Y0102944D01*
X0105919Y0102944D01*
X0105919Y0108544D01*
X0105919Y0108544D01*
X0105919Y0108544D01*
X0105919Y0114144D01*
X0104382Y0114144D01*
X0103950Y0114028D01*
X0103519Y0114144D01*
X0101982Y0114144D01*
X0101982Y0108544D01*
X0101982Y0108544D01*
X0105918Y0108544D01*
X0105918Y0108544D01*
X0105082Y0108544D01*
X0101982Y0108544D01*
X0101982Y0102944D01*
X0101982Y0108544D01*
X0101982Y0108544D01*
X0101982Y0108544D01*
X0101982Y0114144D01*
X0100445Y0114144D01*
X0100388Y0114129D01*
X0100173Y0114344D01*
X0095916Y0114344D01*
X0095701Y0114129D01*
X0095645Y0114144D01*
X0094108Y0114144D01*
X0094108Y0108544D01*
X0094108Y0108544D01*
X0094108Y0114144D01*
X0092571Y0114144D01*
X0092139Y0114028D01*
X0091708Y0114144D01*
X0090171Y0114144D01*
X0090171Y0108544D01*
X0090171Y0108544D01*
X0094107Y0108544D01*
X0094107Y0108544D01*
X0093271Y0108544D01*
X0090171Y0108544D01*
X0090171Y0108544D01*
X0090171Y0114144D01*
X0088634Y0114144D01*
X0088176Y0114021D01*
X0087765Y0113784D01*
X0087430Y0113449D01*
X0087193Y0113039D01*
X0087071Y0112581D01*
X0087071Y0108544D01*
X0087071Y0104507D01*
X0087193Y0104049D01*
X0087279Y0103900D01*
X0081158Y0103900D01*
X0080789Y0104269D01*
X0080719Y0104439D01*
X0080419Y0104739D01*
X0079406Y0105752D01*
X0078083Y0106300D01*
X0071454Y0106300D01*
X0071440Y0106314D01*
X0070343Y0106768D01*
X0068657Y0106768D01*
X0068688Y0106846D01*
X0068797Y0107393D01*
X0068797Y0108472D01*
X0067500Y0108472D01*
X0067432Y0108540D01*
X0062900Y0108540D01*
X0062900Y0108939D01*
X0062433Y0108939D01*
X0062433Y0108540D01*
X0057508Y0108540D01*
X0057439Y0108472D01*
X0056536Y0108472D01*
X0056536Y0107569D01*
X0056336Y0107369D01*
X0056336Y0098231D01*
X0056536Y0098031D01*
X0056536Y0097128D01*
X0057439Y0097128D01*
X0057508Y0097060D01*
X0062433Y0097060D01*
X0062433Y0096661D01*
X0056536Y0096661D01*
X0056536Y0095582D01*
X0056645Y0095035D01*
X0056858Y0094519D01*
X0057169Y0094055D01*
X0057563Y0093660D01*
X0058027Y0093350D01*
X0058543Y0093136D01*
X0059090Y0093028D01*
X0062433Y0093028D01*
X0062433Y0096661D01*
X0062900Y0096661D01*
X0062900Y0093028D01*
X0066243Y0093028D01*
X0066790Y0093136D01*
X0067306Y0093350D01*
X0067770Y0093660D01*
X0068165Y0094055D01*
X0068475Y0094519D01*
X0068688Y0095035D01*
X0068797Y0095582D01*
X0068797Y0096661D01*
X0062900Y0096661D01*
X0062900Y0097060D01*
X0067432Y0097060D01*
X0067500Y0097128D01*
X0068797Y0097128D01*
X0068797Y0098207D01*
X0068688Y0098754D01*
X0068657Y0098831D01*
X0070343Y0098831D01*
X0070991Y0099100D01*
X0075775Y0099100D01*
X0077627Y0097248D01*
X0078951Y0096700D01*
X0096383Y0096700D01*
X0097706Y0097248D01*
X0098719Y0098261D01*
X0101097Y0100639D01*
X0101645Y0101962D01*
X0101070Y0100612D02*
X0104222Y0100612D01*
X0102874Y0099014D02*
X0099471Y0099014D01*
X0097873Y0097415D02*
X0101473Y0097415D01*
X0100073Y0095817D02*
X0078756Y0095817D01*
X0080023Y0094218D02*
X0098672Y0094218D01*
X0097271Y0092620D02*
X0080023Y0092620D01*
X0079959Y0091021D02*
X0095871Y0091021D01*
X0094470Y0089423D02*
X0080023Y0089423D01*
X0080023Y0087824D02*
X0093070Y0087824D01*
X0091669Y0086226D02*
X0080023Y0086226D01*
X0080023Y0084627D02*
X0090268Y0084627D01*
X0088868Y0083029D02*
X0080223Y0083029D01*
X0080223Y0081430D02*
X0087467Y0081430D01*
X0074422Y0084922D02*
X0074422Y0088022D01*
X0074422Y0088859D01*
X0068823Y0088859D01*
X0068823Y0087322D01*
X0068938Y0086891D01*
X0068823Y0086459D01*
X0068823Y0084922D01*
X0074422Y0084922D01*
X0074422Y0084922D01*
X0074422Y0086226D02*
X0074423Y0086226D01*
X0074422Y0087824D02*
X0074423Y0087824D01*
X0074422Y0088859D02*
X0074423Y0088859D01*
X0074422Y0088859D01*
X0074422Y0088859D01*
X0068823Y0088859D01*
X0068823Y0090396D01*
X0068938Y0090828D01*
X0068823Y0091259D01*
X0068823Y0092796D01*
X0074422Y0092796D01*
X0074422Y0092796D01*
X0068823Y0092796D01*
X0068823Y0094333D01*
X0068945Y0094791D01*
X0069182Y0095201D01*
X0069517Y0095536D01*
X0069928Y0095773D01*
X0070386Y0095896D01*
X0074422Y0095896D01*
X0074422Y0092796D01*
X0074423Y0092796D01*
X0074422Y0092796D01*
X0074422Y0091959D01*
X0074422Y0088859D01*
X0074422Y0089423D02*
X0074423Y0089423D01*
X0074422Y0091021D02*
X0074423Y0091021D01*
X0074422Y0092620D02*
X0074423Y0092620D01*
X0074422Y0094218D02*
X0074423Y0094218D01*
X0074422Y0095817D02*
X0074423Y0095817D01*
X0077460Y0097415D02*
X0068797Y0097415D01*
X0068797Y0095817D02*
X0070089Y0095817D01*
X0068823Y0094218D02*
X0068274Y0094218D01*
X0068823Y0092620D02*
X0055148Y0092620D01*
X0054671Y0094218D02*
X0057059Y0094218D01*
X0056536Y0095817D02*
X0054671Y0095817D01*
X0054073Y0097415D02*
X0056536Y0097415D01*
X0056336Y0099014D02*
X0052768Y0099014D01*
X0053318Y0100612D02*
X0056336Y0100612D01*
X0056336Y0102211D02*
X0053318Y0102211D01*
X0053318Y0103809D02*
X0056336Y0103809D01*
X0056336Y0105408D02*
X0052768Y0105408D01*
X0053318Y0107006D02*
X0056336Y0107006D01*
X0056536Y0108939D02*
X0062433Y0108939D01*
X0062433Y0112572D01*
X0059090Y0112572D01*
X0058543Y0112464D01*
X0058027Y0112250D01*
X0057563Y0111940D01*
X0057169Y0111545D01*
X0056858Y0111081D01*
X0056645Y0110565D01*
X0056536Y0110018D01*
X0056536Y0108939D01*
X0056573Y0110203D02*
X0053274Y0110203D01*
X0053318Y0108605D02*
X0062433Y0108605D01*
X0062900Y0108605D02*
X0087071Y0108605D01*
X0087071Y0108544D02*
X0090170Y0108544D01*
X0087071Y0108544D01*
X0087071Y0107006D02*
X0068720Y0107006D01*
X0068797Y0108939D02*
X0068797Y0110018D01*
X0068688Y0110565D01*
X0068475Y0111081D01*
X0068165Y0111545D01*
X0067770Y0111940D01*
X0067306Y0112250D01*
X0066790Y0112464D01*
X0066243Y0112572D01*
X0062900Y0112572D01*
X0062900Y0108939D01*
X0068797Y0108939D01*
X0068761Y0110203D02*
X0087071Y0110203D01*
X0087071Y0111802D02*
X0067908Y0111802D01*
X0062900Y0111802D02*
X0062433Y0111802D01*
X0062433Y0110203D02*
X0062900Y0110203D01*
X0057425Y0111802D02*
X0051965Y0111802D01*
X0047172Y0111802D02*
X0045355Y0111802D01*
X0043643Y0111802D02*
X0043493Y0111802D01*
X0043493Y0110203D02*
X0043643Y0110203D01*
X0043643Y0108605D02*
X0043493Y0108605D01*
X0043643Y0108375D02*
X0045818Y0108375D01*
X0045818Y0108225D01*
X0043643Y0108225D01*
X0043643Y0108375D01*
X0043643Y0107006D02*
X0043493Y0107006D01*
X0041781Y0111802D02*
X0040517Y0111802D01*
X0040184Y0113400D02*
X0087402Y0113400D01*
X0090171Y0113400D02*
X0090171Y0113400D01*
X0090171Y0111802D02*
X0090171Y0111802D01*
X0090171Y0110203D02*
X0090171Y0110203D01*
X0090171Y0108605D02*
X0090171Y0108605D01*
X0090170Y0108544D02*
X0090170Y0108544D01*
X0094108Y0108605D02*
X0094108Y0108605D01*
X0094108Y0110203D02*
X0094108Y0110203D01*
X0094108Y0111802D02*
X0094108Y0111802D01*
X0094108Y0113400D02*
X0094108Y0113400D01*
X0101982Y0113400D02*
X0101982Y0113400D01*
X0101982Y0111802D02*
X0101982Y0111802D01*
X0101982Y0110203D02*
X0101982Y0110203D01*
X0101982Y0108605D02*
X0101982Y0108605D01*
X0101982Y0107006D02*
X0101982Y0107006D01*
X0101982Y0105408D02*
X0101982Y0105408D01*
X0101982Y0103809D02*
X0101982Y0103809D01*
X0105919Y0103809D02*
X0105919Y0103809D01*
X0105919Y0105408D02*
X0105919Y0105408D01*
X0105919Y0107006D02*
X0105919Y0107006D01*
X0105919Y0108605D02*
X0105919Y0108605D01*
X0105919Y0110203D02*
X0105919Y0110203D01*
X0105919Y0111802D02*
X0105919Y0111802D01*
X0105919Y0113400D02*
X0105919Y0113400D01*
X0087071Y0105408D02*
X0079750Y0105408D01*
X0075862Y0099014D02*
X0070783Y0099014D01*
X0062900Y0095817D02*
X0062433Y0095817D01*
X0062433Y0094218D02*
X0062900Y0094218D01*
X0068886Y0091021D02*
X0056840Y0091021D01*
X0046368Y0097415D02*
X0045916Y0097415D01*
X0045937Y0099014D02*
X0046368Y0099014D01*
X0041200Y0099014D02*
X0040517Y0099014D01*
X0040018Y0102211D02*
X0039926Y0102211D01*
X0060265Y0118196D02*
X0078918Y0118196D01*
X0068823Y0089423D02*
X0067753Y0089423D01*
X0067753Y0087824D02*
X0068823Y0087824D01*
X0068823Y0086226D02*
X0067753Y0086226D01*
X0067753Y0084627D02*
X0068823Y0084627D01*
X0068623Y0083029D02*
X0067753Y0083029D01*
X0068193Y0081430D02*
X0068623Y0081430D01*
X0250667Y0029800D02*
X0250667Y0029800D01*
D46*
X0098045Y0102678D02*
X0098045Y0108544D01*
D47*
X0115667Y0093300D02*
X0128667Y0093300D01*
X0133108Y0088859D01*
X0168911Y0088859D01*
X0168911Y0084922D02*
X0131045Y0084922D01*
X0127167Y0088800D01*
X0108167Y0088800D01*
X0098667Y0079300D01*
X0030667Y0088800D02*
X0030667Y0092800D01*
X0026167Y0101800D02*
X0026167Y0103300D01*
X0027667Y0104800D01*
X0030667Y0104800D01*
M02*
