G75*
%MOIN*%
%OFA0B0*%
%FSLAX25Y25*%
%IPPOS*%
%LPD*%
%AMOC8*
5,1,8,0,0,1.08239X$1,22.5*
%
%ADD10R,0.00500X0.00100*%
%ADD11R,0.00600X0.00100*%
%ADD12R,0.00700X0.00100*%
%ADD13R,0.01600X0.00100*%
%ADD14R,0.01100X0.00100*%
%ADD15R,0.00800X0.00100*%
%ADD16R,0.02600X0.00100*%
%ADD17R,0.01800X0.00100*%
%ADD18R,0.14900X0.00100*%
%ADD19R,0.06500X0.00100*%
%ADD20R,0.03400X0.00100*%
%ADD21R,0.02300X0.00100*%
%ADD22R,0.00900X0.00100*%
%ADD23R,0.04000X0.00100*%
%ADD24R,0.02700X0.00100*%
%ADD25R,0.01000X0.00100*%
%ADD26R,0.04400X0.00100*%
%ADD27R,0.03000X0.00100*%
%ADD28R,0.04900X0.00100*%
%ADD29R,0.03300X0.00100*%
%ADD30R,0.15000X0.00100*%
%ADD31R,0.01200X0.00100*%
%ADD32R,0.05200X0.00100*%
%ADD33R,0.03500X0.00100*%
%ADD34R,0.14600X0.00100*%
%ADD35R,0.05700X0.00100*%
%ADD36R,0.05500X0.00100*%
%ADD37R,0.03800X0.00100*%
%ADD38R,0.14000X0.00100*%
%ADD39R,0.04700X0.00100*%
%ADD40R,0.01300X0.00100*%
%ADD41R,0.05900X0.00100*%
%ADD42R,0.13800X0.00100*%
%ADD43R,0.03900X0.00100*%
%ADD44R,0.01400X0.00100*%
%ADD45R,0.06100X0.00100*%
%ADD46R,0.04200X0.00100*%
%ADD47R,0.13500X0.00100*%
%ADD48R,0.01500X0.00100*%
%ADD49R,0.06400X0.00100*%
%ADD50R,0.04300X0.00100*%
%ADD51R,0.13300X0.00100*%
%ADD52R,0.06600X0.00100*%
%ADD53R,0.04500X0.00100*%
%ADD54R,0.06800X0.00100*%
%ADD55R,0.04600X0.00100*%
%ADD56R,0.03700X0.00100*%
%ADD57R,0.02400X0.00100*%
%ADD58R,0.01700X0.00100*%
%ADD59R,0.07100X0.00100*%
%ADD60R,0.04800X0.00100*%
%ADD61R,0.07200X0.00100*%
%ADD62R,0.03200X0.00100*%
%ADD63R,0.02100X0.00100*%
%ADD64R,0.01900X0.00100*%
%ADD65R,0.07400X0.00100*%
%ADD66R,0.03100X0.00100*%
%ADD67R,0.02800X0.00100*%
%ADD68R,0.02000X0.00100*%
%ADD69R,0.07600X0.00100*%
%ADD70R,0.02900X0.00100*%
%ADD71R,0.02500X0.00100*%
%ADD72R,0.07800X0.00100*%
%ADD73R,0.08000X0.00100*%
%ADD74R,0.02200X0.00100*%
%ADD75R,0.08100X0.00100*%
%ADD76R,0.00300X0.00100*%
%ADD77R,0.03600X0.00100*%
%ADD78R,0.00100X0.00100*%
%ADD79R,0.05600X0.00100*%
%ADD80R,0.06000X0.00100*%
%ADD81R,0.04100X0.00100*%
%ADD82R,0.00200X0.00100*%
%ADD83R,0.05000X0.00100*%
%ADD84R,0.05400X0.00100*%
%ADD85R,0.05800X0.00100*%
%ADD86R,0.06200X0.00100*%
%ADD87R,0.06700X0.00100*%
%ADD88R,0.06900X0.00100*%
%ADD89R,0.07000X0.00100*%
%ADD90R,0.07300X0.00100*%
%ADD91R,0.07500X0.00100*%
%ADD92R,0.10500X0.00100*%
%ADD93R,0.10400X0.00100*%
%ADD94R,0.10300X0.00100*%
%ADD95R,0.06300X0.00100*%
%ADD96R,0.05300X0.00100*%
%ADD97R,0.05100X0.00100*%
%ADD98R,0.00400X0.00100*%
%ADD99R,0.07900X0.00100*%
%ADD100C,0.00800*%
%ADD101C,0.00500*%
%ADD102C,0.00400*%
%ADD103C,0.00300*%
D10*
X0098867Y0090200D03*
X0098867Y0090300D03*
X0102167Y0103900D03*
X0079267Y0106300D03*
D11*
X0079217Y0106200D03*
X0093717Y0101700D03*
X0093817Y0101600D03*
X0093817Y0101500D03*
X0098817Y0090400D03*
D12*
X0098767Y0090500D03*
X0101367Y0081500D03*
X0093667Y0101800D03*
X0093667Y0101900D03*
X0093567Y0102000D03*
X0101967Y0104200D03*
X0102067Y0104100D03*
X0102167Y0104000D03*
X0079167Y0106100D03*
X0048867Y0101200D03*
X0048767Y0101400D03*
D13*
X0047717Y0103600D03*
X0053117Y0102200D03*
X0053317Y0102300D03*
X0053217Y0093200D03*
X0056017Y0092000D03*
X0058917Y0093200D03*
X0066017Y0103900D03*
X0066017Y0104000D03*
X0078717Y0104900D03*
X0078717Y0105000D03*
X0088317Y0106100D03*
X0092017Y0103800D03*
X0084317Y0097200D03*
X0084317Y0097100D03*
X0084317Y0097000D03*
X0084417Y0096900D03*
X0084417Y0096800D03*
X0086117Y0094500D03*
X0078917Y0089700D03*
X0078917Y0089600D03*
X0078917Y0089500D03*
X0098317Y0091700D03*
X0098317Y0091800D03*
X0103117Y0089000D03*
X0104717Y0086200D03*
X0104917Y0086300D03*
X0106317Y0083500D03*
X0106517Y0083600D03*
D14*
X0108567Y0085200D03*
X0108667Y0085300D03*
X0108767Y0085400D03*
X0108767Y0085500D03*
X0108867Y0085600D03*
X0108967Y0085700D03*
X0109067Y0085800D03*
X0109167Y0085900D03*
X0109367Y0086200D03*
X0106867Y0088100D03*
X0106567Y0087700D03*
X0106467Y0087600D03*
X0106367Y0087500D03*
X0106267Y0087400D03*
X0106167Y0087300D03*
X0104067Y0089700D03*
X0104167Y0089800D03*
X0104267Y0089900D03*
X0098567Y0091000D03*
X0098567Y0091100D03*
X0092967Y0102900D03*
X0092867Y0103000D03*
X0092767Y0103100D03*
X0099267Y0106100D03*
X0101467Y0104600D03*
X0078967Y0105600D03*
X0060467Y0100800D03*
X0060367Y0100900D03*
X0060267Y0101100D03*
X0060167Y0101200D03*
X0060067Y0101300D03*
X0059967Y0101400D03*
X0051967Y0101200D03*
X0051867Y0101100D03*
X0051767Y0101000D03*
X0048267Y0102600D03*
X0048167Y0102800D03*
X0051667Y0094600D03*
X0051767Y0094400D03*
X0051867Y0094300D03*
X0051967Y0094200D03*
X0052067Y0094100D03*
X0052167Y0094000D03*
X0060067Y0094200D03*
X0060167Y0094300D03*
X0060267Y0094400D03*
X0060367Y0094500D03*
D15*
X0061117Y0095900D03*
X0061217Y0096200D03*
X0061317Y0096500D03*
X0061317Y0096600D03*
X0061317Y0096700D03*
X0061417Y0097000D03*
X0061417Y0098400D03*
X0061417Y0098500D03*
X0061317Y0098800D03*
X0061317Y0098900D03*
X0061217Y0099200D03*
X0061217Y0099300D03*
X0050917Y0099400D03*
X0050817Y0099100D03*
X0050717Y0098800D03*
X0050717Y0098700D03*
X0050717Y0098600D03*
X0050717Y0098500D03*
X0050717Y0098400D03*
X0050717Y0097000D03*
X0050717Y0096900D03*
X0050717Y0096800D03*
X0050717Y0096700D03*
X0050817Y0096400D03*
X0050817Y0096300D03*
X0050917Y0096000D03*
X0048817Y0101300D03*
X0048717Y0101500D03*
X0048717Y0101600D03*
X0048617Y0101700D03*
X0048617Y0101800D03*
X0079117Y0105900D03*
X0079117Y0106000D03*
X0093317Y0102400D03*
X0093417Y0102300D03*
X0093417Y0102200D03*
X0093517Y0102100D03*
X0101817Y0104400D03*
X0101917Y0104300D03*
X0105217Y0093900D03*
X0105217Y0093800D03*
X0105217Y0093700D03*
X0105217Y0093600D03*
X0105217Y0093500D03*
X0105317Y0093300D03*
X0105317Y0093200D03*
X0105317Y0093100D03*
X0105317Y0093000D03*
X0105317Y0092900D03*
X0105317Y0092800D03*
X0105317Y0092700D03*
X0105217Y0092600D03*
X0105217Y0092500D03*
X0105217Y0092400D03*
X0105217Y0092300D03*
X0105217Y0092200D03*
X0105217Y0092100D03*
X0105217Y0092000D03*
X0105117Y0091700D03*
X0105117Y0091600D03*
X0105017Y0091300D03*
X0104917Y0091000D03*
X0107917Y0090400D03*
X0107917Y0090300D03*
X0107817Y0090000D03*
X0107717Y0089700D03*
X0108017Y0090700D03*
X0108017Y0090800D03*
X0108017Y0090900D03*
X0108117Y0091100D03*
X0108117Y0091200D03*
X0108117Y0091300D03*
X0108117Y0091400D03*
X0108117Y0091500D03*
X0108117Y0091600D03*
X0108217Y0091800D03*
X0108217Y0091900D03*
X0108217Y0092000D03*
X0108217Y0092100D03*
X0108217Y0092200D03*
X0108217Y0092300D03*
X0108217Y0092400D03*
X0108217Y0092500D03*
X0108217Y0092600D03*
X0108217Y0092700D03*
X0108217Y0092800D03*
X0108217Y0092900D03*
X0108217Y0093000D03*
X0108217Y0093100D03*
X0108217Y0093200D03*
X0108217Y0093300D03*
X0108217Y0093400D03*
X0108217Y0093500D03*
X0108217Y0093600D03*
X0108217Y0093700D03*
X0108217Y0093800D03*
X0108217Y0093900D03*
X0111217Y0093900D03*
X0111217Y0093800D03*
X0111217Y0093700D03*
X0111217Y0093600D03*
X0111317Y0093400D03*
X0111317Y0093300D03*
X0111317Y0093200D03*
X0111317Y0093100D03*
X0111317Y0093000D03*
X0111317Y0092900D03*
X0111317Y0092800D03*
X0111317Y0092700D03*
X0111317Y0092600D03*
X0111317Y0092500D03*
X0111317Y0092400D03*
X0111317Y0092300D03*
X0111217Y0092100D03*
X0111217Y0092000D03*
X0111217Y0091900D03*
X0111217Y0091800D03*
X0111217Y0091700D03*
X0111217Y0091600D03*
X0111217Y0091500D03*
X0111217Y0091400D03*
X0111217Y0091300D03*
X0111217Y0091200D03*
X0111217Y0091100D03*
X0111117Y0090900D03*
X0111117Y0090800D03*
X0111117Y0090700D03*
X0111117Y0090600D03*
X0111117Y0090500D03*
X0111017Y0090200D03*
X0111017Y0090100D03*
X0111017Y0090000D03*
X0110917Y0089700D03*
X0110917Y0089600D03*
X0110817Y0089300D03*
X0110817Y0089200D03*
X0110717Y0088900D03*
X0110617Y0088600D03*
X0110417Y0088100D03*
X0101417Y0088000D03*
X0098717Y0090600D03*
X0098717Y0090700D03*
D16*
X0097817Y0092900D03*
X0091917Y0095800D03*
X0091917Y0095900D03*
X0092017Y0096100D03*
X0091817Y0095700D03*
X0091817Y0095600D03*
X0091717Y0095500D03*
X0091717Y0095400D03*
X0091617Y0095300D03*
X0091517Y0095200D03*
X0091517Y0095100D03*
X0091417Y0095000D03*
X0091317Y0094900D03*
X0091217Y0094800D03*
X0088817Y0093400D03*
X0084517Y0101800D03*
X0084617Y0102000D03*
X0084617Y0102100D03*
X0088317Y0106000D03*
X0078217Y0103700D03*
X0066017Y0104900D03*
X0098217Y0104200D03*
X0098317Y0104300D03*
X0103017Y0085500D03*
X0102317Y0085200D03*
X0104017Y0082500D03*
X0102317Y0081900D03*
D17*
X0101917Y0081700D03*
X0105817Y0083200D03*
X0102917Y0088900D03*
X0098217Y0092000D03*
X0091917Y0103900D03*
X0099217Y0106000D03*
X0078617Y0104700D03*
X0066017Y0104300D03*
X0066017Y0104200D03*
X0058617Y0102400D03*
X0056017Y0101400D03*
X0053517Y0102400D03*
X0047617Y0103800D03*
X0047517Y0103900D03*
X0078917Y0089300D03*
X0078917Y0089200D03*
D18*
X0040467Y0105600D03*
X0040467Y0105700D03*
X0040467Y0105800D03*
X0040467Y0105900D03*
D19*
X0056067Y0099700D03*
X0065967Y0105500D03*
X0065967Y0105600D03*
X0065967Y0105700D03*
X0065967Y0105800D03*
X0065967Y0105900D03*
X0078867Y0088000D03*
X0078867Y0087900D03*
X0078867Y0087800D03*
X0078867Y0087700D03*
X0078867Y0087600D03*
X0098667Y0093900D03*
D20*
X0088817Y0093500D03*
X0078917Y0088400D03*
X0056017Y0101100D03*
X0066017Y0105100D03*
X0077817Y0102700D03*
X0085617Y0103500D03*
X0085717Y0103600D03*
X0088317Y0105900D03*
X0036817Y0104700D03*
X0036817Y0088900D03*
X0036817Y0088800D03*
D21*
X0058067Y0102600D03*
X0066067Y0104700D03*
X0078367Y0104100D03*
X0084267Y0100900D03*
X0084267Y0100800D03*
X0084167Y0100600D03*
X0084167Y0100500D03*
X0084167Y0100400D03*
X0084167Y0100300D03*
X0097967Y0100300D03*
X0097967Y0100200D03*
X0097967Y0100100D03*
X0097967Y0100000D03*
X0097967Y0099900D03*
X0097967Y0099800D03*
X0097967Y0099700D03*
X0097967Y0099600D03*
X0097967Y0099500D03*
X0097967Y0099400D03*
X0097967Y0099300D03*
X0097967Y0099200D03*
X0097967Y0099100D03*
X0097967Y0099000D03*
X0097967Y0098900D03*
X0097967Y0098800D03*
X0097967Y0098700D03*
X0097967Y0098600D03*
X0097967Y0098500D03*
X0097967Y0098400D03*
X0097967Y0098300D03*
X0097967Y0098200D03*
X0097967Y0098100D03*
X0097967Y0098000D03*
X0097967Y0097900D03*
X0097967Y0097800D03*
X0097967Y0097700D03*
X0097967Y0097600D03*
X0097967Y0097500D03*
X0097967Y0097400D03*
X0097967Y0097300D03*
X0097967Y0097200D03*
X0097967Y0097100D03*
X0097967Y0097000D03*
X0097967Y0096900D03*
X0097967Y0096800D03*
X0097967Y0096700D03*
X0097967Y0096600D03*
X0097967Y0096500D03*
X0097967Y0096400D03*
X0097967Y0096300D03*
X0097967Y0096200D03*
X0097967Y0096100D03*
X0097967Y0096000D03*
X0097967Y0095900D03*
X0097967Y0095800D03*
X0097967Y0095700D03*
X0097967Y0095600D03*
X0097967Y0095500D03*
X0097967Y0095400D03*
X0097967Y0095300D03*
X0097967Y0095200D03*
X0097967Y0095100D03*
X0097967Y0095000D03*
X0097967Y0094900D03*
X0097967Y0094800D03*
X0097967Y0094700D03*
X0097967Y0094600D03*
X0097967Y0094500D03*
X0097967Y0092600D03*
X0102167Y0088600D03*
X0103367Y0085600D03*
X0097967Y0100400D03*
X0097967Y0100500D03*
X0097967Y0100600D03*
X0097967Y0100700D03*
X0097967Y0100800D03*
X0097967Y0100900D03*
X0097967Y0101000D03*
X0097967Y0101100D03*
X0097967Y0101200D03*
X0097967Y0101300D03*
X0097967Y0101400D03*
X0097967Y0101500D03*
X0097967Y0101600D03*
X0097967Y0101700D03*
X0097967Y0101800D03*
X0097967Y0101900D03*
X0097967Y0102000D03*
X0097967Y0102100D03*
X0097967Y0102200D03*
X0097967Y0102300D03*
X0097967Y0102400D03*
X0097967Y0102500D03*
X0097967Y0102600D03*
X0097967Y0102700D03*
X0097967Y0102800D03*
X0097967Y0102900D03*
X0097967Y0103000D03*
X0097967Y0103100D03*
X0097967Y0103200D03*
X0097967Y0103300D03*
X0098067Y0103700D03*
X0099267Y0105900D03*
X0078867Y0088800D03*
X0047167Y0104300D03*
D22*
X0048467Y0102100D03*
X0048567Y0102000D03*
X0048567Y0101900D03*
X0051167Y0100100D03*
X0051167Y0100000D03*
X0051067Y0099900D03*
X0051067Y0099800D03*
X0050967Y0099700D03*
X0050967Y0099600D03*
X0050967Y0099500D03*
X0050867Y0099300D03*
X0050867Y0099200D03*
X0050767Y0099000D03*
X0050767Y0098900D03*
X0051267Y0100200D03*
X0051367Y0100400D03*
X0050767Y0096600D03*
X0050767Y0096500D03*
X0050867Y0096200D03*
X0050867Y0096100D03*
X0050967Y0095900D03*
X0050967Y0095800D03*
X0051067Y0095700D03*
X0051067Y0095600D03*
X0051167Y0095400D03*
X0051267Y0095200D03*
X0060867Y0095300D03*
X0060967Y0095500D03*
X0060967Y0095600D03*
X0061067Y0095700D03*
X0061067Y0095800D03*
X0061167Y0096000D03*
X0061167Y0096100D03*
X0061267Y0096300D03*
X0061267Y0096400D03*
X0061367Y0096800D03*
X0061367Y0096900D03*
X0061367Y0098600D03*
X0061367Y0098700D03*
X0061267Y0099000D03*
X0061267Y0099100D03*
X0061167Y0099400D03*
X0061167Y0099500D03*
X0061067Y0099600D03*
X0061067Y0099700D03*
X0060967Y0099900D03*
X0060867Y0100100D03*
X0060767Y0100300D03*
X0079067Y0105800D03*
X0093167Y0102600D03*
X0093267Y0102500D03*
X0101667Y0104500D03*
X0105267Y0093400D03*
X0105167Y0091900D03*
X0105167Y0091800D03*
X0105067Y0091500D03*
X0105067Y0091400D03*
X0104967Y0091200D03*
X0104967Y0091100D03*
X0104867Y0090900D03*
X0104867Y0090800D03*
X0104767Y0090700D03*
X0104667Y0090500D03*
X0107467Y0089200D03*
X0107467Y0089100D03*
X0107567Y0089300D03*
X0107567Y0089400D03*
X0107667Y0089500D03*
X0107667Y0089600D03*
X0107767Y0089800D03*
X0107767Y0089900D03*
X0107867Y0090100D03*
X0107867Y0090200D03*
X0107967Y0090500D03*
X0107967Y0090600D03*
X0108067Y0091000D03*
X0108167Y0091700D03*
X0111167Y0091000D03*
X0111067Y0090400D03*
X0111067Y0090300D03*
X0110967Y0089900D03*
X0110967Y0089800D03*
X0110867Y0089500D03*
X0110867Y0089400D03*
X0110767Y0089100D03*
X0110767Y0089000D03*
X0110667Y0088800D03*
X0110667Y0088700D03*
X0110567Y0088500D03*
X0110567Y0088400D03*
X0110467Y0088300D03*
X0110467Y0088200D03*
X0110367Y0088000D03*
X0110367Y0087900D03*
X0110267Y0087800D03*
X0110267Y0087700D03*
X0110167Y0087600D03*
X0110167Y0087500D03*
X0110067Y0087400D03*
X0110067Y0087300D03*
X0109967Y0087200D03*
X0109967Y0087100D03*
X0109867Y0087000D03*
X0109767Y0086800D03*
X0107067Y0088400D03*
X0107267Y0088700D03*
X0107367Y0088900D03*
X0111267Y0092200D03*
X0111267Y0093500D03*
X0098667Y0090800D03*
X0101467Y0084700D03*
D23*
X0077517Y0102000D03*
X0088317Y0105800D03*
X0099417Y0105300D03*
X0067417Y0090100D03*
X0067417Y0090000D03*
X0056017Y0094500D03*
X0036817Y0088500D03*
D24*
X0056067Y0092100D03*
X0078967Y0088600D03*
X0090967Y0094600D03*
X0091067Y0094700D03*
X0091967Y0096000D03*
X0092067Y0096200D03*
X0092067Y0096300D03*
X0092067Y0096400D03*
X0092167Y0096500D03*
X0092167Y0096600D03*
X0092167Y0096700D03*
X0092167Y0096800D03*
X0092267Y0097000D03*
X0092267Y0097100D03*
X0092267Y0097200D03*
X0092267Y0097300D03*
X0097767Y0093000D03*
X0084767Y0102300D03*
X0084767Y0102400D03*
X0084867Y0102500D03*
X0084667Y0102200D03*
X0078167Y0103600D03*
X0098367Y0104400D03*
X0099267Y0105800D03*
D25*
X0093117Y0102700D03*
X0093017Y0102800D03*
X0079017Y0105700D03*
X0061017Y0099800D03*
X0060917Y0100000D03*
X0060817Y0100200D03*
X0060717Y0100400D03*
X0060617Y0100500D03*
X0060617Y0100600D03*
X0060517Y0100700D03*
X0060317Y0101000D03*
X0051717Y0100900D03*
X0051617Y0100800D03*
X0051517Y0100700D03*
X0051517Y0100600D03*
X0051417Y0100500D03*
X0051317Y0100300D03*
X0048417Y0102200D03*
X0048417Y0102300D03*
X0048317Y0102400D03*
X0048317Y0102500D03*
X0051117Y0095500D03*
X0051217Y0095300D03*
X0051317Y0095100D03*
X0051417Y0095000D03*
X0051417Y0094900D03*
X0051517Y0094800D03*
X0051617Y0094700D03*
X0051717Y0094500D03*
X0060417Y0094600D03*
X0060517Y0094700D03*
X0060517Y0094800D03*
X0060617Y0094900D03*
X0060717Y0095000D03*
X0060717Y0095100D03*
X0060817Y0095200D03*
X0060917Y0095400D03*
X0098617Y0090900D03*
X0104317Y0090000D03*
X0104417Y0090100D03*
X0104517Y0090200D03*
X0104517Y0090300D03*
X0104617Y0090400D03*
X0104717Y0090600D03*
X0107417Y0089000D03*
X0107317Y0088800D03*
X0107217Y0088600D03*
X0107117Y0088500D03*
X0107017Y0088300D03*
X0106917Y0088200D03*
X0106817Y0088000D03*
X0106717Y0087900D03*
X0106617Y0087800D03*
X0109217Y0086000D03*
X0109317Y0086100D03*
X0109417Y0086300D03*
X0109517Y0086400D03*
X0109617Y0086500D03*
X0109617Y0086600D03*
X0109717Y0086700D03*
X0109817Y0086900D03*
D26*
X0088817Y0093700D03*
X0077317Y0101500D03*
X0088317Y0105700D03*
X0067617Y0090500D03*
X0065617Y0088100D03*
X0056017Y0100800D03*
D27*
X0056017Y0101200D03*
X0046717Y0104600D03*
X0036817Y0104300D03*
X0036817Y0089600D03*
X0036817Y0089500D03*
X0036817Y0089400D03*
X0036817Y0089300D03*
X0036817Y0089200D03*
X0066017Y0105000D03*
X0078017Y0103200D03*
X0085117Y0102900D03*
X0085217Y0103000D03*
X0090617Y0094400D03*
X0097617Y0093300D03*
X0102617Y0085400D03*
X0102517Y0082000D03*
X0078917Y0088500D03*
X0098617Y0104600D03*
X0099317Y0105700D03*
D28*
X0099567Y0104700D03*
X0088367Y0105600D03*
X0065167Y0087800D03*
X0036867Y0088300D03*
D29*
X0077867Y0102800D03*
X0077867Y0102900D03*
X0099367Y0105600D03*
X0103167Y0082300D03*
X0102667Y0082100D03*
D30*
X0040517Y0105500D03*
D31*
X0048117Y0102900D03*
X0048217Y0102700D03*
X0052017Y0101300D03*
X0052117Y0101400D03*
X0052217Y0101500D03*
X0052317Y0101600D03*
X0059717Y0101600D03*
X0059817Y0101500D03*
X0066017Y0101500D03*
X0066017Y0101400D03*
X0066017Y0101300D03*
X0066017Y0101200D03*
X0066017Y0101100D03*
X0066017Y0101000D03*
X0066017Y0100900D03*
X0066017Y0100800D03*
X0066017Y0100700D03*
X0066017Y0100600D03*
X0066017Y0100500D03*
X0066017Y0100400D03*
X0066017Y0100300D03*
X0066017Y0100200D03*
X0066017Y0100100D03*
X0066017Y0100000D03*
X0066017Y0099900D03*
X0066017Y0099800D03*
X0066017Y0099700D03*
X0066017Y0099600D03*
X0066017Y0099500D03*
X0066017Y0099400D03*
X0066017Y0099300D03*
X0066017Y0099200D03*
X0066017Y0099100D03*
X0066017Y0099000D03*
X0066017Y0098900D03*
X0066017Y0098800D03*
X0066017Y0098700D03*
X0066017Y0098600D03*
X0066017Y0098500D03*
X0066017Y0098400D03*
X0066017Y0098300D03*
X0066017Y0098200D03*
X0066017Y0098100D03*
X0066017Y0098000D03*
X0066017Y0097900D03*
X0066017Y0097800D03*
X0066017Y0097700D03*
X0066017Y0097600D03*
X0066017Y0097500D03*
X0066017Y0097400D03*
X0066017Y0097300D03*
X0066017Y0097200D03*
X0066017Y0097100D03*
X0066017Y0097000D03*
X0066017Y0096900D03*
X0066017Y0096800D03*
X0066017Y0096700D03*
X0066017Y0096600D03*
X0066017Y0096500D03*
X0066017Y0096400D03*
X0066017Y0096300D03*
X0066017Y0096200D03*
X0066017Y0096100D03*
X0066017Y0096000D03*
X0066017Y0095900D03*
X0066017Y0095800D03*
X0066017Y0095700D03*
X0066017Y0095600D03*
X0066017Y0095500D03*
X0066017Y0095400D03*
X0066017Y0095300D03*
X0066017Y0095200D03*
X0066017Y0095100D03*
X0066017Y0095000D03*
X0066017Y0094900D03*
X0066017Y0094800D03*
X0066017Y0094700D03*
X0066017Y0094600D03*
X0066017Y0094500D03*
X0066017Y0094400D03*
X0066017Y0094300D03*
X0066017Y0094200D03*
X0066017Y0094100D03*
X0066017Y0094000D03*
X0066017Y0093900D03*
X0066017Y0093800D03*
X0066017Y0093700D03*
X0066017Y0093600D03*
X0066017Y0093500D03*
X0066017Y0093400D03*
X0066017Y0093300D03*
X0066017Y0093200D03*
X0066017Y0093100D03*
X0066017Y0093000D03*
X0066017Y0092900D03*
X0066017Y0092800D03*
X0066017Y0092700D03*
X0066017Y0092600D03*
X0066017Y0092500D03*
X0066017Y0092400D03*
X0066017Y0092300D03*
X0066017Y0092200D03*
X0066017Y0092100D03*
X0066017Y0092000D03*
X0066017Y0091900D03*
X0066017Y0091800D03*
X0066017Y0091700D03*
X0066017Y0091600D03*
X0066017Y0091500D03*
X0066017Y0091400D03*
X0066017Y0091300D03*
X0066017Y0091200D03*
X0066017Y0091100D03*
X0060017Y0094100D03*
X0059917Y0094000D03*
X0059817Y0093900D03*
X0059717Y0093800D03*
X0066017Y0101600D03*
X0066017Y0101700D03*
X0066017Y0101800D03*
X0066017Y0101900D03*
X0066017Y0102000D03*
X0066017Y0102100D03*
X0066017Y0102200D03*
X0066017Y0102300D03*
X0066017Y0102400D03*
X0066017Y0102500D03*
X0066017Y0102600D03*
X0066017Y0102700D03*
X0066017Y0102800D03*
X0066017Y0102900D03*
X0078917Y0100900D03*
X0078917Y0100800D03*
X0078917Y0100700D03*
X0078917Y0100600D03*
X0078917Y0100500D03*
X0078917Y0100400D03*
X0078917Y0100300D03*
X0078917Y0100200D03*
X0078917Y0100100D03*
X0078917Y0100000D03*
X0078917Y0099900D03*
X0078917Y0099800D03*
X0078917Y0099700D03*
X0078917Y0099600D03*
X0078917Y0099500D03*
X0078917Y0099400D03*
X0078917Y0099300D03*
X0078917Y0099200D03*
X0078917Y0099100D03*
X0078917Y0099000D03*
X0078917Y0098900D03*
X0078917Y0098800D03*
X0078917Y0098700D03*
X0078917Y0098600D03*
X0078917Y0098500D03*
X0078917Y0098400D03*
X0078917Y0098300D03*
X0078917Y0098200D03*
X0078917Y0098100D03*
X0078917Y0098000D03*
X0078917Y0097900D03*
X0078917Y0097800D03*
X0078917Y0097700D03*
X0078917Y0097600D03*
X0078917Y0097500D03*
X0078917Y0097400D03*
X0078917Y0097300D03*
X0078917Y0097200D03*
X0078917Y0097100D03*
X0078917Y0097000D03*
X0078917Y0096900D03*
X0078917Y0096800D03*
X0078917Y0096700D03*
X0078917Y0096600D03*
X0078917Y0096500D03*
X0078917Y0096400D03*
X0078917Y0096300D03*
X0078917Y0096200D03*
X0078917Y0096100D03*
X0078917Y0096000D03*
X0078917Y0095900D03*
X0078917Y0095800D03*
X0078917Y0095700D03*
X0078917Y0095600D03*
X0078917Y0095500D03*
X0078917Y0095400D03*
X0078917Y0095300D03*
X0078917Y0095200D03*
X0078917Y0095100D03*
X0078917Y0095000D03*
X0078917Y0094900D03*
X0078917Y0094800D03*
X0078917Y0094700D03*
X0078917Y0094600D03*
X0078917Y0094500D03*
X0078917Y0094400D03*
X0078917Y0094300D03*
X0078917Y0094200D03*
X0078917Y0094100D03*
X0078917Y0094000D03*
X0078917Y0093900D03*
X0078917Y0093800D03*
X0078917Y0093700D03*
X0078917Y0093600D03*
X0078917Y0093500D03*
X0078917Y0093400D03*
X0078917Y0093300D03*
X0078917Y0093200D03*
X0078917Y0093100D03*
X0078917Y0093000D03*
X0078917Y0092900D03*
X0078917Y0092800D03*
X0078917Y0092700D03*
X0078917Y0092600D03*
X0078917Y0092500D03*
X0078917Y0092400D03*
X0078917Y0092300D03*
X0078917Y0092200D03*
X0078917Y0092100D03*
X0078917Y0092000D03*
X0078917Y0091900D03*
X0078917Y0091800D03*
X0078917Y0091700D03*
X0078917Y0091600D03*
X0078917Y0091500D03*
X0078917Y0091400D03*
X0078917Y0091300D03*
X0078917Y0091200D03*
X0078917Y0091100D03*
X0078917Y0091000D03*
X0078917Y0090900D03*
X0078917Y0090800D03*
X0078917Y0090700D03*
X0078917Y0090600D03*
X0098517Y0091200D03*
X0101617Y0088100D03*
X0103817Y0089500D03*
X0103917Y0089600D03*
X0106117Y0087200D03*
X0108317Y0085000D03*
X0108417Y0085100D03*
X0108217Y0084900D03*
X0108117Y0084800D03*
X0108017Y0084700D03*
X0107917Y0084600D03*
X0092717Y0103200D03*
X0092617Y0103300D03*
X0092517Y0103400D03*
X0078917Y0105400D03*
X0078917Y0105500D03*
D32*
X0088317Y0105500D03*
X0088817Y0093900D03*
X0056017Y0100500D03*
X0056017Y0102900D03*
X0045517Y0104900D03*
D33*
X0046467Y0104700D03*
X0056067Y0092200D03*
X0068567Y0091200D03*
X0068967Y0091700D03*
X0069367Y0092200D03*
X0069467Y0092300D03*
X0069867Y0092800D03*
X0070267Y0093300D03*
X0070667Y0093800D03*
X0071067Y0094300D03*
X0071167Y0094400D03*
X0071567Y0094900D03*
X0071967Y0095400D03*
X0072367Y0095900D03*
X0072867Y0096500D03*
X0073267Y0097000D03*
X0073667Y0097500D03*
X0074067Y0098000D03*
X0074167Y0098100D03*
X0074567Y0098600D03*
X0074967Y0099100D03*
X0075367Y0099600D03*
X0075767Y0100100D03*
X0075867Y0100200D03*
X0076267Y0100700D03*
X0077767Y0102600D03*
X0099367Y0105500D03*
D34*
X0040717Y0105400D03*
D35*
X0056067Y0095200D03*
X0065967Y0105400D03*
D36*
X0056067Y0095100D03*
X0036867Y0088200D03*
X0088367Y0105400D03*
X0088767Y0094000D03*
D37*
X0077617Y0102200D03*
X0067317Y0089800D03*
X0066317Y0088500D03*
X0066217Y0088400D03*
X0056017Y0101000D03*
X0056017Y0103200D03*
X0036817Y0088600D03*
X0099417Y0105400D03*
D38*
X0041017Y0105300D03*
D39*
X0056067Y0100700D03*
X0065967Y0105300D03*
X0077167Y0101100D03*
X0067767Y0090900D03*
X0065067Y0087600D03*
D40*
X0059467Y0093600D03*
X0059567Y0093700D03*
X0056067Y0094000D03*
X0056067Y0091900D03*
X0056067Y0091800D03*
X0056067Y0091700D03*
X0056067Y0091600D03*
X0056067Y0091500D03*
X0056067Y0091400D03*
X0056067Y0091300D03*
X0056067Y0091200D03*
X0056067Y0091100D03*
X0056067Y0091000D03*
X0056067Y0090900D03*
X0056067Y0090800D03*
X0056067Y0090700D03*
X0056067Y0090600D03*
X0052467Y0093700D03*
X0052367Y0093800D03*
X0052267Y0093900D03*
X0052467Y0101700D03*
X0052567Y0101800D03*
X0052667Y0101900D03*
X0056067Y0103500D03*
X0056067Y0103600D03*
X0056067Y0103700D03*
X0056067Y0103800D03*
X0056067Y0103900D03*
X0056067Y0104000D03*
X0056067Y0104100D03*
X0056067Y0104200D03*
X0056067Y0104300D03*
X0056067Y0104400D03*
X0056067Y0104500D03*
X0056067Y0104600D03*
X0056067Y0104700D03*
X0056067Y0104800D03*
X0056067Y0104900D03*
X0056067Y0105000D03*
X0056067Y0105100D03*
X0059667Y0101700D03*
X0066067Y0103000D03*
X0066067Y0103100D03*
X0078867Y0105300D03*
X0084967Y0095700D03*
X0085067Y0095500D03*
X0085167Y0095400D03*
X0085267Y0095300D03*
X0085467Y0095000D03*
X0078867Y0090500D03*
X0098467Y0091300D03*
X0098467Y0091400D03*
X0103767Y0089400D03*
X0105967Y0087100D03*
X0105867Y0087000D03*
X0105767Y0086900D03*
X0105467Y0086700D03*
X0107767Y0084500D03*
X0107667Y0084400D03*
X0107567Y0084300D03*
X0101667Y0081600D03*
X0048067Y0103000D03*
X0048067Y0103100D03*
X0047967Y0103200D03*
D41*
X0056067Y0100100D03*
X0056067Y0095300D03*
X0088367Y0105300D03*
D42*
X0041217Y0105200D03*
D43*
X0065967Y0105200D03*
X0077567Y0102100D03*
X0086167Y0103900D03*
X0088767Y0093600D03*
X0078967Y0088300D03*
X0067367Y0089900D03*
X0066067Y0088300D03*
D44*
X0059317Y0093500D03*
X0059217Y0093400D03*
X0052717Y0093500D03*
X0052617Y0093600D03*
X0052817Y0102000D03*
X0047917Y0103300D03*
X0059117Y0102100D03*
X0059217Y0102000D03*
X0059417Y0101900D03*
X0059517Y0101800D03*
X0066017Y0103200D03*
X0066017Y0103300D03*
X0066017Y0103400D03*
X0066017Y0103500D03*
X0066017Y0103600D03*
X0078817Y0105200D03*
X0084617Y0096300D03*
X0084717Y0096100D03*
X0084817Y0096000D03*
X0084817Y0095900D03*
X0084917Y0095800D03*
X0085017Y0095600D03*
X0085317Y0095200D03*
X0085417Y0095100D03*
X0085617Y0094900D03*
X0085717Y0094800D03*
X0085817Y0094700D03*
X0078917Y0090400D03*
X0078917Y0090300D03*
X0078917Y0090200D03*
X0078917Y0090100D03*
X0078917Y0090000D03*
X0078917Y0089900D03*
X0098417Y0091500D03*
X0103417Y0089200D03*
X0103617Y0089300D03*
X0105317Y0086600D03*
X0105217Y0086500D03*
X0105617Y0086800D03*
X0107417Y0084200D03*
X0107317Y0084100D03*
X0107117Y0084000D03*
X0101717Y0084800D03*
X0092417Y0103500D03*
X0092317Y0103600D03*
D45*
X0088367Y0105200D03*
X0088767Y0094200D03*
X0098867Y0093600D03*
X0056067Y0100000D03*
D46*
X0056017Y0100900D03*
X0046117Y0104800D03*
X0037117Y0104900D03*
X0067517Y0090300D03*
X0077417Y0101700D03*
X0077417Y0101800D03*
X0086317Y0104000D03*
X0099417Y0105200D03*
D47*
X0041367Y0105100D03*
D48*
X0047767Y0103500D03*
X0047867Y0103400D03*
X0052967Y0102100D03*
X0058967Y0102200D03*
X0066067Y0103700D03*
X0066067Y0103800D03*
X0078767Y0105100D03*
X0084467Y0096700D03*
X0084467Y0096600D03*
X0084567Y0096500D03*
X0084567Y0096400D03*
X0084667Y0096200D03*
X0085967Y0094600D03*
X0088867Y0093300D03*
X0098367Y0091600D03*
X0101767Y0088200D03*
X0103267Y0089100D03*
X0105067Y0086400D03*
X0106967Y0083900D03*
X0106867Y0083800D03*
X0106667Y0083700D03*
X0078867Y0089800D03*
X0059067Y0093300D03*
X0053067Y0093300D03*
X0052867Y0093400D03*
X0092167Y0103700D03*
D49*
X0088417Y0105100D03*
X0098717Y0093800D03*
X0056017Y0095700D03*
X0056017Y0099800D03*
D50*
X0056067Y0103100D03*
X0056067Y0094600D03*
X0067567Y0090400D03*
X0077367Y0101600D03*
X0099467Y0105100D03*
X0036867Y0088400D03*
D51*
X0041467Y0105000D03*
D52*
X0056017Y0099600D03*
X0056017Y0095800D03*
X0088417Y0105000D03*
X0098617Y0094400D03*
X0098617Y0094000D03*
D53*
X0086567Y0104100D03*
X0077267Y0101400D03*
X0067667Y0090700D03*
X0067667Y0090600D03*
X0099467Y0105000D03*
D54*
X0088417Y0104900D03*
X0056017Y0099400D03*
X0056017Y0096000D03*
X0036917Y0088100D03*
D55*
X0056017Y0092400D03*
X0056017Y0094700D03*
X0067717Y0090800D03*
X0078917Y0088200D03*
X0077217Y0101200D03*
X0077217Y0101300D03*
X0099517Y0104900D03*
D56*
X0085967Y0103800D03*
X0077667Y0102400D03*
X0077667Y0102300D03*
X0067267Y0089700D03*
X0067167Y0089500D03*
X0067067Y0089400D03*
X0066767Y0089000D03*
X0066667Y0088900D03*
X0066567Y0088800D03*
X0066467Y0088700D03*
X0066367Y0088600D03*
X0056067Y0094400D03*
X0036867Y0104800D03*
D57*
X0054217Y0092800D03*
X0057917Y0092800D03*
X0066017Y0104800D03*
X0078317Y0104000D03*
X0084417Y0101500D03*
X0084317Y0101200D03*
X0084317Y0101100D03*
X0084317Y0101000D03*
X0084217Y0100700D03*
X0091417Y0104100D03*
X0098017Y0103600D03*
X0098017Y0103500D03*
X0098017Y0103400D03*
X0098117Y0103800D03*
X0098117Y0103900D03*
X0097917Y0092700D03*
X0102317Y0088700D03*
X0102217Y0085100D03*
X0104317Y0082600D03*
X0078917Y0088700D03*
D58*
X0078867Y0089400D03*
X0086267Y0094400D03*
X0084267Y0097300D03*
X0078667Y0104800D03*
X0066067Y0104100D03*
X0058767Y0102300D03*
X0047667Y0103700D03*
X0053367Y0093100D03*
X0058667Y0093100D03*
X0098267Y0091900D03*
X0101867Y0088300D03*
X0104367Y0086000D03*
X0104567Y0086100D03*
X0101867Y0084900D03*
X0105967Y0083300D03*
X0106167Y0083400D03*
D59*
X0088367Y0104800D03*
X0056067Y0099100D03*
X0056067Y0096400D03*
D60*
X0056017Y0094800D03*
X0065117Y0087700D03*
X0067817Y0091000D03*
X0077117Y0101000D03*
X0088817Y0093800D03*
X0099517Y0104800D03*
X0056017Y0103000D03*
D61*
X0056017Y0099000D03*
X0056017Y0098900D03*
X0056017Y0096500D03*
X0088417Y0104700D03*
D62*
X0085517Y0103400D03*
X0085417Y0103300D03*
X0077917Y0103000D03*
X0090317Y0094300D03*
X0056017Y0094300D03*
X0036817Y0089100D03*
X0036817Y0089000D03*
X0036817Y0104600D03*
D63*
X0047267Y0104200D03*
X0049967Y0098200D03*
X0049967Y0098100D03*
X0049967Y0098000D03*
X0049967Y0097900D03*
X0049967Y0097800D03*
X0049967Y0097700D03*
X0049967Y0097600D03*
X0049967Y0097500D03*
X0049967Y0097400D03*
X0049967Y0097300D03*
X0049967Y0097200D03*
X0066067Y0104600D03*
X0078467Y0104300D03*
X0084067Y0099700D03*
X0084067Y0099600D03*
X0084067Y0099500D03*
X0084067Y0099400D03*
X0084067Y0099300D03*
X0084067Y0099200D03*
X0084067Y0099100D03*
X0084067Y0099000D03*
X0091667Y0104000D03*
X0098067Y0092400D03*
X0102067Y0088500D03*
X0103667Y0085700D03*
X0102067Y0085000D03*
X0104867Y0082800D03*
D64*
X0105367Y0083000D03*
X0105567Y0083100D03*
X0104167Y0085900D03*
X0101967Y0088400D03*
X0098167Y0092100D03*
X0086567Y0094300D03*
X0084067Y0098300D03*
X0084067Y0098400D03*
X0084067Y0098500D03*
X0084067Y0098600D03*
X0084067Y0098700D03*
X0084067Y0098800D03*
X0084067Y0098900D03*
X0078567Y0104600D03*
X0066067Y0104400D03*
X0058367Y0102500D03*
X0047467Y0104000D03*
X0053567Y0093000D03*
X0058467Y0093000D03*
D65*
X0056017Y0096800D03*
X0056017Y0096900D03*
X0056017Y0098500D03*
X0056017Y0098600D03*
X0056017Y0098700D03*
X0088417Y0104600D03*
D66*
X0085367Y0103200D03*
X0085267Y0103100D03*
X0077967Y0103100D03*
X0097567Y0093400D03*
X0056067Y0103300D03*
X0036767Y0104400D03*
X0036767Y0104500D03*
D67*
X0036817Y0103800D03*
X0036817Y0103700D03*
X0036817Y0103600D03*
X0036817Y0103500D03*
X0036817Y0103400D03*
X0036817Y0103300D03*
X0036817Y0103200D03*
X0036817Y0103100D03*
X0036817Y0103000D03*
X0036817Y0102900D03*
X0036817Y0102800D03*
X0036817Y0102700D03*
X0036817Y0102600D03*
X0036817Y0102500D03*
X0036817Y0102400D03*
X0036817Y0102300D03*
X0036817Y0102200D03*
X0036817Y0102100D03*
X0036817Y0102000D03*
X0036817Y0101900D03*
X0036817Y0101800D03*
X0036817Y0101700D03*
X0036817Y0101600D03*
X0036817Y0101500D03*
X0036817Y0101400D03*
X0036817Y0101300D03*
X0036817Y0101200D03*
X0036817Y0101100D03*
X0036817Y0101000D03*
X0036817Y0100900D03*
X0036817Y0100800D03*
X0036817Y0100700D03*
X0036817Y0100600D03*
X0036817Y0100500D03*
X0036817Y0100400D03*
X0036817Y0100300D03*
X0036817Y0100200D03*
X0036817Y0100100D03*
X0036817Y0100000D03*
X0036817Y0099900D03*
X0036817Y0099800D03*
X0036817Y0099700D03*
X0036817Y0099600D03*
X0036817Y0099500D03*
X0036817Y0099400D03*
X0036817Y0099300D03*
X0036817Y0099200D03*
X0036817Y0099100D03*
X0036817Y0099000D03*
X0036817Y0098900D03*
X0036817Y0098800D03*
X0036817Y0098700D03*
X0036817Y0098600D03*
X0036817Y0098500D03*
X0036817Y0098400D03*
X0036817Y0098300D03*
X0036817Y0098200D03*
X0036817Y0098100D03*
X0036817Y0098000D03*
X0036817Y0097900D03*
X0036817Y0097800D03*
X0036817Y0097700D03*
X0036817Y0097600D03*
X0036817Y0097500D03*
X0036817Y0097400D03*
X0036817Y0097300D03*
X0036817Y0097200D03*
X0036817Y0097100D03*
X0036817Y0097000D03*
X0036817Y0096900D03*
X0036817Y0096800D03*
X0036817Y0096700D03*
X0036817Y0096600D03*
X0036817Y0096500D03*
X0036817Y0096400D03*
X0036817Y0096300D03*
X0036817Y0096200D03*
X0036817Y0096100D03*
X0036817Y0096000D03*
X0036817Y0095900D03*
X0036817Y0095800D03*
X0036817Y0095700D03*
X0036817Y0095600D03*
X0036817Y0095500D03*
X0036817Y0095400D03*
X0036817Y0095300D03*
X0036817Y0095200D03*
X0036817Y0095100D03*
X0036817Y0095000D03*
X0036817Y0094900D03*
X0036817Y0094800D03*
X0036817Y0094700D03*
X0036817Y0094600D03*
X0036817Y0094500D03*
X0036817Y0094400D03*
X0036817Y0094300D03*
X0036817Y0094200D03*
X0036817Y0094100D03*
X0036817Y0094000D03*
X0036817Y0093900D03*
X0036817Y0093800D03*
X0036817Y0093700D03*
X0036817Y0093600D03*
X0036817Y0093500D03*
X0036817Y0093400D03*
X0036817Y0093300D03*
X0036817Y0093200D03*
X0036817Y0093100D03*
X0036817Y0093000D03*
X0036817Y0092900D03*
X0036817Y0092800D03*
X0036817Y0092700D03*
X0036817Y0092600D03*
X0036817Y0092500D03*
X0036817Y0092400D03*
X0036817Y0092300D03*
X0036817Y0092200D03*
X0036817Y0092100D03*
X0036817Y0092000D03*
X0036817Y0091900D03*
X0036817Y0091800D03*
X0036817Y0091700D03*
X0036817Y0091600D03*
X0036817Y0091500D03*
X0036817Y0091400D03*
X0036817Y0091300D03*
X0036817Y0091200D03*
X0036817Y0091100D03*
X0036817Y0091000D03*
X0036817Y0090900D03*
X0036817Y0090800D03*
X0036817Y0090700D03*
X0036817Y0090600D03*
X0036817Y0090500D03*
X0036817Y0090400D03*
X0036817Y0090300D03*
X0036817Y0090200D03*
X0036817Y0090100D03*
X0036817Y0090000D03*
X0036817Y0089900D03*
X0036817Y0089800D03*
X0036817Y0089700D03*
X0056017Y0094200D03*
X0046917Y0104500D03*
X0078117Y0103500D03*
X0084917Y0102600D03*
X0092217Y0096900D03*
X0090817Y0094500D03*
X0097717Y0093100D03*
D68*
X0098117Y0092300D03*
X0098117Y0092200D03*
X0102617Y0088800D03*
X0103917Y0085800D03*
X0105117Y0082900D03*
X0078917Y0089000D03*
X0078917Y0089100D03*
X0058217Y0092900D03*
X0053817Y0092900D03*
X0053717Y0102500D03*
X0047417Y0104100D03*
X0066017Y0104500D03*
X0078517Y0104500D03*
X0078517Y0104400D03*
D69*
X0088417Y0104500D03*
X0056017Y0098100D03*
X0056017Y0098000D03*
X0056017Y0097900D03*
X0056017Y0097800D03*
X0056017Y0097700D03*
X0056017Y0097600D03*
X0056017Y0097500D03*
X0056017Y0097400D03*
X0056017Y0097300D03*
D70*
X0036767Y0103900D03*
X0036767Y0104000D03*
X0036767Y0104100D03*
X0036767Y0104200D03*
X0078067Y0103400D03*
X0078067Y0103300D03*
X0084967Y0102700D03*
X0085067Y0102800D03*
X0098467Y0104500D03*
X0097667Y0093200D03*
X0102467Y0085300D03*
X0103667Y0082400D03*
D71*
X0097867Y0092800D03*
X0084367Y0101300D03*
X0084367Y0101400D03*
X0084467Y0101600D03*
X0084467Y0101700D03*
X0084567Y0101900D03*
X0078267Y0103800D03*
X0078267Y0103900D03*
X0098167Y0104000D03*
X0098167Y0104100D03*
X0056067Y0101300D03*
X0047067Y0104400D03*
D72*
X0088417Y0104400D03*
D73*
X0088417Y0104300D03*
D74*
X0084117Y0100200D03*
X0084117Y0100100D03*
X0084117Y0100000D03*
X0084117Y0099900D03*
X0084117Y0099800D03*
X0078417Y0104200D03*
X0062117Y0098300D03*
X0062117Y0098200D03*
X0062117Y0098100D03*
X0062117Y0098000D03*
X0062117Y0097900D03*
X0062117Y0097800D03*
X0062117Y0097700D03*
X0062117Y0097600D03*
X0062117Y0097500D03*
X0062117Y0097400D03*
X0062117Y0097300D03*
X0062117Y0097200D03*
X0062117Y0097100D03*
X0056017Y0094100D03*
X0050017Y0097100D03*
X0050017Y0098300D03*
X0054017Y0102600D03*
X0056017Y0103400D03*
X0078917Y0088900D03*
X0098017Y0092500D03*
X0104617Y0082700D03*
X0102117Y0081800D03*
D75*
X0088467Y0104200D03*
D76*
X0102167Y0103800D03*
X0098967Y0090000D03*
X0098967Y0089900D03*
X0101167Y0087900D03*
D77*
X0102817Y0082200D03*
X0074917Y0099000D03*
X0074817Y0098900D03*
X0074717Y0098800D03*
X0074617Y0098700D03*
X0074517Y0098500D03*
X0074417Y0098400D03*
X0074317Y0098300D03*
X0074217Y0098200D03*
X0074017Y0097900D03*
X0073917Y0097800D03*
X0073817Y0097700D03*
X0073717Y0097600D03*
X0073617Y0097400D03*
X0073517Y0097300D03*
X0073417Y0097200D03*
X0073317Y0097100D03*
X0073217Y0096900D03*
X0073117Y0096800D03*
X0073017Y0096700D03*
X0072917Y0096600D03*
X0072817Y0096400D03*
X0072717Y0096300D03*
X0072617Y0096200D03*
X0072517Y0096100D03*
X0072417Y0096000D03*
X0072317Y0095800D03*
X0072217Y0095700D03*
X0072117Y0095600D03*
X0072017Y0095500D03*
X0071917Y0095300D03*
X0071817Y0095200D03*
X0071717Y0095100D03*
X0071617Y0095000D03*
X0071517Y0094800D03*
X0071417Y0094700D03*
X0071317Y0094600D03*
X0071217Y0094500D03*
X0071017Y0094200D03*
X0070917Y0094100D03*
X0070817Y0094000D03*
X0070717Y0093900D03*
X0070617Y0093700D03*
X0070517Y0093600D03*
X0070417Y0093500D03*
X0070317Y0093400D03*
X0070217Y0093200D03*
X0070117Y0093100D03*
X0070017Y0093000D03*
X0069917Y0092900D03*
X0069817Y0092700D03*
X0069717Y0092600D03*
X0069617Y0092500D03*
X0069517Y0092400D03*
X0069317Y0092100D03*
X0069217Y0092000D03*
X0069117Y0091900D03*
X0069017Y0091800D03*
X0068917Y0091600D03*
X0068817Y0091500D03*
X0068717Y0091400D03*
X0068617Y0091300D03*
X0068517Y0091100D03*
X0067217Y0089600D03*
X0067017Y0089300D03*
X0066917Y0089200D03*
X0066817Y0089100D03*
X0075017Y0099200D03*
X0075117Y0099300D03*
X0075217Y0099400D03*
X0075317Y0099500D03*
X0075417Y0099700D03*
X0075517Y0099800D03*
X0075617Y0099900D03*
X0075717Y0100000D03*
X0075917Y0100300D03*
X0076017Y0100400D03*
X0076117Y0100500D03*
X0076217Y0100600D03*
X0076317Y0100800D03*
X0076417Y0100900D03*
X0077717Y0102500D03*
X0085817Y0103700D03*
X0036817Y0088700D03*
D78*
X0102167Y0103700D03*
D79*
X0078917Y0088100D03*
X0056017Y0100300D03*
X0056017Y0102800D03*
D80*
X0056017Y0102700D03*
X0056017Y0095400D03*
X0098917Y0093500D03*
D81*
X0077467Y0101900D03*
X0067467Y0090200D03*
X0065867Y0088200D03*
X0056067Y0092300D03*
D82*
X0093717Y0101400D03*
X0101117Y0084600D03*
D83*
X0065217Y0087900D03*
X0065217Y0088000D03*
X0056017Y0092500D03*
X0056017Y0100600D03*
D84*
X0056017Y0100400D03*
X0056017Y0092600D03*
D85*
X0056017Y0092700D03*
X0056017Y0100200D03*
X0088817Y0094100D03*
D86*
X0056017Y0095500D03*
X0056017Y0099900D03*
D87*
X0056067Y0099500D03*
X0056067Y0095900D03*
X0098567Y0094300D03*
X0098567Y0094200D03*
X0098567Y0094100D03*
D88*
X0056067Y0096100D03*
X0056067Y0099300D03*
D89*
X0056017Y0099200D03*
X0056017Y0096300D03*
X0056017Y0096200D03*
D90*
X0056067Y0096600D03*
X0056067Y0096700D03*
X0056067Y0098800D03*
D91*
X0056067Y0098400D03*
X0056067Y0098300D03*
X0056067Y0098200D03*
X0056067Y0097200D03*
X0056067Y0097100D03*
X0056067Y0097000D03*
D92*
X0088467Y0097900D03*
X0088467Y0098000D03*
X0088467Y0098100D03*
X0088467Y0098200D03*
D93*
X0088517Y0097800D03*
X0088517Y0097700D03*
X0088517Y0097600D03*
D94*
X0088567Y0097500D03*
X0088567Y0097400D03*
D95*
X0098767Y0093700D03*
X0056067Y0095600D03*
D96*
X0056067Y0095000D03*
D97*
X0056067Y0094900D03*
D98*
X0098917Y0090100D03*
D99*
X0036967Y0088000D03*
X0036967Y0087900D03*
X0036967Y0087800D03*
X0036967Y0087700D03*
X0036967Y0087600D03*
D100*
X0024367Y0015002D02*
X0024367Y0013601D01*
X0025067Y0012900D01*
X0027870Y0012900D01*
X0028570Y0013601D01*
X0028570Y0015002D01*
X0027870Y0015702D01*
X0026468Y0015702D02*
X0026468Y0014301D01*
X0026468Y0015702D02*
X0025067Y0015702D01*
X0024367Y0015002D01*
X0025067Y0017504D02*
X0024367Y0018205D01*
X0024367Y0019606D01*
X0025067Y0020306D01*
X0025768Y0020306D01*
X0026468Y0019606D01*
X0026468Y0018205D01*
X0027169Y0017504D01*
X0027870Y0017504D01*
X0028570Y0018205D01*
X0028570Y0019606D01*
X0027870Y0020306D01*
X0028570Y0022108D02*
X0024367Y0022108D01*
X0027169Y0023509D02*
X0028570Y0024910D01*
X0024367Y0024910D01*
X0024367Y0026712D02*
X0028570Y0029514D01*
X0027870Y0031316D02*
X0025067Y0031316D01*
X0024367Y0032016D01*
X0024367Y0033417D01*
X0025067Y0034118D01*
X0026468Y0034118D01*
X0026468Y0032717D01*
X0027870Y0034118D02*
X0028570Y0033417D01*
X0028570Y0032016D01*
X0027870Y0031316D01*
X0028570Y0035920D02*
X0024367Y0035920D01*
X0025768Y0035920D02*
X0025768Y0038021D01*
X0026468Y0038722D01*
X0027870Y0038722D01*
X0028570Y0038021D01*
X0028570Y0035920D01*
X0028570Y0040524D02*
X0024367Y0040524D01*
X0025768Y0040524D02*
X0025768Y0042625D01*
X0026468Y0043326D01*
X0027870Y0043326D01*
X0028570Y0042625D01*
X0028570Y0040524D01*
X0025768Y0041925D02*
X0024367Y0043326D01*
X0025067Y0045127D02*
X0024367Y0045828D01*
X0024367Y0047229D01*
X0025067Y0047930D01*
X0025768Y0047930D01*
X0026468Y0047229D01*
X0026468Y0045828D01*
X0027169Y0045127D01*
X0027870Y0045127D01*
X0028570Y0045828D01*
X0028570Y0047229D01*
X0027870Y0047930D01*
X0024367Y0049731D02*
X0028570Y0052534D01*
X0027870Y0054335D02*
X0025067Y0054335D01*
X0024367Y0055036D01*
X0024367Y0056437D01*
X0025067Y0057138D01*
X0026468Y0057138D01*
X0026468Y0055737D01*
X0027870Y0057138D02*
X0028570Y0056437D01*
X0028570Y0055036D01*
X0027870Y0054335D01*
X0028570Y0058939D02*
X0024367Y0058939D01*
X0025768Y0058939D02*
X0025768Y0061041D01*
X0026468Y0061742D01*
X0027870Y0061742D01*
X0028570Y0061041D01*
X0028570Y0058939D01*
X0027870Y0063543D02*
X0027169Y0063543D01*
X0026468Y0064244D01*
X0026468Y0065645D01*
X0025768Y0066346D01*
X0025067Y0066346D01*
X0024367Y0065645D01*
X0024367Y0064244D01*
X0025067Y0063543D01*
X0027870Y0063543D02*
X0028570Y0064244D01*
X0028570Y0065645D01*
X0027870Y0066346D01*
X0028570Y0072751D02*
X0024367Y0072751D01*
X0024367Y0074853D01*
X0025067Y0075553D01*
X0025768Y0075553D01*
X0026468Y0074853D01*
X0026468Y0072751D01*
X0026468Y0074853D02*
X0027169Y0075553D01*
X0027870Y0075553D01*
X0028570Y0074853D01*
X0028570Y0072751D01*
X0028570Y0077355D02*
X0024367Y0077355D01*
X0025768Y0077355D02*
X0025768Y0079457D01*
X0026468Y0080157D01*
X0027870Y0080157D01*
X0028570Y0079457D01*
X0028570Y0077355D01*
X0025768Y0078756D02*
X0024367Y0080157D01*
X0024367Y0081959D02*
X0024367Y0084761D01*
X0024367Y0086563D02*
X0027169Y0086563D01*
X0028570Y0087964D01*
X0027169Y0089365D01*
X0024367Y0089365D01*
X0024367Y0091167D02*
X0028570Y0091167D01*
X0026468Y0091867D02*
X0024367Y0093969D01*
X0025067Y0095771D02*
X0024367Y0096471D01*
X0024367Y0097872D01*
X0025067Y0098573D01*
X0027870Y0098573D01*
X0028570Y0097872D01*
X0028570Y0096471D01*
X0027870Y0095771D01*
X0025067Y0095771D01*
X0028570Y0093969D02*
X0025768Y0091167D01*
X0026468Y0089365D02*
X0026468Y0086563D01*
X0028570Y0084761D02*
X0028570Y0081959D01*
X0024367Y0081959D01*
X0026468Y0081959D02*
X0026468Y0083360D01*
X0016470Y0083145D02*
X0013267Y0083145D01*
X0014869Y0081544D02*
X0014869Y0084746D01*
X0025067Y0100375D02*
X0024367Y0101075D01*
X0024367Y0102476D01*
X0025067Y0103177D01*
X0028570Y0103177D01*
X0028570Y0104978D02*
X0028570Y0107781D01*
X0028570Y0106380D02*
X0024367Y0106380D01*
X0025067Y0100375D02*
X0028570Y0100375D01*
X0054820Y0076158D02*
X0054820Y0060804D01*
X0075875Y0060804D01*
X0075875Y0023796D01*
X0054820Y0023796D01*
X0054820Y0008442D01*
X0164458Y0008442D01*
X0164458Y0012280D01*
X0173749Y0012280D01*
X0173749Y0023796D01*
X0164458Y0023796D01*
X0164458Y0060804D01*
X0173749Y0060804D01*
X0173749Y0072320D01*
X0164458Y0072320D01*
X0164458Y0076158D01*
X0054820Y0076158D01*
X0015168Y0058898D02*
X0015168Y0056096D01*
X0027169Y0023509D02*
X0028570Y0022108D01*
X0129883Y0101396D02*
X0129883Y0105600D01*
X0127781Y0105600D01*
X0127080Y0104899D01*
X0127080Y0103498D01*
X0127781Y0102798D01*
X0129883Y0102798D01*
X0131684Y0103498D02*
X0132385Y0102798D01*
X0133786Y0102798D01*
X0134487Y0103498D01*
X0134487Y0104199D01*
X0131684Y0104199D01*
X0131684Y0104899D02*
X0131684Y0103498D01*
X0131684Y0104899D02*
X0132385Y0105600D01*
X0133786Y0105600D01*
X0136288Y0104899D02*
X0136288Y0103498D01*
X0136989Y0102798D01*
X0138390Y0102798D01*
X0139091Y0103498D01*
X0139091Y0104199D01*
X0136288Y0104199D01*
X0136288Y0104899D02*
X0136989Y0105600D01*
X0138390Y0105600D01*
X0140892Y0104899D02*
X0140892Y0103498D01*
X0141593Y0102798D01*
X0143695Y0102798D01*
X0143695Y0106301D01*
X0142994Y0107001D01*
X0142293Y0107001D01*
X0141593Y0105600D02*
X0143695Y0105600D01*
X0145496Y0104899D02*
X0146197Y0105600D01*
X0147598Y0105600D01*
X0148298Y0104899D01*
X0148298Y0103498D01*
X0147598Y0102798D01*
X0146197Y0102798D01*
X0145496Y0103498D01*
X0145496Y0104899D01*
X0141593Y0105600D02*
X0140892Y0104899D01*
X0150100Y0104899D02*
X0150100Y0102798D01*
X0150100Y0104899D02*
X0150801Y0105600D01*
X0152902Y0105600D01*
X0152902Y0102798D01*
X0154704Y0104899D02*
X0155405Y0104899D01*
X0155405Y0105600D01*
X0154704Y0105600D01*
X0154704Y0104899D01*
X0157006Y0104899D02*
X0157706Y0105600D01*
X0159808Y0105600D01*
X0161610Y0104899D02*
X0161610Y0103498D01*
X0162310Y0102798D01*
X0163712Y0102798D01*
X0164412Y0103498D01*
X0164412Y0104899D01*
X0163712Y0105600D01*
X0162310Y0105600D01*
X0161610Y0104899D01*
X0159808Y0102798D02*
X0157706Y0102798D01*
X0157006Y0103498D01*
X0157006Y0104899D01*
X0166214Y0105600D02*
X0166214Y0102798D01*
X0166914Y0102798D01*
X0167615Y0103498D01*
X0168316Y0102798D01*
X0169016Y0103498D01*
X0169016Y0105600D01*
X0167615Y0105600D02*
X0167615Y0103498D01*
X0125479Y0104899D02*
X0125479Y0105600D01*
X0124778Y0105600D01*
X0124778Y0104899D01*
X0125479Y0104899D01*
X0122977Y0104899D02*
X0122977Y0102798D01*
X0122977Y0104899D02*
X0122276Y0105600D01*
X0121576Y0104899D01*
X0120875Y0105600D01*
X0120175Y0104899D01*
X0120175Y0102798D01*
X0118373Y0102798D02*
X0118373Y0104899D01*
X0117672Y0105600D01*
X0116972Y0104899D01*
X0116271Y0105600D01*
X0115571Y0104899D01*
X0115571Y0102798D01*
X0113769Y0102798D02*
X0113769Y0104899D01*
X0113068Y0105600D01*
X0112368Y0104899D01*
X0111667Y0105600D01*
X0110967Y0104899D01*
X0110967Y0102798D01*
D101*
X0119202Y0093363D02*
X0119202Y0081158D01*
X0135738Y0081158D01*
X0135738Y0093363D01*
X0119202Y0093363D01*
X0148320Y0093359D02*
X0148320Y0088241D01*
X0155013Y0088241D01*
X0155013Y0093359D01*
X0148320Y0093359D01*
X0152848Y0093162D02*
X0152848Y0088438D01*
X0153241Y0088438D02*
X0153241Y0093162D01*
X0152848Y0093162D01*
X0152848Y0086162D02*
X0152848Y0081438D01*
X0153241Y0081438D02*
X0153241Y0086162D01*
X0152848Y0086162D01*
X0155013Y0086359D02*
X0148320Y0086359D01*
X0148320Y0081241D01*
X0155013Y0081241D01*
X0155013Y0086359D01*
X0079167Y0122800D02*
X0075167Y0122800D01*
X0074252Y0122800D02*
X0074254Y0122908D01*
X0074260Y0123015D01*
X0074270Y0123123D01*
X0074284Y0123229D01*
X0074302Y0123336D01*
X0074323Y0123441D01*
X0074349Y0123546D01*
X0074378Y0123649D01*
X0074412Y0123752D01*
X0074449Y0123853D01*
X0074490Y0123953D01*
X0074534Y0124051D01*
X0074582Y0124147D01*
X0074634Y0124242D01*
X0074689Y0124335D01*
X0074747Y0124425D01*
X0074809Y0124513D01*
X0074874Y0124599D01*
X0074942Y0124683D01*
X0075013Y0124764D01*
X0075087Y0124842D01*
X0075164Y0124918D01*
X0075243Y0124990D01*
X0075326Y0125060D01*
X0075410Y0125126D01*
X0075497Y0125190D01*
X0075587Y0125250D01*
X0075679Y0125306D01*
X0075772Y0125360D01*
X0075868Y0125409D01*
X0075965Y0125456D01*
X0076064Y0125498D01*
X0076164Y0125537D01*
X0076266Y0125572D01*
X0076369Y0125604D01*
X0076473Y0125631D01*
X0076579Y0125655D01*
X0076684Y0125675D01*
X0076791Y0125691D01*
X0076898Y0125703D01*
X0077005Y0125711D01*
X0077113Y0125715D01*
X0077221Y0125715D01*
X0077329Y0125711D01*
X0077436Y0125703D01*
X0077543Y0125691D01*
X0077650Y0125675D01*
X0077755Y0125655D01*
X0077861Y0125631D01*
X0077965Y0125604D01*
X0078068Y0125572D01*
X0078170Y0125537D01*
X0078270Y0125498D01*
X0078369Y0125456D01*
X0078466Y0125409D01*
X0078562Y0125360D01*
X0078655Y0125306D01*
X0078747Y0125250D01*
X0078837Y0125190D01*
X0078924Y0125126D01*
X0079008Y0125060D01*
X0079091Y0124990D01*
X0079170Y0124918D01*
X0079247Y0124842D01*
X0079321Y0124764D01*
X0079392Y0124683D01*
X0079460Y0124599D01*
X0079525Y0124513D01*
X0079587Y0124425D01*
X0079645Y0124335D01*
X0079700Y0124242D01*
X0079752Y0124147D01*
X0079800Y0124051D01*
X0079844Y0123953D01*
X0079885Y0123853D01*
X0079922Y0123752D01*
X0079956Y0123649D01*
X0079985Y0123546D01*
X0080011Y0123441D01*
X0080032Y0123336D01*
X0080050Y0123229D01*
X0080064Y0123123D01*
X0080074Y0123015D01*
X0080080Y0122908D01*
X0080082Y0122800D01*
X0080080Y0122692D01*
X0080074Y0122585D01*
X0080064Y0122477D01*
X0080050Y0122371D01*
X0080032Y0122264D01*
X0080011Y0122159D01*
X0079985Y0122054D01*
X0079956Y0121951D01*
X0079922Y0121848D01*
X0079885Y0121747D01*
X0079844Y0121647D01*
X0079800Y0121549D01*
X0079752Y0121453D01*
X0079700Y0121358D01*
X0079645Y0121265D01*
X0079587Y0121175D01*
X0079525Y0121087D01*
X0079460Y0121001D01*
X0079392Y0120917D01*
X0079321Y0120836D01*
X0079247Y0120758D01*
X0079170Y0120682D01*
X0079091Y0120610D01*
X0079008Y0120540D01*
X0078924Y0120474D01*
X0078837Y0120410D01*
X0078747Y0120350D01*
X0078655Y0120294D01*
X0078562Y0120240D01*
X0078466Y0120191D01*
X0078369Y0120144D01*
X0078270Y0120102D01*
X0078170Y0120063D01*
X0078068Y0120028D01*
X0077965Y0119996D01*
X0077861Y0119969D01*
X0077755Y0119945D01*
X0077650Y0119925D01*
X0077543Y0119909D01*
X0077436Y0119897D01*
X0077329Y0119889D01*
X0077221Y0119885D01*
X0077113Y0119885D01*
X0077005Y0119889D01*
X0076898Y0119897D01*
X0076791Y0119909D01*
X0076684Y0119925D01*
X0076579Y0119945D01*
X0076473Y0119969D01*
X0076369Y0119996D01*
X0076266Y0120028D01*
X0076164Y0120063D01*
X0076064Y0120102D01*
X0075965Y0120144D01*
X0075868Y0120191D01*
X0075772Y0120240D01*
X0075679Y0120294D01*
X0075587Y0120350D01*
X0075497Y0120410D01*
X0075410Y0120474D01*
X0075326Y0120540D01*
X0075243Y0120610D01*
X0075164Y0120682D01*
X0075087Y0120758D01*
X0075013Y0120836D01*
X0074942Y0120917D01*
X0074874Y0121001D01*
X0074809Y0121087D01*
X0074747Y0121175D01*
X0074689Y0121265D01*
X0074634Y0121358D01*
X0074582Y0121453D01*
X0074534Y0121549D01*
X0074490Y0121647D01*
X0074449Y0121747D01*
X0074412Y0121848D01*
X0074378Y0121951D01*
X0074349Y0122054D01*
X0074323Y0122159D01*
X0074302Y0122264D01*
X0074284Y0122371D01*
X0074270Y0122477D01*
X0074260Y0122585D01*
X0074254Y0122692D01*
X0074252Y0122800D01*
X0074254Y0122908D01*
X0074260Y0123015D01*
X0074270Y0123123D01*
X0074284Y0123229D01*
X0074302Y0123336D01*
X0074323Y0123441D01*
X0074349Y0123546D01*
X0074378Y0123649D01*
X0074412Y0123752D01*
X0074449Y0123853D01*
X0074490Y0123953D01*
X0074534Y0124051D01*
X0074582Y0124147D01*
X0074634Y0124242D01*
X0074689Y0124335D01*
X0074747Y0124425D01*
X0074809Y0124513D01*
X0074874Y0124599D01*
X0074942Y0124683D01*
X0075013Y0124764D01*
X0075087Y0124842D01*
X0075164Y0124918D01*
X0075243Y0124990D01*
X0075326Y0125060D01*
X0075410Y0125126D01*
X0075497Y0125190D01*
X0075587Y0125250D01*
X0075679Y0125306D01*
X0075772Y0125360D01*
X0075868Y0125409D01*
X0075965Y0125456D01*
X0076064Y0125498D01*
X0076164Y0125537D01*
X0076266Y0125572D01*
X0076369Y0125604D01*
X0076473Y0125631D01*
X0076579Y0125655D01*
X0076684Y0125675D01*
X0076791Y0125691D01*
X0076898Y0125703D01*
X0077005Y0125711D01*
X0077113Y0125715D01*
X0077221Y0125715D01*
X0077329Y0125711D01*
X0077436Y0125703D01*
X0077543Y0125691D01*
X0077650Y0125675D01*
X0077755Y0125655D01*
X0077861Y0125631D01*
X0077965Y0125604D01*
X0078068Y0125572D01*
X0078170Y0125537D01*
X0078270Y0125498D01*
X0078369Y0125456D01*
X0078466Y0125409D01*
X0078562Y0125360D01*
X0078655Y0125306D01*
X0078747Y0125250D01*
X0078837Y0125190D01*
X0078924Y0125126D01*
X0079008Y0125060D01*
X0079091Y0124990D01*
X0079170Y0124918D01*
X0079247Y0124842D01*
X0079321Y0124764D01*
X0079392Y0124683D01*
X0079460Y0124599D01*
X0079525Y0124513D01*
X0079587Y0124425D01*
X0079645Y0124335D01*
X0079700Y0124242D01*
X0079752Y0124147D01*
X0079800Y0124051D01*
X0079844Y0123953D01*
X0079885Y0123853D01*
X0079922Y0123752D01*
X0079956Y0123649D01*
X0079985Y0123546D01*
X0080011Y0123441D01*
X0080032Y0123336D01*
X0080050Y0123229D01*
X0080064Y0123123D01*
X0080074Y0123015D01*
X0080080Y0122908D01*
X0080082Y0122800D01*
X0080080Y0122692D01*
X0080074Y0122585D01*
X0080064Y0122477D01*
X0080050Y0122371D01*
X0080032Y0122264D01*
X0080011Y0122159D01*
X0079985Y0122054D01*
X0079956Y0121951D01*
X0079922Y0121848D01*
X0079885Y0121747D01*
X0079844Y0121647D01*
X0079800Y0121549D01*
X0079752Y0121453D01*
X0079700Y0121358D01*
X0079645Y0121265D01*
X0079587Y0121175D01*
X0079525Y0121087D01*
X0079460Y0121001D01*
X0079392Y0120917D01*
X0079321Y0120836D01*
X0079247Y0120758D01*
X0079170Y0120682D01*
X0079091Y0120610D01*
X0079008Y0120540D01*
X0078924Y0120474D01*
X0078837Y0120410D01*
X0078747Y0120350D01*
X0078655Y0120294D01*
X0078562Y0120240D01*
X0078466Y0120191D01*
X0078369Y0120144D01*
X0078270Y0120102D01*
X0078170Y0120063D01*
X0078068Y0120028D01*
X0077965Y0119996D01*
X0077861Y0119969D01*
X0077755Y0119945D01*
X0077650Y0119925D01*
X0077543Y0119909D01*
X0077436Y0119897D01*
X0077329Y0119889D01*
X0077221Y0119885D01*
X0077113Y0119885D01*
X0077005Y0119889D01*
X0076898Y0119897D01*
X0076791Y0119909D01*
X0076684Y0119925D01*
X0076579Y0119945D01*
X0076473Y0119969D01*
X0076369Y0119996D01*
X0076266Y0120028D01*
X0076164Y0120063D01*
X0076064Y0120102D01*
X0075965Y0120144D01*
X0075868Y0120191D01*
X0075772Y0120240D01*
X0075679Y0120294D01*
X0075587Y0120350D01*
X0075497Y0120410D01*
X0075410Y0120474D01*
X0075326Y0120540D01*
X0075243Y0120610D01*
X0075164Y0120682D01*
X0075087Y0120758D01*
X0075013Y0120836D01*
X0074942Y0120917D01*
X0074874Y0121001D01*
X0074809Y0121087D01*
X0074747Y0121175D01*
X0074689Y0121265D01*
X0074634Y0121358D01*
X0074582Y0121453D01*
X0074534Y0121549D01*
X0074490Y0121647D01*
X0074449Y0121747D01*
X0074412Y0121848D01*
X0074378Y0121951D01*
X0074349Y0122054D01*
X0074323Y0122159D01*
X0074302Y0122264D01*
X0074284Y0122371D01*
X0074270Y0122477D01*
X0074260Y0122585D01*
X0074254Y0122692D01*
X0074252Y0122800D01*
X0077167Y0120800D02*
X0077167Y0124800D01*
X0077167Y0125800D02*
X0077167Y0133800D01*
X0076167Y0132300D01*
X0077167Y0133800D02*
X0078167Y0132300D01*
X0077167Y0136300D02*
X0077667Y0136800D01*
X0077167Y0137300D01*
X0076667Y0136800D01*
X0077167Y0136300D01*
X0077167Y0137300D01*
X0076460Y0136800D02*
X0076462Y0136853D01*
X0076468Y0136905D01*
X0076478Y0136957D01*
X0076491Y0137008D01*
X0076509Y0137058D01*
X0076530Y0137107D01*
X0076555Y0137154D01*
X0076583Y0137198D01*
X0076614Y0137241D01*
X0076649Y0137281D01*
X0076686Y0137318D01*
X0076726Y0137353D01*
X0076769Y0137384D01*
X0076814Y0137412D01*
X0076860Y0137437D01*
X0076909Y0137458D01*
X0076959Y0137476D01*
X0077010Y0137489D01*
X0077062Y0137499D01*
X0077114Y0137505D01*
X0077167Y0137507D01*
X0077220Y0137505D01*
X0077272Y0137499D01*
X0077324Y0137489D01*
X0077375Y0137476D01*
X0077425Y0137458D01*
X0077474Y0137437D01*
X0077521Y0137412D01*
X0077565Y0137384D01*
X0077608Y0137353D01*
X0077648Y0137318D01*
X0077685Y0137281D01*
X0077720Y0137241D01*
X0077751Y0137198D01*
X0077779Y0137153D01*
X0077804Y0137107D01*
X0077825Y0137058D01*
X0077843Y0137008D01*
X0077856Y0136957D01*
X0077866Y0136905D01*
X0077872Y0136853D01*
X0077874Y0136800D01*
X0077872Y0136747D01*
X0077866Y0136695D01*
X0077856Y0136643D01*
X0077843Y0136592D01*
X0077825Y0136542D01*
X0077804Y0136493D01*
X0077779Y0136446D01*
X0077751Y0136402D01*
X0077720Y0136359D01*
X0077685Y0136319D01*
X0077648Y0136282D01*
X0077608Y0136247D01*
X0077565Y0136216D01*
X0077520Y0136188D01*
X0077474Y0136163D01*
X0077425Y0136142D01*
X0077375Y0136124D01*
X0077324Y0136111D01*
X0077272Y0136101D01*
X0077220Y0136095D01*
X0077167Y0136093D01*
X0077114Y0136095D01*
X0077062Y0136101D01*
X0077010Y0136111D01*
X0076959Y0136124D01*
X0076909Y0136142D01*
X0076860Y0136163D01*
X0076813Y0136188D01*
X0076769Y0136216D01*
X0076726Y0136247D01*
X0076686Y0136282D01*
X0076649Y0136319D01*
X0076614Y0136359D01*
X0076583Y0136402D01*
X0076555Y0136447D01*
X0076530Y0136493D01*
X0076509Y0136542D01*
X0076491Y0136592D01*
X0076478Y0136643D01*
X0076468Y0136695D01*
X0076462Y0136747D01*
X0076460Y0136800D01*
X0074474Y0136800D02*
X0074476Y0136903D01*
X0074482Y0137006D01*
X0074492Y0137109D01*
X0074506Y0137211D01*
X0074523Y0137313D01*
X0074545Y0137414D01*
X0074570Y0137514D01*
X0074600Y0137613D01*
X0074633Y0137710D01*
X0074669Y0137807D01*
X0074710Y0137902D01*
X0074754Y0137995D01*
X0074801Y0138086D01*
X0074852Y0138176D01*
X0074907Y0138264D01*
X0074964Y0138349D01*
X0075025Y0138433D01*
X0075089Y0138513D01*
X0075157Y0138592D01*
X0075227Y0138667D01*
X0075300Y0138740D01*
X0075375Y0138810D01*
X0075454Y0138878D01*
X0075534Y0138942D01*
X0075618Y0139003D01*
X0075703Y0139060D01*
X0075791Y0139115D01*
X0075881Y0139166D01*
X0075972Y0139213D01*
X0076065Y0139257D01*
X0076160Y0139298D01*
X0076257Y0139334D01*
X0076354Y0139367D01*
X0076453Y0139397D01*
X0076553Y0139422D01*
X0076654Y0139444D01*
X0076756Y0139461D01*
X0076858Y0139475D01*
X0076961Y0139485D01*
X0077064Y0139491D01*
X0077167Y0139493D01*
X0077270Y0139491D01*
X0077373Y0139485D01*
X0077476Y0139475D01*
X0077578Y0139461D01*
X0077680Y0139444D01*
X0077781Y0139422D01*
X0077881Y0139397D01*
X0077980Y0139367D01*
X0078077Y0139334D01*
X0078174Y0139298D01*
X0078269Y0139257D01*
X0078362Y0139213D01*
X0078453Y0139166D01*
X0078543Y0139115D01*
X0078631Y0139060D01*
X0078716Y0139003D01*
X0078800Y0138942D01*
X0078880Y0138878D01*
X0078959Y0138810D01*
X0079034Y0138740D01*
X0079107Y0138667D01*
X0079177Y0138592D01*
X0079245Y0138513D01*
X0079309Y0138433D01*
X0079370Y0138349D01*
X0079427Y0138264D01*
X0079482Y0138176D01*
X0079533Y0138086D01*
X0079580Y0137995D01*
X0079624Y0137902D01*
X0079665Y0137807D01*
X0079701Y0137710D01*
X0079734Y0137613D01*
X0079764Y0137514D01*
X0079789Y0137414D01*
X0079811Y0137313D01*
X0079828Y0137211D01*
X0079842Y0137109D01*
X0079852Y0137006D01*
X0079858Y0136903D01*
X0079860Y0136800D01*
X0079858Y0136697D01*
X0079852Y0136594D01*
X0079842Y0136491D01*
X0079828Y0136389D01*
X0079811Y0136287D01*
X0079789Y0136186D01*
X0079764Y0136086D01*
X0079734Y0135987D01*
X0079701Y0135890D01*
X0079665Y0135793D01*
X0079624Y0135698D01*
X0079580Y0135605D01*
X0079533Y0135514D01*
X0079482Y0135424D01*
X0079427Y0135336D01*
X0079370Y0135251D01*
X0079309Y0135167D01*
X0079245Y0135087D01*
X0079177Y0135008D01*
X0079107Y0134933D01*
X0079034Y0134860D01*
X0078959Y0134790D01*
X0078880Y0134722D01*
X0078800Y0134658D01*
X0078716Y0134597D01*
X0078631Y0134540D01*
X0078543Y0134485D01*
X0078453Y0134434D01*
X0078362Y0134387D01*
X0078269Y0134343D01*
X0078174Y0134302D01*
X0078077Y0134266D01*
X0077980Y0134233D01*
X0077881Y0134203D01*
X0077781Y0134178D01*
X0077680Y0134156D01*
X0077578Y0134139D01*
X0077476Y0134125D01*
X0077373Y0134115D01*
X0077270Y0134109D01*
X0077167Y0134107D01*
X0077064Y0134109D01*
X0076961Y0134115D01*
X0076858Y0134125D01*
X0076756Y0134139D01*
X0076654Y0134156D01*
X0076553Y0134178D01*
X0076453Y0134203D01*
X0076354Y0134233D01*
X0076257Y0134266D01*
X0076160Y0134302D01*
X0076065Y0134343D01*
X0075972Y0134387D01*
X0075881Y0134434D01*
X0075791Y0134485D01*
X0075703Y0134540D01*
X0075618Y0134597D01*
X0075534Y0134658D01*
X0075454Y0134722D01*
X0075375Y0134790D01*
X0075300Y0134860D01*
X0075227Y0134933D01*
X0075157Y0135008D01*
X0075089Y0135087D01*
X0075025Y0135167D01*
X0074964Y0135251D01*
X0074907Y0135336D01*
X0074852Y0135424D01*
X0074801Y0135514D01*
X0074754Y0135605D01*
X0074710Y0135698D01*
X0074669Y0135793D01*
X0074633Y0135890D01*
X0074600Y0135987D01*
X0074570Y0136086D01*
X0074545Y0136186D01*
X0074523Y0136287D01*
X0074506Y0136389D01*
X0074492Y0136491D01*
X0074482Y0136594D01*
X0074476Y0136697D01*
X0074474Y0136800D01*
X0076460Y0136800D02*
X0076462Y0136853D01*
X0076468Y0136905D01*
X0076478Y0136957D01*
X0076491Y0137008D01*
X0076509Y0137058D01*
X0076530Y0137107D01*
X0076555Y0137154D01*
X0076583Y0137198D01*
X0076614Y0137241D01*
X0076649Y0137281D01*
X0076686Y0137318D01*
X0076726Y0137353D01*
X0076769Y0137384D01*
X0076814Y0137412D01*
X0076860Y0137437D01*
X0076909Y0137458D01*
X0076959Y0137476D01*
X0077010Y0137489D01*
X0077062Y0137499D01*
X0077114Y0137505D01*
X0077167Y0137507D01*
X0077220Y0137505D01*
X0077272Y0137499D01*
X0077324Y0137489D01*
X0077375Y0137476D01*
X0077425Y0137458D01*
X0077474Y0137437D01*
X0077521Y0137412D01*
X0077565Y0137384D01*
X0077608Y0137353D01*
X0077648Y0137318D01*
X0077685Y0137281D01*
X0077720Y0137241D01*
X0077751Y0137198D01*
X0077779Y0137153D01*
X0077804Y0137107D01*
X0077825Y0137058D01*
X0077843Y0137008D01*
X0077856Y0136957D01*
X0077866Y0136905D01*
X0077872Y0136853D01*
X0077874Y0136800D01*
X0077872Y0136747D01*
X0077866Y0136695D01*
X0077856Y0136643D01*
X0077843Y0136592D01*
X0077825Y0136542D01*
X0077804Y0136493D01*
X0077779Y0136446D01*
X0077751Y0136402D01*
X0077720Y0136359D01*
X0077685Y0136319D01*
X0077648Y0136282D01*
X0077608Y0136247D01*
X0077565Y0136216D01*
X0077520Y0136188D01*
X0077474Y0136163D01*
X0077425Y0136142D01*
X0077375Y0136124D01*
X0077324Y0136111D01*
X0077272Y0136101D01*
X0077220Y0136095D01*
X0077167Y0136093D01*
X0077114Y0136095D01*
X0077062Y0136101D01*
X0077010Y0136111D01*
X0076959Y0136124D01*
X0076909Y0136142D01*
X0076860Y0136163D01*
X0076813Y0136188D01*
X0076769Y0136216D01*
X0076726Y0136247D01*
X0076686Y0136282D01*
X0076649Y0136319D01*
X0076614Y0136359D01*
X0076583Y0136402D01*
X0076555Y0136447D01*
X0076530Y0136493D01*
X0076509Y0136542D01*
X0076491Y0136592D01*
X0076478Y0136643D01*
X0076468Y0136695D01*
X0076462Y0136747D01*
X0076460Y0136800D01*
X0074474Y0136800D02*
X0074476Y0136903D01*
X0074482Y0137006D01*
X0074492Y0137109D01*
X0074506Y0137211D01*
X0074523Y0137313D01*
X0074545Y0137414D01*
X0074570Y0137514D01*
X0074600Y0137613D01*
X0074633Y0137710D01*
X0074669Y0137807D01*
X0074710Y0137902D01*
X0074754Y0137995D01*
X0074801Y0138086D01*
X0074852Y0138176D01*
X0074907Y0138264D01*
X0074964Y0138349D01*
X0075025Y0138433D01*
X0075089Y0138513D01*
X0075157Y0138592D01*
X0075227Y0138667D01*
X0075300Y0138740D01*
X0075375Y0138810D01*
X0075454Y0138878D01*
X0075534Y0138942D01*
X0075618Y0139003D01*
X0075703Y0139060D01*
X0075791Y0139115D01*
X0075881Y0139166D01*
X0075972Y0139213D01*
X0076065Y0139257D01*
X0076160Y0139298D01*
X0076257Y0139334D01*
X0076354Y0139367D01*
X0076453Y0139397D01*
X0076553Y0139422D01*
X0076654Y0139444D01*
X0076756Y0139461D01*
X0076858Y0139475D01*
X0076961Y0139485D01*
X0077064Y0139491D01*
X0077167Y0139493D01*
X0077270Y0139491D01*
X0077373Y0139485D01*
X0077476Y0139475D01*
X0077578Y0139461D01*
X0077680Y0139444D01*
X0077781Y0139422D01*
X0077881Y0139397D01*
X0077980Y0139367D01*
X0078077Y0139334D01*
X0078174Y0139298D01*
X0078269Y0139257D01*
X0078362Y0139213D01*
X0078453Y0139166D01*
X0078543Y0139115D01*
X0078631Y0139060D01*
X0078716Y0139003D01*
X0078800Y0138942D01*
X0078880Y0138878D01*
X0078959Y0138810D01*
X0079034Y0138740D01*
X0079107Y0138667D01*
X0079177Y0138592D01*
X0079245Y0138513D01*
X0079309Y0138433D01*
X0079370Y0138349D01*
X0079427Y0138264D01*
X0079482Y0138176D01*
X0079533Y0138086D01*
X0079580Y0137995D01*
X0079624Y0137902D01*
X0079665Y0137807D01*
X0079701Y0137710D01*
X0079734Y0137613D01*
X0079764Y0137514D01*
X0079789Y0137414D01*
X0079811Y0137313D01*
X0079828Y0137211D01*
X0079842Y0137109D01*
X0079852Y0137006D01*
X0079858Y0136903D01*
X0079860Y0136800D01*
X0079858Y0136697D01*
X0079852Y0136594D01*
X0079842Y0136491D01*
X0079828Y0136389D01*
X0079811Y0136287D01*
X0079789Y0136186D01*
X0079764Y0136086D01*
X0079734Y0135987D01*
X0079701Y0135890D01*
X0079665Y0135793D01*
X0079624Y0135698D01*
X0079580Y0135605D01*
X0079533Y0135514D01*
X0079482Y0135424D01*
X0079427Y0135336D01*
X0079370Y0135251D01*
X0079309Y0135167D01*
X0079245Y0135087D01*
X0079177Y0135008D01*
X0079107Y0134933D01*
X0079034Y0134860D01*
X0078959Y0134790D01*
X0078880Y0134722D01*
X0078800Y0134658D01*
X0078716Y0134597D01*
X0078631Y0134540D01*
X0078543Y0134485D01*
X0078453Y0134434D01*
X0078362Y0134387D01*
X0078269Y0134343D01*
X0078174Y0134302D01*
X0078077Y0134266D01*
X0077980Y0134233D01*
X0077881Y0134203D01*
X0077781Y0134178D01*
X0077680Y0134156D01*
X0077578Y0134139D01*
X0077476Y0134125D01*
X0077373Y0134115D01*
X0077270Y0134109D01*
X0077167Y0134107D01*
X0077064Y0134109D01*
X0076961Y0134115D01*
X0076858Y0134125D01*
X0076756Y0134139D01*
X0076654Y0134156D01*
X0076553Y0134178D01*
X0076453Y0134203D01*
X0076354Y0134233D01*
X0076257Y0134266D01*
X0076160Y0134302D01*
X0076065Y0134343D01*
X0075972Y0134387D01*
X0075881Y0134434D01*
X0075791Y0134485D01*
X0075703Y0134540D01*
X0075618Y0134597D01*
X0075534Y0134658D01*
X0075454Y0134722D01*
X0075375Y0134790D01*
X0075300Y0134860D01*
X0075227Y0134933D01*
X0075157Y0135008D01*
X0075089Y0135087D01*
X0075025Y0135167D01*
X0074964Y0135251D01*
X0074907Y0135336D01*
X0074852Y0135424D01*
X0074801Y0135514D01*
X0074754Y0135605D01*
X0074710Y0135698D01*
X0074669Y0135793D01*
X0074633Y0135890D01*
X0074600Y0135987D01*
X0074570Y0136086D01*
X0074545Y0136186D01*
X0074523Y0136287D01*
X0074506Y0136389D01*
X0074492Y0136491D01*
X0074482Y0136594D01*
X0074476Y0136697D01*
X0074474Y0136800D01*
X0073167Y0132800D02*
X0073062Y0132907D01*
X0072961Y0133017D01*
X0072862Y0133130D01*
X0072766Y0133245D01*
X0072674Y0133363D01*
X0072585Y0133483D01*
X0072498Y0133605D01*
X0072415Y0133730D01*
X0072336Y0133857D01*
X0072260Y0133986D01*
X0072187Y0134117D01*
X0072118Y0134250D01*
X0072052Y0134384D01*
X0071990Y0134520D01*
X0071931Y0134658D01*
X0071876Y0134798D01*
X0071825Y0134938D01*
X0071778Y0135080D01*
X0071734Y0135224D01*
X0071694Y0135368D01*
X0071658Y0135513D01*
X0071626Y0135660D01*
X0071598Y0135807D01*
X0071574Y0135955D01*
X0071553Y0136103D01*
X0071537Y0136252D01*
X0071524Y0136401D01*
X0071516Y0136550D01*
X0071511Y0136700D01*
X0071510Y0136850D01*
X0071514Y0137000D01*
X0071521Y0137149D01*
X0071532Y0137299D01*
X0071547Y0137448D01*
X0071566Y0137596D01*
X0071589Y0137744D01*
X0071616Y0137891D01*
X0071647Y0138038D01*
X0071682Y0138184D01*
X0071720Y0138328D01*
X0071763Y0138472D01*
X0071809Y0138614D01*
X0071859Y0138756D01*
X0071912Y0138895D01*
X0071970Y0139034D01*
X0072031Y0139171D01*
X0072095Y0139306D01*
X0072163Y0139439D01*
X0072235Y0139571D01*
X0072310Y0139700D01*
X0072388Y0139828D01*
X0072470Y0139953D01*
X0072555Y0140076D01*
X0072644Y0140197D01*
X0072735Y0140316D01*
X0072830Y0140432D01*
X0072928Y0140546D01*
X0073028Y0140656D01*
X0073132Y0140765D01*
X0073238Y0140870D01*
X0073347Y0140973D01*
X0073459Y0141072D01*
X0073573Y0141169D01*
X0073690Y0141263D01*
X0073810Y0141353D01*
X0073931Y0141440D01*
X0074055Y0141524D01*
X0074181Y0141605D01*
X0074310Y0141682D01*
X0074440Y0141756D01*
X0074572Y0141827D01*
X0074706Y0141894D01*
X0074842Y0141957D01*
X0074979Y0142017D01*
X0075118Y0142073D01*
X0075258Y0142125D01*
X0075400Y0142174D01*
X0075543Y0142219D01*
X0075687Y0142260D01*
X0075832Y0142297D01*
X0075978Y0142331D01*
X0076125Y0142360D01*
X0076272Y0142386D01*
X0076420Y0142408D01*
X0076569Y0142425D01*
X0076718Y0142439D01*
X0076868Y0142449D01*
X0077017Y0142455D01*
X0077167Y0142457D01*
X0077317Y0142455D01*
X0077466Y0142449D01*
X0077616Y0142439D01*
X0077765Y0142425D01*
X0077914Y0142408D01*
X0078062Y0142386D01*
X0078209Y0142360D01*
X0078356Y0142331D01*
X0078502Y0142297D01*
X0078647Y0142260D01*
X0078791Y0142219D01*
X0078934Y0142174D01*
X0079076Y0142125D01*
X0079216Y0142073D01*
X0079355Y0142017D01*
X0079492Y0141957D01*
X0079628Y0141894D01*
X0079762Y0141827D01*
X0079894Y0141756D01*
X0080024Y0141682D01*
X0080153Y0141605D01*
X0080279Y0141524D01*
X0080403Y0141440D01*
X0080524Y0141353D01*
X0080644Y0141263D01*
X0080761Y0141169D01*
X0080875Y0141072D01*
X0080987Y0140973D01*
X0081096Y0140870D01*
X0081202Y0140765D01*
X0081306Y0140656D01*
X0081406Y0140546D01*
X0081504Y0140432D01*
X0081599Y0140316D01*
X0081690Y0140197D01*
X0081779Y0140076D01*
X0081864Y0139953D01*
X0081946Y0139828D01*
X0082024Y0139700D01*
X0082099Y0139571D01*
X0082171Y0139439D01*
X0082239Y0139306D01*
X0082303Y0139171D01*
X0082364Y0139034D01*
X0082422Y0138895D01*
X0082475Y0138756D01*
X0082525Y0138614D01*
X0082571Y0138472D01*
X0082614Y0138328D01*
X0082652Y0138184D01*
X0082687Y0138038D01*
X0082718Y0137891D01*
X0082745Y0137744D01*
X0082768Y0137596D01*
X0082787Y0137448D01*
X0082802Y0137299D01*
X0082813Y0137149D01*
X0082820Y0137000D01*
X0082824Y0136850D01*
X0082823Y0136700D01*
X0082818Y0136550D01*
X0082810Y0136401D01*
X0082797Y0136252D01*
X0082781Y0136103D01*
X0082760Y0135955D01*
X0082736Y0135807D01*
X0082708Y0135660D01*
X0082676Y0135513D01*
X0082640Y0135368D01*
X0082600Y0135224D01*
X0082556Y0135080D01*
X0082509Y0134938D01*
X0082458Y0134798D01*
X0082403Y0134658D01*
X0082344Y0134520D01*
X0082282Y0134384D01*
X0082216Y0134250D01*
X0082147Y0134117D01*
X0082074Y0133986D01*
X0081998Y0133857D01*
X0081919Y0133730D01*
X0081836Y0133605D01*
X0081749Y0133483D01*
X0081660Y0133363D01*
X0081568Y0133245D01*
X0081472Y0133130D01*
X0081373Y0133017D01*
X0081272Y0132907D01*
X0081167Y0132800D01*
X0081272Y0132907D01*
X0081373Y0133017D01*
X0081472Y0133130D01*
X0081568Y0133245D01*
X0081660Y0133363D01*
X0081749Y0133483D01*
X0081836Y0133605D01*
X0081919Y0133730D01*
X0081998Y0133857D01*
X0082074Y0133986D01*
X0082147Y0134117D01*
X0082216Y0134250D01*
X0082282Y0134384D01*
X0082344Y0134520D01*
X0082403Y0134658D01*
X0082458Y0134798D01*
X0082509Y0134938D01*
X0082556Y0135080D01*
X0082600Y0135224D01*
X0082640Y0135368D01*
X0082676Y0135513D01*
X0082708Y0135660D01*
X0082736Y0135807D01*
X0082760Y0135955D01*
X0082781Y0136103D01*
X0082797Y0136252D01*
X0082810Y0136401D01*
X0082818Y0136550D01*
X0082823Y0136700D01*
X0082824Y0136850D01*
X0082820Y0137000D01*
X0082813Y0137149D01*
X0082802Y0137299D01*
X0082787Y0137448D01*
X0082768Y0137596D01*
X0082745Y0137744D01*
X0082718Y0137891D01*
X0082687Y0138038D01*
X0082652Y0138184D01*
X0082614Y0138328D01*
X0082571Y0138472D01*
X0082525Y0138614D01*
X0082475Y0138756D01*
X0082422Y0138895D01*
X0082364Y0139034D01*
X0082303Y0139171D01*
X0082239Y0139306D01*
X0082171Y0139439D01*
X0082099Y0139571D01*
X0082024Y0139700D01*
X0081946Y0139828D01*
X0081864Y0139953D01*
X0081779Y0140076D01*
X0081690Y0140197D01*
X0081599Y0140316D01*
X0081504Y0140432D01*
X0081406Y0140546D01*
X0081306Y0140656D01*
X0081202Y0140765D01*
X0081096Y0140870D01*
X0080987Y0140973D01*
X0080875Y0141072D01*
X0080761Y0141169D01*
X0080644Y0141263D01*
X0080524Y0141353D01*
X0080403Y0141440D01*
X0080279Y0141524D01*
X0080153Y0141605D01*
X0080024Y0141682D01*
X0079894Y0141756D01*
X0079762Y0141827D01*
X0079628Y0141894D01*
X0079492Y0141957D01*
X0079355Y0142017D01*
X0079216Y0142073D01*
X0079076Y0142125D01*
X0078934Y0142174D01*
X0078791Y0142219D01*
X0078647Y0142260D01*
X0078502Y0142297D01*
X0078356Y0142331D01*
X0078209Y0142360D01*
X0078062Y0142386D01*
X0077914Y0142408D01*
X0077765Y0142425D01*
X0077616Y0142439D01*
X0077466Y0142449D01*
X0077317Y0142455D01*
X0077167Y0142457D01*
X0077017Y0142455D01*
X0076868Y0142449D01*
X0076718Y0142439D01*
X0076569Y0142425D01*
X0076420Y0142408D01*
X0076272Y0142386D01*
X0076125Y0142360D01*
X0075978Y0142331D01*
X0075832Y0142297D01*
X0075687Y0142260D01*
X0075543Y0142219D01*
X0075400Y0142174D01*
X0075258Y0142125D01*
X0075118Y0142073D01*
X0074979Y0142017D01*
X0074842Y0141957D01*
X0074706Y0141894D01*
X0074572Y0141827D01*
X0074440Y0141756D01*
X0074310Y0141682D01*
X0074181Y0141605D01*
X0074055Y0141524D01*
X0073931Y0141440D01*
X0073810Y0141353D01*
X0073690Y0141263D01*
X0073573Y0141169D01*
X0073459Y0141072D01*
X0073347Y0140973D01*
X0073238Y0140870D01*
X0073132Y0140765D01*
X0073028Y0140656D01*
X0072928Y0140546D01*
X0072830Y0140432D01*
X0072735Y0140316D01*
X0072644Y0140197D01*
X0072555Y0140076D01*
X0072470Y0139953D01*
X0072388Y0139828D01*
X0072310Y0139700D01*
X0072235Y0139571D01*
X0072163Y0139439D01*
X0072095Y0139306D01*
X0072031Y0139171D01*
X0071970Y0139034D01*
X0071912Y0138895D01*
X0071859Y0138756D01*
X0071809Y0138614D01*
X0071763Y0138472D01*
X0071720Y0138328D01*
X0071682Y0138184D01*
X0071647Y0138038D01*
X0071616Y0137891D01*
X0071589Y0137744D01*
X0071566Y0137596D01*
X0071547Y0137448D01*
X0071532Y0137299D01*
X0071521Y0137149D01*
X0071514Y0137000D01*
X0071510Y0136850D01*
X0071511Y0136700D01*
X0071516Y0136550D01*
X0071524Y0136401D01*
X0071537Y0136252D01*
X0071553Y0136103D01*
X0071574Y0135955D01*
X0071598Y0135807D01*
X0071626Y0135660D01*
X0071658Y0135513D01*
X0071694Y0135368D01*
X0071734Y0135224D01*
X0071778Y0135080D01*
X0071825Y0134938D01*
X0071876Y0134798D01*
X0071931Y0134658D01*
X0071990Y0134520D01*
X0072052Y0134384D01*
X0072118Y0134250D01*
X0072187Y0134117D01*
X0072260Y0133986D01*
X0072336Y0133857D01*
X0072415Y0133730D01*
X0072498Y0133605D01*
X0072585Y0133483D01*
X0072674Y0133363D01*
X0072766Y0133245D01*
X0072862Y0133130D01*
X0072961Y0133017D01*
X0073062Y0132907D01*
X0073167Y0132800D01*
X0077167Y0142800D02*
X0076167Y0144300D01*
X0077167Y0142800D02*
X0078167Y0144300D01*
X0077167Y0142800D02*
X0077167Y0151800D01*
X0077167Y0152800D02*
X0077167Y0156800D01*
X0074252Y0154800D02*
X0074254Y0154908D01*
X0074260Y0155015D01*
X0074270Y0155123D01*
X0074284Y0155229D01*
X0074302Y0155336D01*
X0074323Y0155441D01*
X0074349Y0155546D01*
X0074378Y0155649D01*
X0074412Y0155752D01*
X0074449Y0155853D01*
X0074490Y0155953D01*
X0074534Y0156051D01*
X0074582Y0156147D01*
X0074634Y0156242D01*
X0074689Y0156335D01*
X0074747Y0156425D01*
X0074809Y0156513D01*
X0074874Y0156599D01*
X0074942Y0156683D01*
X0075013Y0156764D01*
X0075087Y0156842D01*
X0075164Y0156918D01*
X0075243Y0156990D01*
X0075326Y0157060D01*
X0075410Y0157126D01*
X0075497Y0157190D01*
X0075587Y0157250D01*
X0075679Y0157306D01*
X0075772Y0157360D01*
X0075868Y0157409D01*
X0075965Y0157456D01*
X0076064Y0157498D01*
X0076164Y0157537D01*
X0076266Y0157572D01*
X0076369Y0157604D01*
X0076473Y0157631D01*
X0076579Y0157655D01*
X0076684Y0157675D01*
X0076791Y0157691D01*
X0076898Y0157703D01*
X0077005Y0157711D01*
X0077113Y0157715D01*
X0077221Y0157715D01*
X0077329Y0157711D01*
X0077436Y0157703D01*
X0077543Y0157691D01*
X0077650Y0157675D01*
X0077755Y0157655D01*
X0077861Y0157631D01*
X0077965Y0157604D01*
X0078068Y0157572D01*
X0078170Y0157537D01*
X0078270Y0157498D01*
X0078369Y0157456D01*
X0078466Y0157409D01*
X0078562Y0157360D01*
X0078655Y0157306D01*
X0078747Y0157250D01*
X0078837Y0157190D01*
X0078924Y0157126D01*
X0079008Y0157060D01*
X0079091Y0156990D01*
X0079170Y0156918D01*
X0079247Y0156842D01*
X0079321Y0156764D01*
X0079392Y0156683D01*
X0079460Y0156599D01*
X0079525Y0156513D01*
X0079587Y0156425D01*
X0079645Y0156335D01*
X0079700Y0156242D01*
X0079752Y0156147D01*
X0079800Y0156051D01*
X0079844Y0155953D01*
X0079885Y0155853D01*
X0079922Y0155752D01*
X0079956Y0155649D01*
X0079985Y0155546D01*
X0080011Y0155441D01*
X0080032Y0155336D01*
X0080050Y0155229D01*
X0080064Y0155123D01*
X0080074Y0155015D01*
X0080080Y0154908D01*
X0080082Y0154800D01*
X0080080Y0154692D01*
X0080074Y0154585D01*
X0080064Y0154477D01*
X0080050Y0154371D01*
X0080032Y0154264D01*
X0080011Y0154159D01*
X0079985Y0154054D01*
X0079956Y0153951D01*
X0079922Y0153848D01*
X0079885Y0153747D01*
X0079844Y0153647D01*
X0079800Y0153549D01*
X0079752Y0153453D01*
X0079700Y0153358D01*
X0079645Y0153265D01*
X0079587Y0153175D01*
X0079525Y0153087D01*
X0079460Y0153001D01*
X0079392Y0152917D01*
X0079321Y0152836D01*
X0079247Y0152758D01*
X0079170Y0152682D01*
X0079091Y0152610D01*
X0079008Y0152540D01*
X0078924Y0152474D01*
X0078837Y0152410D01*
X0078747Y0152350D01*
X0078655Y0152294D01*
X0078562Y0152240D01*
X0078466Y0152191D01*
X0078369Y0152144D01*
X0078270Y0152102D01*
X0078170Y0152063D01*
X0078068Y0152028D01*
X0077965Y0151996D01*
X0077861Y0151969D01*
X0077755Y0151945D01*
X0077650Y0151925D01*
X0077543Y0151909D01*
X0077436Y0151897D01*
X0077329Y0151889D01*
X0077221Y0151885D01*
X0077113Y0151885D01*
X0077005Y0151889D01*
X0076898Y0151897D01*
X0076791Y0151909D01*
X0076684Y0151925D01*
X0076579Y0151945D01*
X0076473Y0151969D01*
X0076369Y0151996D01*
X0076266Y0152028D01*
X0076164Y0152063D01*
X0076064Y0152102D01*
X0075965Y0152144D01*
X0075868Y0152191D01*
X0075772Y0152240D01*
X0075679Y0152294D01*
X0075587Y0152350D01*
X0075497Y0152410D01*
X0075410Y0152474D01*
X0075326Y0152540D01*
X0075243Y0152610D01*
X0075164Y0152682D01*
X0075087Y0152758D01*
X0075013Y0152836D01*
X0074942Y0152917D01*
X0074874Y0153001D01*
X0074809Y0153087D01*
X0074747Y0153175D01*
X0074689Y0153265D01*
X0074634Y0153358D01*
X0074582Y0153453D01*
X0074534Y0153549D01*
X0074490Y0153647D01*
X0074449Y0153747D01*
X0074412Y0153848D01*
X0074378Y0153951D01*
X0074349Y0154054D01*
X0074323Y0154159D01*
X0074302Y0154264D01*
X0074284Y0154371D01*
X0074270Y0154477D01*
X0074260Y0154585D01*
X0074254Y0154692D01*
X0074252Y0154800D01*
X0074254Y0154908D01*
X0074260Y0155015D01*
X0074270Y0155123D01*
X0074284Y0155229D01*
X0074302Y0155336D01*
X0074323Y0155441D01*
X0074349Y0155546D01*
X0074378Y0155649D01*
X0074412Y0155752D01*
X0074449Y0155853D01*
X0074490Y0155953D01*
X0074534Y0156051D01*
X0074582Y0156147D01*
X0074634Y0156242D01*
X0074689Y0156335D01*
X0074747Y0156425D01*
X0074809Y0156513D01*
X0074874Y0156599D01*
X0074942Y0156683D01*
X0075013Y0156764D01*
X0075087Y0156842D01*
X0075164Y0156918D01*
X0075243Y0156990D01*
X0075326Y0157060D01*
X0075410Y0157126D01*
X0075497Y0157190D01*
X0075587Y0157250D01*
X0075679Y0157306D01*
X0075772Y0157360D01*
X0075868Y0157409D01*
X0075965Y0157456D01*
X0076064Y0157498D01*
X0076164Y0157537D01*
X0076266Y0157572D01*
X0076369Y0157604D01*
X0076473Y0157631D01*
X0076579Y0157655D01*
X0076684Y0157675D01*
X0076791Y0157691D01*
X0076898Y0157703D01*
X0077005Y0157711D01*
X0077113Y0157715D01*
X0077221Y0157715D01*
X0077329Y0157711D01*
X0077436Y0157703D01*
X0077543Y0157691D01*
X0077650Y0157675D01*
X0077755Y0157655D01*
X0077861Y0157631D01*
X0077965Y0157604D01*
X0078068Y0157572D01*
X0078170Y0157537D01*
X0078270Y0157498D01*
X0078369Y0157456D01*
X0078466Y0157409D01*
X0078562Y0157360D01*
X0078655Y0157306D01*
X0078747Y0157250D01*
X0078837Y0157190D01*
X0078924Y0157126D01*
X0079008Y0157060D01*
X0079091Y0156990D01*
X0079170Y0156918D01*
X0079247Y0156842D01*
X0079321Y0156764D01*
X0079392Y0156683D01*
X0079460Y0156599D01*
X0079525Y0156513D01*
X0079587Y0156425D01*
X0079645Y0156335D01*
X0079700Y0156242D01*
X0079752Y0156147D01*
X0079800Y0156051D01*
X0079844Y0155953D01*
X0079885Y0155853D01*
X0079922Y0155752D01*
X0079956Y0155649D01*
X0079985Y0155546D01*
X0080011Y0155441D01*
X0080032Y0155336D01*
X0080050Y0155229D01*
X0080064Y0155123D01*
X0080074Y0155015D01*
X0080080Y0154908D01*
X0080082Y0154800D01*
X0080080Y0154692D01*
X0080074Y0154585D01*
X0080064Y0154477D01*
X0080050Y0154371D01*
X0080032Y0154264D01*
X0080011Y0154159D01*
X0079985Y0154054D01*
X0079956Y0153951D01*
X0079922Y0153848D01*
X0079885Y0153747D01*
X0079844Y0153647D01*
X0079800Y0153549D01*
X0079752Y0153453D01*
X0079700Y0153358D01*
X0079645Y0153265D01*
X0079587Y0153175D01*
X0079525Y0153087D01*
X0079460Y0153001D01*
X0079392Y0152917D01*
X0079321Y0152836D01*
X0079247Y0152758D01*
X0079170Y0152682D01*
X0079091Y0152610D01*
X0079008Y0152540D01*
X0078924Y0152474D01*
X0078837Y0152410D01*
X0078747Y0152350D01*
X0078655Y0152294D01*
X0078562Y0152240D01*
X0078466Y0152191D01*
X0078369Y0152144D01*
X0078270Y0152102D01*
X0078170Y0152063D01*
X0078068Y0152028D01*
X0077965Y0151996D01*
X0077861Y0151969D01*
X0077755Y0151945D01*
X0077650Y0151925D01*
X0077543Y0151909D01*
X0077436Y0151897D01*
X0077329Y0151889D01*
X0077221Y0151885D01*
X0077113Y0151885D01*
X0077005Y0151889D01*
X0076898Y0151897D01*
X0076791Y0151909D01*
X0076684Y0151925D01*
X0076579Y0151945D01*
X0076473Y0151969D01*
X0076369Y0151996D01*
X0076266Y0152028D01*
X0076164Y0152063D01*
X0076064Y0152102D01*
X0075965Y0152144D01*
X0075868Y0152191D01*
X0075772Y0152240D01*
X0075679Y0152294D01*
X0075587Y0152350D01*
X0075497Y0152410D01*
X0075410Y0152474D01*
X0075326Y0152540D01*
X0075243Y0152610D01*
X0075164Y0152682D01*
X0075087Y0152758D01*
X0075013Y0152836D01*
X0074942Y0152917D01*
X0074874Y0153001D01*
X0074809Y0153087D01*
X0074747Y0153175D01*
X0074689Y0153265D01*
X0074634Y0153358D01*
X0074582Y0153453D01*
X0074534Y0153549D01*
X0074490Y0153647D01*
X0074449Y0153747D01*
X0074412Y0153848D01*
X0074378Y0153951D01*
X0074349Y0154054D01*
X0074323Y0154159D01*
X0074302Y0154264D01*
X0074284Y0154371D01*
X0074270Y0154477D01*
X0074260Y0154585D01*
X0074254Y0154692D01*
X0074252Y0154800D01*
X0016419Y0107956D02*
X0014751Y0107956D01*
X0013917Y0107122D01*
X0014751Y0106288D01*
X0016419Y0106288D01*
X0016419Y0104776D02*
X0013917Y0104776D01*
X0015168Y0105193D02*
X0015168Y0103525D01*
X0016419Y0104776D01*
X0014334Y0102561D02*
X0013917Y0102561D01*
X0013917Y0102144D01*
X0014334Y0102144D01*
X0014334Y0102561D01*
X0015168Y0101050D02*
X0015168Y0099382D01*
X0016419Y0100633D01*
X0013917Y0100633D01*
X0015168Y0098287D02*
X0015168Y0096619D01*
X0014751Y0095525D02*
X0013917Y0094691D01*
X0014751Y0093857D01*
X0016419Y0093857D01*
X0016419Y0092346D02*
X0013917Y0092346D01*
X0015168Y0092763D02*
X0015168Y0091095D01*
X0016419Y0092346D01*
X0014334Y0090130D02*
X0013917Y0090130D01*
X0013917Y0089713D01*
X0014334Y0089713D01*
X0014334Y0090130D01*
X0014334Y0088619D02*
X0013917Y0088202D01*
X0013917Y0087368D01*
X0014334Y0086951D01*
X0015168Y0087785D02*
X0015168Y0088202D01*
X0014751Y0088619D01*
X0014334Y0088619D01*
X0015168Y0088202D02*
X0015585Y0088619D01*
X0016002Y0088619D01*
X0016419Y0088202D01*
X0016419Y0087368D01*
X0016002Y0086951D01*
X0016419Y0095525D02*
X0014751Y0095525D01*
D102*
X0128041Y0030689D02*
X0131111Y0030689D01*
X0129576Y0030689D02*
X0129576Y0035293D01*
X0131111Y0033758D01*
X0132645Y0035293D02*
X0134180Y0035293D01*
X0133413Y0035293D02*
X0133413Y0031456D01*
X0134180Y0030689D01*
X0134947Y0030689D01*
X0135715Y0031456D01*
D103*
X0145925Y0077207D02*
X0146893Y0077207D01*
X0147377Y0077690D01*
X0148388Y0077690D02*
X0148388Y0079625D01*
X0148872Y0080109D01*
X0150323Y0080109D01*
X0150323Y0077207D01*
X0148872Y0077207D01*
X0148388Y0077690D01*
X0147377Y0079625D02*
X0146893Y0080109D01*
X0145925Y0080109D01*
X0145442Y0079625D01*
X0145442Y0079142D01*
X0145925Y0078658D01*
X0145442Y0078174D01*
X0145442Y0077690D01*
X0145925Y0077207D01*
X0145925Y0078658D02*
X0146409Y0078658D01*
X0145442Y0084207D02*
X0147377Y0084207D01*
X0145442Y0086142D01*
X0145442Y0086625D01*
X0145925Y0087109D01*
X0146893Y0087109D01*
X0147377Y0086625D01*
X0148388Y0086625D02*
X0148872Y0087109D01*
X0150323Y0087109D01*
X0150323Y0084207D01*
X0148872Y0084207D01*
X0148388Y0084690D01*
X0148388Y0086625D01*
X0126213Y0080373D02*
X0126213Y0077470D01*
X0124762Y0077470D01*
X0124278Y0077954D01*
X0124278Y0079889D01*
X0124762Y0080373D01*
X0126213Y0080373D01*
X0123266Y0079405D02*
X0122299Y0080373D01*
X0122299Y0077470D01*
X0123266Y0077470D02*
X0121331Y0077470D01*
M02*
