%
M48
M72
T01C0.01200
T02C0.02362
T03C0.03200
T04C0.03500
T05C0.04000
T06C0.07874
T07C0.10000
%
T01
X46067Y10300
X46167Y13900
X61667Y18300
X69667Y20800
X60667Y26800
X57167Y28800
X54167Y30800
X52167Y36900
X50667Y39900
X59167Y48800
X62767Y48800
X59167Y57900
X55667Y57900
X55667Y60900
X59167Y60900
X63167Y60900
X59667Y66400
X68167Y65300
X79667Y61300
X80167Y57300
X89167Y60800
X89667Y65800
X93667Y73300
X98667Y79300
X104167Y80800
X113167Y74300
X118367Y74400
X123667Y74300
X121167Y69800
X116067Y69800
X109567Y69800
X127267Y69600
X138167Y75800
X133167Y79300
X127667Y78800
X118167Y82800
X115667Y93300
X102467Y101200
X99067Y97600
X95367Y95400
X90667Y94900
X86467Y95200
X82267Y95400
X75867Y97300
X71667Y97300
X68167Y93300
X62867Y92800
X57867Y93400
X55767Y98000
X54067Y103100
X54567Y107700
X55667Y112300
X70667Y111800
X72667Y107800
X77667Y107300
X83167Y106300
X86667Y82500
X111267Y56900
X116367Y56800
X121367Y56800
X131667Y55800
X137167Y52300
X141167Y53800
X141067Y57300
X150167Y58800
X158667Y54800
X162167Y54800
X159667Y63800
X159667Y67300
X159567Y70800
X175967Y73700
X185167Y83800
X169467Y98200
X172967Y100200
X165367Y111200
X159667Y111300
X142167Y92800
X204267Y110700
X232467Y111900
X243267Y101100
X212667Y81900
X216267Y75300
X222267Y72900
X225867Y75900
X237267Y58500
X234867Y35700
X224667Y30900
X215667Y33300
X197067Y45300
X188367Y33900
X173567Y21800
X163667Y21800
X163667Y18400
X163767Y14500
X173367Y10700
X188167Y10900
X188167Y20200
X154667Y37300
X150167Y39300
X153667Y32300
X149667Y20600
X153167Y20500
X133667Y21300
X128267Y21900
X124267Y21900
X111167Y22800
X96667Y29900
X93167Y29800
X83167Y29800
X90667Y37300
X101167Y42300
X107167Y42300
X104567Y47300
X110567Y47300
X119567Y42800
X122567Y45800
X128167Y32300
X143667Y45800
X98667Y49300
X84167Y15900
X81667Y9400
X77767Y9400
X73867Y9500
X30667Y88800
X19667Y92800
X19167Y99300
X19167Y103300
X26167Y101800
X147267Y132900
X204267Y138300
X245067Y25500
T02
X49167Y75300
T03
X52167Y122300
X40167Y141800
X64667Y141800
T04
X255167Y138800
X255167Y148800
X255167Y128800
X255167Y118800
T05
X180167Y108800
X180167Y98800
X180167Y88800
X180167Y78800
X180167Y68800
X180167Y58800
X180167Y48800
X180167Y38800
X180167Y28800
X211667Y10800
X221667Y10800
X231667Y10800
X241667Y10800
X251667Y10800
X261667Y10800
T06
X14667Y22300
X14667Y161300
X268667Y161300
X268667Y22300
T07
X37667Y13800
M30
